<svg xmlns="http://www.w3.org/2000/svg" width="128" height="140" viewBox="0 0 128 140">
  <path fill="none" stroke="#404040" d="M94.309888,76.1459961 C94.309888,86.217661 92.1600072,94.071505 87.860181,99.7077637 C83.5603548,105.344022 77.5561831,108.162109 69.8474857,108.162109 C63.0297432,108.162109 57.5872521,105.547389 53.5198489,100.317871 L52.7644778,107 L37.657056,107 L37.657056,17.75 L54.4495364,17.75 L54.4495364,49.7661133 C58.3232537,45.2338641 63.4171155,42.9677734 69.7312747,42.9677734 C77.4012349,42.9677734 83.4150908,45.7858605 87.7730228,51.4221191 C92.1309547,57.0583778 94.309888,64.989695 94.309888,75.2163086 L94.309888,76.1459961 Z M77.5174075,74.9257812 C77.5174075,68.5728849 76.5102561,63.934178 74.4959232,61.0095215 C72.4815902,58.0848649 69.4795043,56.6225586 65.4895755,56.6225586 C60.1438457,56.6225586 56.4638694,58.811176 54.4495364,63.1884766 L54.4495364,87.9995117 C56.5026066,92.4155494 60.2213194,94.6235352 65.6057864,94.6235352 C71.0289906,94.6235352 74.5927571,91.9507103 76.2971927,86.6049805 C77.1106733,84.0483271 77.5174075,80.1552996 77.5174075,74.9257812 Z"/>
</svg>
