<svg xmlns="http://www.w3.org/2000/svg" width="128" height="140" viewBox="0 0 128 140">
  <path fill="none" stroke="#404040" d="M29.783765,84.2226562 C29.783765,80.3102018 30.8780737,76.6883305 33.0667239,73.3569336 C35.2553742,70.0255367 39.2742956,66.3261922 45.1236087,62.2587891 C42.6056925,58.888655 40.6301263,55.7219386 39.1968509,52.7585449 C37.7635755,49.7951512 37.0469486,46.705908 37.0469486,43.4907227 C37.0469486,36.9054033 39.1290404,31.5500695 43.2932864,27.4245605 C47.4575325,23.2990516 53.0646542,21.2363281 60.1148196,21.2363281 C66.4289788,21.2363281 71.609998,23.1150528 75.6580325,26.8725586 C79.7060671,30.6300644 81.730054,35.317192 81.730054,40.934082 C81.730054,47.6743501 78.3212339,53.6204169 71.5034915,58.7724609 L64.995679,63.4790039 L79.5801517,80.4458008 C81.8656449,75.9522887 83.0083743,70.994005 83.0083743,65.5708008 L97.3023196,65.5708008 C97.3023196,76.5721579 94.7650729,85.481574 89.6905032,92.2993164 L102.357495,107 L83.2989017,107 L78.9409915,102.00293 C72.7043067,106.10907 65.5380372,108.162109 57.4419681,108.162109 C49.0747387,108.162109 42.3733084,105.963808 37.3374759,101.567139 C32.3016434,97.1704696 29.783765,91.3890332 29.783765,84.2226562 Z M58.2554446,94.6816406 C62.2841106,94.6816406 66.0996649,93.5582795 69.702222,91.3115234 L53.0259525,72.0205078 L51.8057376,72.8920898 C48.3581292,75.836115 46.6343509,79.3030399 46.6343509,83.2929688 C46.6343509,86.6631028 47.7092913,89.4037167 49.8592044,91.5148926 C52.0091175,93.6260685 54.8078363,94.6816406 58.2554446,94.6816406 Z M52.096265,43.2583008 C52.096265,46.1635887 53.800675,49.8241967 57.2095462,54.2402344 L61.6836673,51.2768555 C63.9691605,49.8048429 65.5476766,48.371589 66.419263,46.9770508 C67.2908494,45.5825126 67.7266361,43.9168391 67.7266361,41.9799805 C67.7266361,40.0431218 67.0100091,38.3580801 65.5767337,36.9248047 C64.1434583,35.4915293 62.3034702,34.7749023 60.0567142,34.7749023 C57.6550095,34.7749023 55.727864,35.5496342 54.27522,37.0991211 C52.8225761,38.648608 52.096265,40.7016474 52.096265,43.2583008 Z"/>
</svg>
