<svg xmlns="http://www.w3.org/2000/svg" width="128" height="140" viewBox="0 0 128 140">
  <path fill="none" stroke="#404040" d="M73.4790775,44.1298828 L73.4790775,110.428223 C73.4790775,117.362177 71.6390893,122.756247 67.9590579,126.610596 C64.2790265,130.464944 58.9721134,132.39209 52.0381595,132.39209 C49.1328715,132.39209 46.3632052,132.062829 43.7290775,131.404297 L43.7290775,118.098145 C45.7434104,118.446779 47.5059254,118.621094 49.0166751,118.621094 C54.0912448,118.621094 56.6284915,115.928901 56.6284915,110.544434 L56.6284915,44.1298828 L73.4790775,44.1298828 Z M55.2920657,27.8603516 C55.2920657,25.3424353 56.1345866,23.2700277 57.8196536,21.6430664 C59.5047206,20.0161051 61.7998637,19.2026367 64.7051517,19.2026367 C67.6104396,19.2026367 69.9055827,20.0161051 71.5906497,21.6430664 C73.2757167,23.2700277 74.1182376,25.3424353 74.1182376,27.8603516 C74.1182376,30.417005 73.2563484,32.5087809 71.5325443,34.1357422 C69.8087401,35.7627034 67.5329653,36.5761719 64.7051517,36.5761719 C61.8773381,36.5761719 59.6015633,35.7627034 57.8777591,34.1357422 C56.1539549,32.5087809 55.2920657,30.417005 55.2920657,27.8603516 Z"/>
</svg>
