<svg xmlns="http://www.w3.org/2000/svg" width="128" height="140" viewBox="0 0 128 140">
  <path fill="none" stroke="#404040" d="M73.1013919,107 L56.250806,107 L56.250806,44.1298828 L73.1013919,44.1298828 L73.1013919,107 Z M55.263013,27.8603516 C55.263013,25.3424353 56.1055339,23.2700277 57.7906009,21.6430664 C59.4756679,20.0161051 61.770811,19.2026367 64.6760989,19.2026367 C67.5426497,19.2026367 69.8281086,20.0161051 71.5325443,21.6430664 C73.2369799,23.2700277 74.0891849,25.3424353 74.0891849,27.8603516 C74.0891849,30.417005 73.2272957,32.5087809 71.5034915,34.1357422 C69.7796873,35.7627034 67.5039126,36.5761719 64.6760989,36.5761719 C61.8482853,36.5761719 59.5725106,35.7627034 57.8487064,34.1357422 C56.1249022,32.5087809 55.263013,30.417005 55.263013,27.8603516 Z"/>
</svg>
