<svg xmlns="http://www.w3.org/2000/svg" width="128" height="140" viewBox="0 0 128 140">
  <path fill="none" stroke="#404040" d="M35.0132571,75.1000977 C35.0132571,65.2995929 37.2115587,57.4941697 41.6082278,51.6835938 C46.004897,45.8730178 52.0187528,42.9677734 59.6499759,42.9677734 C65.7704492,42.9677734 70.8255744,45.2532324 74.8155032,49.8242188 L74.8155032,17.75 L91.6660892,17.75 L91.6660892,107 L76.5005618,107 L75.6870853,100.317871 C71.5034706,105.547389 66.1190843,108.162109 59.533765,108.162109 C52.1349649,108.162109 46.1985823,105.247181 41.7244388,99.4172363 C37.2502953,93.5872918 35.0132571,85.48166 35.0132571,75.1000977 Z M51.8057376,76.3203125 C51.8057376,82.2083628 52.8322573,86.7211757 54.8853275,89.8588867 C56.9383976,92.9965977 59.9211152,94.5654297 63.8335696,94.5654297 C69.0243508,94.5654297 72.6849587,92.3768123 74.8155032,87.9995117 L74.8155032,63.1884766 C72.7236959,58.811176 69.1018246,56.6225586 63.9497806,56.6225586 C55.8537115,56.6225586 51.8057376,63.1884109 51.8057376,76.3203125 Z"/>
</svg>
