<svg xmlns="http://www.w3.org/2000/svg" width="128" height="140" viewBox="0 0 128 140">
  <path fill="none" stroke="#404040" d="M34.7517825,74.1000977 C34.7517825,64.4545416 37.0469256,56.687855 41.6372806,50.7998047 C46.2276356,44.9117544 52.4158061,41.9677734 60.2019778,41.9677734 C67.0971946,41.9677734 72.4622126,44.3307055 76.2971927,49.0566406 L76.9944583,43.1298828 L92.2180911,43.1298828 L92.2180911,103.908203 C92.2180911,109.408882 90.968836,114.192851 88.4702884,118.260254 C85.9717407,122.327657 82.456395,125.426584 77.9241458,127.557129 C73.3918966,129.687673 68.0849835,130.75293 62.0032474,130.75293 C57.3935238,130.75293 52.9000792,129.832936 48.5227786,127.99292 C44.1454781,126.152904 40.8334995,123.780288 38.5867435,120.875 L46.0242435,110.648438 C50.2078581,115.335635 55.2823517,117.679199 61.2478763,117.679199 C65.7026512,117.679199 69.1695761,116.488049 71.6487552,114.105713 C74.1279343,111.723377 75.3675052,108.343609 75.3675052,103.966309 L75.3675052,100.596191 C71.4937879,104.973492 66.3999261,107.162109 60.0857669,107.162109 C52.5320182,107.162109 46.4213208,104.208444 41.7534915,98.3010254 C37.0856622,92.3936065 34.7517825,84.5591308 34.7517825,74.7973633 L34.7517825,74.1000977 Z M51.544263,75.3203125 C51.544263,81.0146769 52.6869925,85.4790691 54.9724857,88.713623 C57.2579789,91.948177 60.3956428,93.5654297 64.3855716,93.5654297 C69.4988784,93.5654297 73.1594863,91.6479684 75.3675052,87.8129883 L75.3675052,61.375 C73.1207492,57.5400199 69.4988778,55.6225586 64.5017825,55.6225586 C60.4731166,55.6225586 57.3064002,57.2688637 55.0015384,60.5615234 C52.6966766,63.8541831 51.544263,68.7737303 51.544263,75.3203125 Z"/>
</svg>
