<svg xmlns="http://www.w3.org/2000/svg" width="128" height="140" viewBox="0 0 128 140">
  <path fill="none" stroke="#404040" d="M74.6121341,89.6264648 C74.6121341,87.5733947 73.5952986,85.956142 71.561597,84.7746582 C69.5278954,83.5931744 66.2643376,82.5376023 61.7708255,81.6079102 C46.8182768,78.4701992 39.3421146,72.1173981 39.3421146,62.5493164 C39.3421146,56.9711635 41.6566259,52.3130884 46.2857181,48.5749512 C50.9148102,44.836814 56.9674027,42.9677734 64.4436771,42.9677734 C72.4235347,42.9677734 78.8053882,44.8464981 83.589429,48.6040039 C88.3734699,52.3615097 90.7654544,57.2423202 90.7654544,63.246582 L73.9729739,63.246582 C73.9729739,60.8448773 73.1982421,58.859627 71.6487552,57.2907715 C70.0992683,55.721916 67.6782313,54.9375 64.3855716,54.9375 C61.557758,54.9375 59.3691405,55.5766538 57.8196536,56.8549805 C56.2701667,58.1333072 55.4954349,59.760244 55.4954349,61.7358398 C55.4954349,63.5952241 56.3766923,65.0962671 58.1392337,66.2390137 C59.9017751,67.3817603 62.8748085,68.3695434 67.0584232,69.2023926 C71.2420378,70.0352418 74.7670677,70.9746041 77.6336185,72.0205078 C86.5044311,75.2744303 90.9397708,80.9106044 90.9397708,88.9291992 C90.9397708,94.6623008 88.4799972,99.3010077 83.5603763,102.845459 C78.6407553,106.38991 72.2879543,108.162109 64.5017825,108.162109 C59.233527,108.162109 54.5560836,107.222747 50.4693118,105.343994 C46.3825401,103.465241 43.1770871,100.889258 40.8528568,97.6159668 C38.5286264,94.3426757 37.3665286,90.8079617 37.3665286,87.0117188 L53.2874271,87.0117188 C53.4423758,89.9944811 54.5463686,92.27994 56.5994388,93.8681641 C58.6525089,95.4563881 61.402807,96.2504883 64.8504153,96.2504883 C68.0656007,96.2504883 70.4963218,95.640387 72.1426517,94.420166 C73.7889815,93.1999451 74.6121341,91.6020607 74.6121341,89.6264648 Z"/>
</svg>
