<svg xmlns="http://www.w3.org/2000/svg" width="128" height="140" viewBox="0 0 128 140">
  <path fill="none" stroke="#404040" stroke-linecap="round" stroke-linejoin="round" d="M72.0554935,81.0268555 L58.110181,81.0268555 L56.134595,22.3984375 L74.0310794,22.3984375 L72.0554935,81.0268555 Z M65.0828372,90.2075195 C67.9106508,90.2075195 70.1864256,91.0403563 71.9102298,92.7060547 C73.634034,94.3717531 74.4959232,96.5022657 74.4959232,99.0976562 C74.4959232,101.65431 73.634034,103.765454 71.9102298,105.431152 C70.1864256,107.096851 67.9106508,107.929688 65.0828372,107.929688 C62.2937608,107.929688 60.0373543,107.096851 58.3135501,105.431152 C56.5897459,103.765454 55.7278568,101.65431 55.7278568,99.0976562 C55.7278568,96.5410028 56.5897459,94.4201744 58.3135501,92.7351074 C60.0373543,91.0500404 62.2937608,90.2075195 65.0828372,90.2075195 Z"/>
</svg>
