<svg xmlns="http://www.w3.org/2000/svg" width="128" height="140" viewBox="0 0 128 140">
  <path fill="none" stroke="#404040" d="M68.0171634,83.1767578 L56.8028079,83.1767578 L52.6192142,107 L41.9859134,107 L46.1695071,83.1767578 L32.9795657,83.1767578 L32.9795657,73.1826172 L47.9126712,73.1826172 L50.8179446,56.6806641 L37.3374759,56.6806641 L37.3374759,46.5703125 L52.6192142,46.5703125 L56.8609134,22.3984375 L67.4361087,22.3984375 L63.1944095,46.5703125 L74.4668704,46.5703125 L78.7085696,22.3984375 L89.3418704,22.3984375 L85.1001712,46.5703125 L97.8252689,46.5703125 L97.8252689,56.6806641 L83.2989017,56.6806641 L80.3936282,73.1826172 L93.4092532,73.1826172 L93.4092532,83.1767578 L78.6504642,83.1767578 L74.4668704,107 L63.8335696,107 L68.0171634,83.1767578 Z M58.545972,73.1826172 L69.7603275,73.1826172 L72.6656009,56.6806641 L61.39314,56.6806641 L58.545972,73.1826172 Z"/>
</svg>
