<svg xmlns="http://www.w3.org/2000/svg" width="128" height="140" viewBox="0 0 128 140">
  <path fill="none" stroke="#404040" d="M48.9295169,37.2734375 C48.9295169,32.8573998 50.4983489,29.0805821 53.6360599,25.9428711 C56.7737709,22.8051601 60.4731154,21.2363281 64.7342044,21.2363281 C68.9565563,21.2363281 72.60748,22.7954759 75.6870853,25.9138184 C78.7666905,29.0321608 80.30647,32.8186626 80.30647,37.2734375 C80.30647,41.7282124 78.7666905,45.4759776 75.6870853,48.5168457 C72.60748,51.5577138 68.9565563,53.078125 64.7342044,53.078125 C60.5505897,53.078125 56.8706135,51.5577138 53.6941653,48.5168457 C50.5177172,45.4759776 48.9295169,41.7282124 48.9295169,37.2734375 Z M64.7342044,44.4785156 C66.7872746,44.4785156 68.4820005,43.7909411 69.8184329,42.4157715 C71.1548654,41.0406018 71.8230716,39.3265077 71.8230716,37.2734375 C71.8230716,35.2591045 71.1548654,33.5159579 69.8184329,32.0439453 C68.4820005,30.5719327 66.7872746,29.8359375 64.7342044,29.8359375 C62.6811343,29.8359375 60.9573559,30.5719327 59.5628177,32.0439453 C58.1682795,33.5159579 57.4710208,35.2591045 57.4710208,37.2734375 C57.4710208,39.2877705 58.1779636,40.9921805 59.5918704,42.3867188 C61.0057772,43.781257 62.7198714,44.4785156 64.7342044,44.4785156 Z"/>
</svg>
