<svg xmlns="http://www.w3.org/2000/svg" width="128" height="140" viewBox="0 0 128 140">
  <path fill="none" stroke="#404040" d="M66.2739993,94.6235352 C69.3729732,94.6235352 71.8908516,93.7713301 73.8277103,92.0668945 C75.7645689,90.3624589 76.7717203,88.0963683 76.8491946,85.2685547 L92.5957767,85.2685547 C92.5570395,89.5296437 91.3949418,93.4323553 89.1094486,96.9768066 C86.8239554,100.521258 83.6959756,103.271556 79.7254153,105.227783 C75.7548551,107.18401 71.3679361,108.162109 66.5645267,108.162109 C57.5775026,108.162109 50.4887063,105.305286 45.2979251,99.5915527 C40.107144,93.8778197 37.5117923,85.9852392 37.5117923,75.9135742 L37.5117923,74.8095703 C37.5117923,65.1252771 40.0877757,57.397327 45.2398196,51.6254883 C50.3918636,45.8536495 57.4612916,42.9677734 66.4483157,42.9677734 C74.3119618,42.9677734 80.6163421,45.2048116 85.3616458,49.6789551 C90.1069495,54.1530985 92.5183023,60.1088495 92.5957767,67.5463867 L76.8491946,67.5463867 C76.7717203,64.2924642 75.7645689,61.6486918 73.8277103,59.6149902 C71.8908516,57.5812887 69.3342366,56.5644531 66.1577884,56.5644531 C62.2453339,56.5644531 59.2916688,57.9880229 57.2967044,60.8352051 C55.30174,63.6823873 54.3042728,68.3017259 54.3042728,74.6933594 L54.3042728,76.4365234 C54.3042728,82.9056313 55.2920559,87.5540223 57.2676517,90.3818359 C59.2432475,93.2096496 62.2453334,94.6235352 66.2739993,94.6235352 Z"/>
</svg>
