<svg xmlns="http://www.w3.org/2000/svg" width="128" height="140" viewBox="0 0 128 140">
  <path fill="none" stroke="#404040" d="M34.9260989,74.9838867 C34.9260989,65.1059076 37.1244005,57.3004844 41.5210696,51.5673828 C45.9177388,45.8342812 51.9509629,42.9677734 59.6209232,42.9677734 C66.3611912,42.9677734 71.7262092,45.5437568 75.716138,50.6958008 L76.8201419,44.1298828 L91.578931,44.1298828 L91.578931,131.171875 L74.728345,131.171875 L74.728345,101.596191 C70.8546278,105.973492 65.7801342,108.162109 59.5047122,108.162109 C52.0284379,108.162109 46.0630027,105.256865 41.6082278,99.4462891 C37.153453,93.6357131 34.9260989,85.4816606 34.9260989,74.9838867 Z M51.7185794,76.2041016 C51.7185794,82.2083634 52.7741515,86.7792812 54.8853275,89.9169922 C56.9965034,93.0547032 59.9695368,94.6235352 63.8045169,94.6235352 C68.9565609,94.6235352 72.5978005,92.5704958 74.728345,88.4643555 L74.728345,62.4912109 C72.6365377,58.5400193 69.0340347,56.5644531 63.9207278,56.5644531 C60.0470106,56.5644531 57.0449247,58.1332851 54.9143802,61.2709961 C52.7838357,64.4087071 51.7185794,69.3863591 51.7185794,76.2041016 Z"/>
</svg>
