<svg xmlns="http://www.w3.org/2000/svg" width="128" height="140" viewBox="0 0 128 140">
  <path fill="none" stroke="#404040" d="M35.3909427,44.1298828 L35.9138919,51.1606445 C40.3686668,45.6987032 46.3922068,42.9677734 53.9846927,42.9677734 C62.0807618,42.9677734 67.6394627,46.1635423 70.6609622,52.5551758 C75.0769999,46.1635423 81.3716961,42.9677734 89.5452396,42.9677734 C96.362982,42.9677734 101.437476,44.9530238 104.768872,48.923584 C108.100269,52.8941442 109.765943,58.8692635 109.765943,66.8491211 L109.765943,107 L92.9153568,107 L92.9153568,66.9072266 C92.9153568,63.3434067 92.2180981,60.7383709 90.8235599,59.092041 C89.4290217,57.4457112 86.9692481,56.6225586 83.4441653,56.6225586 C78.4083329,56.6225586 74.9220396,59.0242273 72.985181,63.8276367 L73.0432864,107 L56.250806,107 L56.250806,66.965332 C56.250806,63.3240378 55.534179,60.6899495 54.1009036,59.0629883 C52.6676282,57.436027 50.227223,56.6225586 46.7796146,56.6225586 C42.0149423,56.6225586 38.5673856,58.5981248 36.4368411,62.5493164 L36.4368411,107 L19.6443607,107 L19.6443607,44.1298828 L35.3909427,44.1298828 Z"/>
</svg>
