<?xml version="1.0" encoding="UTF-8" standalone="no"?>
<svg
   xmlns:dc="http://purl.org/dc/elements/1.1/"
   xmlns:cc="http://creativecommons.org/ns#"
   xmlns:rdf="http://www.w3.org/1999/02/22-rdf-syntax-ns#"
   xmlns:svg="http://www.w3.org/2000/svg"
   xmlns="http://www.w3.org/2000/svg"
   xmlns:sodipodi="http://sodipodi.sourceforge.net/DTD/sodipodi-0.dtd"
   xmlns:inkscape="http://www.inkscape.org/namespaces/inkscape"
   width="210mm"
   height="297mm"
   viewBox="0 0 210 297"
   version="1.1"
   id="svg985"
   inkscape:version="1.0.1 (3bc2e813f5, 2020-09-07)"
   sodipodi:docname="alice_outl.svg">
  <defs
     id="defs979" />
  <sodipodi:namedview
     id="base"
     pagecolor="#ffffff"
     bordercolor="#666666"
     borderopacity="1.0"
     inkscape:pageopacity="0.0"
     inkscape:pageshadow="2"
     inkscape:zoom="0.96695067"
     inkscape:cx="370.83175"
     inkscape:cy="703.5205"
     inkscape:document-units="mm"
     inkscape:current-layer="layer1"
     inkscape:document-rotation="0"
     showgrid="false"
     inkscape:window-width="1920"
     inkscape:window-height="1137"
     inkscape:window-x="-8"
     inkscape:window-y="-8"
     inkscape:window-maximized="1" />
  <metadata
     id="metadata982">
    <rdf:RDF>
      <cc:Work
         rdf:about="">
        <dc:format>image/svg+xml</dc:format>
        <dc:type
           rdf:resource="http://purl.org/dc/dcmitype/StillImage" />
        <dc:title></dc:title>
      </cc:Work>
    </rdf:RDF>
  </metadata>
  <g
     inkscape:label="Layer 1"
     inkscape:groupmode="layer"
     id="layer1">
    <path
       id="path847"
       style="fill:#4d4d4d;fill-opacity:0.439516;stroke:none;stroke-width:0.999999px;stroke-linecap:butt;stroke-linejoin:miter;stroke-opacity:1"
       d="m 304.17188,483.90825 c -0.31582,1.44677 -0.7076,3.05785 -1.17579,4.63868 -0.46817,1.5808 -1.0121,3.13115 -1.6289,4.45312 -0.61683,1.32193 -1.4827,2.69541 -2.46485,4.01367 -0.98214,1.31826 -2.08073,2.58198 -3.16015,3.6836 -1.07945,1.10165 -2.14012,2.04089 -3.04883,2.71289 -0.90869,0.672 -1.66482,1.07608 -2.13477,1.10546 -0.46995,0.0265 -1.26442,-0.29442 -2.2539,-0.83984 -0.98951,-0.54535 -2.17403,-1.31264 -3.42969,-2.17187 -2.51134,-1.71855 -5.30134,-3.80283 -7.35742,-5.21289 -0.51401,-0.35263 -0.97606,-0.78653 -1.39063,-1.27344 -0.41457,-0.48692 -0.78223,-1.02737 -1.10742,-1.59766 -0.65037,-1.14066 -1.13123,-2.39612 -1.48437,-3.56445 -0.35313,-1.16837 -0.57851,-2.249 -0.71485,-3.03711 -0.13629,-0.78811 -0.18554,-1.28516 -0.18554,-1.28516 l -0.66407,-5.98242 c -1.12153,0.33222 -2.57453,0.60286 -3.94531,0.81055 -1.3708,0.20787 -2.658,0.35255 -3.44727,0.43555 -0.78922,0.0831 -1.57847,-0.0406 -2.32617,-0.3418 -0.7477,-0.30123 -1.45505,-0.77918 -2.07812,-1.40235 -0.31155,-0.31143 -1.45403,-1.02812 -3.01563,-1.94726 -1.56161,-0.91918 -3.54257,-2.04042 -5.53125,-3.16211 -3.97735,-2.24341 -7.98471,-4.48816 -8.73242,-5.11133 -0.7477,-0.62317 -3.13781,-2.67853 -5.60937,-4.95312 -1.23579,-1.1373 -2.49161,-2.33135 -3.57422,-3.42579 -1.08261,-1.09442 -1.99124,-2.09007 -2.53125,-2.83789 -0.54001,-0.74781 -1.00122,-1.59836 -1.39844,-2.50585 -0.39722,-0.90751 -0.73133,-1.87264 -1.01172,-2.84376 -0.56077,-1.94221 -0.91287,-3.91491 -1.16211,-5.53515 -0.12461,-0.81014 -0.1405,-2.31582 -0.0937,-4.11914 0.0467,-1.80329 0.15664,-3.90497 0.28125,-5.9043 0.24922,-3.9987 0.56055,-7.5918 0.56055,-7.5918 l -2.5957,-6.14257 c -0.21744,1.36577 -1.21731,7.42935 -3.11133,11.74414 -2.11483,4.81776 -10.90821,15.58593 -10.90821,15.58593 l -13.29296,16.45118 -28.58008,26.92187 c 0,0 -11.96136,21.27154 -16.11524,33.07031 -4.15389,11.79871 -2.16015,29.08008 -2.16015,29.08008 l 5.16601,-11.78515 c -0.26479,0.75556 -0.76291,2.93559 -0.51367,8.29492 0.33233,7.14569 4.81836,11.80078 4.81836,11.80078 l 0.48047,0.71484 c 1.70881,-1.19663 6.56846,-5.23109 11.51367,-9.42968 5.22353,-4.4349 10.10352,-8.6504 10.10352,-8.6504 l 10.05273,-9.2246 c 0,0 2.30516,0.70707 5.21289,2.04687 1.45387,0.66992 3.05943,1.497 4.60156,2.47461 0.77107,0.48881 1.52694,1.01581 2.24024,1.57812 0.7133,0.56232 1.38401,1.16136 1.98633,1.79493 2.40926,2.53425 5.0873,5.12935 7.22656,7.27929 1.06963,1.07498 2.00475,2.0401 2.70312,2.82813 0.69838,0.78807 1.16054,1.39956 1.28516,1.77344 0.49847,1.49559 0.58203,1.99414 0.58203,1.99414 l -12.04687,8.89062 c 0,0 -7.89158,4.98435 -13.70703,8.97266 -2.90773,1.99415 -6.77192,4.96565 -9.90821,7.4375 -3.13629,2.47185 -5.54492,4.44531 -5.54492,4.44531 0,0 11.29809,8.80808 19.10742,9.30664 7.80933,0.49852 13.29297,-3.98828 13.29297,-3.98828 l -6.64648,5.98242 c -1e-5,0 0.66458,2.1603 6.97851,0 5.51464,-1.88689 6.46659,-3.1388 6.61914,-3.42578 l -2.96289,6.74805 c 4.48621,2.32649 10.4668,-0.33203 10.4668,-0.33203 l 2.82422,-3.82032 8.14258,4.48633 0.98437,-0.0606 6.16016,18.50586 2.99218,3.82227 6.47852,-10.46875 -1.9082,-12.69922 c -0.30717,-2.08913 -2.17314,-14.77701 -2.9336,-19.99219 -0.2056,-1.4101 -0.73469,-3.69327 -1.41211,-6.32617 -0.67739,-2.63286 -1.5043,-5.61449 -2.30468,-8.41992 -1.60081,-5.61094 -3.09766,-10.51563 -3.09766,-10.51563 -0.33778,-0.0737 -0.89562,-0.37143 -1.62305,-0.84765 -0.72743,-0.47626 -1.62544,-1.13136 -2.64062,-1.91992 -2.03038,-1.57716 -4.53342,-3.68865 -7.10352,-5.97266 -2.57009,-2.28404 -5.20722,-4.74224 -7.50195,-7.00977 -2.29472,-2.26749 -4.2469,-4.34543 -5.45117,-5.87304 -1.20427,-1.52757 -2.69533,-3.93539 -4.25391,-6.68946 -1.55857,-2.75406 -3.18614,-5.85344 -4.66211,-8.76171 -2.95193,-5.81658 -5.30078,-10.86915 -5.30078,-10.86914 0,0 -0.58705,-0.3231 -1.67383,-0.76368 -1.08678,-0.44065 -2.67259,-1.00064 -4.66992,-1.4707 -1.99732,-0.47002 -3.2333,-0.66914 -3.96875,-0.75195 -0.36771,-0.0412 -0.61077,-0.0532 -0.76172,-0.0547 -0.15095,-0.001 -0.20898,0.006 -0.20898,0.006 1e-5,0 -0.007,-0.37933 0.0508,-0.96875 0.0571,-0.58942 0.17655,-1.38727 0.42578,-2.22852 0.24922,-0.84128 0.62873,-1.72486 1.20508,-2.48047 0.28819,-0.37795 0.62622,-0.72451 1.02148,-1.01757 0.39528,-0.2933 0.84795,-0.53304 1.36719,-0.69922 0.51924,-0.16592 1.19482,-0.23866 1.98828,-0.23828 0.79346,3.4e-4 1.70551,0.0737 2.69336,0.19921 1.9757,0.25172 4.25894,0.71371 6.5332,1.22266 2.27427,0.50891 4.5385,1.0651 6.47266,1.50391 1.93416,0.43884 3.53875,0.76119 4.49414,0.80273 1.9108,0.0831 7.53821,-0.2292 13.61328,-0.64453 6.07508,-0.41545 12.59795,-0.93329 16.29492,-1.26562 0.92425,-0.0831 1.96747,-0.29357 3.08399,-0.59571 0.11701,-0.0317 0.24276,-0.0757 0.36133,-0.10937 -0.1943,0.46571 -0.55313,1.24936 -0.95704,2.875 -0.25351,1.02047 -0.45981,2.15955 -0.50976,3.2832 -0.025,0.56183 -0.0105,1.11948 0.0566,1.65625 0.0672,0.53677 0.18806,1.05348 0.375,1.53125 0.37387,0.9555 0.5901,2.0617 0.88477,3.33789 0.29465,1.27623 0.6655,2.72157 1.3457,4.35742 0.34008,0.81789 0.75763,1.68451 1.28125,2.59961 0.52362,0.9151 1.15471,1.8793 1.91992,2.89649 0.76524,1.01722 1.66555,2.08675 2.73047,3.21093 1.06492,1.12415 2.29409,2.30309 3.7168,3.53907 1.4227,1.23594 2.8746,2.3653 4.33007,3.39843 1.4555,1.0331 2.91393,1.96932 4.35352,2.81446 1.43959,0.84518 2.85937,1.60127 4.23438,2.27343 1.375,0.67219 2.70503,1.25931 3.96679,1.77344 2.52348,1.02822 4.77434,1.7566 6.55274,2.24219 1.77837,0.48552 3.08467,0.72873 3.72851,0.79102 0.64387,0.0624 1.72384,0.27143 3.1582,0.42968 1.43439,0.15837 3.22379,0.26774 5.28516,0.13282 1.03068,-0.0677 2.1284,-0.19815 3.28516,-0.41211 1.15676,-0.21393 2.37237,-0.51098 3.63476,-0.91993 1.2624,-0.40894 2.57234,-0.9293 3.91992,-1.58203 1.34758,-0.65268 2.73415,-1.43763 4.14649,-2.38281 1.41231,-0.94515 2.73624,-2.04275 3.97461,-3.24219 1.23839,-1.19947 2.39064,-2.50143 3.45508,-3.86132 1.06443,-1.35995 2.04116,-2.77655 2.93164,-4.20313 0.8905,-1.42666 1.69362,-2.86216 2.41015,-4.26172 1.43311,-2.79904 2.51856,-5.4522 3.25586,-7.58008 0.73734,-2.12791 1.12644,-3.73125 1.16797,-4.4375 0.0415,-0.70628 3.1e-4,-1.77121 -0.11914,-3.00976 -0.11951,-1.23855 -0.31592,-2.65252 -0.58594,-4.05469 -0.27001,-1.40213 -0.61321,-2.79326 -1.02343,-3.99023 -0.0715,-0.20825 -0.17193,-0.29762 -0.24805,-0.49024 0.0656,0.0207 0.1296,0.0439 0.19531,0.0645 1.30524,0.40759 2.6294,0.78084 3.94336,1.09571 1.31396,0.31483 2.61591,0.57177 3.87891,0.74804 1.26302,0.17613 2.71416,0.2328 4.28515,0.19727 1.57095,-0.034 3.26391,-0.16271 5.00977,-0.35547 3.49163,-0.38555 7.19928,-1.03231 10.5918,-1.72265 3.39255,-0.69034 6.46863,-1.42447 8.69726,-1.98633 2.22864,-0.56183 3.60938,-0.95118 3.60938,-0.95117 l 1.05664,1.88085 c 0,0 -0.0589,3.23091 -0.3086,7.03516 -0.12483,1.90216 -0.29629,3.94655 -0.5332,5.80273 -0.23686,1.85628 -0.53803,3.5242 -0.91992,4.66993 -0.48029,0.78626 -0.10979,-0.0236 -0.88086,1.64648 -0.23516,0.51402 -0.48477,1.13022 -0.70508,1.82422 -0.22023,0.694 -0.41183,1.46453 -0.5293,2.28711 -0.0586,0.41125 -0.22585,0.9098 -0.48242,1.47461 -0.25667,0.56481 -0.60086,1.19671 -1.01758,1.87695 -0.83345,1.36048 -1.95088,2.91414 -3.19921,4.50781 -1.24834,1.59372 -2.63007,3.22795 -3.99219,4.75 -1.36216,1.5221 -2.704,2.9324 -3.87891,4.07813 -1.17491,1.14569 -2.71694,2.32786 -4.36914,3.45703 -1.65219,1.12917 -3.41576,2.20401 -5.03125,3.13672 -3.23096,1.86542 -5.875,3.1582 -5.875,3.1582 0,0 -0.9969,2.35019 -2.20117,5.72852 -0.60216,1.68914 -1.25748,3.63583 -1.86328,5.67383 -0.60581,2.03799 -1.163,4.16824 -1.57422,6.22461 -0.24639,1.23216 -0.71212,4.04683 -1.04688,5.88867 -0.78258,4.30567 -1.58245,8.68685 -2.44531,13.77148 -1.23198,7.25968 -2.25781,13.49024 -2.25781,13.49024 0,0 10.13446,-2.82523 15.11914,-3.82227 4.98468,-0.99708 16.44922,-6.31445 16.44922,-6.31445 l 1.99609,-3.82227 3.48828,2.16016 29.07618,-15.12305 1.18554,-1.68945 c -1.63162,-0.80183 -2.31467,-1.14726 -4.89258,-2.39258 -4.57965,-2.21223 -9.62682,-4.6004 -11.49609,-5.30664 -3.45449,-1.30521 -15.15961,-5.82138 -17.08008,-6.5625 0.48361,-0.53073 1.02907,-1.16915 1.63281,-1.91211 1.26669,-1.55879 2.74331,-3.50296 4.19727,-5.47852 2.90786,-3.95115 5.72624,-8.03329 6.60742,-9.44336 0.44058,-0.70506 0.77173,-1.48273 1.01953,-2.2539 0.24764,-0.7711 0.41332,-1.53527 0.52344,-2.21094 0.22023,-1.35133 0.2207,-2.35156 0.2207,-2.35156 l 35.19727,15.17383 -0.83008,-14.125 4.48438,4.15234 c 0,0 -0.49757,-20.60363 -14.95313,-34.39648 -14.45552,-13.79286 -18.94336,-27.75391 -18.94336,-27.75391 -1.99385,-7.4781 -24.67187,-64.97656 -24.67187,-64.97656 l -15.1211,-23.51367 -7.14453,-8.80665 -8.97265,-7.39453 -3.76368,-3.20507 -0.14843,0.80664 c 0,0 6.92993,9.5182 9.86718,20.79882 2.93723,11.28061 1.0586,27.73047 1.0586,27.73047 l -4.46485,-4.23047 c 0,0 0.82232,-18.21212 -2.23242,-27.84765 -3.05474,-9.63556 -10.80859,-20.09375 -10.80859,-20.09375 l -0.35547,-3.19531 -5.35156,-4.55665 -7.47852,-5.15234 -5.98242,-4.48633 -7.97461,-4.48633 5.15039,-5.31835 -0.66406,-2.82422 -5.81641,-3.82422 -1.82617,-6.3125 -4.98437,0.16601 -10.13672,11.63086 -7.97461,-0.66406 -5.15039,2.99219 -2.99024,-3.65625 -6.48242,-3.98828 -6.47852,-0.33203 -0.99804,5.48437 3.49023,2.49219 -3.1582,0.66406 -4.15234,1.33008 -8.64063,4.81836 -5.98047,8.80859 -10.46875,21.93555 -2.16015,12.62891 4.15429,12.13085 3.01367,4.60743 7.75391,4.69922 c 0,0 -0.41086,-4.44863 -0.75586,-9.18555 -0.1725,-2.36841 -0.33035,-4.80961 -0.41016,-6.80078 -0.0798,-1.99113 -0.0833,-3.53261 0.0488,-4.10547 0.13217,-0.57283 0.37255,-1.31357 0.77735,-2.23438 0.40478,-0.92077 0.97476,-2.02165 1.77148,-3.31054 0.79673,-1.28894 1.82091,-2.76811 3.12891,-4.44532 1.30799,-1.67724 2.90126,-3.55293 4.83984,-5.63867 0.96929,-1.04287 2.0118,-2.00277 3.09766,-2.88476 1.08586,-0.88199 2.21314,-1.68619 3.34765,-2.41602 1.13452,-0.72982 2.27734,-1.38432 3.39258,-1.9707 1.11523,-0.58639 2.20438,-1.10498 3.23242,-1.55664 2.05607,-0.90334 3.8702,-1.54416 5.16993,-1.96094 1.29973,-0.41678 2.08398,-0.60938 2.08398,-0.60938 0,0 2.35051,2.96786 5.78711,6.53711 1.71828,1.78464 3.70676,3.71963 5.81055,5.50977 1.0519,0.89507 2.13356,1.75347 3.22265,2.53906 1.08907,0.7856 2.18666,1.49742 3.27344,2.09961 4.34713,2.40888 8.4298,4.37815 11.42578,5.74414 2.99601,1.366 4.90625,2.12891 4.90625,2.12891 0,0 0.49061,-0.17515 1.29102,-0.37695 0.80041,-0.20183 1.90896,-0.4304 3.14257,-0.53321 0.61681,-0.0514 1.2656,-0.0709 1.92188,-0.041 0.6563,0.0302 1.32082,0.10927 1.9707,0.25781 0.64984,0.14853 1.28527,0.36649 1.88282,0.67187 0.59754,0.30539 1.1569,0.69788 1.65625,1.19727 0.49934,0.49939 0.99916,1.17733 1.49804,1.99023 0.49889,0.8129 0.9986,1.76171 1.4961,2.80274 0.99496,2.08206 1.98478,4.53331 2.96875,7.01562 0.98398,2.48236 1.96015,4.99379 2.92578,7.19336 0.4828,1.09981 0.9626,2.12236 1.43945,3.02344 0.47682,0.90104 0.95193,1.67994 1.42188,2.29688 3.75966,4.93524 7.40039,9.28515 7.40039,9.28515 0,0 0.88159,-0.55973 2.11523,-0.85351 0.61683,-0.14665 1.32187,-0.22674 2.04883,-0.13868 0.36348,0.0442 0.73142,0.13051 1.09766,0.27149 0.36621,0.14135 0.73149,0.33699 1.08398,0.60156 0.7049,0.52876 1.24089,1.02882 1.64844,1.48047 0.40752,0.45169 0.68601,0.85554 0.87695,1.19336 0.38185,0.6757 0.41211,1.08789 0.41211,1.08789 0,0 -0.33957,1.00501 -0.91602,2.52344 -0.57643,1.51838 -1.3911,3.54858 -2.3457,5.59765 -0.47729,1.02448 -0.98878,2.05345 -1.52344,3.02539 -0.53468,0.97195 -1.09094,1.88767 -1.6582,2.6836 -0.56725,0.79593 -1.14565,1.47231 -1.7207,1.96875 -0.57505,0.49636 -1.147,0.81129 -1.70508,0.88476 -2.23227,0.29367 -3.3774,0.55906 -3.96484,0.75 -0.58747,0.19125 -0.61915,0.3086 -0.61915,0.3086 l -5.16389,35.02753 c 0,0 -0.21034,2.45766 -0.84196,5.35123 z"
       transform="scale(0.26458333)"
       sodipodi:nodetypes="sssssscsssssssccccscsssssssssssccscccsccsccsccsssssssccsscsccsccccccccccssscssssssscssccccssccscssscsscssssssssssssssssscssssssssssssscssccsssccssccssssssssscssssscscccccsscssscsccccscccccccsccsccccccccccccccccccccccccccccsssssssssssscssscscsscssssssssccccccsscsssssccccs" />
    <path
       id="path859"
       style="fill:#4d4d4d;fill-opacity:0.439516;stroke:none;stroke-width:0.264583px;stroke-linecap:butt;stroke-linejoin:miter;stroke-opacity:1"
       d="m 72.866793,107.9303 0.107934,0.67792 c -0.0013,1.7e-4 -0.0019,5.1e-4 -0.0032,7e-4 l -0.52439,-0.66296 0.04582,0.80811 c -0.0032,9.2e-4 -0.0072,0.003 -0.0106,0.004 l -0.656898,-0.65665 0.342066,0.71512 -0.901654,-0.26439 0.726639,0.54505 c -0.04029,0.20135 -0.09986,0.63277 -0.08933,1.50697 0.01555,1.29024 1.290009,1.41449 1.631954,1.22795 0.341939,-0.18654 0.668448,-0.31092 0.963763,-1.41463 0.295315,-1.10369 -0.388565,-1.63217 -0.388565,-1.63217 0,0 -0.01587,-0.006 -0.0196,-0.008 3.34e-4,-1.3e-4 0.0196,-0.007 0.0196,-0.007 z"
       sodipodi:nodetypes="ccccccccccssscccc" />
    <path
       id="path861"
       style="fill:#4d4d4d;fill-opacity:0.439516;stroke:none;stroke-width:0.264583px;stroke-linecap:butt;stroke-linejoin:miter;stroke-opacity:1"
       d="m 61.209649,109.46915 0.372952,0.69951 c 0,0 -0.994713,-0.37281 -1.08797,-0.4039 -0.09124,-0.0304 0.504415,0.82837 0.530701,0.86625 -0.0034,0.004 -0.0067,0.008 -0.01,0.0119 l -0.738264,-0.24081 0.582508,0.50586 c -0.04633,0.21336 -0.618,2.9678 0.831919,2.7585 1.507664,-0.21762 1.833806,-1.39926 1.818263,-1.77235 -0.01553,-0.37308 -0.310848,-1.50763 -0.310848,-1.50763 0,0 -0.144818,-0.12041 -0.372619,-0.22054 0.0039,-0.0174 0.01527,-0.0595 0.01527,-0.0595 z"
       sodipodi:nodetypes="ccsccccsscccc" />
    <path
       id="path920"
       style="fill:#4d4d4d;fill-opacity:0.439516;stroke:none;stroke-width:0.264583px;stroke-linecap:butt;stroke-linejoin:miter;stroke-opacity:1"
       d="m 141.35306,163.28702 -0.7034,3.82503 c 0,0 -0.96712,1.05523 -1.18693,1.05523 -0.21981,0 -0.87907,-0.70348 -0.87907,-0.70348 l 0.39553,-3.69318 c 0,0 -10.06737,2.68191 -14.63944,3.69318 -4.57205,1.01127 -13.45215,1.53885 -13.45215,1.53885 0,0 -15.958417,0.0881 -19.871047,-1.71456 -3.91262,-1.8027 -8.61641,-1.45117 -8.61641,-1.45117 0,0 2.154184,0.43986 3.736821,0.87954 1.582636,0.43968 8.308721,2.90187 10.946445,4.00108 2.637733,1.0992 10.770761,2.50622 11.825851,2.6821 1.05509,0.17588 5.8028,0.17571 9.09996,0.52746 3.29715,0.35174 13.67201,2.68144 13.67201,2.68144 0,0 -10.38272,17.28636 -12.93176,20.3332 -2.54904,3.04684 -11.25297,10.81928 -15.48065,13.67958 -4.227671,2.8603 -12.735854,6.26297 -16.120935,6.74663 -3.385082,0.48365 -13.452455,0.83539 -16.749612,0.70349 -3.297156,-0.1319 -7.473314,-1.75894 -10.638585,-2.5064 -3.165271,-0.74747 -14.155888,-7.38668 -14.155888,-7.38668 0,0 -7.649413,-5.31991 -9.847519,-7.82611 -2.198103,-2.50619 -11.320393,-8.17819 -11.320393,-8.17819 l -0.175682,-0.79151 c 0,0 2.747572,-0.76951 3.53889,-1.03332 0.791318,-0.2638 8.572531,-3.5613 8.704419,-3.91305 0.131884,-0.35174 4.286307,-3.95712 4.572061,-4.11101 0.285753,-0.15389 4.031397,-3.10494 4.031397,-3.10494 1.056921,-1.64778 7.83386,-6.34228 9.294897,-7.49263 1.461036,-1.15034 9.745229,-4.94338 9.745229,-4.94338 l -0.167048,-1.29904 c 0,0 -9.80368,0.48381 -11.562164,0.87953 -1.758481,0.39571 -4.66837,3.27964 -4.66837,3.27964 0,0 -8.579952,6.28042 -14.237588,8.27021 -5.657632,1.98978 -12.438915,-0.0302 -12.438915,-0.0302 l 0.175682,2.94583 1.582804,2.19849 -2.066346,0.3956 -2.066344,-2.7698 c 0,0 -3.033222,4.88036 -4.747744,6.37528 -1.714521,1.49492 -10.7265932,11.69565 -10.7265932,11.69565 0,0 -0.1321346,2.63797 0.7910693,4.96829 0.9232039,2.33033 3.5610607,4.39679 8.3968909,5.05632 4.835831,0.65952 8.396727,3.42974 9.979362,4.61688 1.582636,1.18714 4.396213,4.74829 4.572061,4.79225 0.175848,0.044 2.769657,1.36306 3.033428,1.62687 0.263773,0.26381 0.131847,-2.19816 0.131847,-2.19816 2.593761,2.19841 10.418865,4.48456 20.574109,8.39774 10.155244,3.91316 19.959018,4.04528 25.718052,5.32036 5.759029,1.27508 14.023675,0.2196 19.431014,0.0877 5.407344,-0.1319 12.925024,-3.5173 15.298974,-4.39666 2.37396,-0.87936 12.79303,-6.63938 16.39792,-9.32145 3.6049,-2.68206 13.67202,-6.99076 13.67202,-6.99076 0,0 0.30786,0.21989 0.30786,0.57164 0,0.35174 -2.02226,2.28618 -2.81357,2.98968 -0.79132,0.70348 -4.17649,2.02246 -5.01178,2.3742 -0.83527,0.35175 -3.91249,3.34176 -3.91249,3.34176 0,0 3.78077,0.26365 4.7919,-0.87954 1.01113,-1.14317 5.14357,-4.66055 6.33055,-5.53991 1.18698,-0.87937 3.82463,-1.67077 5.89085,-2.94584 2.06621,-1.27509 2.28586,-3.78131 1.58246,-4.79259 -0.70339,-1.01127 -0.70331,-2.11048 -0.26369,-3.16571 0.43963,-1.05525 4.00047,-3.29768 7.64933,-5.14434 3.64885,-1.84667 3.64903,-6.68322 3.34129,-7.60656 -0.30774,-0.92333 -12.6611,-23.61086 -12.6611,-23.61086 l -2.50571,-0.35173 z m 3.41535,26.44176 c 0,0 0.31084,5.53413 0.31084,6.12484 0,0.59071 -0.52848,2.08296 0.77713,2.48713 1.30561,0.40417 4.69417,-3.23317 5.5335,-4.25914 0.83931,-1.02598 4.35178,-3.82438 5.1911,-3.82438 0,0 0.59065,2.73621 -0.46627,3.97982 -1.05692,1.24361 -1.523,1.42991 -2.14473,1.11901 -0.62171,-0.31091 -1.15038,-0.4663 -1.46124,0.40422 -0.31086,0.87053 -0.34176,2.39413 -1.52303,2.86048 -1.18126,0.46636 -3.82381,0.12422 -4.60095,0.27966 -0.77715,0.15546 -2.20687,1.4924 -2.14473,2.05203 -0.25511,-0.51523 -0.572,-1.03466 -0.29291,-2.11712 0,0 0.13172,0.10986 -0.52771,-0.68157 -0.65943,-0.79143 0.74744,-1.36315 -0.2637,-3.12187 -1.01112,-1.75874 -1.91249,2.08845 -3.58305,1.53884 -1.67055,-0.5496 -0.7107,-3.26669 -0.7107,-3.26669 0,0 2.42499,-2.20738 3.35756,-2.73592 0.93258,-0.52854 2.54889,-0.83934 2.54889,-0.83934 z m -134.334314,8.95243 c 0,0 2.703837,1.67089 3.341288,2.66018 0.63745,0.98929 2.329703,4.68265 2.329703,4.68265 0,0 -1.736319,-0.10989 -2.879334,-2.00053 -1.143014,-1.89064 -2.088305,-0.43971 -3.011509,-0.46169 -0.9232042,-0.022 -0.2416676,-3.07793 -0.04384,-3.93531 0.197829,-0.85739 0.26369,-0.9453 0.26369,-0.9453 z"
       sodipodi:nodetypes="ccsccscccsssscssssscsccssscsccscscccccscssssscssssscssscsssssssccccssscsssssccssscsccscssscc" />
    <path
       style="fill:#4d4d4d;fill-opacity:0.439516;stroke:none;stroke-width:0.264583px;stroke-linecap:butt;stroke-linejoin:miter;stroke-opacity:1"
       d="m 56.266893,232.8199 c 0,0 -2.520916,2.75069 -3.254266,8.08659 -0.396264,2.88325 -0.600384,8.76433 -0.538212,10.31885 0.06217,1.55451 1.429951,10.32197 1.740811,12.18737 0.310857,1.86543 1.802981,10.32197 1.802981,11.68994 v 2.11415 c 0,0 1.181263,-3.97955 2.238184,-3.97955 1.056922,0 2.735559,1.98977 2.735559,1.98977 0,0 -0.621717,-2.98467 0.248687,-6.0315 0.870405,-3.04684 4.725057,-18.21891 5.098087,-19.5247 0.373032,-1.30579 3.419448,-14.0528 3.419448,-14.6746 0,0 -4.103335,1.11926 -7.336269,0.43527 -3.232933,-0.68399 -4.47637,-0.68399 -6.15501,-2.61159 z"
       id="path935"
       sodipodi:nodetypes="csssscscsscsc" />
    <path
       style="fill:#4d4d4d;fill-opacity:0.439516;stroke:none;stroke-width:0.264583px;stroke-linecap:butt;stroke-linejoin:miter;stroke-opacity:1"
       d="m 81.56477,236.62596 c 0,0 0.307737,4.9684 0.923205,6.99095 0.615467,2.02254 1.934331,6.94699 2.681685,8.79365 0.747354,1.84666 2.32999,6.50731 2.373955,7.25478 0.04395,0.74745 1.362828,5.32015 1.230941,6.33142 -0.131887,1.01129 1.670559,2.81397 1.670559,2.81397 0,0 0.395659,-2.63809 2.06622,-3.29762 1.670554,-0.65952 2.857537,0.0879 2.857537,0.0879 0,0 -0.747357,-1.40699 -1.011134,-3.86921 -0.263768,-2.46222 0,-10.06873 0.395661,-12.26715 0.395661,-2.19841 0.791321,-4.74857 0.879241,-5.97969 0.08791,-1.2311 0.766151,-7.40062 0.4242,-8.39551"
       id="path937"
       sodipodi:nodetypes="csssscscsssc" />
    <path
       style="fill:#4d4d4d;fill-opacity:0.439516;stroke:none;stroke-width:0.264583px;stroke-linecap:butt;stroke-linejoin:miter;stroke-opacity:1"
       d="m 81.56477,236.62596 c 1.933368,-0.0441 5.22847,-1.28775 7.249059,-1.50538 2.020582,-0.21764 6.186086,0.0933 7.243011,-0.0311"
       id="path939"
       sodipodi:nodetypes="csc" />
    <path
       style="fill:#4d4d4d;fill-opacity:0.439516;stroke:none;stroke-width:0.264583px;stroke-linecap:butt;stroke-linejoin:miter;stroke-opacity:1"
       d="m 72.400473,120.27315 c 0,0 -0.590633,0.94825 -0.74606,1.25916 -0.155427,0.3109 -0.450748,1.50788 -0.979206,1.80323 -0.528458,0.29536 -0.746061,0.59072 -1.849609,0.60626 -1.103548,0.0155 -1.756355,-0.10881 -1.818527,-0.43526 -0.06217,-0.32645 -0.575088,-1.25916 -0.823775,-1.39907 -0.248688,-0.1399 -1.010293,-1.01043 -1.010293,-1.01043 0,0 0.870405,-0.1399 1.134635,-0.34199 0.264231,-0.20209 0.481832,0.38863 0.917035,0.29535 0.4352,-0.0933 1.196808,-1.10369 1.694181,-0.94825 0.497372,0.15546 3.481619,0.171 3.481619,0.171 z"
       id="path943"
       sodipodi:nodetypes="csscsscsssc" />
    <path
       id="path945"
       style="fill:#4d4d4d;fill-opacity:0.439516;stroke:none;stroke-width:0.264583px;stroke-linecap:butt;stroke-linejoin:miter;stroke-opacity:1"
       d="m 58.256257,273.23717 c -1.056921,0 -2.238042,3.97949 -2.238042,3.97949 l -0.435054,0.80845 0.124207,3.54437 -0.870443,2.61169 c 0,0 0.808381,2.02075 1.523357,2.79802 0.714975,0.77727 1.274343,1.49215 3.326011,1.52325 2.051669,0.0311 3.388446,-1.026 3.388446,-1.026 0,0 0.342066,-1.49236 0.342066,-1.64781 0,-0.15545 -0.715018,-3.51315 -0.715018,-3.51315 l -0.715016,2.67382 -0.279964,0.37299 h -3.73018 l -0.839225,-0.55933 -0.59081,-3.14015 -0.124207,-3.79315 c 0,0 1.118951,-3.29559 2.238043,-3.29559 1.119093,0 2.269258,1.61691 2.269258,1.61691 0,0 0.559525,1.98963 0.621697,2.3938 0.06217,0.40419 0.715018,3.60661 0.715018,3.9486 0,0.34199 0.248745,-0.59091 0.248745,-0.59091 0,0 -0.528303,-3.94841 -0.745903,-4.69458 -0.217601,-0.74616 -0.777453,-2.0208 -0.777453,-2.0208 0,0 -1.678611,-1.98992 -2.735533,-1.98992 z"
       sodipodi:nodetypes="sccccsscscccccccscsscscs" />
    <path
       id="path950"
       style="fill:#4d4d4d;fill-opacity:0.439516;stroke:none;stroke-width:0.264583px;stroke-linecap:butt;stroke-linejoin:miter;stroke-opacity:1"
       d="m 93.914479,265.24134 c -0.406132,-0.004 -0.881086,0.0656 -1.403134,0.27169 -1.670558,0.65954 -2.066339,3.29758 -2.066339,3.29758 0,0 -1.488648,-1.48902 -1.660849,-2.51968 l -0.295243,0.45338 0.131848,3.34142 c 0,0 0.703312,0.28572 0.967084,0.61549 0.263774,0.32975 2.000442,2.50651 2.286194,3.0561 0.285755,0.54961 1.472481,2.57183 1.846164,2.92358 0.373683,0.35176 1.560593,1.01134 2.835495,1.03332 1.274902,0.022 2.791641,-0.43971 3.385128,-0.81343 0.593483,-0.37374 0.967323,-0.94533 0.879403,-1.407 -0.0879,-0.46165 -0.28594,-0.76929 -0.63764,-1.34088 -0.351697,-0.57158 -0.945166,-1.38506 -0.945166,-1.38506 l -0.08764,0.74733 c 0,0 -1.69266,-0.24177 -2.41804,-0.0219 -0.725371,0.21986 -1.934441,0.81344 -2.308115,0.70351 -0.373684,-0.10991 -1.318656,-0.92338 -1.714317,-1.62687 -0.395661,-0.70351 -1.472937,-2.57192 -1.802653,-2.65986 0,-0.98928 0.967304,-3.1218 2.176263,-3.49555 1.208961,-0.37373 2.109978,-0.21995 2.417719,0.0439 l 0.68048,0.90279 -0.450665,-1.25919 -0.361662,-0.50089 c 0,0 -0.560782,-0.35322 -1.454284,-0.35971 z"
       sodipodi:nodetypes="csccccsssssssccssscscccccc" />
  </g>
</svg>
