<?xml version="1.0" encoding="UTF-8" standalone="no"?>
<svg
   xmlns:dc="http://purl.org/dc/elements/1.1/"
   xmlns:cc="http://creativecommons.org/ns#"
   xmlns:rdf="http://www.w3.org/1999/02/22-rdf-syntax-ns#"
   xmlns:svg="http://www.w3.org/2000/svg"
   xmlns="http://www.w3.org/2000/svg"
   xmlns:sodipodi="http://sodipodi.sourceforge.net/DTD/sodipodi-0.dtd"
   xmlns:inkscape="http://www.inkscape.org/namespaces/inkscape"
   width="210mm"
   height="297mm"
   viewBox="0 0 210 297"
   version="1.1"
   id="svg1623"
   inkscape:version="1.0.1 (3bc2e813f5, 2020-09-07)"
   sodipodi:docname="biggie_out.svg">
  <defs
     id="defs1617" />
  <sodipodi:namedview
     id="base"
     pagecolor="#ffffff"
     bordercolor="#666666"
     borderopacity="1.0"
     inkscape:pageopacity="0.0"
     inkscape:pageshadow="2"
     inkscape:zoom="0.93829921"
     inkscape:cx="263.01692"
     inkscape:cy="693.63198"
     inkscape:document-units="mm"
     inkscape:current-layer="layer1"
     inkscape:document-rotation="0"
     showgrid="false"
     inkscape:window-width="1920"
     inkscape:window-height="1017"
     inkscape:window-x="-8"
     inkscape:window-y="-8"
     inkscape:window-maximized="1" />
  <metadata
     id="metadata1620">
    <rdf:RDF>
      <cc:Work
         rdf:about="">
        <dc:format>image/svg+xml</dc:format>
        <dc:type
           rdf:resource="http://purl.org/dc/dcmitype/StillImage" />
        <dc:title />
      </cc:Work>
    </rdf:RDF>
  </metadata>
  <g
     inkscape:label="Layer 1"
     inkscape:groupmode="layer"
     id="layer1">
    <path
       id="path1522"
       style="fill:#b3b3b3;stroke:#000000;stroke-width:0.264583px;stroke-linecap:butt;stroke-linejoin:miter;stroke-opacity:1"
       d="M -3.9434679,3.9715948 V 217.99422 c 0.32814,-0.0744 0.656301,-0.14881 0.984436,-0.22325 3.641378,-1.36331 6.945612,-3.36943 10.399881,-5.15162 1.201872,-0.74892 2.5666199,-1.09728 3.9227579,-1.44952 4.706993,-1.23863 9.494924,-2.15206 14.212056,-3.34709 3.431323,-3.39141 6.750124,-6.89428 10.152348,-10.31461 0.16664,-2.18381 -0.401722,-4.32581 -0.828373,-6.44819 -0.725345,-2.97715 -0.608727,-6.07073 -0.19172,-9.08265 0.53155,-2.68359 -0.988034,-5.14065 -1.329635,-7.73854 0.975469,-1.90043 1.947236,-3.80288 2.92127,-5.70405 -0.106333,-1.00984 -0.521173,-2.05267 -0.746209,-3.07526 -0.361622,-0.87136 -0.534657,-1.98901 0.196371,-2.73265 1.860198,-1.41165 3.610258,-2.97595 5.55625,-4.27519 0.23482,-1.82008 0.407617,-3.6477 0.610817,-5.4715 0.32866,-1.33359 0.162708,-2.73098 -0.298175,-4.01578 -1.050446,-2.58938 -0.8798,-5.43574 -0.664559,-8.16022 0.04792,-2.98926 0.755679,-5.91649 1.716175,-8.73384 1.333828,-3.78561 2.596774,-7.60518 4.17649,-11.29853 1.142336,-2.37124 2.569456,-4.56259 4.110856,-6.6797 l 0.0842,-3.14968 11.5502,-29.409051 9.41493,-14.26786 7.76439,-15.82075 0.87384,-2.42672 2.62052,-2.52336 v 3.10575 l -1.74718,2.91197 -1.35858,4.75578 c 0,0 -3.00917,9.60889 3.49385,12.52069 6.50302,2.91179 15.04457,-3.39721 15.04457,-3.39721 0,0 11.064561,-8.15307 13.394011,-10.96781 2.32943,-2.81474 5.62962,-8.152991 5.62962,-8.152991 l 1.74718,-0.48524 1.26194,-3.105754 -0.77669,-1.456243 1.84434,-3.008603 h 3.78528 l 2.23244,1.940967 -0.7767,3.00912 -1.35909,1.747181 -0.87334,2.232422 -0.67954,2.523361 -1.35858,9.41493 3.68816,11.25874 c 0,0 3.78524,7.08558 10.28825,9.51208 6.50302,2.4265 14.55932,1.65003 14.55932,1.65003 0,0 9.22037,-4.46501 12.22923,-7.37681 3.00886,-2.9118 4.85294,-7.08536 4.85294,-7.08536 l 1.45624,-3.0086 0.19378,-2.91196 2.52388,-2.52336 3.2029,1.74666 1.16478,2.81481 -0.67954,2.91197 -1.35856,0.38809 -1.1648,2.71766 -2.23241,11.25927 c 0,0 -0.48545,10.87035 0.38809,13.29686 0.87354,2.4265 1.8441,14.656301 7.08534,17.762221 5.24124,3.10592 15.14121,-13.685471 15.14121,-13.685471 l 3.88244,-7.08535 1.65004,1.26193 -0.1938,3.88194 -2.42672,2.03863 -16.79122,45.812191 -2.32957,2.52336 0.58238,3.59152 -7.3768,14.85025 -1.75804,1.52032 c 0.39175,0.48287 0.76223,0.98325 1.14412,1.47381 1.30632,1.345 2.06858,3.17666 2.10789,5.05189 -0.16055,5.42215 -0.10618,10.99014 -1.89809,16.18299 -0.81662,1.44276 -0.3913,3.07362 -0.3638,4.62143 -0.19381,2.41086 -1.14616,4.693 -1.8495,6.98717 -0.26029,0.97643 -0.70611,1.91308 -0.86868,2.90628 1.43284,2.38144 1.35073,5.28868 2.43137,7.80262 4.23172,1.70162 8.53389,3.23414 12.66642,5.17178 6.74947,3.3605 13.5917,6.58048 20.0148,10.54613 1.96247,1.01917 3.91189,2.3569 4.89893,4.40903 1.29874,0.53078 2.59754,1.0616 3.89639,1.59215 V 3.9715948 Z M 78.107849,103.97172 c -1.5053,0.002 -2.33525,0.0553 -2.33525,0.0553 l -7.13755,0.54932 -6.31435,4.25504 -1.92133,2.60811 -3.56929,4.39198 -4.39198,6.4518 -3.43183,9.0594 -2.058787,6.58874 -0.411861,7.13755 1.509988,5.2157 -1.373048,12.90309 h -2.058786 l -3.01997,2.33319 0.961181,3.5693 -3.01997,5.90196 1.235583,4.52996 -0.686263,7.41195 1.646928,8.92245 -0.411861,4.52944 -0.960665,0.68626 -11.804968,12.07937 -16.883205,3.84318 -11.5300449,6.03994 -4.255037,0.96066 0.171049,73.85545 H 138.30367 l 7.56594,-40.93032 2.13527,-9.90018 3.10575,-5.43533 0.97049,4.65863 v 14.55932 l -2.13527,7.76491 -3.49436,15.14118 -1.93684,14.14179 h 67.69613 l -0.27284,-57.45232 -8.57881,-3.50056 -1.23506,-2.47065 -6.45182,-3.98063 -16.19694,-8.23568 -13.72629,-5.42189 c 0,0 -1.78451,-3.91188 -1.85312,-4.25504 -0.0686,-0.34315 -0.82371,-4.18682 -0.82371,-4.18682 l -1.71566,-3.43132 1.44125,-4.80435 1.71565,-5.14749 -0.20566,-4.87257 1.16684,-2.60811 0.82322,-4.04937 0.43924,-6.00583 0.0413,-4.01423 c 0,0 -2.12773,-2.74545 -2.26499,-3.01997 -0.13725,-0.27453 -2.6081,-0.2744 -2.6081,-0.2744 l 0.20619,-1.50999 2.29804,-6.92981 0.72193,-11.12025 c -2.74522,-11.53014 -18.25648,-22.5114 -42.00308,-35.27691 -19.29411,-10.37198 -38.497511,-11.32009 -45.020511,-11.31094 z m -7.61969,64.91232 c 2.684709,-0.66149 4.637018,-1.16722 9.26507,0.54932 l 4.25504,1.57819 -1.02939,2.19625 -0.755,0.0687 -3.50004,1.64693 -4.1181,0.68678 -4.80384,-0.20619 -2.47117,-1.23506 -1.57819,-4.1181 z m 56.551601,3.88555 c 0.0876,-0.0255 0.18279,-0.0277 0.25928,-0.0713 1.57651,-0.89807 7.78703,1.39575 9.34938,1.62416 l 0.26266,0.0384 1.7274,0.25253 c 0,0 1.45572,0.82499 1.45572,1.06764 0,0.24265 -0.63097,2.6696 -0.63097,2.6696 0,0 -0.38782,0.63059 -1.21284,0.77618 -0.82501,0.14559 -2.81482,0.5824 -2.81482,0.5824 l -4.17391,-0.48525 -3.63956,-1.31051 -1.98954,-0.97048 -2.28101,-1.26194 -0.14572,-1.79524 z m -30.282911,45.03549 3.882441,1.26194 5.53248,-1.16479 4.562,2.91197 4.85294,3.7853 1.26193,1.84433 -5.24154,-2.42673 -4.75578,-0.38809 -2.23242,0.5824 -1.74718,0.38809 -4.464841,0.29094 -3.49385,-1.45573 -2.52388,-0.58239 -1.84381,-0.19379 -3.68866,-0.0971 5.72678,-3.49436 z m -1.49294,11.54348 3.0887,1.16686 2.882521,1.09812 1.99005,-1.0294 2.88251,-0.54932 3.29438,-0.0682 4.11809,1.37253 2.81378,0.34313 1.99058,1.02939 2.95125,1.57872 1.37252,0.13694 -3.15691,3.15743 -4.52996,3.01946 -2.60811,1.50998 -2.47065,1.64693 -6.38256,-0.0682 -6.863141,0.13694 -2.60811,-0.61753 -3.8437,-2.33371 -4.39249,-3.56878 -1.44126,-2.53938 -1.02939,-3.56877 5.01003,0.0687 3.98063,-1.64745 z m -46.06643,17.2837 6.98871,14.3645 1.35858,11.45355 2.32957,25.04138 -5.82393,0.19381 -2.13527,-9.12352 -2.32906,-21.3532 z"
       sodipodi:nodetypes="cccccccccccccccccccccccccccccscscccccccccccccscsccccccccccsscccccccccccccccccccccccscccccccccccccccccccccccccccccccccccccccccscccccccccsccccsssssccccccccssssccscsccccccscccccccccccccccccccccccccccccccccccccccccccccccccc" />
  </g>
</svg>
