<?xml version="1.0" encoding="UTF-8" standalone="no"?>
<svg
   xmlns:dc="http://purl.org/dc/elements/1.1/"
   xmlns:cc="http://creativecommons.org/ns#"
   xmlns:rdf="http://www.w3.org/1999/02/22-rdf-syntax-ns#"
   xmlns:svg="http://www.w3.org/2000/svg"
   xmlns="http://www.w3.org/2000/svg"
   xmlns:sodipodi="http://sodipodi.sourceforge.net/DTD/sodipodi-0.dtd"
   xmlns:inkscape="http://www.inkscape.org/namespaces/inkscape"
   width="210mm"
   height="297mm"
   viewBox="0 0 210 297"
   version="1.1"
   id="svg8"
   inkscape:version="1.0.1 (3bc2e813f5, 2020-09-07)"
   sodipodi:docname="drawing-2.svg">
  <defs
     id="defs2">
    <filter
       style="color-interpolation-filters:sRGB;"
       inkscape:label="Greyscale"
       id="filter905">
      <feColorMatrix
         values="0.180723 0.72 0.072 0 0 0.180723 0.72 0.072 0 0 0.180723 0.72 0.072 0 0 0 0 0 1 0 "
         id="feColorMatrix903" />
    </filter>
    <filter
       style="color-interpolation-filters:sRGB;"
       inkscape:label="Greyscale"
       id="filter909">
      <feColorMatrix
         values="0.180723 0.72 0.072 0 0 0.180723 0.72 0.072 0 0 0.180723 0.72 0.072 0 0 0 0 0 1 0 "
         id="feColorMatrix907" />
    </filter>
    <filter
       style="color-interpolation-filters:sRGB;"
       inkscape:label="Greyscale"
       id="filter913">
      <feColorMatrix
         values="0.180723 0.72 0.072 0 0 0.180723 0.72 0.072 0 0 0.180723 0.72 0.072 0 0 0 0 0 1 0 "
         id="feColorMatrix911" />
    </filter>
  </defs>
  <sodipodi:namedview
     id="base"
     pagecolor="#ffffff"
     bordercolor="#666666"
     borderopacity="1.0"
     inkscape:pageopacity="0.0"
     inkscape:pageshadow="2"
     inkscape:zoom="0.98994949"
     inkscape:cx="498.68884"
     inkscape:cy="494.85746"
     inkscape:document-units="mm"
     inkscape:current-layer="layer1"
     inkscape:document-rotation="0"
     showgrid="false"
     inkscape:window-width="1920"
     inkscape:window-height="1017"
     inkscape:window-x="-8"
     inkscape:window-y="-8"
     inkscape:window-maximized="1" />
  <metadata
     id="metadata5">
    <rdf:RDF>
      <cc:Work
         rdf:about="">
        <dc:format>image/svg+xml</dc:format>
        <dc:type
           rdf:resource="http://purl.org/dc/dcmitype/StillImage" />
        <dc:title />
      </cc:Work>
    </rdf:RDF>
  </metadata>
  <g
     inkscape:label="Layer 1"
     inkscape:groupmode="layer"
     id="layer1">
    <path
       style="fill:#fdd600;stroke-width:0.999999;filter:url(#filter913)"
       d="m 28.512344,167.37684 c -3.11041,-0.23294 -6.012703,-0.49886 -6.339266,-0.58086 -0.288047,-0.0723 -0.407808,-0.14549 -0.400401,-0.24464 0.0059,-0.0778 0.67528,-1.03731 1.487769,-2.13221 4.234748,-5.70691 7.66438,-10.96284 14.569961,-22.32854 3.822199,-6.2908 3.758993,-6.18774 5.662274,-9.23259 2.117357,-3.38727 4.209893,-6.61967 6.822526,-10.53908 3.952166,-5.92891 6.024291,-8.92508 14.155998,-20.46846 1.029265,-1.4611 3.124036,-4.459513 4.655036,-6.663139 1.530986,-2.203624 2.822295,-4.045786 2.8696,-4.093691 0.05675,-0.05746 0.06709,-0.013 0.03029,0.130648 -0.03061,0.119762 0.102778,-0.08616 0.29628,-0.457612 0.193502,-0.371449 1.847387,-2.84073 3.675246,-5.48729 8.340124,-12.075612 9.787991,-14.098497 17.074915,-23.855857 l 3.359388,-4.498256 0.448823,-0.09626 c 0.832797,-0.178599 0.897879,-0.156507 1.491065,0.506017 1.190332,1.329515 2.578552,3.469742 3.741532,5.768371 0.95524,1.88802 2.86609,6.064156 3.97871,8.695432 1.80195,4.261478 2.06043,4.8642 2.63053,6.133627 0.4912,1.093758 0.58677,1.381693 0.56685,1.707551 -0.0217,0.357099 -0.0184,0.364842 0.0389,0.0871 0.0618,-0.299595 0.0717,-0.286085 0.57886,0.783898 1.72581,3.641352 3.24258,6.568048 5.9568,11.493996 1.17856,2.138903 1.21674,2.224122 1.07295,2.393744 -0.14162,0.167083 -0.14136,0.169888 0.005,0.0561 0.085,-0.06588 0.17672,-0.0976 0.20384,-0.07049 0.027,0.02713 0.43829,0.802093 0.91372,1.722177 0.67502,1.306343 0.84271,1.699028 0.76538,1.792213 -0.0778,0.09378 -0.0641,0.11965 0.0641,0.120825 0.11285,9.88e-4 0.26619,0.195536 0.49781,0.631474 0.18409,0.346489 1.13994,2.158582 2.12411,4.026872 5.07528,9.63479 7.2726,13.40258 11.02257,18.90066 6.77305,9.93039 12.74263,16.60888 21.83757,24.43088 2.77199,2.38403 3.96533,3.47155 5.32204,4.85015 1.48033,1.50425 2.11252,2.22696 3.9102,4.47016 0.78701,0.98205 2.04898,2.54004 2.80442,3.46222 l 1.37347,1.67667 h -0.46475 c -0.83057,0 -2.669,-0.17097 -4.67091,-0.43436 -3.16551,-0.41651 -8.89251,-0.95454 -12.01978,-1.12923 -4.65111,-0.25982 -13.86324,-0.35212 -17.59415,-0.17629 -2.02742,0.0956 -9.39599,0.59125 -12.97787,0.87305 -3.49633,0.27507 -5.48698,0.47986 -11.41007,1.17377 -6.8594,0.80358 -8.829239,1.00615 -13.500509,1.38822 -10.881549,0.89008 -14.071032,1.10462 -22.036225,1.48238 -7.439904,0.35284 -11.034562,0.59177 -15.808632,1.05077 -4.29295,0.41274 -6.632876,0.69135 -13.064976,1.55569 -6.957398,0.9349 -9.788683,1.18794 -13.064974,1.16761 -1.245547,-0.008 -2.44099,-0.0273 -2.656548,-0.0434 z m 16.157016,-9.51998 c 5.140564,-0.13508 7.383904,-0.45981 16.940932,-2.45223 4.104386,-0.85566 5.878889,-1.19705 8.555024,-1.64587 3.142237,-0.52699 11.27421,-1.67323 16.050687,-2.26243 2.347333,-0.28955 6.168838,-0.79823 8.492209,-1.1304 9.435808,-1.34901 15.660748,-1.84066 24.823468,-1.96061 2.13178,-0.0279 4.75784,-0.0879 5.83569,-0.13338 1.07786,-0.0454 3.44916,-0.12258 5.26955,-0.17138 1.82039,-0.0488 4.03489,-0.14661 4.92113,-0.21736 3.41125,-0.27232 5.57526,-0.39243 7.07014,-0.39243 1.43622,0 1.55275,-0.0118 1.55275,-0.15652 0,-0.24331 -0.48237,-0.65186 -2.8743,-2.43439 -2.64141,-1.96846 -3.48854,-2.71893 -5.78711,-5.12689 -0.95533,-1.00079 -3.99296,-4.11287 -6.75024,-6.91572 -5.03071,-5.11382 -6.0018,-6.16339 -8.98489,-9.71088 -5.06889,-6.02792 -6.15135,-7.68451 -10.98462,-16.81027 -4.36738,-8.246207 -4.99568,-9.524887 -6.9331,-14.110173 -1.957824,-4.633565 -2.845042,-7.541194 -4.066295,-13.326275 -0.606152,-2.871266 -0.716005,-3.530093 -0.868123,-5.206314 -0.136389,-1.503045 -0.281924,-2.498353 -0.658458,-4.503731 -0.108935,-0.580155 -0.167206,-1.147011 -0.138757,-1.350046 0.02699,-0.192492 -0.276916,0.590689 -0.675382,1.740407 -0.873193,2.519642 -1.147348,3.209785 -2.37071,5.967808 -2.763826,6.231069 -7.445695,14.899356 -11.430842,21.163792 -1.187513,1.866714 -3.800604,5.785272 -5.836518,8.752412 -3.70379,5.39787 -5.75122,8.52715 -9.403688,14.3726 -4.325507,6.92257 -5.784143,9.18001 -10.580367,16.37477 -4.03216,6.04855 -4.090461,6.13316 -5.937515,8.61719 -2.044539,2.74964 -3.376006,4.68584 -4.942289,7.18706 -1.454323,2.32242 -2.491061,3.77627 -3.507817,4.91905 -0.361095,0.40584 -0.656483,0.77581 -0.656483,0.82219 0,0.20513 -0.06255,0.20351 3.875924,0.10002 z M 40.796695,136.3955 c -0.05353,-0.16219 -0.309049,-0.6094 -0.56783,-0.99378 -0.258781,-0.38439 -0.614906,-0.98659 -0.791355,-1.33823 -0.625374,-1.24614 -0.731705,-1.32272 -2.036671,-1.46632 -0.494552,-0.0544 -1.099549,-0.17434 -1.344504,-0.26651 -0.653092,-0.24574 -2.51259,-1.72307 -2.812124,-2.23417 -0.334957,-0.57158 -0.640846,-1.68645 -0.625111,-2.27837 0.0072,-0.27003 0.02897,-0.38725 0.04846,-0.26049 0.114099,0.74275 1.308883,0.78281 3.256243,0.10916 1.79672,-0.62153 3.381043,-1.87305 3.737167,-2.95219 0.05982,-0.18121 0.157883,-0.30528 0.241301,-0.30528 0.119663,0 0.116766,-0.0174 -0.01942,-0.117 -0.153505,-0.11226 -0.151562,-0.12843 0.04869,-0.39942 0.18853,-0.25514 0.208414,-0.36792 0.205879,-1.16772 -0.0033,-0.78905 -0.02831,-0.93433 -0.237713,-1.33614 -0.320703,-0.61535 -0.468545,-0.64215 -1.179345,-0.21376 -0.724067,0.43637 -1.275043,0.67882 -2.496493,1.09857 -0.902327,0.31006 -0.998386,0.3256 -1.742007,0.28184 -0.463147,-0.0273 -1.020015,-0.12486 -1.353193,-0.23718 -1.210553,-0.40807 -1.446422,-0.5717 -3.01129,-2.08877 -0.822924,-0.79784 -1.726502,-1.6 -2.007899,-1.78259 -0.281397,-0.18259 -0.63841,-0.415 -0.793363,-0.51647 -0.15492,-0.10147 -0.300161,-0.23217 -0.322744,-0.29044 -0.06548,-0.16892 0.483392,-0.78901 2.850444,-3.22033 2.437896,-2.50408 2.65003,-2.79731 2.855514,-3.94716 0.145176,-0.81233 -0.0033,-1.97518 -0.406722,-3.21061 -0.357441,-1.09161 -0.786482,-1.96281 -1.499851,-3.0457 -0.29463,-0.44724 -0.580274,-0.97637 -0.634723,-1.17585 -0.149916,-0.54893 -0.04181,-1.84413 0.350397,-4.198276 0.191855,-1.151479 0.41031,-2.582094 0.485531,-3.179144 0.164039,-1.302491 0.299371,-5.569974 0.30375,-9.57778 0.0033,-3.017508 0.167067,-5.59944 0.615992,-9.711631 0.455179,-4.16932 1.083253,-5.82471 3.366787,-8.874065 2.017182,-2.693657 6.840105,-6.4166 11.000026,-8.491218 3.507026,-1.749 6.091085,-2.35372 9.307695,-2.178167 3.591465,0.196014 7.044602,1.170385 9.85123,2.779714 2.636467,1.511765 5.712049,4.21386 6.990943,6.142024 1.41877,2.139099 2.570071,5.27273 3.166341,8.618414 0.214804,1.205267 0.220196,4.506476 0.0099,6.072957 -0.477002,3.55339 -1.064785,5.599931 -2.40836,8.385615 -0.621826,1.289179 -0.809464,1.56922 -6.536758,9.755181 -1.374164,1.964106 -3.809985,5.432856 -5.412941,7.708336 -8.239617,11.69675 -13.37916,19.36725 -18.543986,27.67597 -0.930572,1.49703 -1.718635,2.72188 -1.751258,2.72188 -0.03259,0 -0.103104,-0.13271 -0.156632,-0.2949 z m -2.921123,-19.16659 c 0.287422,-0.0675 0.855746,-0.16697 1.262962,-0.22102 1.145175,-0.15204 2.123052,-0.40713 2.852288,-0.74406 0.823649,-0.38055 2.159527,-1.37282 2.489283,-1.84899 0.416367,-0.60129 0.808111,-1.68752 0.602989,-1.67194 -0.03595,0.003 -0.206768,0.1909 -0.379662,0.41816 -0.487606,0.64095 -1.830298,1.61229 -2.847581,2.06 -1.191657,0.52445 -2.533856,0.91377 -3.15021,0.91377 -0.97317,0 -2.684958,-0.58983 -3.135298,-1.08033 -0.196859,-0.21441 -0.252461,-0.22929 -0.664483,-0.17781 -0.247325,0.0309 -0.469631,0.0229 -0.494057,-0.0179 -0.02436,-0.0407 -0.0063,-0.32347 0.04056,-0.62832 0.124534,-0.81283 0.01942,-0.84193 -0.665635,-0.18415 -0.314449,0.30194 -0.591729,0.52898 -0.616155,0.50453 -0.02436,-0.0245 0.114593,-0.52541 0.309015,-1.11324 0.194423,-0.58783 0.341969,-1.10289 0.327879,-1.14458 -0.01416,-0.0417 -0.868286,0.80548 -1.89821,1.8826 -1.029956,1.07712 -1.929485,1.95858 -1.998945,1.95878 -0.09329,2.7e-4 -0.1008,0.0259 -0.02864,0.098 0.06314,0.0631 0.600289,0.1017 1.519899,0.10915 l 1.422259,0.0115 1.219375,0.4107 c 0.670671,0.22589 1.376204,0.4472 1.567797,0.4918 0.532047,0.12385 1.681271,0.11029 2.264606,-0.0267 z m -6.231946,-13.4707 c -0.100109,-0.19626 -0.165322,-0.37356 -0.144879,-0.39399 0.0821,-0.0821 0.335912,0.0881 0.453171,0.30389 0.06851,0.12606 0.126115,0.17842 0.128025,0.11636 0.0033,-0.0621 -0.0927,-0.20904 -0.210291,-0.32662 -0.218455,-0.21846 -0.482997,-0.28595 -0.482997,-0.12322 0,0.11491 0.337229,0.78043 0.395464,0.78043 0.02403,0 -0.03835,-0.16059 -0.138493,-0.35685 z m 7.079396,-2.13842 c 0.54752,-0.21134 3.34526,-1.808181 3.916053,-2.235105 0.947789,-0.708928 2.237119,-1.90105 3.030021,-2.801576 0.991473,-1.126078 1.826512,-1.821752 2.353621,-1.960795 0.824341,-0.217447 2.586429,-0.814984 2.963227,-1.004855 0.600125,-0.30238 1.580998,-1.258026 1.891397,-1.842725 0.46476,-0.875478 0.664384,-2.642373 0.425322,-3.764955 -0.477993,-2.24471 -2.014451,-3.420566 -5.323498,-4.074093 -1.174803,-0.232021 -3.823878,-0.20925 -5.213185,0.04481 -2.918226,0.533669 -5.16443,1.606553 -6.164924,2.944647 -2.453763,3.281724 -3.17513,7.77472 -1.824339,11.362577 0.258484,0.686571 1.107087,1.93806 1.76087,2.59684 0.840998,0.84746 1.404022,1.03687 2.185435,0.73523 z m 0.886295,-5.571101 C 39.413149,95.9791 39.04231,95.733767 38.785208,95.503504 l -0.467426,-0.418659 0.497119,-0.0513 c 1.036178,-0.106946 2.460808,-1.124465 2.93011,-2.092786 0.296145,-0.611097 0.485762,-1.561151 0.415775,-2.083095 l -0.04698,-0.350222 0.322909,0.05164 c 0.876156,0.140099 3.043321,0.154116 3.929583,0.02541 0.502189,-0.07293 0.921025,-0.124624 0.930769,-0.114886 0.0099,0.0097 -0.240478,0.232518 -0.556045,0.495065 -0.315568,0.262547 -1.322316,1.254307 -2.237251,2.203909 -1.69806,1.762408 -2.290547,2.24555 -3.393684,2.767425 -0.586628,0.277532 -0.957599,0.305385 -1.500773,0.112687 z m -1.479539,-3.5152 c -0.09971,-0.04034 -0.288343,-0.200547 -0.419166,-0.35602 -0.203904,-0.242314 -0.230042,-0.333656 -0.18323,-0.639707 0.07766,-0.507476 0.523784,-1.393781 0.767159,-1.524024 0.163445,-0.08748 0.315139,-0.08882 0.733778,-0.0065 0.485762,0.09557 0.531948,0.124719 0.580274,0.366448 0.106627,0.533163 0.05162,0.992359 -0.172861,1.442824 -0.353589,0.709566 -0.765381,0.935622 -1.305954,0.716931 z M 140.21788,131.73278 c -0.14369,-0.18414 -0.79399,-0.99597 -1.4451,-1.80406 -4.12296,-5.11701 -8.90575,-12.21154 -12.3819,-18.36663 -0.99756,-1.76629 -2.73644,-4.99241 -4.81209,-8.92773 -0.9475,-1.79644 -1.89578,-3.586855 -2.10725,-3.97871 l -0.38453,-0.712463 0.40665,-0.179893 c 1.14856,-0.508068 2.23679,-1.58535 3.48194,-3.446971 1.60125,-2.393974 2.11495,-3.748929 2.62538,-6.924435 0.20742,-1.290555 0.24366,-1.76462 0.23643,-3.092045 -0.0109,-2.004575 -0.17659,-2.897233 -0.89667,-4.832575 l -0.53416,-1.43568 -0.0184,-1.758218 c -0.0102,-0.967024 -0.0458,-1.74128 -0.0792,-1.72057 -0.0834,0.05154 -0.33525,-0.840267 -0.33525,-1.187111 0,-0.15464 0.0859,-0.420114 0.19084,-0.58994 0.10497,-0.169826 0.14461,-0.280205 0.0881,-0.245281 -0.0672,0.04152 -0.0854,0.01834 -0.0527,-0.06698 0.073,-0.190167 1.89614,-1.743789 2.58202,-2.200285 2.10775,-1.402827 3.79455,-1.936365 5.81462,-1.839147 0.96502,0.04644 1.41832,0.231207 1.80229,0.734604 0.21862,0.286652 0.24456,0.391106 0.24456,0.985193 0,0.592072 -0.0353,0.735296 -0.32324,1.313279 -1.0051,2.017308 -3.61181,4.923623 -5.76643,6.429212 -0.28337,0.198032 -0.44883,0.360059 -0.36768,0.360059 0.53291,0 3.74474,-2.107768 5.60812,-3.680316 2.00451,-1.69165 2.92715,-3.893206 2.24532,-5.357714 -0.29262,-0.628568 -0.61642,-1.032225 -1.02193,-1.27404 -0.46179,-0.275395 -0.35714,-0.304019 1.3556,-0.370675 3.1858,-0.123988 6.40656,0.331465 8.45603,1.195773 0.66268,0.279455 1.57688,0.861711 1.54011,0.980893 -0.0125,0.04029 0.0442,0.122043 0.1257,0.18167 0.0815,0.05963 0.24271,0.435629 0.35819,0.835563 0.2811,0.973766 0.81058,2.002106 1.40688,2.732609 0.82774,1.013963 2.03431,1.874924 2.6347,1.880029 0.28333,0.0023 0.36728,0.08324 0.24252,0.233559 -0.0534,0.06436 0.13308,-0.02196 0.41449,-0.191849 l 0.51159,-0.308875 0.0277,0.221723 c 0.0395,0.317793 -0.22241,3.019385 -0.42678,4.402345 -0.0956,0.646716 -0.38628,2.25371 -0.64601,3.571094 -0.25973,1.317384 -0.51782,2.767596 -0.57349,3.222693 -0.19133,1.56335 0.027,3.961857 0.66484,7.303344 0.45038,2.359428 0.82885,3.108537 2.4222,4.794523 0.76262,0.806955 0.99466,1.119645 1.32004,1.778768 0.72775,1.47426 0.84133,2.90074 0.31966,4.01553 -0.3507,0.7494 -0.5578,1.04181 -1.55912,2.20138 l -0.85212,0.98681 -0.48501,-0.0541 c -1.34065,-0.14955 -2.28877,0.48501 -3.51706,2.35393 -0.6738,1.0252 -0.98393,1.3785 -1.59591,1.81798 -0.55223,0.39656 -0.31843,0.38653 0.49234,-0.0211 0.87277,-0.43882 1.89684,-0.74009 2.97229,-0.87444 0.84115,-0.10507 3.50755,-0.0944 3.61595,0.0145 0.0326,0.0328 -0.0399,0.27691 -0.16144,0.54233 -0.27685,0.60478 -1.5884,1.98309 -2.3741,2.495 -0.62356,0.40628 -0.69064,0.411 -2.39635,0.16863 -0.92016,-0.13074 -1.33169,-0.0321 -2.55729,0.61292 -0.46457,0.24449 -0.93791,0.43281 -1.08786,0.43281 -0.14603,0 -0.2655,0.031 -0.2655,0.069 0,0.12309 0.7265,0.77217 1.28479,1.14786 0.58014,0.39039 2.10847,1.10795 3.11374,1.46191 0.57184,0.20135 0.6971,0.21258 2.01705,0.18085 l 1.40731,-0.0338 0.20403,0.48155 c 0.15861,0.37435 0.20197,0.62959 0.19483,1.14663 -0.0125,0.89954 -0.20904,1.27806 -1.11595,2.14875 -0.65994,0.63356 -0.77236,0.70652 -1.23751,0.8032 -1.13748,0.2364 -2.5863,-0.0654 -4.08276,-0.85035 -2.31606,-1.21494 -3.00789,-1.5182 -3.86829,-1.69563 -0.56631,-0.11679 -0.98706,-0.15487 -1.30727,-0.1183 -0.51697,0.059 -1.12032,0.29335 -1.29242,0.50193 -0.0966,0.11708 -0.27844,0.0715 -1.52425,-0.38179 -2.6202,-0.95346 -3.291,-1.1307 -4.46969,-1.18101 l -1.05185,-0.0449 -0.18932,0.24067 c -0.2389,0.3037 -0.23713,0.37899 0.0313,1.31796 0.40886,1.42986 1.29394,2.96454 2.85634,4.95266 0.3388,0.43114 0.94585,1.21504 1.34895,1.742 0.40309,0.52695 0.92029,1.15407 1.14935,1.39359 0.35967,0.37608 0.49353,0.6316 0.981,1.87265 0.57153,1.45507 0.70705,1.83174 0.65701,1.82584 -0.0151,-0.002 -0.1452,-0.15392 -0.28893,-0.33807 z m 11.64966,-26.32806 c 0.1908,-0.0572 0.52853,-0.27733 0.75047,-0.48926 0.22195,-0.21193 0.33954,-0.34053 0.26128,-0.28579 -0.0782,0.0547 -0.53247,0.11194 -1.00944,0.1271 -0.47698,0.0151 -0.91266,0.0556 -0.96827,0.09 -0.16456,0.10171 -0.11551,0.38056 0.0925,0.52629 0.23235,0.16276 0.4139,0.16935 0.87342,0.0317 z M 141.55708,92.312967 c 0.9369,-0.22551 1.95267,-0.818537 3.14876,-1.838265 1.47059,-1.253757 1.92077,-1.701991 2.50519,-2.494363 l 0.49745,-0.674497 0.0516,0.413198 0.0516,0.413194 0.0105,-0.479047 c 0.033,-1.487154 -0.55862,-2.944094 -1.62995,-4.013794 -1.01995,-1.018369 -2.05903,-1.42596 -3.62287,-1.421114 -0.71264,0.0023 -0.9867,0.04392 -1.50736,0.22942 -0.83741,0.298371 -1.71847,0.829437 -2.47236,1.490239 -1.37957,1.209226 -1.63131,1.388385 -2.63989,1.878844 -0.57485,0.279547 -1.53514,0.693913 -2.13395,0.920815 -0.98328,0.372588 -1.13725,0.407512 -1.58956,0.360556 -0.48323,-0.05017 -0.50084,-0.04476 -0.50084,0.154096 0,0.506439 3.52464,3.939692 4.61027,4.490751 0.45867,0.23281 1.08865,0.436938 1.92224,0.622832 0.86683,0.193314 2.37669,0.169118 3.29894,-0.05286 z m 0.18508,-3.754385 c -0.31139,-0.06727 -0.80134,-0.238519 -1.08876,-0.380544 -0.58168,-0.287421 -1.54926,-1.110244 -1.74056,-1.480126 l -0.12413,-0.240066 0.71646,-0.0447 c 0.63163,-0.03941 0.81134,-0.09237 1.51852,-0.447526 0.44112,-0.221559 0.82246,-0.402831 0.84735,-0.402831 0.025,0 0.0453,0.20931 0.0453,0.465138 0,0.644458 0.38625,1.388092 1.09409,2.106464 l 0.55572,0.563992 -0.62894,-0.0088 c -0.34588,-0.0048 -0.88369,-0.06379 -1.19504,-0.13106 z m 2.47522,-1.773683 c -0.23215,-0.09391 -0.63143,-0.567011 -0.69615,-0.824821 -0.0273,-0.109441 -0.0372,-0.33179 -0.0217,-0.49411 l 0.0283,-0.295128 0.45617,0.01886 c 0.25091,0.01037 0.65265,0.103397 0.89277,0.206699 0.38098,0.163891 0.43662,0.220111 0.43662,0.441196 0,0.139355 -0.0555,0.38614 -0.12328,0.548414 -0.18198,0.435579 -0.52952,0.578108 -0.97258,0.398874 z m -25.77274,9.897252 -0.51799,-0.987516 0.33217,-0.906906 c 0.3495,-0.954172 1.57773,-3.416981 2.50027,-5.013392 0.72996,-1.263192 1.38724,-2.662022 1.7743,-3.776049 0.38019,-1.094363 1.27469,-4.572032 1.48975,-5.792139 0.0845,-0.479049 0.16476,-0.831803 0.17845,-0.783898 0.0445,0.15541 0.29161,3.279311 0.34793,4.398542 0.12115,2.406566 -0.49581,5.380756 -1.74131,8.394656 -0.49515,1.198189 -0.90148,1.904947 -1.72108,2.993589 -0.71823,0.954037 -1.98847,2.46063 -2.07459,2.46063 -0.0273,0 -0.28298,-0.444382 -0.5679,-0.987517 z"
       id="path912" />
    <path
       style="fill:#fd7100;stroke-width:0.999999;filter:url(#filter909)"
       d="m 96.829283,214.23102 c 0.06252,-1.20647 0.216845,-2.72508 0.484675,-4.76871 0.263591,-2.01114 0.35623,-3.46671 0.443757,-6.97117 0.1432,-5.7319 -0.07716,-10.08749 -0.786285,-15.54251 -2.094541,-16.1125 -2.104644,-16.18669 -2.87816,-21.09942 -0.284521,-1.80722 -0.517332,-3.32177 -0.517332,-3.36567 0,-0.11162 0.393459,-0.20547 0.95809,-0.22851 0.263459,-0.0108 0.714227,-0.0398 1.001649,-0.0645 0.287421,-0.0247 0.757776,-0.0645 1.045198,-0.0885 1.367616,-0.11397 1.602688,-0.1341 2.090396,-0.17899 0.287421,-0.0265 0.689928,-0.0491 0.894464,-0.0504 0.204493,-10e-4 0.418994,-0.0314 0.476615,-0.067 0.0576,-0.0356 0.25183,-0.0541 0.4316,-0.0411 0.17978,0.013 0.37575,-0.007 0.43549,-0.0436 0.0598,-0.0369 0.25576,-0.0565 0.4355,-0.0436 0.17978,0.013 0.37627,-0.007 0.43668,-0.0443 0.0604,-0.0373 0.23678,-0.0569 0.39197,-0.0436 0.15519,0.0134 0.33156,-0.006 0.39198,-0.0435 0.0604,-0.0373 0.23675,-0.0569 0.39194,-0.0436 0.15518,0.0134 0.33156,-0.006 0.39194,-0.0436 0.0604,-0.0373 0.23675,-0.0569 0.39194,-0.0435 0.15518,0.0134 0.33104,-0.006 0.39079,-0.0428 0.0597,-0.0369 0.25268,-0.0567 0.42881,-0.044 0.17611,0.0127 0.34286,-0.0135 0.37052,-0.0583 0.0276,-0.0448 0.14862,-0.0626 0.26871,-0.0397 0.1201,0.0229 0.28763,0.0125 0.37226,-0.0233 0.0846,-0.0358 0.29686,-0.0571 0.47164,-0.0474 0.17477,0.01 0.34042,-0.019 0.36811,-0.0638 0.0277,-0.0448 0.14859,-0.0627 0.26868,-0.0397 0.12013,0.0229 0.28763,0.0135 0.37226,-0.021 0.16651,-0.0679 0.6608,-0.11981 1.17025,-0.12302 0.17576,-9.8e-4 0.34138,-0.0373 0.36808,-0.0805 0.0267,-0.0432 0.14682,-0.0597 0.26692,-0.0368 0.12012,0.023 0.28762,0.0145 0.37225,-0.0189 0.0846,-0.0334 0.44511,-0.0791 0.80107,-0.10154 0.35592,-0.0225 0.68107,-0.0618 0.72248,-0.0874 0.0414,-0.0256 0.37456,-0.0648 0.74037,-0.0871 0.36573,-0.0223 0.70237,-0.0636 0.74803,-0.0919 0.0894,-0.0553 0.59894,-0.10264 1.12914,-0.10498 0.18096,-9.8e-4 0.37173,-0.0279 0.42397,-0.0601 0.0523,-0.0323 0.25694,-0.0686 0.45489,-0.0808 0.19795,-0.0121 0.56578,-0.042 0.81736,-0.0665 2.10607,-0.20451 2.52569,-0.24215 3.854,-0.34569 0.31139,-0.0243 0.80132,-0.0633 1.08874,-0.0867 0.28744,-0.0234 0.77737,-0.0616 1.08876,-0.0848 0.31138,-0.0232 0.86012,-0.0641 1.21941,-0.0908 0.35928,-0.0267 0.91783,-0.0664 1.24127,-0.0881 0.3234,-0.0217 0.87214,-0.0603 1.2194,-0.0857 0.34724,-0.0254 0.90572,-0.0636 1.24107,-0.0848 0.33533,-0.0212 0.92323,-0.0608 1.30648,-0.0879 3.19473,-0.22625 4.34151,-0.29677 5.7486,-0.35348 1.47957,-0.0596 11.0128,-0.06 12.89076,-9.9e-4 3.40998,0.10807 3.94937,0.1283 4.74695,0.17809 1.6814,0.10496 3.41593,0.23669 4.52921,0.34398 0.48737,0.047 1.05589,0.0992 1.91618,0.17607 0.47177,0.0421 0.94997,0.0873 1.85071,0.17477 0.25157,0.0244 0.61942,0.0543 0.81736,0.0665 0.19795,0.0121 0.40472,0.0497 0.45946,0.0836 0.0548,0.0338 0.22649,0.0506 0.38167,0.0372 0.15518,-0.0134 0.33147,0.006 0.39174,0.0434 0.0603,0.0373 0.21648,0.0592 0.34714,0.0489 0.13066,-0.0104 0.29635,0.004 0.36821,0.0312 0.23919,0.0917 1.64341,0.25358 1.73091,0.1995 0.0474,-0.0293 0.11242,-0.0107 0.14452,0.0412 0.0319,0.0519 0.18234,0.0838 0.33391,0.0707 0.15152,-0.0131 0.3232,0.006 0.38147,0.0417 0.0583,0.036 0.27326,0.0675 0.47779,0.07 0.36738,0.004 0.90868,0.0351 2.3098,0.13084 0.39524,0.027 0.71861,0.0236 0.71861,-0.008 0,-0.11952 -0.8568,-1.07933 -0.91319,-1.02296 -0.0326,0.0327 -0.0467,0.0203 -0.0309,-0.0276 0.0408,-0.12535 -0.23481,-0.49035 -0.31198,-0.41317 -0.0356,0.0356 -0.0517,0.0242 -0.0357,-0.0253 0.0399,-0.12388 -0.67325,-1.00774 -0.75067,-0.93032 -0.0343,0.0343 -0.0492,0.0218 -0.0333,-0.0278 0.0399,-0.12389 -0.67321,-1.00774 -0.75064,-0.93031 -0.0343,0.0342 -0.0492,0.0223 -0.0332,-0.0265 0.0394,-0.12043 -1.63604,-2.22373 -1.71133,-2.14842 -0.0329,0.0329 -0.047,0.0205 -0.0313,-0.0274 0.0408,-0.12534 -0.23482,-0.49034 -0.31198,-0.41316 -0.0356,0.0356 -0.052,0.0256 -0.0364,-0.0223 0.0408,-0.12535 -0.23481,-0.49035 -0.31201,-0.41317 -0.0356,0.0356 -0.0517,0.0239 -0.0357,-0.0261 0.0391,-0.12248 -0.8491,-1.17945 -0.92626,-1.10228 -0.0335,0.0335 -0.0478,0.0184 -0.0319,-0.0335 0.0373,-0.12109 -0.59121,-0.82416 -0.66804,-0.74734 -0.0319,0.0318 -0.0447,0.0171 -0.0286,-0.0328 0.0349,-0.109 -1.23558,-1.52999 -1.32083,-1.47728 -0.0329,0.0203 -0.19327,-0.10859 -0.35656,-0.28637 l -0.29686,-0.32323 0.30803,0.2613 c 0.16937,0.14371 -0.0658,-0.0969 -0.5226,-0.53471 -0.45687,-0.4378 -0.86098,-0.77785 -0.89811,-0.75565 -0.0371,0.0222 -0.0567,0.008 -0.0436,-0.0314 0.0313,-0.0942 -0.75979,-0.82245 -0.83369,-0.7674 -0.0313,0.0233 -0.0401,0.0191 -0.0197,-0.009 0.0556,-0.0773 -0.57679,-0.60612 -0.6846,-0.57247 -0.0512,0.016 -0.0664,0.002 -0.034,-0.03 0.0769,-0.0769 -0.5413,-0.61765 -0.66283,-0.57972 -0.0511,0.016 -0.0658,0.002 -0.0326,-0.0315 0.077,-0.077 -0.45692,-0.52998 -0.57898,-0.49113 -0.0502,0.016 -0.064,0.002 -0.0306,-0.0315 0.077,-0.077 -0.45693,-0.52999 -0.57896,-0.49114 -0.0502,0.016 -0.064,0.002 -0.0306,-0.0315 0.077,-0.077 -0.45695,-0.52999 -0.57899,-0.49114 -0.0502,0.016 -0.064,0.002 -0.0306,-0.0315 0.077,-0.077 -0.45695,-0.52998 -0.57898,-0.49114 -0.0502,0.016 -0.0647,0.002 -0.0323,-0.03 0.0682,-0.0682 -0.53413,-0.61967 -0.64105,-0.58697 -0.0392,0.012 -0.0614,-0.008 -0.0495,-0.0435 0.0345,-0.10355 -0.77183,-0.81043 -0.84314,-0.73916 -0.0352,0.0353 -0.0514,0.0249 -0.0358,-0.023 0.0342,-0.10533 -0.83346,-0.93074 -0.91463,-0.87015 -0.0316,0.0235 -0.0421,0.0211 -0.0237,-0.005 0.0473,-0.0677 -0.91175,-0.9583 -1.00346,-0.9318 -0.0414,0.012 -0.0675,-0.008 -0.058,-0.0435 0.01,-0.0359 -0.42165,-0.49421 -0.95814,-1.0184 -0.53645,-0.5242 -0.97537,-0.91728 -0.97537,-0.87352 0,0.0438 -0.25285,-0.17106 -0.56194,-0.47739 -0.30908,-0.30633 -0.54587,-0.58299 -0.52621,-0.61481 0.0198,-0.0318 -0.11941,-0.20934 -0.30906,-0.39452 -0.18961,-0.18517 -0.34476,-0.30433 -0.34476,-0.26479 0,0.0395 -0.0598,0.0223 -0.13277,-0.0383 -0.073,-0.0606 -0.11258,-0.13035 -0.0879,-0.15503 0.0672,-0.0672 -1.46397,-1.63172 -1.5649,-1.59896 -0.0479,0.0155 -0.058,-9.9e-4 -0.0224,-0.0365 0.0711,-0.0711 -0.80854,-1.04831 -0.91398,-1.01536 -0.0359,0.0112 -0.0555,-0.0127 -0.0436,-0.0533 0.0313,-0.10638 -0.69556,-0.87838 -0.76334,-0.8106 -0.0313,0.0313 -0.0438,0.015 -0.028,-0.0362 0.0379,-0.12152 -0.50281,-0.73974 -0.57971,-0.66281 -0.0326,0.0325 -0.046,0.0181 -0.03,-0.0319 0.0403,-0.1261 -0.84955,-1.1774 -0.93297,-1.10227 -0.0372,0.0335 -0.0412,0.0148 -0.009,-0.0415 0.0679,-0.11849 -0.10797,-0.5509 -0.22401,-0.5509 -0.043,0 -0.0568,-0.0347 -0.0306,-0.0771 0.0653,-0.10565 -0.12154,-0.61971 -0.2252,-0.61971 -0.0461,0 -0.0628,-0.0338 -0.0373,-0.0751 0.0587,-0.0951 -0.2124,-0.79592 -0.3079,-0.79592 -0.0391,0 -0.0505,-0.0537 -0.0254,-0.11942 0.0254,-0.0657 -0.009,-0.17382 -0.0751,-0.2403 -0.0665,-0.0665 -0.10619,-0.16497 -0.0882,-0.21887 0.0181,-0.0539 -0.026,-0.15666 -0.0977,-0.22838 -0.0717,-0.0717 -0.11584,-0.14492 -0.0981,-0.16269 0.0178,-0.0178 -0.0635,-0.3458 -0.18066,-0.72895 -0.12631,-0.41329 -0.19311,-0.55493 -0.16414,-0.34823 l 0.0488,0.3484 -0.34599,-0.36104 c -0.19027,-0.19857 -0.37123,-0.33575 -0.40214,-0.30485 -0.031,0.0309 -0.0434,0.017 -0.0277,-0.0309 0.0408,-0.12535 -0.23482,-0.49035 -0.31199,-0.41317 -0.0356,0.0356 -0.0553,0.0256 -0.0437,-0.0223 0.0349,-0.14405 -0.10607,-0.39458 -0.19205,-0.34142 -0.0441,0.0272 -0.0729,0.0172 -0.0642,-0.0223 0.03,-0.13384 -0.11654,-0.37594 -0.19716,-0.32612 -0.044,0.0272 -0.0729,0.0172 -0.0641,-0.0223 0.0296,-0.13385 -0.11657,-0.37594 -0.19716,-0.32612 -0.0441,0.0272 -0.0696,0.0172 -0.0569,-0.0223 0.0371,-0.11459 -0.24557,-0.46935 -0.31708,-0.39786 -0.0356,0.0356 -0.052,0.0256 -0.0364,-0.0223 0.0408,-0.12535 -0.23482,-0.49035 -0.31198,-0.41317 -0.0356,0.0356 -0.052,0.0256 -0.0364,-0.0223 0.042,-0.12891 -0.23548,-0.48859 -0.3187,-0.41317 -0.0393,0.0356 -0.0452,0.0189 -0.0132,-0.0371 0.0323,-0.0561 -0.0763,-0.24453 -0.24127,-0.41946 -0.16473,-0.1747 -0.2997,-0.33627 -0.29992,-0.35905 0,-0.1214 -0.49462,-0.79912 -0.55486,-0.7619 -0.039,0.0241 -0.0653,0.0115 -0.0585,-0.0279 0.0309,-0.17788 -0.0158,-0.29512 -0.0974,-0.24467 -0.0491,0.0304 -0.0836,0.0228 -0.0768,-0.0166 0.0309,-0.17788 -0.0158,-0.29512 -0.0974,-0.24466 -0.0491,0.0303 -0.0837,0.0228 -0.0768,-0.0166 0.0333,-0.19141 -0.0174,-0.29441 -0.11702,-0.23718 -0.0599,0.0345 -0.0828,0.0336 -0.051,-0.002 0.0592,-0.0661 -0.60553,-1.37829 -0.72334,-1.42788 -0.0358,-0.0151 -0.0435,-0.0837 -0.0171,-0.15242 0.0263,-0.0688 0.006,-0.12502 -0.0457,-0.12502 -0.0515,0 -0.0711,-0.0588 -0.0436,-0.13065 0.0277,-0.0719 0.008,-0.13065 -0.0435,-0.13065 -0.0515,0 -0.0711,-0.0588 -0.0435,-0.13065 0.0276,-0.0719 0.008,-0.13065 -0.0436,-0.13065 -0.0515,0 -0.0711,-0.0588 -0.0436,-0.13065 0.0277,-0.0719 0.0165,-0.13068 -0.0244,-0.13071 -0.0411,-4e-5 -0.0803,-0.0982 -0.0872,-0.21808 -0.007,-0.11991 -0.0413,-0.28646 -0.0765,-0.37011 -0.0826,-0.19644 -0.10646,-0.54405 -0.0374,-0.54405 0.0293,0 0.10254,-0.0917 0.1625,-0.20369 0.10573,-0.19756 0.13565,-0.20244 0.99459,-0.16244 0.48708,0.0227 0.99338,0.0457 1.12513,0.0513 0.13171,0.006 0.23953,0.044 0.23953,0.0855 0,0.0415 0.0765,0.0555 0.17002,0.031 0.0935,-0.0245 0.18195,-0.009 0.19657,0.0352 0.0145,0.0438 0.1536,0.0887 0.30885,0.0996 0.15525,0.011 0.28238,0.0535 0.28245,0.0946 0,0.0411 0.059,0.0521 0.13083,0.0245 0.0719,-0.0276 0.13064,-0.0187 0.13064,0.0196 0,0.0894 0.61488,0.28026 0.71118,0.22075 0.04,-0.0247 0.0727,6.6e-4 0.0727,0.0566 0,0.0559 0.0588,0.079 0.13063,0.0514 0.0719,-0.0276 0.13065,-0.0206 0.13065,0.0154 0,0.0922 0.78597,0.37346 0.88044,0.31509 0.0427,-0.0264 0.0777,-0.002 0.0777,0.0536 0,0.0559 0.0588,0.079 0.13066,0.0514 0.0719,-0.0276 0.13066,-0.0206 0.13066,0.0154 0,0.0782 0.79385,0.38352 0.85034,0.32702 0.0217,-0.0216 0.0874,0.006 0.14633,0.0609 0.084,0.0785 0.0538,0.20144 -0.13991,0.56976 -0.13589,0.25832 -0.24502,0.53429 -0.24251,0.61326 0.003,0.079 0.0837,-0.0624 0.18043,-0.31411 0.0967,-0.25173 0.30444,-0.59399 0.46153,-0.76057 0.15712,-0.16658 0.27189,-0.31664 0.25506,-0.33346 -0.0168,-0.0168 0.0184,-0.0335 0.0783,-0.0371 0.0599,-0.004 0.24608,-0.0552 0.41374,-0.11482 0.16765,-0.0596 0.36363,-0.12784 0.43549,-0.15167 0.21247,-0.0704 0.81983,-0.0701 0.92116,6.6e-4 0.0515,0.0359 0.27672,0.076 0.50041,0.089 0.22366,0.013 0.40685,0.0577 0.40711,0.0992 0,0.0415 0.0788,0.055 0.17461,0.0299 0.0958,-0.025 0.17421,-0.006 0.17421,0.0427 0,0.0485 0.0563,0.0667 0.12503,0.0403 0.0688,-0.0264 0.13734,-0.0199 0.15242,0.0143 0.0448,0.10187 1.70688,0.87595 1.76215,0.82069 0.028,-0.028 0.0508,-0.006 0.0508,0.049 0,0.11946 0.6517,0.46784 0.72956,0.38999 0.03,-0.0299 0.0543,-0.009 0.0543,0.046 0,0.1219 1.021,0.6507 1.1283,0.58437 0.0419,-0.0259 0.0906,-0.004 0.1081,0.0486 0.0174,0.0526 0.13846,0.10185 0.26869,0.10941 0.13023,0.008 0.23679,0.0477 0.23682,0.0892 4e-5,0.0415 0.0766,0.0555 0.1701,0.031 0.0935,-0.0245 0.18185,-0.009 0.1963,0.0344 0.0145,0.0434 0.20252,0.094 0.41791,0.11254 0.2154,0.0185 0.46338,0.0627 0.55114,0.0982 0.19199,0.0776 1.19459,-0.004 1.64404,-0.13381 0.22063,-0.0637 0.54288,-0.3156 1.01748,-0.79533 0.74172,-0.74972 0.98123,-1.14045 1.0183,-1.66114 0.0128,-0.17915 0.0473,-0.36476 0.0768,-0.41248 0.0841,-0.13603 -0.0515,-0.96224 -0.17872,-1.08951 -0.063,-0.063 -0.0903,-0.13878 -0.0606,-0.16843 0.0296,-0.0297 0.0165,-0.0539 -0.0293,-0.0539 -0.0457,0 -0.0893,-0.0828 -0.097,-0.18405 -0.0178,-0.23696 -0.0561,-0.27044 -0.30062,-0.26321 -1.73148,0.0512 -2.77108,0.0443 -2.77108,-0.0182 0,-0.0426 -0.0765,-0.0574 -0.17003,-0.0329 -0.0935,0.0245 -0.18171,0.0106 -0.19597,-0.0308 -0.0142,-0.0414 -0.12394,-0.0862 -0.2437,-0.0996 -0.11977,-0.0134 -0.23863,-0.0521 -0.26418,-0.086 -0.091,-0.12086 -1.40583,-0.67961 -1.48464,-0.63091 -0.0442,0.0273 -0.0803,0.006 -0.0803,-0.0478 0,-0.0536 -0.0358,-0.0752 -0.0797,-0.0482 -0.0438,0.0271 -0.0928,0.0181 -0.1089,-0.0199 -0.054,-0.12781 -0.83299,-0.53624 -0.90268,-0.47331 -0.038,0.0343 -0.0452,0.0205 -0.0161,-0.0306 0.0452,-0.0795 -0.42243,-0.43801 -0.54746,-0.41973 -0.024,0.003 -0.19565,-0.16389 -0.38151,-0.37198 -0.32349,-0.36216 -0.32906,-0.37838 -0.13065,-0.37919 0.26385,-9.9e-4 1.12187,-0.39707 1.12187,-0.51774 0,-0.0501 0.0293,-0.0833 0.0653,-0.0739 0.11888,0.0314 0.4573,-0.11463 0.4573,-0.19733 0,-0.0447 0.0293,-0.0738 0.0653,-0.0646 0.12777,0.0325 0.63147,-0.11874 0.63147,-0.18956 0,-0.0396 0.0784,-0.0515 0.17422,-0.0265 0.0958,0.025 0.1742,0.003 0.1742,-0.049 0,-0.052 0.049,-0.0771 0.10887,-0.0558 0.0599,0.0213 0.36363,0.0556 0.67502,0.0763 0.31138,0.0206 0.64357,0.0683 0.73822,0.10601 0.0947,0.0377 0.44741,0.0707 0.78391,0.0734 0.52935,0.004 0.65843,-0.0273 0.95754,-0.23386 0.32649,-0.22548 0.35076,-0.22986 0.43552,-0.0787 0.0494,0.088 0.23521,0.28639 0.41305,0.44084 0.38404,0.3336 0.65839,0.7564 0.81426,1.25497 0.0625,0.20004 0.11549,0.28532 0.11765,0.18951 0.007,-0.31996 -0.3308,-0.91707 -0.80327,-1.41914 -0.40853,-0.43409 -0.71369,-0.89321 -0.51009,-0.76737 0.1037,0.0641 1.68717,-1.55445 1.60698,-1.64252 -0.0375,-0.0412 -0.0247,-0.0501 0.0283,-0.0199 0.15983,0.0911 0.56046,-0.75428 0.59953,-1.26507 0.0194,-0.25322 0.0138,-0.36242 -0.0125,-0.24266 -0.0576,0.26265 -0.2045,0.36964 -0.34615,0.25209 -0.0637,-0.0529 -0.6551,-0.0714 -1.52714,-0.0477 -0.78273,0.0213 -1.55209,0.0414 -1.70972,0.0448 -0.15765,0.003 -0.32856,0.0321 -0.37988,0.0638 -0.0513,0.0317 -0.23868,0.0685 -0.41644,0.0817 -0.46719,0.0348 -1.53788,0.36907 -2.11555,0.6604 -0.60401,0.30463 -0.71722,0.31993 -0.34717,0.0469 0.15239,-0.11242 0.24818,-0.23327 0.21289,-0.26856 -0.0353,-0.0353 -0.007,-0.0511 0.0625,-0.0351 0.0697,0.016 0.12848,-0.0167 0.13066,-0.0726 0.003,-0.0559 0.0396,-0.13428 0.0833,-0.17421 0.0461,-0.0422 0.053,-0.027 0.0168,0.0363 -0.0345,0.0599 -0.045,0.10887 -0.0234,0.10887 0.0744,0 1.13244,-1.59655 1.13244,-1.70882 0,-0.0619 0.0326,-0.0924 0.0726,-0.0678 0.071,0.0439 0.11054,-0.0972 0.0756,-0.27027 -0.01,-0.0479 0.0115,-0.058 0.0472,-0.0223 0.0715,0.0715 0.35418,-0.28327 0.31707,-0.39787 -0.0128,-0.0395 0.009,-0.0522 0.0472,-0.0282 0.0388,0.0239 0.29413,-0.16295 0.5675,-0.41534 0.27333,-0.25239 0.51697,-0.43892 0.5414,-0.41451 0.0244,0.0244 0.0444,-8e-5 0.0444,-0.0545 0,-0.0544 0.0588,-0.0763 0.13066,-0.0487 0.0718,0.0276 0.13062,0.008 0.13062,-0.0435 0,-0.0515 0.0569,-0.0718 0.12648,-0.0452 0.0696,0.0267 0.17226,0.0203 0.22822,-0.0143 0.12533,-0.0775 0.93687,-0.0836 1.01278,-0.008 0.0303,0.0304 0.127,0.0552 0.21483,0.0552 0.0878,0 0.1597,0.0333 0.1597,0.0741 0,0.0408 0.18971,0.32492 0.42159,0.63147 0.23186,0.30655 0.54506,0.77294 0.69596,1.03642 0.15093,0.26347 0.27478,0.44329 0.27524,0.3996 0,-0.13009 -0.43605,-0.84311 -0.84685,-1.38063 -0.53399,-0.69861 -0.54051,-0.82548 -0.0695,-1.34936 0.21414,-0.23816 0.36113,-0.46124 0.32663,-0.49572 -0.0345,-0.0345 -0.0214,-0.0496 0.029,-0.0337 0.12335,0.0391 0.66164,-0.5805 0.58142,-0.6692 -0.0348,-0.0385 -0.0221,-0.0467 0.0283,-0.0181 0.10282,0.0583 0.85203,-0.99688 0.85203,-1.19999 0,-0.0718 0.035,-0.13054 0.0777,-0.13054 0.0428,0 0.0535,-0.0392 0.024,-0.0871 -0.0296,-0.0479 -0.0155,-0.0871 0.0316,-0.0871 0.11281,0 0.30239,-0.58216 0.2414,-0.74115 -0.0263,-0.0684 -0.0102,-0.14743 0.0356,-0.17575 0.10854,-0.0671 0.10854,-1.06051 0,-1.12759 -0.0458,-0.0283 -0.0612,-0.10902 -0.0342,-0.17934 0.027,-0.0703 0.0204,-0.19645 -0.0142,-0.28029 -0.0348,-0.0838 -0.0743,-0.26871 -0.0878,-0.41084 -0.0135,-0.14213 -0.0654,-0.27205 -0.11538,-0.2887 -0.05,-0.0167 -0.0712,-0.0815 -0.0472,-0.14408 0.024,-0.0626 -0.0155,-0.17297 -0.0879,-0.2453 -0.0723,-0.0723 -0.10721,-0.15578 -0.0776,-0.18543 0.0296,-0.0297 0.006,-0.0539 -0.0528,-0.0539 -0.0587,0 -0.0825,-0.0392 -0.0529,-0.0871 0.0296,-0.0479 0.01,-0.0871 -0.0436,-0.0871 -0.0536,0 -0.0731,-0.0392 -0.0435,-0.0871 0.0296,-0.0479 0.01,-0.0871 -0.0436,-0.0871 -0.0536,0 -0.0776,-0.032 -0.0534,-0.0711 0.0673,-0.10899 -0.42805,-0.809963 -0.51951,-0.735048 -0.0442,0.0362 -0.0507,0.02966 -0.0145,-0.01452 0.0683,-0.08341 -1.23528,-1.494989 -1.35053,-1.462388 -0.036,0.01017 -0.0558,-0.01093 -0.0442,-0.04685 0.0356,-0.11008 -0.25019,-0.46043 -0.31922,-0.391395 -0.0357,0.03562 -0.052,0.02558 -0.0363,-0.02232 0.0366,-0.111864 -0.35103,-0.740349 -0.4566,-0.740349 -0.044,0 -0.0722,-0.0294 -0.0627,-0.06533 0.0276,-0.104698 -0.11008,-0.457273 -0.17866,-0.457273 -0.0344,0 -0.0674,-0.06859 -0.0732,-0.152425 -0.0161,-0.231066 -0.32418,-1.281248 -0.38423,-1.309536 -0.029,-0.01363 -0.0342,-0.121434 -0.0115,-0.239523 0.0227,-0.118093 0.003,-0.214712 -0.0442,-0.214712 -0.0468,0 -0.0664,-0.09799 -0.0435,-0.21775 0.023,-0.119762 0.008,-0.217971 -0.0338,-0.218241 -0.0415,-2.63e-4 -0.0814,-0.157912 -0.0887,-0.35031 -0.007,-0.192399 -0.041,-0.41755 -0.0749,-0.500333 -0.0339,-0.08278 -0.0719,-0.268097 -0.0843,-0.411814 -0.0414,-0.477812 -0.23192,-1.740049 -0.28265,-1.872646 -0.0273,-0.07186 -0.0414,-0.218182 -0.0309,-0.325164 0.0105,-0.106985 -0.009,-0.238983 -0.0421,-0.29333 -0.0782,-0.1265 -0.10278,-0.619719 -0.10377,-2.0816 0,-1.366507 0.0234,-1.814062 0.10923,-2.025071 0.0342,-0.08383 0.0401,-0.209961 0.0132,-0.280284 -0.027,-0.07033 -0.009,-0.152457 0.0394,-0.182519 0.0486,-0.03006 0.0803,-0.139106 0.0703,-0.242315 -0.01,-0.10321 0.0122,-0.257939 0.0492,-0.343836 0.037,-0.0859 0.0431,-0.180281 0.0138,-0.209737 -0.0296,-0.02946 -0.0142,-0.100991 0.034,-0.158969 0.0481,-0.05798 0.0968,-0.267156 0.1081,-0.464838 0.0112,-0.197679 0.0546,-0.359624 0.0961,-0.359871 0.0415,-2.64e-4 0.0567,-0.09844 0.0338,-0.218201 -0.0227,-0.119762 -0.003,-0.21775 0.0435,-0.21775 0.0469,0 0.0667,-0.09662 0.0441,-0.214712 -0.0227,-0.118089 -0.006,-0.226273 0.036,-0.240402 0.0424,-0.01412 0.0857,-0.211199 0.0962,-0.437933 0.0105,-0.226731 0.0513,-0.412513 0.0907,-0.412845 0.0393,-3.29e-4 0.0629,-0.08879 0.0524,-0.19658 -0.0105,-0.107785 0.0112,-0.266797 0.0485,-0.353356 0.0373,-0.08656 0.0725,-0.33129 0.0783,-0.543845 0.006,-0.212552 0.0429,-0.3867 0.0824,-0.386993 0.0395,-2.6e-4 0.0606,-0.108339 0.0468,-0.240103 -0.0138,-0.131771 0.006,-0.289209 0.043,-0.349863 0.0375,-0.06065 0.0568,-0.197814 0.043,-0.304796 -0.0138,-0.106986 0.003,-0.237851 0.0349,-0.290812 0.033,-0.05296 0.0776,-0.37484 0.099,-0.715291 0.0214,-0.340448 0.0648,-0.660654 0.0962,-0.711581 0.0316,-0.05092 0.0466,-0.239668 0.0336,-0.419432 -0.0128,-0.179767 0.006,-0.374296 0.0415,-0.432291 0.0358,-0.05799 0.0628,-0.311663 0.06,-0.563719 -0.003,-0.252055 0.0191,-0.678786 0.0489,-0.948286 0.0535,-0.484395 0.0582,-0.491243 0.41436,-0.598857 0.5405,-0.163304 1.35879,-0.206152 1.7768,-0.09304 0.20423,0.05526 0.50373,0.216726 0.66554,0.358807 0.31602,0.277457 0.29077,0.202344 0.86739,2.580629 0.5048,2.081978 1.25022,3.507451 2.57194,4.918162 1.11118,1.185995 2.18482,1.872142 3.7112,2.37179 0.71992,0.235655 2.3954,0.605912 2.45811,0.543206 0.0194,-0.01952 -0.1728,-0.102722 -0.4274,-0.184863 -0.94907,-0.306192 -1.78614,-0.956713 -2.56598,-1.994126 -1.33072,-1.770217 -1.80657,-3.335643 -2.20575,-7.256084 -0.27198,-2.671411 -0.48641,-3.614213 -1.09839,-4.829411 -0.51299,-1.018662 -1.03871,-1.449741 -2.16427,-1.77462 -0.87277,-0.251911 -2.27026,-0.06667 -3.27244,0.433764 l -0.47905,0.23921 0.82743,-0.842477 c 1.47481,-1.50158 2.87955,-2.410375 4.40245,-2.848117 1.93741,-0.556889 5.42466,0.182789 6.54106,1.38742 l 0.20529,0.22151 v -0.741179 c 0,-0.866395 -0.0894,-1.40022 -0.35455,-2.117933 -0.15679,-0.424308 -0.32969,-0.655677 -0.94216,-1.260844 -1.31787,-1.302127 -2.95726,-2.391177 -4.01639,-2.668097 -0.87049,-0.227603 -2.4877,-0.204339 -3.23978,0.04661 -0.50095,0.167147 -1.37133,0.6353 -2.16041,1.162024 l -0.21774,0.145354 v -1.498252 c 0,-1.421256 -0.0125,-1.534064 -0.2459,-2.195051 -0.40798,-1.156131 -0.8785,-2.064363 -1.32502,-2.55766 -1.18762,-1.312071 -3.07789,-2.260414 -6.00678,-3.013552 -1.8069,-0.464634 -2.71772,-0.592224 -4.26787,-0.597833 -1.55996,-0.0056 -1.55414,-0.0066 -4.96471,0.770825 -3.30408,0.753103 -4.45853,0.976015 -6.09697,1.177252 -3.68611,0.452735 -3.76291,0.476923 -4.44175,1.399065 -0.51973,0.70604 -0.98722,2.041254 -1.00319,2.865452 -0.003,0.16213 -0.0939,0.04756 -0.35547,-0.448546 -0.70119,-1.330233 -1.50644,-1.980287 -2.68897,-2.17073 -0.89255,-0.143739 -1.85637,0.180828 -3.15426,1.062214 -0.63104,0.428518 -1.81332,1.532304 -1.81332,1.692915 0,0.167469 0.16684,0.199606 1.76575,0.340175 1.26279,0.111015 1.54202,0.164035 2.11064,0.400757 0.49096,0.204392 0.72858,0.363488 0.94743,0.634338 0.54363,0.672917 0.59449,0.927672 0.18514,0.927672 -0.32594,0 -4.57537,1.435625 -5.23965,1.770144 -0.77414,0.389851 -1.29095,0.821266 -2.23551,1.866171 -1.08799,1.203538 -2.41857,3.203181 -2.83579,4.261686 -0.0942,0.238973 -0.25408,0.901581 -0.35527,1.472463 -0.1012,0.570883 -0.3377,1.586697 -0.52554,2.257365 -0.45883,1.638084 -1.48196,5.616463 -1.48196,5.762412 0,0.06426 -0.0523,0.116825 -0.11614,0.116825 -0.0639,0 -0.11615,-0.0575 -0.11615,-0.12779 0,-0.168177 -0.29993,-0.830306 -0.37614,-0.830306 -0.0326,0 -0.0594,-0.05751 -0.0594,-0.127794 0,-0.190792 -0.30483,-0.830305 -0.39579,-0.830305 -0.0435,0 -0.0576,-0.03474 -0.0313,-0.0772 0.056,-0.09065 -0.45567,-1.259209 -0.57016,-1.30206 -0.0429,-0.01606 -0.0585,-0.0608 -0.0347,-0.09941 0.0545,-0.0882 -0.29473,-0.894294 -0.42484,-0.980567 -0.0531,-0.03519 -0.0692,-0.06459 -0.0357,-0.06533 0.0889,-0.002 -0.10758,-0.523933 -0.19723,-0.523933 -0.0417,0 -0.0552,-0.05374 -0.0299,-0.119419 0.0254,-0.06568 -0.0181,-0.183263 -0.0961,-0.261299 -0.078,-0.07803 -0.12154,-0.141881 -0.0967,-0.141881 0.025,0 0.004,-0.117582 -0.0459,-0.261299 -0.0501,-0.143714 -0.1252,-0.2613 -0.16694,-0.2613 -0.0417,0 -0.0552,-0.05374 -0.0299,-0.119419 0.0254,-0.06568 -0.0181,-0.183263 -0.096,-0.261299 -0.0781,-0.07803 -0.12154,-0.141881 -0.0966,-0.141881 0.025,0 0.004,-0.117582 -0.0459,-0.261299 -0.0501,-0.143714 -0.12875,-0.2613 -0.1748,-0.2613 -0.0461,0 -0.0613,-0.03626 -0.0339,-0.08057 0.0621,-0.100471 -0.12655,-0.529127 -0.23285,-0.529127 -0.0431,0 -0.0559,-0.03626 -0.0283,-0.08057 0.0555,-0.08988 -0.12144,-0.529124 -0.21319,-0.529124 -0.0323,0 -0.0586,-0.0538 -0.0586,-0.119554 0,-0.167667 -0.4778,-1.274044 -0.55022,-1.274044 -0.0326,0 -0.0595,-0.0545 -0.0595,-0.121115 0,-0.193657 -0.21665,-0.662784 -0.30605,-0.662784 -0.0449,0 -0.0575,-0.03919 -0.028,-0.0871 0.0296,-0.0479 0.01,-0.0871 -0.0436,-0.0871 -0.0536,0 -0.074,-0.03785 -0.0454,-0.08411 0.0476,-0.07698 -0.25474,-0.772229 -0.38003,-0.873987 -0.0296,-0.02397 -0.0641,-0.102343 -0.077,-0.174201 -0.0378,-0.211376 -0.39319,-0.958095 -0.45607,-0.958095 -0.0316,0 -0.0577,-0.05751 -0.0577,-0.127795 0,-0.168176 -0.29998,-0.830305 -0.37615,-0.830305 -0.0326,0 -0.0593,-0.0602 -0.0593,-0.133786 0,-0.188659 -0.48063,-1.172712 -0.57277,-1.172712 -0.0419,0 -0.052,-0.03919 -0.0224,-0.0871 0.0296,-0.04791 0.01,-0.0871 -0.0435,-0.0871 -0.0536,0 -0.0731,-0.03919 -0.0436,-0.0871 0.0296,-0.0479 0.01,-0.0871 -0.0435,-0.0871 -0.0536,0 -0.0732,-0.0392 -0.0435,-0.0871 0.0296,-0.04791 0.01,-0.0871 -0.0436,-0.0871 -0.0536,0 -0.0732,-0.03919 -0.0436,-0.0871 0.0296,-0.04791 0.01,-0.0871 -0.0435,-0.0871 -0.0536,0 -0.0731,-0.03919 -0.0436,-0.0871 0.0296,-0.0479 0.01,-0.0871 -0.0435,-0.0871 -0.0536,0 -0.0731,-0.0392 -0.0436,-0.0871 0.0296,-0.04791 0.01,-0.0871 -0.0436,-0.0871 -0.0535,0 -0.0731,-0.03919 -0.0435,-0.0871 0.0296,-0.0479 0.01,-0.0871 -0.0435,-0.0871 -0.0536,0 -0.0731,-0.03919 -0.0436,-0.0871 0.0296,-0.0479 0.006,-0.0871 -0.0529,-0.0871 -0.0587,0 -0.0824,-0.02436 -0.0526,-0.05416 0.0664,-0.06638 -0.34832,-0.90394 -0.44757,-0.90394 -0.0391,0 -0.0711,-0.0534 -0.0711,-0.118656 0,-0.164348 -0.37264,-0.752342 -0.47677,-0.752342 -0.0469,0 -0.0618,-0.03777 -0.0333,-0.08393 0.0286,-0.04616 -0.028,-0.163743 -0.12553,-0.2613 -0.0975,-0.09756 -0.14798,-0.178621 -0.11202,-0.180146 0.0359,-0.0016 0.007,-0.05066 -0.0653,-0.109187 -0.0719,-0.05853 -0.14221,-0.160582 -0.15634,-0.226777 -0.0396,-0.184946 -0.538328,-0.880198 -0.631724,-0.880198 -0.04562,0 -0.07311,-0.03658 -0.06116,-0.08129 0.03548,-0.132494 -1.012879,-1.475964 -1.109229,-1.421465 -0.04863,0.02749 -0.05804,0.01662 -0.02107,-0.02416 0.03709,-0.04078 -0.118211,-0.262639 -0.345133,-0.493014 -0.323794,-0.328738 -0.473084,-0.418866 -0.693778,-0.418866 -0.154663,0 -0.302175,0.03394 -0.327817,0.07542 -0.02568,0.04148 -0.145534,0.05651 -0.266448,0.0334 -0.12092,-0.02311 -0.219804,-0.002 -0.219804,0.04707 0,0.049 -0.08454,0.067 -0.187839,0.03998 -0.120322,-0.03147 -0.167232,-0.0158 -0.13053,0.04358 0.03519,0.05695 -0.0037,0.07674 -0.100964,0.05131 -0.142444,-0.03724 -0.168549,-0.22595 -0.261083,-1.886298 -0.05659,-1.014701 -0.147582,-3.549891 -0.202261,-5.633756 L 95.7309,45.62747 95.999619,44.277423 c 0.325309,-1.634292 0.491793,-2.835651 0.742239,-5.356642 l 0.190374,-1.916232 60.468318,-0.02182 60.46828,-0.02183 v 89.190351 89.19029 H 157.32124 96.773428 Z m 42.276967,-87.66598 c -0.0174,-0.2515 -0.0319,-0.0457 -0.0319,0.45727 0,0.50301 0.0145,0.70878 0.0319,0.45728 0.0175,-0.2515 0.0175,-0.66305 0,-0.91455 z M 41.599078,157.8816 c -0.837969,-0.0385 -0.875925,-0.0982 -0.373769,-0.58857 0.18965,-0.18518 0.320769,-0.37556 0.291404,-0.42308 -0.0293,-0.0475 -0.01745,-0.0643 0.02634,-0.0372 0.07223,0.0446 1.371399,-1.50771 1.356387,-1.62072 -0.0036,-0.0264 0.108997,-0.17144 0.249992,-0.32237 0.141028,-0.15095 0.234618,-0.30967 0.208019,-0.3527 -0.02667,-0.043 -0.0089,-0.0782 0.0397,-0.0782 0.109754,0 0.648056,-0.77216 0.648056,-0.92956 0,-0.0636 0.02831,-0.11564 0.06258,-0.11564 0.08678,0 0.372914,-0.44906 0.372914,-0.58524 0,-0.0614 0.02831,-0.11156 0.06258,-0.11156 0.08678,0 0.372946,-0.44905 0.372946,-0.58524 0,-0.0614 0.02831,-0.11155 0.06255,-0.11155 0.08678,0 0.372947,-0.44906 0.372947,-0.58524 0,-0.0614 0.02798,-0.11156 0.06255,-0.11156 0.08552,0 0.372947,-0.44815 0.372947,-0.5815 0,-0.0593 0.05475,-0.12881 0.121638,-0.15449 0.06692,-0.0257 0.09728,-0.0862 0.06745,-0.1344 -0.02996,-0.0482 -0.01778,-0.0877 0.02667,-0.0877 0.09734,0 1.201731,-1.65943 1.17072,-1.75909 -0.01185,-0.0385 0.01514,-0.07 0.06021,-0.07 0.105442,0 1.188728,-1.56771 1.157026,-1.67441 -0.01317,-0.0443 0.01218,-0.0582 0.05619,-0.031 0.08599,0.0532 0.226915,-0.19738 0.192053,-0.34141 -0.01152,-0.0479 0.0056,-0.0606 0.03796,-0.0281 0.08171,0.0817 2.303386,-2.91073 2.241859,-3.01961 -0.02732,-0.0483 -0.01811,-0.0593 0.02041,-0.0244 0.08055,0.0728 0.920038,-1.07482 0.858807,-1.17402 -0.02206,-0.0359 2.64e-4,-0.0653 0.04994,-0.0653 0.04968,0 0.366396,-0.41154 0.703888,-0.91454 0.337492,-0.50301 0.58564,-0.91455 0.551436,-0.91455 -0.03417,0 0.01383,-0.0575 0.106956,-0.12788 0.09296,-0.0703 0.141456,-0.12913 0.10768,-0.13065 -0.03374,-0.001 0.03697,-0.10109 0.157126,-0.22126 0.120518,-0.12051 0.190802,-0.26324 0.156796,-0.3183 -0.03809,-0.0616 -0.02304,-0.076 0.03885,-0.0377 0.09132,0.0564 0.140962,-0.0521 0.108701,-0.23768 -0.0069,-0.0395 0.02765,-0.047 0.0768,-0.0166 0.08513,0.0526 0.129934,-0.0735 0.09231,-0.25997 -0.0095,-0.0479 0.01185,-0.0575 0.04813,-0.0214 0.08559,0.0856 0.739737,-0.89845 0.671067,-1.00952 -0.02864,-0.0466 -0.01416,-0.0612 0.03226,-0.0325 0.04651,0.0287 0.152747,-0.0632 0.236132,-0.20429 0.08335,-0.14112 0.119927,-0.25776 0.08128,-0.25921 -0.03862,-0.002 0,-0.0431 0.08401,-0.0925 0.08487,-0.0494 0.134081,-0.12247 0.109392,-0.16241 -0.02469,-0.0399 0.01613,-0.0961 0.09079,-0.12469 0.0746,-0.0286 0.113803,-0.0874 0.08711,-0.13066 -0.02667,-0.0432 0.01251,-0.10201 0.08707,-0.13064 0.07463,-0.0286 0.113836,-0.0874 0.08711,-0.13066 -0.02667,-0.0432 0.01251,-0.10201 0.08711,-0.13064 0.07463,-0.0286 0.113804,-0.0874 0.08711,-0.13066 -0.02667,-0.0432 0.01251,-0.10201 0.08711,-0.13064 0.0746,-0.0286 0.113803,-0.0874 0.08711,-0.13065 -0.02666,-0.0432 0.01251,-0.10201 0.08707,-0.13065 0.07463,-0.0286 0.113836,-0.0874 0.08711,-0.13065 -0.02667,-0.0432 0.01251,-0.10201 0.08711,-0.13065 0.07463,-0.0286 0.113804,-0.0874 0.08711,-0.13065 -0.02667,-0.0432 0.01547,-0.10321 0.09405,-0.13331 0.07841,-0.0301 0.121539,-0.0758 0.09583,-0.1015 -0.02568,-0.0257 0.04915,-0.14272 0.166409,-0.25998 0.117292,-0.11727 0.185436,-0.25812 0.151529,-0.31303 -0.03809,-0.0616 -0.02337,-0.076 0.03885,-0.0377 0.09487,0.0586 0.142838,-0.0585 0.103631,-0.25298 -0.0095,-0.0479 0.01185,-0.0576 0.048,-0.0215 0.08562,0.0856 1.088356,-1.42072 1.019685,-1.53183 -0.02897,-0.0467 -0.01448,-0.0614 0.03193,-0.0326 0.04652,0.0287 0.15278,-0.0632 0.236133,-0.20429 0.08335,-0.14111 0.119959,-0.25776 0.08131,-0.25921 -0.03865,-0.001 0,-0.0431 0.08401,-0.0925 0.08483,-0.0494 0.134049,-0.12248 0.109359,-0.16242 -0.02469,-0.0399 0.01613,-0.096 0.09079,-0.12469 0.07463,-0.0286 0.111302,-0.0915 0.08148,-0.13977 -0.02996,-0.0482 -0.01843,-0.0877 0.02502,-0.0877 0.09797,0 1.092438,-1.4825 1.092438,-1.62856 0,-0.0583 0.05475,-0.12695 0.121671,-0.15263 0.06689,-0.0257 0.09725,-0.0862 0.06742,-0.13439 -0.02996,-0.0482 -0.01843,-0.0877 0.02502,-0.0877 0.098,0 1.092471,-1.48249 1.092471,-1.62856 0,-0.0583 0.05474,-0.12695 0.121638,-0.15262 0.06693,-0.0257 0.09728,-0.0862 0.06745,-0.1344 -0.02996,-0.0482 -0.01811,-0.0877 0.02568,-0.0877 0.100108,0 0.743325,-0.95987 0.743325,-1.10927 0,-0.0606 0.02732,-0.11013 0.061,-0.11013 0.08631,0 0.548704,-0.71418 0.548704,-0.84751 0,-0.0608 0.02732,-0.11058 0.061,-0.11058 0.08631,0 0.548672,-0.71419 0.548672,-0.84752 0,-0.0608 0.02831,-0.11058 0.06258,-0.11058 0.08678,0 0.372946,-0.44905 0.372946,-0.58524 0,-0.0614 0.01876,-0.0929 0.04148,-0.0701 0.0609,0.0609 0.620041,-0.8521 0.570727,-0.93189 -0.02304,-0.0372 -0.0049,-0.0677 0.04039,-0.0677 0.101853,0 0.392599,-0.43338 0.392599,-0.58523 0,-0.0614 0.02798,-0.11156 0.06255,-0.11156 0.08678,0 0.372946,-0.44906 0.372946,-0.58524 0,-0.0614 0.02831,-0.11156 0.06255,-0.11156 0.08681,0 0.372947,-0.44906 0.372947,-0.58524 0,-0.0614 0.02798,-0.11156 0.06258,-0.11156 0.08678,0 0.372913,-0.44906 0.372913,-0.58524 0,-0.0614 0.02831,-0.11156 0.06258,-0.11156 0.08678,0 0.372913,-0.44906 0.372913,-0.58524 0,-0.0614 0.02798,-0.11156 0.06255,-0.11156 0.08398,0 1.23919,-1.84328 1.241867,-1.98152 0,-0.0599 0.03029,-0.10888 0.06465,-0.10888 0.08549,0 0.372943,-0.44812 0.372943,-0.5814 0,-0.0592 0.03259,-0.0875 0.07259,-0.0629 0.06616,0.0409 0.108536,-0.0861 0.08289,-0.2485 -0.0056,-0.0359 0.02436,-0.0653 0.06676,-0.0653 0.09791,0 0.387464,-0.43736 0.387464,-0.58524 0,-0.0614 0.01811,-0.0935 0.04003,-0.0715 0.05363,0.0536 0.741682,-1.01201 0.742904,-1.15056 0,-0.0599 0.02831,-0.10887 0.06199,-0.10887 0.08493,0 0.548669,-0.71315 0.548669,-0.84377 0,-0.0588 0.05474,-0.12784 0.121634,-0.15351 0.06693,-0.0257 0.09728,-0.0862 0.06746,-0.1344 -0.02996,-0.0483 -0.01843,-0.0877 0.02502,-0.0877 0.09797,0 1.092474,-1.48246 1.092474,-1.62847 0,-0.0582 0.03259,-0.0857 0.07258,-0.061 0.0399,0.0247 0.07257,0.003 0.07257,-0.0474 0,-0.17124 0.02568,-0.22254 0.165582,-0.32899 0.07661,-0.0584 0.111664,-0.10735 0.07792,-0.10887 -0.03374,-0.002 0.03693,-0.10109 0.157093,-0.22125 0.120512,-0.12052 0.190838,-0.26324 0.156789,-0.31831 -0.03805,-0.0616 -0.02304,-0.076 0.03884,-0.0377 0.09133,0.0564 0.140965,-0.0521 0.108737,-0.23768 -0.0069,-0.0395 0.02765,-0.047 0.07677,-0.0166 0.08164,0.0505 0.128324,-0.0668 0.09741,-0.24466 -0.0069,-0.0395 0.02765,-0.047 0.0768,-0.0166 0.08164,0.0505 0.128324,-0.0668 0.09741,-0.24466 -0.0069,-0.0395 0.02765,-0.047 0.07679,-0.0166 0.08165,0.0504 0.128287,-0.0668 0.09741,-0.24467 -0.0069,-0.0395 0.01811,-0.0529 0.05557,-0.0298 0.06775,0.0419 1.435658,-1.95732 1.431514,-2.09219 0,-0.039 0.05468,-0.10266 0.124133,-0.14153 0.06946,-0.0389 0.103535,-0.10747 0.07575,-0.15243 -0.02765,-0.045 -0.0102,-0.0817 0.03907,-0.0817 0.117299,0 0.973637,-1.26974 0.903548,-1.3398 -0.02963,-0.0296 -0.0089,-0.0538 0.0456,-0.0538 0.123613,0 1.160117,-1.52768 1.086476,-1.60133 -0.02963,-0.0295 -0.0085,-0.0536 0.04632,-0.0536 0.110346,0 1.54077,-2.0888 1.43335,-2.09304 -0.03687,-0.001 0.0033,-0.0431 0.0872,-0.0925 0.08484,-0.0494 0.13152,-0.12659 0.103736,-0.17155 -0.02765,-0.045 -0.01053,-0.0817 0.03858,-0.0817 0.129012,0 0.532972,-0.62296 0.470023,-0.72481 -0.02963,-0.0481 -0.0089,-0.0586 0.04741,-0.0239 0.09128,0.0564 0.140925,-0.0521 0.1087,-0.23768 -0.0069,-0.0395 0.02765,-0.047 0.0768,-0.0166 0.08164,0.0504 0.128278,-0.0668 0.0974,-0.24467 -0.0069,-0.0395 0.02765,-0.047 0.07677,-0.0166 0.08164,0.0504 0.128324,-0.0668 0.09741,-0.24467 -0.0069,-0.0395 0.02765,-0.047 0.0768,-0.0166 0.08164,0.0504 0.128324,-0.0668 0.09741,-0.244668 -0.0069,-0.03949 0.02765,-0.04698 0.0768,-0.01662 0.08164,0.05045 0.128278,-0.06679 0.0974,-0.244665 -0.0069,-0.03949 0.02765,-0.04698 0.07677,-0.01662 0.08164,0.05045 0.128324,-0.06679 0.09741,-0.244665 -0.0069,-0.03949 0.02041,-0.05142 0.06079,-0.0265 0.04033,0.02492 0.141496,-0.07017 0.224848,-0.211275 0.08335,-0.14111 0.119956,-0.257754 0.08131,-0.259212 -0.03864,-0.0013 0,-0.04306 0.08401,-0.09246 0.08484,-0.04939 0.13152,-0.126589 0.103736,-0.171551 -0.02765,-0.04496 -0.01415,-0.08175 0.03029,-0.08175 0.09925,0 0.568325,-0.696346 0.568325,-0.843684 0,-0.05871 0.03259,-0.08656 0.07258,-0.06189 0.0662,0.0409 0.108572,-0.08608 0.0829,-0.248497 -0.0056,-0.03593 0.0237,-0.06532 0.06522,-0.06532 0.09694,0 0.563212,-0.701662 0.563212,-0.847519 0,-0.06082 0.01942,-0.09107 0.04336,-0.06723 0.06149,0.06149 0.444218,-0.59227 0.394144,-0.673276 -0.02272,-0.03678 -0.0033,-0.06687 0.04345,-0.06687 0.09975,0 0.649349,-0.864657 0.650531,-1.023421 0,-0.05988 0.03094,-0.108875 0.06755,-0.108875 0.07427,0 0.918362,-1.366573 0.963985,-1.560717 0.0158,-0.06777 0.09903,-0.1965 0.184617,-0.286074 0.08556,-0.08957 0.132235,-0.200626 0.103726,-0.246782 -0.02864,-0.04616 -0.01416,-0.08392 0.03193,-0.08392 0.09883,0 0.565036,-0.769842 0.565036,-0.933054 0,-0.06168 0.0316,-0.112144 0.07035,-0.112144 0.09902,0 0.340814,-0.488857 0.274583,-0.555108 -0.02996,-0.03002 -0.0099,-0.05459 0.0448,-0.05459 0.119729,0 0.380976,-0.477704 0.303585,-0.555104 -0.02996,-0.03002 -0.0099,-0.05459 0.04481,-0.05459 0.119725,0 0.381008,-0.477703 0.303611,-0.555107 -0.02996,-0.03002 -0.01317,-0.05459 0.0375,-0.05459 0.09951,0 1.180099,-1.888948 1.183391,-2.068623 0,-0.05988 0.02732,-0.108875 0.0585,-0.108875 0.09287,0 0.438453,-0.666339 0.377324,-0.727488 -0.03094,-0.03104 -0.01613,-0.05641 0.03305,-0.05641 0.114893,0 0.651384,-1.001155 0.576591,-1.075945 -0.03095,-0.03101 -0.0083,-0.05635 0.0504,-0.05635 0.05873,0 0.08253,-0.03919 0.05294,-0.0871 -0.02963,-0.04791 -0.01284,-0.0871 0.03713,-0.0871 0.11275,0 0.628501,-1.003782 0.554004,-1.078266 -0.02963,-0.02973 -0.0059,-0.05403 0.05273,-0.05403 0.0587,0 0.08254,-0.03919 0.0529,-0.0871 -0.02963,-0.0479 -0.01514,-0.0871 0.03193,-0.0871 0.110548,0 1.243374,-2.22319 1.170135,-2.296423 -0.03029,-0.03038 -0.0072,-0.05527 0.05148,-0.05527 0.05872,0 0.08253,-0.03919 0.05293,-0.0871 -0.02963,-0.04791 -0.0099,-0.0871 0.04356,-0.0871 0.05356,0 0.07314,-0.0392 0.04355,-0.0871 -0.02963,-0.04791 -0.0099,-0.0871 0.04355,-0.0871 0.05353,0 0.07315,-0.03919 0.04352,-0.0871 -0.02963,-0.0479 -0.0099,-0.0871 0.04355,-0.0871 0.05356,0 0.07318,-0.03919 0.04355,-0.0871 -0.02963,-0.04791 -0.0099,-0.0871 0.04356,-0.0871 0.05356,0 0.07315,-0.0392 0.04355,-0.0871 -0.02963,-0.04791 -0.0099,-0.0871 0.04355,-0.0871 0.05357,0 0.07314,-0.03919 0.04356,-0.0871 -0.02963,-0.0479 -0.0099,-0.0871 0.04355,-0.0871 0.05356,0 0.07314,-0.0392 0.04355,-0.0871 -0.02963,-0.04791 -0.0099,-0.0871 0.04356,-0.0871 0.05356,0 0.07314,-0.03919 0.04355,-0.0871 -0.02963,-0.0479 -0.0099,-0.0871 0.04355,-0.0871 0.05353,0 0.07315,-0.03919 0.04352,-0.0871 -0.02963,-0.0479 -0.0099,-0.0871 0.04355,-0.0871 0.05356,0 0.07318,-0.0392 0.04355,-0.0871 -0.02963,-0.04791 -0.0099,-0.0871 0.04356,-0.0871 0.05356,0 0.07315,-0.03919 0.04355,-0.0871 -0.02963,-0.0479 -0.0099,-0.0871 0.04355,-0.0871 0.05357,0 0.07522,-0.03585 0.04816,-0.07966 -0.02699,-0.04381 -0.01251,-0.09281 0.03226,-0.108875 0.116072,-0.04167 0.706877,-1.303485 0.651934,-1.392385 -0.02502,-0.04068 -0.0033,-0.07398 0.05169,-0.07398 0.05353,0 0.07314,-0.03919 0.04352,-0.0871 -0.02963,-0.04791 -0.02008,-0.0871 0.02107,-0.0871 0.106488,0 0.471507,-0.778688 0.410939,-0.87668 -0.02765,-0.04478 -0.0066,-0.08142 0.04707,-0.08142 0.05353,0 0.07314,-0.0392 0.04352,-0.0871 -0.02963,-0.0479 -0.01942,-0.0871 0.02238,-0.0871 0.106462,0 0.383507,-0.603921 0.322442,-0.702782 -0.02765,-0.04462 -0.0158,-0.08112 0.02601,-0.08112 0.106426,0 0.383517,-0.60392 0.322418,-0.702781 -0.02765,-0.04461 -0.0135,-0.08112 0.0316,-0.08112 0.08941,0 0.306024,-0.469128 0.306024,-0.662784 0,-0.06661 0.02634,-0.121115 0.05863,-0.121115 0.09175,0 0.268723,-0.43924 0.213151,-0.529127 -0.02732,-0.04431 -0.01218,-0.08057 0.03394,-0.08057 0.100208,0 0.282648,-0.485887 0.209764,-0.558744 -0.02798,-0.02802 -0.0083,-0.05096 0.04391,-0.05096 0.08681,0 0.321328,-0.534756 0.324689,-0.740346 0,-0.0479 0.05271,-0.141149 0.115311,-0.207206 0.06265,-0.06606 0.09327,-0.173845 0.06808,-0.239526 -0.02535,-0.06568 -0.01646,-0.119419 0.01975,-0.119419 0.08783,0 0.374826,-0.783744 0.319682,-0.872976 -0.02403,-0.03863 -0.01119,-0.08339 0.02798,-0.09946 0.105932,-0.04338 0.54906,-1.293234 0.491523,-1.386331 -0.02732,-0.04402 -0.0037,-0.08003 0.05211,-0.08003 0.05583,0 0.07897,-0.05879 0.05141,-0.130651 -0.02765,-0.07186 -0.0079,-0.130648 0.04356,-0.130648 0.05152,0 0.07111,-0.05879 0.04355,-0.130652 -0.02765,-0.07186 -0.0079,-0.130648 0.04355,-0.130648 0.05152,0 0.07111,-0.05879 0.04352,-0.130651 -0.02765,-0.07186 -0.0079,-0.130648 0.04355,-0.130648 0.05155,0 0.06989,-0.06207 0.04075,-0.13793 -0.03357,-0.08749 -0.01317,-0.124759 0.05603,-0.101916 0.05992,0.01982 0.14376,0.268048 0.186325,0.551651 0.04256,0.283602 0.101356,0.53524 0.130622,0.559192 0.0293,0.02397 0.06473,0.219927 0.07871,0.4355 0.01416,0.215571 0.06321,0.405093 0.109421,0.421161 0.04619,0.01606 0.06334,0.06258 0.03816,0.103367 -0.04638,0.07503 0.107812,1.237926 0.196069,1.47877 0.02634,0.07186 0.03937,0.237548 0.02897,0.368202 -0.01053,0.130658 0.0085,0.281717 0.04181,0.335692 0.05724,0.09265 0.111367,0.676554 0.116401,1.25585 0.0033,0.365049 0.183135,1.801586 0.245518,1.959748 0.02831,0.07186 0.0429,0.218837 0.03226,0.326622 -0.01053,0.107789 0.01317,0.196251 0.05237,0.196583 0.03934,3.29e-4 0.08016,0.186115 0.0907,0.412845 0.01053,0.226734 0.05382,0.423804 0.09622,0.437933 0.04236,0.01412 0.0586,0.12231 0.03601,0.240402 -0.02337,0.121526 -3.2e-5,0.214712 0.05347,0.214712 0.05202,0 0.07268,0.05692 0.04599,0.126477 -0.02666,0.06957 -0.01843,0.17537 0.01876,0.235125 0.03694,0.05976 0.07318,0.189018 0.08052,0.287247 0.03427,0.45732 0.156075,1.006047 0.223326,1.006047 0.04095,0 0.05264,0.05691 0.02601,0.126477 -0.02666,0.06957 -0.01942,0.173401 0.0158,0.230747 0.03542,0.05735 0.07875,0.263077 0.09623,0.457174 0.01745,0.194104 0.06053,0.374432 0.0957,0.400731 0.03515,0.0263 0.06521,0.10661 0.06676,0.178467 0.0066,0.30952 0.153399,0.9581 0.216644,0.9581 0.03798,0 0.04856,0.07839 0.02337,0.174197 -0.02634,0.101251 -0.0033,0.174201 0.05686,0.174201 0.05632,0 0.07963,0.03683 0.05182,0.08184 -0.05228,0.08457 0.465122,2.279546 0.555549,2.356953 0.02798,0.02397 0.06363,0.160641 0.0792,0.30375 0.01547,0.143111 0.05479,0.280294 0.08711,0.304852 0.03226,0.02456 0.07131,0.162234 0.08665,0.305948 0.01547,0.143714 0.06455,0.274444 0.109425,0.290513 0.04484,0.01606 0.06297,0.05926 0.04029,0.09597 -0.06195,0.100263 0.226355,1.050666 0.318761,1.050666 0.04405,0 0.05984,0.03272 0.03512,0.07273 -0.05949,0.09629 0.131349,0.711169 0.220768,0.711169 0.0384,0 0.0472,0.0588 0.0198,0.130652 -0.0277,0.07186 -0.008,0.130648 0.0436,0.130648 0.0515,0 0.0711,0.05879 0.0435,0.130651 -0.0277,0.07186 -0.005,0.130648 0.0514,0.130648 0.0559,0 0.0801,0.03469 0.0539,0.07709 -0.0653,0.105652 0.12151,0.619705 0.2252,0.619705 0.0461,0 0.0623,0.03469 0.0361,0.07709 -0.0625,0.101102 0.1194,0.619705 0.21737,0.619705 0.0417,0 0.0552,0.05374 0.03,0.119419 -0.0254,0.06568 0.0132,0.178599 0.0857,0.25093 0.0723,0.07233 0.11384,0.149179 0.0922,0.170771 -0.0439,0.04391 0.38267,1.132649 0.47053,1.200875 0.0309,0.02396 0.0563,0.08275 0.0567,0.130651 0,0.176798 0.33061,0.914547 0.40833,0.914547 0.0442,0 0.058,0.03626 0.0306,0.08057 -0.0621,0.10047 0.12654,0.529127 0.23285,0.529127 0.043,0 0.0558,0.03626 0.0286,0.08057 -0.0621,0.100471 0.1265,0.529127 0.23281,0.529127 0.043,0 0.0559,0.03626 0.0286,0.08057 -0.0555,0.08988 0.1214,0.529123 0.21318,0.529123 0.0323,0 0.0586,0.0545 0.0586,0.121115 0,0.193656 0.2166,0.662784 0.30605,0.662784 0.0449,0 0.0591,0.0365 0.0316,0.08112 -0.0611,0.09886 0.21595,0.702778 0.32242,0.702778 0.0419,0 0.0536,0.03651 0.026,0.08112 -0.0611,0.09886 0.21599,0.702778 0.32241,0.702778 0.0419,0 0.0519,0.03919 0.0224,0.0871 -0.0296,0.04791 -0.01,0.0871 0.0436,0.0871 0.0536,0 0.0749,0.03633 0.0475,0.08074 -0.065,0.105155 1.58461,3.403254 1.7022,3.403254 0.0494,0 0.0655,0.0392 0.0359,0.0871 -0.0296,0.0479 -0.006,0.0871 0.0529,0.0871 0.0587,0 0.0825,0.0243 0.0528,0.0539 -0.0746,0.0746 0.52813,1.25257 0.64085,1.25257 0.0501,0 0.0669,0.0392 0.0373,0.0871 -0.0296,0.0479 -0.01,0.0871 0.0436,0.0871 0.0536,0 0.0732,0.0392 0.0436,0.0871 -0.0296,0.0479 -0.006,0.0871 0.0529,0.0871 0.0587,0 0.0815,0.0253 0.0506,0.0562 -0.0722,0.0722 1.24015,2.6439 1.34912,2.6439 0.0451,0 0.0577,0.0392 0.028,0.0871 -0.0296,0.0479 -0.006,0.0871 0.0529,0.0871 0.0587,0 0.0824,0.0243 0.0527,0.054 -0.0745,0.0745 0.44125,1.07827 0.554,1.07827 0.05,0 0.0668,0.0392 0.0372,0.0871 -0.0296,0.0479 -0.006,0.0871 0.0529,0.0871 0.0587,0 0.0814,0.0254 0.0504,0.0563 -0.0748,0.0748 0.4617,1.07595 0.57656,1.07595 0.0492,0 0.0652,0.0243 0.0355,0.054 -0.0745,0.0745 0.44122,1.07827 0.554,1.07827 0.05,0 0.0668,0.0392 0.0371,0.0871 -0.0296,0.0479 -0.006,0.0871 0.0529,0.0871 0.0587,0 0.0824,0.0243 0.0527,0.054 -0.0783,0.0783 0.44418,1.07826 0.56335,1.07826 0.0552,0 0.076,0.0244 0.0462,0.0542 -0.0744,0.0744 0.35444,0.90394 0.46725,0.90394 0.0499,0 0.0665,0.0392 0.0369,0.0871 -0.0296,0.0479 -0.006,0.0871 0.0529,0.0871 0.0587,0 0.0822,0.0246 0.0522,0.0546 -0.0774,0.0774 0.18388,0.5551 0.30362,0.5551 0.0546,0 0.0749,0.0245 0.045,0.0543 -0.0778,0.0778 0.27053,0.72956 0.39,0.72956 0.0549,0 0.0753,0.0246 0.0453,0.0546 -0.0739,0.0739 0.18118,0.55511 0.29423,0.55511 0.0495,0 0.0667,0.0378 0.0381,0.0839 -0.0286,0.0462 0.0181,0.15721 0.10373,0.24678 0.0856,0.0896 0.16865,0.21831 0.18458,0.28608 0.0457,0.19414 0.88975,1.56071 0.96402,1.56071 0.0367,0 0.0667,0.0498 0.0667,0.11058 0,0.14586 0.46627,0.84752 0.56322,0.84752 0.0415,0 0.0709,0.0294 0.0652,0.0653 -0.029,0.18261 0.0211,0.2867 0.11085,0.2312 0.062,-0.0383 0.0769,-0.0239 0.0389,0.0377 -0.034,0.0551 0.0363,0.19779 0.15676,0.31831 0.1202,0.12017 0.19923,0.21848 0.17566,0.21848 -0.0237,0 0.11687,0.23517 0.31205,0.5226 0.19521,0.28743 0.39493,0.5226 0.44389,0.5226 0.0489,0 0.0664,0.0365 0.0388,0.0811 -0.0276,0.0446 0.0376,0.14261 0.14492,0.21775 0.10725,0.0751 0.15689,0.13791 0.11031,0.13951 -0.0466,0.002 0.0132,0.0844 0.13306,0.18401 0.11976,0.0996 0.21138,0.2061 0.20361,0.23663 -0.0273,0.10768 0.72903,1.05357 0.79211,0.99047 0.0352,-0.0352 0.0509,-0.0234 0.035,0.0261 -0.04,0.12389 0.67321,1.00774 0.75064,0.93032 0.0343,-0.0343 0.0492,-0.0186 0.0332,0.0347 -0.0364,0.12163 2.03681,2.64031 2.12885,2.58625 0.0371,-0.0218 0.0567,-0.007 0.0436,0.0339 -0.0365,0.11207 0.33611,0.55204 0.40728,0.48089 0.0343,-0.0343 0.0493,-0.0213 0.0333,0.0288 -0.0388,0.12204 0.41412,0.65602 0.49113,0.579 0.0333,-0.0333 0.0474,-0.0169 0.0316,0.0365 -0.0349,0.11673 0.87932,1.21878 0.98535,1.18775 0.0409,-0.012 0.0646,0.009 0.0526,0.0477 -0.0293,0.0936 0.42384,0.62792 0.49112,0.57899 0.0293,-0.0213 0.0344,-0.0133 0.0112,0.0178 -0.0531,0.0715 0.58071,0.77856 0.6715,0.74918 0.037,-0.012 0.0575,0.01 0.0455,0.0489 -0.0119,0.0389 0.17131,0.28383 0.40731,0.54437 0.23597,0.26054 0.39652,0.41866 0.35672,0.35138 -0.0504,-0.0851 -0.04,-0.10235 0.034,-0.0566 0.0585,0.0362 0.0854,0.0867 0.0597,0.11236 -0.0553,0.0553 2.29894,2.51294 2.38407,2.48883 0.0323,-0.009 0.7804,0.7062 1.66281,1.58957 0.88237,0.88336 1.56737,1.60612 1.52214,1.60612 -0.0934,0 4.05536,4.21245 4.1559,4.21965 0.0359,0.003 0.0623,0.037 0.0585,0.0766 -0.008,0.084 1.6759,1.84103 1.76621,1.84297 0.0942,0.002 0.28959,0.21908 0.19722,0.21908 -0.0448,0 0.42482,0.50744 1.04364,1.12763 0.61883,0.6202 1.16698,1.10385 1.21813,1.07478 0.0512,-0.0291 0.0669,-0.0237 0.0349,0.012 -0.10125,0.11296 1.86444,1.77656 2.03793,1.72469 0.044,-0.0132 0.0577,0.0121 0.0306,0.0562 -0.0498,0.0806 0.19225,0.22696 0.3261,0.19716 0.0395,-0.009 0.0495,0.0201 0.0224,0.0641 -0.0484,0.0783 0.18984,0.22679 0.31965,0.19932 0.0359,-0.008 0.0653,0.0229 0.0653,0.0679 0,0.11582 0.78908,0.66463 0.90529,0.62963 0.053,-0.016 0.069,-0.002 0.0357,0.0317 -0.0752,0.0751 1.59229,1.31498 1.71446,1.27479 0.0486,-0.016 0.0644,-0.005 0.0353,0.0239 -0.0293,0.0291 0.10805,0.21856 0.30484,0.42098 l 0.3578,0.36805 -1.82912,0.0574 c -1.00598,0.0316 -2.12305,0.0752 -2.48233,0.097 -0.9576,0.058 -1.96945,0.12632 -2.613,0.17648 -0.72436,0.0565 -1.46256,0.11305 -2.1775,0.16692 -0.95108,0.0717 -2.48161,0.13608 -4.35497,0.18327 -2.09112,0.0527 -3.79642,0.10567 -5.31309,0.1651 -2.83563,0.11113 -5.58966,0.1779 -8.05676,0.19534 -3.283,0.0232 -4.48994,0.072 -8.18737,0.33106 -1.54679,0.10836 -1.95131,0.13817 -2.43879,0.1797 -0.28744,0.0245 -0.70935,0.0458 -0.93757,0.0474 -0.22827,0.002 -0.45772,0.0293 -0.50993,0.0615 -0.0522,0.0323 -0.27699,0.0686 -0.49955,0.0807 -0.41134,0.0224 -0.97907,0.0713 -1.84179,0.15865 -0.26349,0.0267 -0.62712,0.0492 -0.80809,0.0501 -0.18096,9.9e-4 -0.37636,0.0309 -0.43423,0.0667 -0.0579,0.0358 -0.23222,0.0541 -0.3874,0.0407 -0.15518,-0.0134 -0.32755,0.004 -0.38303,0.038 -0.10201,0.0631 -0.57912,0.11359 -1.104613,0.11702 -0.157616,9.8e-4 -0.333433,0.0308 -0.390687,0.0662 -0.05725,0.0354 -0.228098,0.0537 -0.379634,0.0406 -0.151552,-0.0131 -0.299134,0.0145 -0.327975,0.0611 -0.02897,0.0467 -0.130197,0.0645 -0.225239,0.0396 -0.09504,-0.0249 -0.241989,-0.0157 -0.32653,0.0202 -0.08456,0.036 -0.277141,0.0573 -0.428014,0.0475 -0.150841,-0.01 -0.297857,0.0202 -0.326695,0.0669 -0.02897,0.0466 -0.130197,0.0645 -0.225269,0.0396 -0.09504,-0.0248 -0.241962,-0.0155 -0.326536,0.0207 -0.08453,0.0362 -0.257623,0.0577 -0.384597,0.0477 -0.127,-0.01 -0.254403,0.0199 -0.283171,0.0664 -0.02864,0.0465 -0.130033,0.0642 -0.225075,0.0394 -0.09507,-0.0249 -0.241989,-0.0155 -0.326563,0.0207 -0.08454,0.0362 -0.257599,0.0577 -0.3846,0.0477 -0.126974,-0.01 -0.257066,0.0242 -0.2891,0.076 -0.03193,0.0518 -0.09537,0.0712 -0.140797,0.0431 -0.08181,-0.0506 -1.308624,0.10596 -1.560255,0.19907 -0.07186,0.0266 -0.234549,0.0402 -0.361523,0.0302 -0.127011,-0.01 -0.254436,0.0199 -0.283182,0.0664 -0.02864,0.0465 -0.130029,0.0642 -0.225101,0.0394 -0.09504,-0.0249 -0.241962,-0.0153 -0.326526,0.0211 -0.08454,0.0365 -0.241242,0.0578 -0.348227,0.0473 -0.106982,-0.0104 -0.243609,0.0113 -0.303585,0.0484 -0.06001,0.0371 -0.233071,0.0567 -0.384633,0.0437 -0.151529,-0.0131 -0.299111,0.0145 -0.327939,0.0611 -0.02897,0.0466 -0.130207,0.0645 -0.225275,0.0396 -0.09504,-0.0248 -0.241989,-0.0157 -0.32653,0.0203 -0.08454,0.036 -0.27715,0.0574 -0.427991,0.0475 -0.150864,-0.01 -0.296896,0.0186 -0.324552,0.0633 -0.02765,0.0447 -0.14853,0.0626 -0.26866,0.0396 -0.120084,-0.0229 -0.287612,-0.0123 -0.372255,0.0237 -0.08463,0.036 -0.277272,0.0574 -0.428146,0.0475 -0.150841,-0.01 -0.296909,0.0186 -0.324528,0.0634 -0.02765,0.0447 -0.148567,0.0625 -0.268651,0.0396 -0.120127,-0.0229 -0.287618,-0.0135 -0.372255,0.021 -0.166507,0.0678 -0.660799,0.11981 -1.17023,0.12301 -0.175758,9.9e-4 -0.341406,0.0374 -0.36811,0.0805 -0.02666,0.0432 -0.146789,0.0598 -0.266909,0.0368 -0.120091,-0.0229 -0.287619,-0.0123 -0.372256,0.0237 -0.08463,0.036 -0.277318,0.0574 -0.428146,0.0475 -0.150877,-0.01 -0.296908,0.0186 -0.324561,0.0634 -0.02765,0.0447 -0.148533,0.0626 -0.268624,0.0396 -0.12012,-0.0229 -0.287612,-0.0121 -0.372258,0.0242 -0.08463,0.0363 -0.260783,0.0574 -0.391444,0.0471 -0.130658,-0.0104 -0.280574,0.008 -0.333183,0.0402 -0.0526,0.0325 -0.354278,0.0765 -0.670405,0.0977 -0.31612,0.0212 -0.616914,0.0649 -0.668466,0.097 -0.05152,0.0321 -0.181219,0.0471 -0.288178,0.0333 -0.106986,-0.0138 -0.235701,0 -0.286036,0.0314 -0.05034,0.0311 -0.348783,0.0731 -0.663231,0.0933 -0.314448,0.0202 -0.616884,0.0648 -0.672091,0.0992 -0.05518,0.0344 -0.187872,0.0512 -0.294857,0.0374 -0.106992,-0.0138 -0.244132,0.006 -0.304806,0.043 -0.06064,0.0375 -0.214179,0.0573 -0.341212,0.0439 -0.127001,-0.0133 -0.254462,0.0138 -0.283208,0.0604 -0.02864,0.0465 -0.130029,0.0642 -0.225101,0.0394 -0.09504,-0.0249 -0.241962,-0.0155 -0.326536,0.0207 -0.08453,0.0362 -0.257623,0.0577 -0.384597,0.0477 -0.127001,-0.01 -0.254403,0.0199 -0.283171,0.0664 -0.02864,0.0465 -0.130033,0.0642 -0.225075,0.0394 -0.09507,-0.0249 -0.241989,-0.0155 -0.326563,0.0207 -0.08454,0.0362 -0.257599,0.0577 -0.3846,0.0477 -0.126974,-0.01 -0.254399,0.0199 -0.283141,0.0664 -0.02864,0.0465 -0.130069,0.0642 -0.225101,0.0394 -0.09505,-0.0248 -0.241989,-0.0155 -0.32653,0.0207 -0.08457,0.0362 -0.257632,0.0577 -0.384607,0.0477 -0.127,-0.01 -0.254426,0.0199 -0.283171,0.0664 -0.02864,0.0465 -0.130029,0.0642 -0.225101,0.0394 -0.09504,-0.0249 -0.241963,-0.0177 -0.326536,0.016 -0.08453,0.0337 -0.362508,0.0769 -0.617731,0.0959 -0.255225,0.0191 -0.509994,0.0634 -0.566155,0.0983 -0.05616,0.035 -0.189653,0.0523 -0.296638,0.0385 -0.106983,-0.0138 -0.23692,9.8e-4 -0.288771,0.0331 -0.05182,0.032 -0.310301,0.0735 -0.574342,0.0922 -0.264055,0.0187 -0.526059,0.0626 -0.582256,0.0975 -0.05616,0.035 -0.186559,0.0527 -0.289789,0.0394 -0.103206,-0.0133 -0.212236,0.0156 -0.242285,0.0642 -0.02996,0.0487 -0.112193,0.0664 -0.182546,0.0394 -0.07032,-0.027 -0.196428,-0.0194 -0.280277,0.0168 -0.08382,0.0362 -0.23686,0.0577 -0.34009,0.0477 -0.103206,-0.01 -0.212236,0.0217 -0.242285,0.0704 -0.02996,0.0486 -0.112193,0.0664 -0.182546,0.0394 -0.07032,-0.027 -0.196428,-0.0195 -0.280277,0.0168 -0.08382,0.0362 -0.23686,0.0577 -0.34009,0.0477 -0.103206,-0.01 -0.212236,0.0217 -0.242285,0.0703 -0.02996,0.0486 -0.112193,0.0664 -0.182546,0.0394 -0.07032,-0.027 -0.196428,-0.0195 -0.280277,0.0168 -0.08382,0.0362 -0.240607,0.0572 -0.348392,0.0466 -0.107776,-0.0105 -0.195964,0.0251 -0.195964,0.0793 0,0.0541 -0.03977,0.0739 -0.08836,0.0439 -0.08398,-0.0519 -0.940254,0.0838 -1.218161,0.19307 -0.07186,0.0282 -0.218817,0.0427 -0.326629,0.0322 -0.107779,-0.0105 -0.19597,0.0251 -0.19597,0.0793 0,0.0542 -0.03786,0.0751 -0.08411,0.0465 -0.102149,-0.0631 -1.657865,0.22574 -1.657865,0.30782 0,0.032 -0.098,0.0394 -0.217763,0.0165 -0.124074,-0.0237 -0.217764,-9.9e-4 -0.217764,0.0529 0,0.052 -0.05692,0.0727 -0.126477,0.046 -0.06956,-0.0267 -0.175363,-0.0183 -0.235112,0.0186 -0.05975,0.0369 -0.189024,0.0732 -0.287256,0.0805 -0.45732,0.0343 -1.006024,0.15608 -1.006024,0.22332 0,0.0409 -0.05692,0.0526 -0.12651,0.0259 -0.06956,-0.0267 -0.175363,-0.0183 -0.235112,0.0186 -0.05975,0.0369 -0.189025,0.0732 -0.287257,0.0805 -0.457319,0.0343 -1.006024,0.15607 -1.006024,0.22332 0,0.041 -0.05692,0.0526 -0.126477,0.0259 -0.06959,-0.0267 -0.175396,-0.0183 -0.235145,0.0186 -0.05975,0.0369 -0.189024,0.0719 -0.287223,0.0777 -0.368634,0.0219 -2.312571,0.42984 -2.312571,0.48534 0,0.0318 -0.09797,0.0391 -0.217731,0.0162 -0.132402,-0.0253 -0.217763,-10e-4 -0.217763,0.0608 0,0.0563 -0.03977,0.0778 -0.08836,0.0478 -0.08134,-0.0503 -0.913783,0.0789 -1.218125,0.18898 -0.07186,0.026 -0.299305,0.0618 -0.505415,0.0796 -0.206077,0.0178 -0.421667,0.0616 -0.479046,0.0973 -0.05735,0.0357 -0.192481,0.0536 -0.30026,0.0396 -0.107812,-0.0139 -0.195971,0.0113 -0.195971,0.0559 0,0.0447 -0.09339,0.0634 -0.207558,0.0416 -0.114132,-0.0218 -0.232972,0.001 -0.264081,0.0518 -0.03095,0.0503 -0.1141,0.0694 -0.184416,0.0424 -0.07032,-0.027 -0.196464,-0.0195 -0.280278,0.0168 -0.08385,0.0362 -0.236889,0.0577 -0.340092,0.0477 -0.103203,-0.01 -0.212233,0.0217 -0.242322,0.0703 -0.02996,0.0486 -0.11219,0.0664 -0.182506,0.0394 -0.07032,-0.027 -0.196464,-0.0217 -0.280278,0.0117 -0.08385,0.0334 -0.383019,0.0777 -0.664844,0.0984 -0.281825,0.0207 -0.556145,0.0647 -0.609639,0.0978 -0.05349,0.0331 -0.201172,0.0492 -0.328176,0.0359 -0.127036,-0.0133 -0.254468,0.0138 -0.283207,0.0604 -0.02864,0.0465 -0.130066,0.0643 -0.225105,0.0394 -0.09504,-0.0249 -0.241992,-0.0172 -0.326529,0.017 -0.08454,0.0342 -0.310498,0.0733 -0.502123,0.0869 -0.191625,0.0136 -0.544392,0.0433 -0.783915,0.0659 -0.874642,0.0828 -1.957533,0.13337 -3.832371,0.17907 -1.053922,0.0257 -2.053395,0.0632 -2.221054,0.0833 -0.16766,0.0202 -0.628206,0.0218 -1.023439,0.004 z m 21.579011,-13.56997 0.188399,-0.30485 0.667907,-9.9e-4 c 0.929551,-9.8e-4 1.587911,-0.12255 2.870788,-0.53042 3.604044,-1.14586 9.230696,-2.05839 15.042919,-2.43968 2.066236,-0.13555 8.755007,-0.13466 11.932669,0.002 3.436976,0.14736 8.858249,0.13618 12.019779,-0.0248 4.11693,-0.20962 6.16533,-0.2513 7.4906,-0.15245 0.67067,0.05 1.31738,0.11617 1.43714,0.14699 0.18142,0.0467 0.17105,0.0291 -0.0622,-0.10541 -0.40172,-0.23159 -3.25907,-2.50749 -4.64114,-3.69668 -1.98104,-1.70458 -3.90015,-3.84034 -5.19764,-5.78442 -2.3769,-3.56134 -4.33911,-8.55337 -6.504895,-16.54897 -1.95236,-7.20776 -2.778047,-11.58957 -3.364579,-17.855469 -0.287856,-3.075197 -0.416338,-3.97754 -0.591171,-4.152383 -0.115192,-0.115202 -1.527046,1.810342 -2.789181,3.803984 -1.051417,1.660835 -1.620998,2.486054 -4.126537,5.978618 -5.462722,7.61463 -11.035327,16.84103 -18.536616,30.69042 -1.891364,3.49197 -4.068803,7.43722 -4.999408,9.05837 -0.220002,0.38324 -0.400302,0.79588 -0.400632,0.91696 0,0.18778 -0.1777,0.54536 -0.34401,0.6944 -0.08299,0.0744 -0.365638,0.6097 -0.321921,0.6097 0.02271,0 0.126148,-0.13719 0.229779,-0.30485 z m 66.370071,-10.60531 c 0,-0.0125 -0.7153,-0.72778 -1.58959,-1.58957 l -1.58955,-1.56689 1.56691,1.58957 c 1.45577,1.47685 1.61223,1.62892 1.61223,1.56689 z m -95.905623,-5.63881 c -0.680052,-0.0515 -0.862295,-0.17451 -0.862295,-0.58196 0,-0.21699 -0.02996,-0.28095 -0.108865,-0.23256 -0.0638,0.0391 -0.05063,-0.0219 0.0316,-0.14729 0.124832,-0.1899 0.242684,-0.2264 1.045197,-0.32367 0.509826,-0.0618 1.246633,-0.22626 1.688447,-0.3769 0.978997,-0.33378 2.632418,-1.19778 4.11097,-2.14818 0.183527,-0.11797 0.189453,-0.11283 0.142279,0.12351 -0.02699,0.13564 -0.05119,0.2956 -0.05359,0.35548 -0.0033,0.0599 -0.03934,0.10888 -0.08207,0.10888 -0.04276,0 -0.05349,0.0392 -0.02403,0.0871 0.02963,0.0479 0.0099,0.0871 -0.04355,0.0871 -0.05356,0 -0.07568,0.0351 -0.04918,0.078 0.02667,0.0429 -0.01613,0.1026 -0.09445,0.1327 -0.07841,0.0301 -0.118741,0.0786 -0.08954,0.10779 0.0293,0.0292 -0.04398,0.12939 -0.162557,0.22267 -0.119037,0.0936 -0.189485,0.21526 -0.15729,0.27152 0.03226,0.056 0.02699,0.0737 -0.01119,0.0392 -0.03819,-0.0345 -0.264279,0.1125 -0.50242,0.32663 -0.238173,0.21412 -0.470322,0.38933 -0.51585,0.38933 -0.04556,0 -0.05801,0.0402 -0.02765,0.0892 0.03029,0.0491 0.02041,0.0785 -0.02173,0.0653 -0.10126,-0.0316 -0.981334,0.44655 -0.981334,0.53313 0,0.0369 -0.04898,0.0672 -0.108865,0.0672 -0.145307,6e-5 -1.577706,0.47613 -1.633142,0.54277 -0.02403,0.0288 -0.219904,0.0659 -0.435494,0.0824 -0.215558,0.0166 -0.411528,0.0557 -0.435494,0.0871 -0.02403,0.0314 -0.302235,0.0374 -0.618395,0.0135 z M 151.04093,105.31268 c -0.0777,-0.0599 -0.15376,-0.18329 -0.16904,-0.27424 -0.0316,-0.18746 0.0832,-0.21729 0.96039,-0.24971 0.6555,-0.0242 0.83116,0.0521 0.57959,0.25183 -0.44583,0.35394 -1.09705,0.4832 -1.37094,0.27212 z M 37.484718,101.55017 c -0.119169,-0.066 -0.256345,-0.0975 -0.304836,-0.07 -0.04852,0.0274 -0.06014,0.0188 -0.02601,-0.0192 0.06034,-0.0668 -0.290878,-0.39857 -0.42947,-0.40567 -0.110182,-0.006 -0.287454,-0.1774 -0.248378,-0.24065 0.01975,-0.0319 -0.151924,-0.26124 -0.381506,-0.50961 -0.229548,-0.24837 -0.402508,-0.466446 -0.384337,-0.484604 0.01811,-0.01817 -0.05557,-0.13186 -0.163841,-0.252665 -0.108239,-0.120809 -0.208776,-0.273934 -0.223392,-0.340277 -0.01449,-0.06634 -0.07341,-0.159963 -0.130658,-0.208042 -0.05725,-0.04808 -0.116832,-0.146065 -0.13237,-0.21775 -0.01547,-0.07168 -0.06482,-0.143481 -0.109425,-0.159549 -0.04461,-0.01606 -0.05896,-0.06506 -0.03193,-0.108875 0.02699,-0.04381 0.01218,-0.07966 -0.03331,-0.07966 -0.0454,0 -0.0793,-0.04899 -0.07535,-0.108875 0.01152,-0.174138 -0.230866,-0.936323 -0.297791,-0.936323 -0.03348,0 -0.04036,-0.07839 -0.01547,-0.174201 0.02502,-0.09581 0.0056,-0.1742 -0.04355,-0.1742 -0.04902,0 -0.06976,-0.07396 -0.04612,-0.164368 0.0237,-0.0904 0.0033,-0.189647 -0.0479,-0.220542 -0.05,-0.03088 -0.0688,-0.113704 -0.04181,-0.184027 0.02699,-0.07032 0.0214,-0.196451 -0.01251,-0.280284 -0.157817,-0.389927 -0.161537,-3.24522 -0.0046,-3.499205 0.03292,-0.05312 0.05112,-0.184116 0.04069,-0.291098 -0.01053,-0.106986 0.0059,-0.25331 0.03621,-0.325164 0.03029,-0.07186 0.06561,-0.267834 0.07828,-0.4355 0.01251,-0.16767 0.05349,-0.327406 0.09069,-0.354969 0.0372,-0.02755 0.07641,-0.174471 0.0871,-0.326454 0.01086,-0.15198 0.04171,-0.276406 0.06887,-0.276502 0.02732,-8.9e-5 0.11989,-0.225545 0.206041,-0.500997 0.279817,-0.89491 1.443957,-3.007083 1.83731,-3.333517 0.06949,-0.05769 0.101162,-0.145699 0.07032,-0.195579 -0.03094,-0.04988 -0.01613,-0.06596 0.03292,-0.03573 0.112947,0.06981 0.396188,-0.2353 0.308361,-0.332146 -0.03605,-0.03972 -0.0237,-0.04857 0.02699,-0.01965 0.05089,0.0289 0.256678,-0.09746 0.457287,-0.280824 0.200583,-0.183362 0.364716,-0.319943 0.364716,-0.303509 0,0.05222 1.34882,-0.691022 1.37746,-0.759015 0.01514,-0.03581 0.07861,-0.04545 0.141192,-0.02143 0.06258,0.024 0.168186,-0.01073 0.234648,-0.07722 0.0665,-0.06648 0.169536,-0.104668 0.228989,-0.08485 0.05945,0.01982 0.108108,-0.0052 0.108108,-0.05559 0,-0.05039 0.05879,-0.06907 0.130658,-0.04149 0.07183,0.02759 0.130625,0.0044 0.130625,-0.05142 0,-0.05586 0.03341,-0.08092 0.0742,-0.0557 0.07706,0.04763 1.068637,-0.204438 1.145208,-0.291125 0.02403,-0.02713 0.102343,-0.04937 0.174207,-0.04945 0.188073,-2.61e-4 1.587025,-0.222985 1.741975,-0.277394 0.383678,-0.134701 3.700564,-0.135659 4.093723,-0.0013 0.275932,0.0944 1.155278,0.231244 1.221776,0.19014 0.03842,-0.02374 0.08326,-0.003 0.09965,0.04634 0.01646,0.04922 0.156858,0.09846 0.312111,0.109418 0.155278,0.01096 0.282384,0.05352 0.28248,0.09458 6.9e-5,0.04105 0.05896,0.05208 0.130822,0.02449 0.07183,-0.02759 0.130625,-0.008 0.130625,0.04355 0,0.05153 0.05626,0.07209 0.125032,0.04571 0.06877,-0.0264 0.137371,-0.02077 0.152418,0.01244 0.01514,0.03324 0.374197,0.232459 0.798038,0.442713 0.9917,0.491951 1.605651,1.080636 2.012607,1.929834 0.165948,0.346249 0.327909,0.810363 0.359907,1.031362 0.03193,0.221 0.07677,0.433901 0.09949,0.473114 0.06893,0.119067 0.0293,1.284142 -0.06594,1.931997 -0.04922,0.335336 -0.0982,0.688089 -0.108832,0.783899 -0.01054,0.09581 -0.04349,0.193798 -0.07299,0.21775 -0.105936,0.08604 -0.460115,0.829314 -0.435787,0.91455 0.01383,0.04791 0,0.0635 -0.02765,0.03465 -0.0664,-0.06637 -0.890808,0.725595 -0.850182,0.816726 0.01646,0.03711 -0.0033,0.05702 -0.04174,0.04422 -0.122033,-0.03952 -0.466504,0.247588 -0.397863,0.331602 0.03561,0.04361 0.03226,0.05338 -0.0072,0.02169 -0.03963,-0.03167 -0.31402,0.05424 -0.609704,0.190901 -0.295684,0.136663 -0.968726,0.377545 -1.495703,0.535293 -0.526945,0.157744 -0.982585,0.320993 -1.012509,0.362771 -0.02996,0.04178 -0.08167,0.0319 -0.114988,-0.02196 -0.03717,-0.06014 0.0847,-0.163825 0.315765,-0.268684 0.206932,-0.09392 0.3209,-0.171616 0.25325,-0.172667 -0.193995,-0.003 -0.888401,0.434451 -0.832669,0.524594 0.02765,0.04466 0,0.06223 -0.06324,0.03906 -0.06235,-0.02318 -0.230964,-0.0065 -0.374691,0.03706 -0.162393,0.04922 -0.199065,0.08203 -0.09692,0.08668 0.129737,0.0059 0.09813,0.06016 -0.149619,0.257053 -0.17273,0.137265 -0.285907,0.280732 -0.251506,0.318817 0.0344,0.03809 0.02008,0.04512 -0.0316,0.01564 -0.117721,-0.06697 -0.936531,0.751397 -0.844191,0.843746 0.0371,0.03709 0.02732,0.05438 -0.02173,0.03841 -0.119235,-0.03886 -0.75274,0.667929 -0.671494,0.749171 0.03506,0.03507 0.02469,0.05234 -0.02337,0.03839 -0.113573,-0.03309 -0.871383,0.724719 -0.838299,0.838305 0.01383,0.0479 -0.0033,0.05841 -0.03838,0.02334 -0.07186,-0.07186 -0.790268,0.545178 -0.756427,0.649711 0.01185,0.03701 -0.0076,0.05796 -0.04355,0.04655 -0.105836,-0.0336 -0.97633,0.692053 -0.909898,0.758491 0.03335,0.03337 0.0214,0.0482 -0.02634,0.03297 -0.09955,-0.03167 -1.175856,0.616263 -1.175856,0.707843 0,0.0331 -0.04898,0.0608 -0.108865,0.0614 -0.168911,0.002 -1.894426,0.99118 -1.894426,1.08611 0,0.0463 -0.03921,0.06 -0.0871,0.0305 -0.0479,-0.0296 -0.08711,-0.01 -0.08711,0.0435 0,0.0536 -0.03918,0.0731 -0.08707,0.0435 -0.04793,-0.0296 -0.08711,-0.006 -0.08711,0.0529 0,0.0587 -0.02469,0.0822 -0.05461,0.0521 -0.02996,-0.03 -0.191625,0.003 -0.359054,0.0726 -0.379497,0.15857 -0.954735,0.15908 -1.240148,9.9e-4 z m 3.70912,-5.539493 c 0.835829,-0.404619 1.947689,-1.223623 2.494287,-1.837317 0.300161,-0.336992 0.535931,-0.648457 0.523948,-0.692148 -0.01185,-0.04369 0.0076,-0.07211 0.04355,-0.06316 0.0904,0.02252 2.248015,-2.125989 2.221054,-2.211665 -0.01185,-0.03807 0.0076,-0.05988 0.04355,-0.04848 0.08628,0.02739 1.083549,-0.729992 1.030746,-0.782795 -0.02238,-0.02248 -0.542844,0.02709 -1.1564,0.110116 -0.86154,0.116598 -1.403068,0.137683 -2.378476,0.09262 -1.83517,-0.08479 -5.288274,-0.607663 -5.255026,-0.79572 0.0079,-0.04515 -0.09606,-0.0821 -0.231194,-0.0821 -0.135135,0 -0.226586,0.03098 -0.20318,0.06882 0.02337,0.03785 -0.05343,0.14431 -0.170721,0.236574 -0.117326,0.09226 -0.262534,0.286664 -0.322744,0.432004 -0.06018,0.145337 -0.14004,0.264249 -0.17747,0.264249 -0.149587,0 -0.259242,0.593054 -0.259242,1.402307 0,1.030536 0.110083,1.601958 0.445896,2.3145 0.279093,0.592224 0.977713,1.380557 1.136452,1.282443 0.05471,-0.03381 0.07595,-0.02341 0.04721,0.02311 -0.05642,0.0913 0.33374,0.351107 0.708431,0.471738 0.367942,0.118451 0.997135,0.03865 1.459327,-0.185094 z m 97.700872,-3.593918 c -0.024,-0.03876 -0.12792,-0.06233 -0.23116,-0.05237 -0.10321,0.0099 -0.25437,-0.0108 -0.33591,-0.04612 -0.0815,-0.03532 -0.18932,-0.03883 -0.23953,-0.0078 -0.0502,0.03104 -0.0913,0.01834 -0.0913,-0.02818 0,-0.07117 -0.53257,-0.217658 -0.82747,-0.227606 -0.0479,-0.0016 -0.14113,-0.05419 -0.20719,-0.116822 -0.0661,-0.06264 -0.17385,-0.09326 -0.23953,-0.06806 -0.0657,0.02522 -0.11943,0.0105 -0.11943,-0.03266 0,-0.089 -0.3467,-0.224584 -0.47904,-0.187332 -0.0479,0.0135 -0.0594,-0.0033 -0.0257,-0.03708 0.0339,-0.03388 -0.0837,-0.158623 -0.26129,-0.277216 -0.1776,-0.118593 -0.44306,-0.330003 -0.58991,-0.4698 -0.14686,-0.139793 -0.29711,-0.224087 -0.33388,-0.187316 -0.0368,0.03677 -0.0542,0.02765 -0.0386,-0.02024 0.0306,-0.09449 -0.82727,-0.931329 -0.94411,-0.920904 -0.0392,0.0035 -0.0713,-0.02423 -0.0713,-0.06161 0,-0.09777 -1.11541,-1.187911 -1.21941,-1.191759 -0.0479,-0.0016 -0.0871,-0.04568 -0.0871,-0.09757 0,-0.141824 -0.54078,-0.72943 -0.60875,-0.661461 -0.0326,0.03246 -0.0474,0.01982 -0.0333,-0.02808 0.0142,-0.04791 -0.0204,-0.170135 -0.0768,-0.271623 -0.13898,-0.250084 -0.0649,-0.297126 0.37342,-0.237054 0.39183,0.05371 1.34699,-0.184433 1.34699,-0.335836 0,-0.04417 0.0352,-0.05856 0.0782,-0.03196 0.0827,0.05111 1.91689,-0.677269 2.00448,-0.796007 0.0283,-0.03823 0.12964,-0.08283 0.22547,-0.09914 0.23672,-0.04028 0.82743,-0.376225 0.82743,-0.470593 0,-0.04191 0.0338,-0.05533 0.075,-0.02983 0.10135,0.06263 0.93291,-0.541014 0.90268,-0.655288 -0.0132,-0.0498 0.0135,-0.0674 0.0593,-0.03911 0.0458,0.02828 0.10803,0.01126 0.13839,-0.03782 0.0303,-0.04909 0.32396,-0.32061 0.6525,-0.60337 0.32854,-0.28276 0.57099,-0.540458 0.5388,-0.572667 -0.0323,-0.0322 -0.0194,-0.04658 0.0286,-0.03193 0.11383,0.03479 0.91454,-0.440593 0.91454,-0.542973 0,-0.04335 0.0293,-0.07106 0.0653,-0.06157 0.10482,0.02768 0.45729,-0.110129 0.45729,-0.17879 0,-0.03448 0.0876,-0.06929 0.19469,-0.07736 0.10705,-0.0081 0.20759,-0.0534 0.22336,-0.100744 0.0158,-0.04734 0.085,-0.06449 0.15374,-0.0381 0.0688,0.0264 0.12502,0.01439 0.12502,-0.02667 0,-0.04106 0.0882,-0.08141 0.19598,-0.08968 0.10777,-0.0083 0.53978,-0.04857 0.95996,-0.08956 0.42022,-0.04099 0.79353,-0.04504 0.82955,-0.009 0.036,0.03604 0.25058,0.07634 0.47674,0.08956 0.22615,0.0132 0.41139,0.04833 0.41162,0.07804 0,0.06094 0.79225,0.300642 0.89321,0.270405 0.0359,-0.01077 0.0653,0.02617 0.0653,0.08206 0,0.05589 0.0214,0.08013 0.0477,0.05387 0.0593,-0.05927 0.35905,0.180317 1.01373,0.810158 0.27817,0.267627 0.52549,0.473401 0.54959,0.457273 0.024,-0.01613 0.0283,-0.0074 0.01,0.01932 -0.0188,0.02676 0.10048,0.271722 0.26497,0.544376 0.16451,0.27265 0.36545,0.681903 0.44653,0.909454 0.0811,0.227547 0.17618,0.413724 0.21134,0.413724 0.0352,0 0.0421,0.05691 0.0155,0.126477 -0.0267,0.06956 -0.0171,0.177325 0.0214,0.239474 0.0384,0.06215 0.059,0.216914 0.0456,0.343931 -0.0132,0.127017 0.0174,0.256736 0.0685,0.288267 0.051,0.03154 0.0927,0.09652 0.0927,0.144428 0,0.04791 -0.0375,0.06391 -0.0834,0.03556 -0.0675,-0.04173 -0.28061,0.260164 -0.37564,0.532208 -0.0109,0.0315 -0.16477,0.215637 -0.34168,0.409185 -0.17691,0.19355 -0.30141,0.384731 -0.27662,0.424844 0.0247,0.04012 0.0128,0.06458 -0.0267,0.05436 -0.0951,-0.02459 -0.85568,0.719538 -0.85568,0.837156 0,0.05041 -0.0425,0.09165 -0.0943,0.09165 -0.14181,0 -0.72943,0.540784 -0.66145,0.608753 0.0326,0.03246 0.0181,0.04595 -0.0323,0.02999 -0.12203,-0.03884 -0.65602,0.414113 -0.57899,0.491138 0.0333,0.03327 0.0204,0.04743 -0.0283,0.03147 -0.12265,-0.04011 -0.57326,0.325104 -0.49619,0.402163 0.0343,0.0343 0.023,0.05288 -0.0247,0.04128 -0.14406,-0.03487 -0.39458,0.106054 -0.34142,0.192053 0.0273,0.04407 0.0171,0.07452 -0.0224,0.06766 -0.19143,-0.03325 -0.2944,0.01758 -0.23718,0.117029 0.0345,0.05988 0.0319,0.0813 -0.005,0.04759 -0.0722,-0.06511 -1.11677,0.425479 -1.16319,0.546324 -0.0151,0.03923 -0.0836,0.04974 -0.15241,0.02334 -0.0688,-0.0264 -0.12504,-0.0083 -0.12504,0.04029 0,0.04855 -0.0784,0.06777 -0.1742,0.04271 -0.0958,-0.02505 -0.17418,-0.003 -0.17418,0.04897 0,0.05199 -0.0569,0.07269 -0.12647,0.04599 -0.0696,-0.0267 -0.17352,-0.01949 -0.231,0.01603 -0.1146,0.07083 -0.34806,0.09229 -1.50179,0.138048 -0.42378,0.01682 -0.79008,-9.87e-4 -0.81402,-0.03991 z m 5.43144,-3.938975 c 0.83823,-0.335263 1.89321,-1.050705 2.04698,-1.388214 0.0725,-0.159143 0.0698,-0.277647 -0.0109,-0.47239 -0.21921,-0.529255 -1.41295,-1.482311 -1.71261,-1.367323 -0.0711,0.02729 -0.10814,0.01534 -0.0823,-0.02653 0.0964,-0.155953 -0.86855,-0.187941 -1.63116,-0.05408 -0.58962,0.103496 -0.99026,0.247081 -1.74202,0.624327 -0.91291,0.458123 -1.02587,0.492761 -1.74039,0.533722 -0.72647,0.04164 -0.76159,0.05286 -0.71268,0.22758 0.0283,0.10108 0.33589,0.462106 0.68352,0.802278 0.98271,0.961605 2.06448,1.39938 3.50791,1.419603 0.52376,0.0073 0.74813,-0.04079 1.39362,-0.298953 z M 31.245035,85.780538 c 1.75e-4,-0.526951 0.01448,-0.731293 0.03193,-0.454093 0.01745,0.277203 0.01712,0.708348 0,0.958099 -0.01745,0.249751 -0.0316,0.02295 -0.0316,-0.504006 z"
       id="path910" />
    <path
       style="fill:#e71a13;stroke-width:0.999999;filter:url(#filter905)"
       d="M -20.089366,126.15132 V 36.961082 h 58.488558 58.488596 l -0.04612,0.326625 c -0.02535,0.179643 -0.125529,1.130121 -0.222635,2.11217 -0.255466,2.583874 -0.732007,5.613418 -0.869582,5.528396 -0.111887,-0.06916 -0.172657,0.499236 -0.125256,1.171389 0.02568,0.363084 0.08483,2.012377 0.13158,3.665096 0.07519,2.65981 0.160813,4.61698 0.298022,6.811488 l 0.04194,0.670951 -2.102112,2.813042 C 86.06342,70.672442 83.959004,73.603747 76.466856,84.47404 c -1.71693,2.491058 -3.176938,4.587985 -3.244459,4.659842 -0.06755,0.07186 0.03996,-0.222102 0.238897,-0.653247 1.174734,-2.546109 1.783612,-4.717932 2.169535,-7.738817 0.462021,-3.616544 0.272772,-6.189226 -0.700098,-9.516198 -0.979952,-3.351208 -2.104657,-5.443464 -3.942856,-7.334686 -2.647426,-2.723784 -5.781706,-4.805703 -8.798,-5.844004 -1.248872,-0.4299 -3.170489,-0.907545 -4.411987,-1.096668 -1.292819,-0.196941 -3.946832,-0.268476 -5.00747,-0.134971 -1.968231,0.24774 -3.978369,0.883033 -6.184873,1.954669 -1.741053,0.84559 -2.845177,1.496155 -4.572733,2.694261 -3.413995,2.367714 -5.39095,4.119489 -6.849092,6.068903 -2.156004,2.882449 -2.799944,4.505466 -3.250186,8.191888 -0.509991,4.175699 -0.62488,6.129591 -0.70132,11.928175 -0.09102,6.905708 -0.09879,7.018609 -0.75962,11.018129 -0.304935,1.845534 -0.404549,2.682454 -0.409487,3.440444 -0.0072,1.12905 -0.05982,0.98879 0.986436,2.63706 0.579452,0.91285 1.118313,2.15311 1.414655,3.25592 0.132699,0.49375 0.185733,0.96066 0.191461,1.68471 0.0135,1.69753 -0.137275,1.94425 -2.899199,4.74694 -2.366756,2.40171 -2.791913,2.87933 -2.791913,3.13648 0,0.16774 0.167759,0.31932 0.854791,0.77233 0.60447,0.39856 1.223063,0.93135 2.112189,1.81916 1.466405,1.46425 1.919346,1.78603 3.042925,2.16173 1.10488,0.36947 2.076667,0.43016 2.867858,0.17913 0.307864,-0.0977 0.592026,-0.15764 0.631464,-0.13325 0.03947,0.0244 0.07176,0.01 0.07176,-0.0329 0,-0.0425 0.323336,-0.20044 0.718569,-0.35099 0.3952,-0.15055 1.027158,-0.45779 1.404351,-0.68276 0.779208,-0.46476 0.844125,-0.45716 1.176515,0.1377 0.159002,0.28448 0.217566,0.54866 0.250749,1.13111 0.05767,1.01135 -0.06284,1.26713 -0.837344,1.77691 -1.12539,0.74078 -2.997562,1.72792 -3.661024,1.93036 -0.200777,0.0613 -0.198736,0.052 0.06113,-0.27285 0.29779,-0.37232 0.674588,-1.15181 0.751982,-1.55564 0.02765,-0.14372 -0.0237,-0.0633 -0.114,0.17867 -0.38911,1.04342 -0.763439,1.56367 -1.293873,1.79831 -0.212266,0.0939 -0.44188,0.14927 -0.510254,0.12303 -0.06837,-0.0262 -0.124305,-0.0132 -0.124305,0.0288 0,0.0421 -0.327846,0.10385 -0.728511,0.13723 -0.400663,0.0334 -0.767157,0.0859 -0.814397,0.1167 -0.332883,0.21702 -0.370741,0.9881 -0.101294,2.06241 0.259308,1.03389 0.584883,1.53119 1.469992,2.24526 1.521578,1.22755 1.880171,1.39605 3.280868,1.54174 0.439181,0.0457 0.898245,0.12849 1.020113,0.18401 0.263193,0.11993 0.521645,0.49412 1.004411,1.45429 0.196135,0.3901 0.512526,0.91527 0.703097,1.16707 0.190605,0.2518 0.430161,0.66391 0.532409,0.91579 l 0.185865,0.45798 -0.373473,0.63167 c -0.755638,1.27799 -6.255091,10.28849 -7.748258,12.69499 -2.924349,4.71307 -6.754086,10.38146 -9.70984,14.37146 -0.727524,0.98207 -1.346248,1.85129 -1.374954,1.93161 -0.127663,0.35689 0.225664,0.42459 3.856896,0.73916 2.286037,0.19803 3.230304,0.23818 5.661484,0.24067 3.748259,0.004 5.811266,-0.17709 12.934316,-1.13442 12.09174,-1.62511 16.797995,-2.04611 29.613941,-2.6491 5.96016,-0.28042 9.42712,-0.50104 15.79842,-1.00532 2.126177,-0.16828 3.878129,-0.29359 3.893266,-0.27846 0.03931,0.0393 0.934555,5.68232 1.253052,7.89847 0.329335,2.29143 2.291344,17.35381 2.479776,19.0373 0.449715,4.01778 0.615041,7.67344 0.537607,11.88913 -0.0745,4.05705 -0.187283,5.88412 -0.535342,8.6727 -0.161856,1.29689 -0.342979,3.05088 -0.402505,3.89772 l -0.108203,1.53975 H 38.293685 -20.089366 Z m 56.686439,-3.0485 c 0.0033,-0.84905 -0.04701,-0.6906 -0.09497,0.30485 -0.02074,0.43114 -0.0082,0.68591 0.02765,0.56615 0.03601,-0.11976 0.0663,-0.51171 0.06729,-0.871 z m 26.842299,20.86365 c 0,-0.0148 0.05856,-0.13914 0.130132,-0.27636 0.07153,-0.13721 0.130328,-0.33844 0.130625,-0.44719 2.63e-4,-0.10873 0.09224,-0.3439 0.204299,-0.52259 0.407907,-0.65049 2.687492,-4.7601 4.456004,-8.03323 6.765443,-12.5214 11.095361,-19.89469 16.111815,-27.43645 0.97185,-1.4611 2.288279,-3.38165 2.925369,-4.26789 2.496467,-3.472783 3.344279,-4.698536 4.359312,-6.302643 1.322517,-2.090041 2.616689,-3.841743 2.712219,-3.671068 0.102284,0.182802 0.301217,1.644483 0.456466,3.354121 0.52177,5.7459 1.206139,9.80019 2.58027,15.28602 2.677987,10.69112 5.198007,17.11646 8.270597,21.08755 1.8379,2.37535 3.46815,3.93909 7.11258,6.82233 0.87356,0.69112 1.57906,1.26272 1.56779,1.27023 -0.0112,0.008 -0.58883,-0.0108 -1.28346,-0.0406 -1.44659,-0.0621 -4.9092,0.0173 -7.70833,0.17674 -2.38881,0.13609 -8.836514,0.13943 -11.845595,0.006 -2.810879,-0.12452 -9.426041,-0.13076 -11.509297,-0.0109 -5.518323,0.31759 -11.731632,1.31916 -15.333075,2.47163 -0.518352,0.16589 -1.177634,0.3417 -1.465055,0.39071 -0.528162,0.09 -1.872666,0.19301 -1.872666,0.14341 z M 35.698071,117.20464 c -0.0958,-0.0233 -0.781709,-0.24081 -1.524244,-0.48344 -1.328108,-0.43398 -1.372155,-0.44197 -2.712049,-0.49198 l -1.361984,-0.0508 1.797478,-1.88136 c 0.988642,-1.03476 1.806956,-1.87454 1.818478,-1.86619 0.01152,0.008 -0.136254,0.48261 -0.328404,1.05392 -0.192185,0.5713 -0.338118,1.09753 -0.324292,1.16939 0.01745,0.0909 0.170491,-9.9e-4 0.502615,-0.30189 0.262633,-0.23789 0.565658,-0.50926 0.673404,-0.60303 l 0.195905,-0.17051 -0.02173,0.69014 -0.02173,0.69013 h 0.489416 c 0.414623,0 0.525397,0.0358 0.724989,0.23407 0.470619,0.4676 2.204561,1.02888 3.178488,1.02888 0.537545,0 1.937715,-0.41662 3.076306,-0.91536 0.992099,-0.43457 2.158441,-1.25423 2.799814,-1.9676 0.220397,-0.24512 0.400698,-0.39967 0.400698,-0.34344 0,0.21154 -0.599104,1.36442 -0.843796,1.62372 -0.357737,0.37913 -1.467227,1.1866 -2.004476,1.45885 -0.766336,0.38834 -1.672843,0.64603 -2.94387,0.83685 -0.670638,0.1007 -1.376172,0.22019 -1.567797,0.26555 -0.356059,0.0843 -1.689303,0.10036 -2.003291,0.0241 z M 119.67014,97.081743 c 1.20974,-1.38135 2.28189,-2.887071 2.77539,-3.897717 1.45636,-2.982504 2.3447,-6.812396 2.18191,-9.406782 -0.0779,-1.241514 -0.4027,-5.134339 -0.43072,-5.162574 -0.0128,-0.01304 -0.0486,0.216285 -0.0793,0.509579 -0.15822,1.513615 -1.22893,5.798943 -1.83834,7.357507 -0.43042,1.10073 -0.89758,2.056972 -1.6149,3.305377 -1.23113,2.142629 -2.42197,4.622745 -2.695,5.612654 -0.0525,0.190381 -0.0968,0.142779 -0.42657,-0.458027 -0.30997,-0.564779 -0.35257,-0.699305 -0.27014,-0.853287 0.0715,-0.133683 0.12374,-0.156885 0.19425,-0.08635 0.0531,0.05305 0.13063,0.09645 0.17238,0.09645 0.0417,0 0.0125,-0.06331 -0.0648,-0.140692 -0.12954,-0.129522 -0.15341,-0.129203 -0.30055,0.004 -0.15282,0.138276 -0.21382,0.04715 -1.37829,-2.058579 -2.61734,-4.733025 -5.04638,-9.443155 -6.15607,-11.937139 l -0.33933,-0.762597 0.59298,-2.329445 c 0.32613,-1.281195 0.76226,-2.93697 0.96916,-3.679495 0.20693,-0.742526 0.43832,-1.722398 0.51427,-2.177495 0.23429,-1.40457 0.39664,-1.807977 1.33215,-3.3098 0.79488,-1.276033 1.21783,-1.813558 2.31056,-2.936495 1.21635,-1.249942 1.69438,-1.505082 4.58666,-2.448207 2.19292,-0.715067 2.613,-0.828077 2.613,-0.702939 0,0.03976 0.0535,0.05175 0.11891,0.02667 0.17961,-0.06892 0.12505,-0.376594 -0.11891,-0.670883 -0.86217,-1.039887 -1.49412,-1.3269 -3.21,-1.457871 -1.38529,-0.105734 -1.92184,-0.177039 -1.97458,-0.262399 -0.0802,-0.129726 1.42878,-1.437652 2.23649,-1.938545 1.46315,-0.907324 2.45492,-1.046043 3.61099,-0.505069 0.66237,0.309968 1.34336,1.091118 1.84666,2.118345 l 0.33795,0.689662 0.0535,-0.68129 c 0.10937,-1.393027 0.74116,-2.726289 1.57149,-3.316271 0.4586,-0.325872 0.39204,-0.311702 2.97455,-0.633103 2.43717,-0.303315 3.29087,-0.461356 6.79379,-1.257688 1.34134,-0.304931 2.67399,-0.606824 2.96142,-0.670872 0.34134,-0.07607 1.0814,-0.113896 2.13394,-0.109083 1.39935,0.0064 1.76032,0.03852 2.74362,0.244148 4.51601,0.944349 7.08842,2.316782 8.09955,4.321225 0.46114,0.914207 0.83517,2.076715 0.91579,2.846368 0.0779,0.743596 -0.0254,2.327016 -0.16275,2.499953 -0.0426,0.05358 -0.0459,0.175807 -0.007,0.271616 0.0664,0.16475 0.0705,0.163482 0.0763,-0.02337 0.008,-0.25067 1.24829,-1.084949 2.24117,-1.507248 0.65849,-0.280074 0.72466,-0.290549 1.85865,-0.294272 0.98027,-0.0033 1.27724,0.02828 1.78552,0.189321 1.02492,0.324739 2.38871,1.221778 3.69204,2.428451 0.96454,0.89301 1.27182,1.527757 1.40158,2.895126 0.0984,1.036902 0.0669,1.129312 -0.29163,0.855907 -1.20694,-0.92042 -3.79205,-1.555255 -5.49876,-1.350356 -1.09958,0.132004 -2.43335,0.676613 -3.48665,1.423665 -0.63604,0.451108 -2.04928,1.738028 -2.6258,2.391078 l -0.42006,0.475808 0.33223,-0.203299 c 0.9574,-0.585849 1.54031,-0.773859 2.63142,-0.848728 1.78995,-0.122823 2.92617,0.64276 3.61857,2.438143 0.3944,1.022721 0.56851,1.937712 0.81904,4.303593 0.39737,3.753015 0.72117,4.926751 1.83642,6.656558 0.52744,0.818106 1.50874,1.821506 2.10498,2.152407 l 0.50294,0.279122 -0.39197,-0.05736 c -1.07325,-0.157072 -2.68987,-0.836576 -3.69253,-1.552061 -1.14046,-0.813823 -2.38691,-2.382755 -3.0947,-3.895425 -0.32229,-0.688811 -0.738,-2.086163 -0.9688,-3.256574 -0.17741,-0.899559 -0.40916,-1.40922 -0.73131,-1.608325 -0.70836,-0.437794 -1.9047,-0.400974 -3.03081,0.09329 -0.49083,0.215426 -0.66402,0.251473 -0.98025,0.204049 -0.87217,-0.13079 -2.21394,-1.224607 -3.06732,-2.500512 -0.42246,-0.631649 -0.89926,-1.772106 -1.08111,-2.585981 -0.0708,-0.316763 -0.17036,-0.461936 -0.49617,-0.723275 -1.10974,-0.890186 -3.16854,-1.563103 -5.67863,-1.856078 -1.3977,-0.16314 -4.29015,-0.212194 -5.52856,-0.09376 l -0.78309,0.07489 0.40784,0.207272 c 0.90747,0.461198 1.40077,1.260786 1.44554,2.343043 0.0528,1.278483 -0.5041,2.410898 -1.84656,3.754483 -1.20934,1.210362 -3.92238,3.180625 -5.40863,3.927824 -0.50397,0.253376 -0.46716,0.208652 0.30486,-0.370457 0.72243,-0.5419 2.36947,-2.142248 3.1328,-3.043956 1.47869,-1.746811 2.34398,-3.234004 2.41798,-4.155826 0.0949,-1.182513 -0.62202,-1.86337 -2.06524,-1.961286 -1.92653,-0.130705 -3.49462,0.334476 -5.65733,1.678259 -0.77924,0.484169 -2.71683,2.105579 -2.9581,2.475392 -0.0956,0.146581 -0.10307,0.191598 -0.0237,0.142838 0.0854,-0.05244 0.0797,-9.88e-4 -0.0217,0.195365 -0.18671,0.361062 -0.17539,0.55803 0.0918,1.595143 0.21803,0.846252 0.22758,0.973292 0.18863,2.50761 -0.0224,0.888908 -0.0171,1.521393 0.0122,1.405523 0.0414,-0.164207 0.16331,0.08554 0.55265,1.132297 1.02601,2.758657 1.17507,4.860832 0.5893,8.310957 -0.50295,2.962325 -0.97393,4.151487 -2.62178,6.61959 -0.7485,1.121074 -1.38112,1.865611 -2.07645,2.443765 -0.53688,0.446443 -1.45234,0.996678 -1.65819,0.996678 -0.0549,0 0.20048,-0.342957 0.56756,-0.762126 z M 38.145283,94.768148 c -0.274253,-0.27425 -0.54212,-1.025578 -0.655002,-1.837204 -0.132139,-0.949932 -0.123942,-1.014185 0.09224,-0.724354 0.22494,0.301554 0.595746,0.498387 0.938934,0.498387 0.341738,0 0.807123,-0.407529 1.058563,-0.926958 0.162458,-0.335559 0.184745,-0.493267 0.144649,-1.023283 l -0.04737,-0.626582 1.136221,0.178431 c 1.056161,0.165865 1.141982,0.193732 1.218421,0.395638 0.197814,0.522546 -0.17658,2.04789 -0.665042,2.709489 -0.341409,0.462458 -1.371036,1.180418 -2.009381,1.401148 -0.613095,0.212012 -0.968627,0.198897 -1.212232,-0.04471 z m 104.944507,-6.70261 c -0.66923,-0.685873 -0.99089,-1.230456 -1.05712,-1.789744 -0.0848,-0.716183 -0.0119,-0.85779 0.49748,-0.96705 0.80512,-0.172664 0.84005,-0.158005 0.8839,0.370902 0.0461,0.55647 0.28656,0.932985 0.73009,1.14346 0.63637,0.301968 1.13263,0.0061 1.23195,-0.734398 0.026,-0.193445 0.0733,-0.351719 0.10514,-0.351719 0.0887,0 0.66979,0.62859 0.7798,0.843499 0.15855,0.309672 0.11549,0.455111 -0.22921,0.774546 -0.40313,0.373552 -1.12424,0.84692 -1.31617,0.863969 -0.0785,0.007 -0.30779,0.0981 -0.50946,0.202485 -0.2017,0.104389 -0.41557,0.189795 -0.47529,0.189795 -0.0597,0 -0.34822,-0.245583 -0.64111,-0.545745 z"
       id="path908" />
  </g>
</svg>
