<?xml version="1.0" encoding="UTF-8" standalone="no"?>
<svg
   xmlns:dc="http://purl.org/dc/elements/1.1/"
   xmlns:cc="http://creativecommons.org/ns#"
   xmlns:rdf="http://www.w3.org/1999/02/22-rdf-syntax-ns#"
   xmlns:svg="http://www.w3.org/2000/svg"
   xmlns="http://www.w3.org/2000/svg"
   xmlns:sodipodi="http://sodipodi.sourceforge.net/DTD/sodipodi-0.dtd"
   xmlns:inkscape="http://www.inkscape.org/namespaces/inkscape"
   sodipodi:docname="elfin.svg"
   id="svg8"
   version="1.1"
   viewBox="0 0 210 297"
   height="297mm"
   width="210mm"
   inkscape:version="1.0.1 (3bc2e813f5, 2020-09-07)">
  <defs
     id="defs2">
    <rect
       x="13.924873"
       y="14.698477"
       width="557.76852"
       height="69.237566"
       id="rect835" />
  </defs>
  <sodipodi:namedview
     id="base"
     pagecolor="#ffffff"
     bordercolor="#666666"
     borderopacity="1.0"
     inkscape:pageopacity="0.0"
     inkscape:pageshadow="2"
     inkscape:zoom="1.8045188"
     inkscape:cx="403.45382"
     inkscape:cy="219.47557"
     inkscape:document-units="mm"
     inkscape:current-layer="layer1"
     inkscape:document-rotation="0"
     showgrid="false"
     inkscape:window-width="1920"
     inkscape:window-height="1137"
     inkscape:window-x="-8"
     inkscape:window-y="-8"
     inkscape:window-maximized="1" />
  <metadata
     id="metadata5">
    <rdf:RDF>
      <cc:Work
         rdf:about="">
        <dc:format>image/svg+xml</dc:format>
        <dc:type
           rdf:resource="http://purl.org/dc/dcmitype/StillImage" />
        <dc:title />
      </cc:Work>
    </rdf:RDF>
  </metadata>
  <g
     inkscape:label="Layer 1"
     inkscape:groupmode="layer"
     id="layer1">
    <path
       d="m 17.50779,15.747547 0.06409,0.259522 -0.04006,1.364458 m -0.06008,0.729808 -0.02804,0.185795 h 0.164228 l 0.04006,-0.185795 h -0.176245"
       style="fill:none;stroke:#000000;stroke-width:0.26458333;stroke-linecap:round;stroke-linejoin:round;stroke-miterlimit:4;stroke-dasharray:none"
       id="path1143" />
    <path
       d="m 18.188736,15.684633 0.03605,0.102236 v 0.542637 m 0.520723,-0.644873 v 0.471858 l -0.06409,0.173015"
       style="fill:none;stroke:#000000;stroke-width:0.26458333;stroke-linecap:round;stroke-linejoin:round;stroke-miterlimit:4;stroke-dasharray:none"
       id="path1145" />
    <path
       d="m 19.650766,17.902369 0.240334,-0.841482 0.264367,-0.939785 0.05207,-0.349962 m 0.845173,-0.03539 -0.104144,0.271319 -0.540751,1.982593 m 0.85719,-0.716439 -0.64089,0.03539 h -0.708984 l -0.630476,0.08651 m 0.07771,-0.853278 0.817135,-0.06292 0.708984,0.02359 0.364507,-0.03539 h 0.100139"
       style="fill:none;stroke:#000000;stroke-width:0.26458333;stroke-linecap:round;stroke-linejoin:round;stroke-miterlimit:4;stroke-dasharray:none"
       id="path1147" />
    <path
       d="m 22.450655,18.361645 -0.01202,-1.992817 -0.03605,-0.23593 -0.06409,-0.27525 v -0.247726 m 0.492684,0.719584 -0.01202,-0.121897 -0.368511,-0.287047 -0.188262,-0.0118 -0.176245,0.08651 -0.140194,0.149422 -0.03605,0.196607 0.08812,0.224133 0.316439,0.322437 0.376523,0.31064 0.192267,0.259523 v 0.235929 l -0.192267,0.208405 -0.164228,0.08729 -0.188262,0.02517 -0.200278,-0.01258 -0.204284,-0.19818 -0.100139,-0.173015 0.01202,-0.125829"
       style="fill:none;stroke:#000000;stroke-width:0.26458333;stroke-linecap:round;stroke-linejoin:round;stroke-miterlimit:4;stroke-dasharray:none"
       id="path1149" />
    <path
       d="m 23.868655,18.06398 0.729013,-1.74627 0.2163,-0.408945 -0.480668,0.110101 -0.352489,0.08651 h -0.228317 l -0.100139,-0.03539 -0.164228,0.137626 -0.06208,0.322437 0.02603,0.247726 0.136189,0.161218 0.152212,-0.02753 0.164228,-0.184812 0.01202,-0.298844 -0.02403,-0.173015 -0.07611,-0.121896 m 1.161614,0.865074 -0.176245,0.0983 -0.112156,0.247726 -0.05207,0.212336 0.02403,0.247726 0.07611,0.136053 0.176245,0.03736 0.140195,-0.06213 0.140194,-0.248909 0.04807,-0.271319 -0.03605,-0.224133 -0.05207,-0.0983 -0.176244,-0.07471"
       style="fill:none;stroke:#000000;stroke-width:0.26458333;stroke-linecap:round;stroke-linejoin:round;stroke-miterlimit:4;stroke-dasharray:none"
       id="path1151" />
    <path
       d="m 26.856805,15.97168 -0.04807,0.196608 -0.04006,0.137625 0.05207,0.06292 -0.128178,-0.176947 -0.160223,-0.04719 -0.140194,0.03539 -0.128178,0.07471 -0.02403,0.161219 0.02403,0.114032 0.104145,0.1101 0.200278,0.03539 -0.112156,-0.04719 -0.31644,0.121897 -0.264367,0.212336 -0.07611,0.208404 -0.04005,0.408944 0.152211,0.347996 0.276384,0.198181 0.292406,0.07432 0.328456,-0.01258 0.288401,-0.123862 0.204284,-0.248119 0.03605,-0.196608 -0.0761,-0.20054 -0.200278,-0.259522 m -0.656913,0.31064 0.05207,-0.149422 0.148205,-0.0983 0.240334,-0.06291 0.340473,-0.04719 0.28039,-0.06292 0.364505,-0.0983 0.252351,-0.161218 0.124173,-0.20054 -0.04807,-0.184811 -0.08812,-0.08651 -0.140194,-0.05112 -0.176245,0.05112"
       style="fill:none;stroke:#000000;stroke-width:0.26458333;stroke-linecap:round;stroke-linejoin:round;stroke-miterlimit:4;stroke-dasharray:none"
       id="path1153" />
    <path
       d="m 28.691353,15.511618 v 0.841481"
       style="fill:none;stroke:#000000;stroke-width:0.26458333;stroke-linecap:round;stroke-linejoin:round;stroke-miterlimit:4;stroke-dasharray:none"
       id="path1155" />
    <path
       d="m 30.017131,18.671105 -0.31644,-0.421134 -0.228317,-0.497024 -0.100139,-0.507248 -0.02403,-0.519045 0.06008,-0.495452 0.192267,-0.432537 0.236328,-0.247726 0.240334,-0.149422"
       style="fill:none;stroke:#000000;stroke-width:0.26458333;stroke-linecap:round;stroke-linejoin:round;stroke-miterlimit:4;stroke-dasharray:none"
       id="path1157" />
    <path
       d="m 30.505809,18.572015 0.252351,-0.334627 0.188261,-0.409731 0.104145,-0.381419 0.01202,-0.397147 V 16.577232 L 30.946424,16.156491 30.77018,15.822258 30.505812,15.464432 30.368021,15.291417"
       style="fill:none;stroke:#000000;stroke-width:0.26458333;stroke-linecap:round;stroke-linejoin:round;stroke-miterlimit:4;stroke-dasharray:none"
       id="path1159" />
    <path
       d="m 32.264251,17.135598 0.02403,-1.596455 m -0.656912,1.384119 1.17363,-1.065614 m -1.185647,0 0.95733,0.845413 0.176245,0.220201"
       style="fill:none;stroke:#000000;stroke-width:0.26458333;stroke-linecap:round;stroke-linejoin:round;stroke-miterlimit:4;stroke-dasharray:none"
       id="path1161" />
    <path
       d="m 34.215024,17.977473 h 0.02804 l -0.100139,-1.710881 m -0.82114,0.93192 h 0.464645 l 0.620863,-0.03932 0.340472,-0.04719 0.288401,-0.03932"
       style="fill:none;stroke:#000000;stroke-width:0.26458333;stroke-linecap:round;stroke-linejoin:round;stroke-miterlimit:4;stroke-dasharray:none"
       id="path1163" />
    <path
       d="m 35.721115,18.200426 h -0.152211 l 0.02403,-0.185598 0.176245,0.01219 0.01202,0.346816 -0.188262,0.297271"
       style="fill:none;stroke:#000000;stroke-width:0.26458333;stroke-linecap:round;stroke-linejoin:round;stroke-miterlimit:4;stroke-dasharray:none"
       id="path1165" />
    <path
       d="m 36.462113,17.406917 h 0.02804 l 0.364506,-0.07471 0.25235,0.02753 0.252351,-0.06292"
       style="fill:none;stroke:#000000;stroke-width:0.26458333;stroke-linecap:round;stroke-linejoin:round;stroke-miterlimit:4;stroke-dasharray:none"
       id="path1167" />
    <path
       d="m 38.092345,18.039601 -0.02403,0.185598 H 38.24456 L 38.26859,18.05179 38.092345,18.0396"
       style="fill:none;stroke:#000000;stroke-width:0.26458333;stroke-linecap:round;stroke-linejoin:round;stroke-miterlimit:4;stroke-dasharray:none"
       id="path1169" />
    <path
       d="m 38.865419,18.088753 0.440611,-1.472199 0.176245,-0.794296"
       style="fill:none;stroke:#000000;stroke-width:0.26458333;stroke-linecap:round;stroke-linejoin:round;stroke-miterlimit:4;stroke-dasharray:none"
       id="path1171" />
    <path
       d="m 40.579831,17.418713 h 0.192267 l 0.236328,-0.145489 0.152212,-0.322437 V 16.73845 L 40.948343,16.443539 40.67997,16.294117 h -0.276384 l -0.176244,0.161218 -0.07611,0.208405 -0.01202,0.27525 0.08812,0.243794 0.100139,0.149422 0.264367,0.102236"
       style="fill:none;stroke:#000000;stroke-width:0.26458333;stroke-linecap:round;stroke-linejoin:round;stroke-miterlimit:4;stroke-dasharray:none"
       id="path1173" />
    <path
       d="m 42.334267,18.163464 0.04006,-2.168191 0.03605,0.173015 -0.240334,0.161218 -0.212295,0.137626 -0.2163,0.07471 -0.238331,0.0118"
       style="fill:none;stroke:#000000;stroke-width:0.26458333;stroke-linecap:round;stroke-linejoin:round;stroke-miterlimit:4;stroke-dasharray:none"
       id="path1175" />
    <path
       d="m 43.419743,16.341303 0.06409,0.137625 -0.0761,0.173015 -0.164229,0.06291 -0.140194,-0.06291 -0.06169,-0.224133 0.01362,-0.306708 0.228317,-0.334233 0.288401,-0.102236 0.264366,0.08651 0.164229,0.263455 0.02403,0.283115 -0.04807,0.385351 -0.164229,0.519045 -0.2163,0.432537 -0.188261,0.310247 -0.124173,0.222953 1.069486,-0.11128"
       style="fill:none;stroke:#000000;stroke-width:0.26458333;stroke-linecap:round;stroke-linejoin:round;stroke-miterlimit:4;stroke-dasharray:none"
       id="path1177" />
    <path
       d="m 45.238269,17.678236 -0.06409,-0.157286 -0.252351,0.01179 -0.152211,0.08651 -0.06249,0.235929 0.05047,0.208798 0.188262,0.173408 0.264367,0.02497 0.316439,-0.198377 0.152212,-0.311034 0.02403,-0.334233 -0.08812,-0.369622 -0.136189,-0.20054 -0.192267,-0.110101 -0.176245,0.01179 -0.07611,0.03932 -0.08812,0.0983 0.25235,-0.235929 0.416579,-0.483655 0.276384,-0.294912 -0.464646,0.0118 -0.392545,-0.02753"
       style="fill:none;stroke:#000000;stroke-width:0.26458333;stroke-linecap:round;stroke-linejoin:round;stroke-miterlimit:4;stroke-dasharray:none"
       id="path1179" />
    <path
       d="m 47.593539,17.780472 -1.285785,0.246546 0.556773,-1.363278 0.252351,-0.829685 m 0.100139,0.644873 v 1.187511 l 0.01202,0.608305 -0.01202,0.408551"
       style="fill:none;stroke:#000000;stroke-width:0.26458333;stroke-linecap:round;stroke-linejoin:round;stroke-miterlimit:4;stroke-dasharray:none"
       id="path1181" />
    <path
       d="m 48.414712,17.927928 -0.03605,-0.100271 h -0.124173 l -0.140194,0.100271 v 0.235536 l 0.140194,0.198181 0.300418,0.01219 0.328456,-0.21037 0.124172,-0.284688 0.04006,-0.271319 -0.128178,-0.247726 -0.200278,-0.263454 -0.152212,-0.03539 -0.188261,0.07471 -0.124173,0.0983 -0.09213,0.12583 -0.03605,0.133693 0.03605,-0.790364 0.01602,-0.188743 -0.04006,-0.479723 0.364506,0.04719 0.432601,-0.04719"
       style="fill:none;stroke:#000000;stroke-width:0.26458333;stroke-linecap:round;stroke-linejoin:round;stroke-miterlimit:4;stroke-dasharray:none"
       id="path1183" />
    <path
       d="m 50.004888,18.225199 0.03605,-0.334627 0.176245,-0.259522 0.2163,-0.06291 0.240334,0.20054 0.06409,0.258343 -0.104144,0.21037 -0.164228,0.111673 h -0.288401 l -0.252351,-0.222953 -0.2163,-0.408551 -0.03605,-0.519045 0.140195,-0.495451 0.288401,-0.349962 0.264367,-0.208404 0.228317,-0.02359 0.2163,0.05898 0.212296,0.137626"
       style="fill:none;stroke:#000000;stroke-width:0.26458333;stroke-linecap:round;stroke-linejoin:round;stroke-miterlimit:4;stroke-dasharray:none"
       id="path1185" />
    <path
       d="m 51.595126,18.435569 0.66893,-1.783626 0.188262,-0.385351 0.128177,-0.14549 0.10014,-0.07471 -0.540752,0.04719 -0.504698,0.03932 -0.292406,-0.06291 m 0.364504,0.817888 0.861195,0.149422"
       style="fill:none;stroke:#000000;stroke-width:0.26458333;stroke-linecap:round;stroke-linejoin:round;stroke-miterlimit:4;stroke-dasharray:none"
       id="path1187" />
    <path
       d="m 53.653955,18.237388 0.388541,-0.123469 0.128177,-0.124257 0.03605,-0.110886 0.116161,-0.07471 v -0.161219 l 0.0761,-0.184811 -0.11616,-0.397148 -0.188262,-0.271319 -0.140195,-0.149421 -0.160224,-0.01179 h -0.2163 L 53.465687,16.46714 v -0.259523 l 0.188262,-0.212336 h 0.212296 l 0.2163,0.0983 0.112156,0.173015 0.01203,0.224133 -0.10014,0.1101 -0.164228,0.06292 H 53.56584 l -0.204283,0.149421 -0.176245,0.283116 -0.03605,0.27525 0.01203,0.306709 0.07611,0.237109 0.140194,0.210763 0.276385,0.11128"
       style="fill:none;stroke:#000000;stroke-width:0.26458333;stroke-linecap:round;stroke-linejoin:round;stroke-miterlimit:4;stroke-dasharray:none"
       id="path1189" />
    <path
       d="m 54.875685,17.902369 h 0.02806 l 0.0761,0.198966 0.236326,0.09909 0.344481,-0.123863 0.288398,-0.284295 0.140198,-0.460062 -0.04006,-0.593756 -0.264368,-0.471858 -0.124169,-0.14549 -0.164228,-0.06291 -0.240334,0.07471 -0.140194,0.184812 -0.07611,0.212336 0.05207,0.259522 0.13619,0.149422 0.204283,0.03539 0.212292,-0.08651 0.140194,-0.137625 0.112157,-0.294912"
       style="fill:none;stroke:#000000;stroke-width:0.26458333;stroke-linecap:round;stroke-linejoin:round;stroke-miterlimit:4;stroke-dasharray:none"
       id="path1191" />
    <path
       d="m 56.734263,16.714857 -0.02805,0.184812 h 0.176245 l 0.02805,-0.173015 -0.176245,-0.01179 m 0.02402,1.324743 -0.02402,0.185598 h 0.176245 l 0.02402,-0.185598 h -0.176245"
       style="fill:none;stroke:#000000;stroke-width:0.26458333;stroke-linecap:round;stroke-linejoin:round;stroke-miterlimit:4;stroke-dasharray:none"
       id="path1193" />
    <path
       d="m 57.795738,16.777772 -0.02805,0.173015 h 0.164228 l 0.04006,-0.173015 h -0.176245 m 0.06008,1.434844 H 57.7036 l 0.02805,-0.173015 h 0.176245 l 0.01203,0.359005 -0.188262,0.284689"
       style="fill:none;stroke:#000000;stroke-width:0.26458333;stroke-linecap:round;stroke-linejoin:round;stroke-miterlimit:4;stroke-dasharray:none"
       id="path1195"
       sodipodi:nodetypes="ccccccccccc" />
    <path
       d="m 60.11493,18.101335 -1.502087,-0.521403 1.578193,-0.939785"
       style="fill:none;stroke:#000000;stroke-width:0.26458333;stroke-linecap:round;stroke-linejoin:round;stroke-miterlimit:4;stroke-dasharray:none"
       id="path1197" />
    <path
       d="m 60.883995,17.752947 1.085509,0.02753 0.480667,-0.02753 m -0.04005,-0.715653 -0.452629,0.04719 -0.580807,-0.02359 -0.440613,-0.02359"
       style="fill:none;stroke:#000000;stroke-width:0.26458333;stroke-linecap:round;stroke-linejoin:round;stroke-miterlimit:4;stroke-dasharray:none"
       id="path1199" />
    <path
       d="m 63.231289,16.824958 0.745031,0.298844 0.592824,0.184811 0.340474,0.137625 -0.592824,0.271319 -0.66893,0.272105 -0.352486,0.124257"
       style="fill:none;stroke:#000000;stroke-width:0.26458333;stroke-linecap:round;stroke-linejoin:round;stroke-miterlimit:4;stroke-dasharray:none"
       id="path1201" />
    <path
       d="m 65.690672,17.359731 0.06409,-0.955514 0.02402,0.184811 0.140194,0.02753 0.328457,-0.224133 0.152211,-0.471859 -0.06409,-0.397148 -0.176245,-0.259522 -0.25235,-0.110101 -0.288402,0.137626 -0.11616,0.1101 -0.04807,0.1101 -0.01602,0.23593 -0.04807,0.149422 0.08812,0.121897 0.152211,-0.08651 0.02402,-0.161218"
       style="fill:none;stroke:#000000;stroke-width:0.26458333;stroke-linecap:round;stroke-linejoin:round;stroke-miterlimit:4;stroke-dasharray:none"
       id="path1203" />
    <path
       d="m 68.730925,18.150881 -0.604841,0.09909 -0.504701,-0.11128 -0.440609,-0.507641 -0.08812,-0.719585 0.312432,-0.644873 0.416579,-0.357827 0.444616,-0.0983 0.416579,0.1101 0.312436,0.259522 0.240333,0.334234 0.04006,0.298843 -0.192266,0.369623 -0.200279,0.224133 -0.25235,0.114033 -0.112157,-0.08651 -0.104144,-0.188743 v -0.283116 l 0.02805,-0.224133 -0.08812,-0.149422 -0.140194,-0.04718 -0.164229,0.1101 -0.112156,0.247726 -0.06409,0.173015 v 0.212336 l 0.02402,0.149422 0.07611,0.07078 0.100139,-0.04719 0.104144,-0.161218 0.248346,-0.373555"
       style="fill:none;stroke:#000000;stroke-width:0.26458333;stroke-linecap:round;stroke-linejoin:round;stroke-miterlimit:4;stroke-dasharray:none"
       id="path1205" />
    <path
       d="m 69.463943,18.646333 0.31644,-0.01258 0.25235,0.06291 -0.264367,-0.06291 0.592824,-2.367158 0.224308,-0.554434 0.02801,-0.102236 0.400553,1.16785 0.380528,1.038089 0.06409,0.260702 h -1.554163 l 1.542142,-0.01258 0.200275,0.644481 -0.304422,0.06291 0.556773,-0.08808"
       style="fill:none;stroke:#000000;stroke-width:0.26458333;stroke-linecap:round;stroke-linejoin:round;stroke-miterlimit:4;stroke-dasharray:none"
       id="path1207" />
    <path
       d="m 72.251782,18.423379 0.56879,-0.210763 0.400558,-0.272499 0.104144,-0.210763 -0.02801,-0.208404 -0.136191,-0.20054 -0.128177,-0.121898 -0.188262,-0.05112 -0.404562,0.07471 0.416579,-0.08651 0.428596,-0.271318 0.2163,-0.322437 0.06011,-0.334234 -0.03609,-0.334233 -0.128178,-0.263454 -0.288401,-0.231998 -0.328457,-0.114032 -0.404562,0.02753 -0.541551,0.03539 h 0.453429 l 0.188262,3.047028"
       style="fill:none;stroke:#000000;stroke-width:0.26458333;stroke-linecap:round;stroke-linejoin:round;stroke-miterlimit:4;stroke-dasharray:none"
       id="path1209" />
    <path
       d="m 76.437628,17.74115 -0.25235,0.285868 -0.35249,0.198181 -0.352491,0.03716 -0.416578,-0.04974 -0.428596,-0.235143 -0.264368,-0.311034 -0.2163,-0.467927 -0.01199,-0.51118 0.212296,-0.605552 0.356494,-0.42074 0.400558,-0.161219 0.404562,-0.07471 0.392545,0.05112 0.416579,0.259523 0.04807,-0.247726 -0.0721,0.247726 0.03601,0.259522"
       style="fill:none;stroke:#000000;stroke-width:0.26458333;stroke-linecap:round;stroke-linejoin:round;stroke-miterlimit:4;stroke-dasharray:none"
       id="path1211" />
    <path
       d="m 76.663911,15.252096 0.466649,-0.02359 0.616854,0.06291 0.480667,0.196607 0.328457,0.385352 0.164228,0.42074 0.06409,0.432537 -0.128178,0.420741 -0.316439,0.397148 -0.376524,0.259522 -0.364503,0.185598 -0.532744,0.0869 0.368515,-0.03696 -0.164228,-2.217343 -0.05204,-0.581959"
       style="fill:none;stroke:#000000;stroke-width:0.26458333;stroke-linecap:round;stroke-linejoin:round;stroke-miterlimit:4;stroke-dasharray:none"
       id="path1213" />
    <path
       d="m 80.916036,18.138691 -0.01203,0.359006 0.01203,-0.148636 -1.349876,0.02477 -0.2163,0.04954 0.264368,-0.04954 -0.02402,-0.904003 0.416579,-0.02359 0.440613,0.02359 0.0761,-0.224133 -0.05204,0.385352 -0.02402,-0.149422 -0.552769,-0.04719 -0.304423,0.01179 0.02402,-1.030224 -0.03609,-0.904397 -0.228317,-0.02359 0.292406,0.05112 h 0.640891 0.644896 l -0.01199,0.247726 0.03601,-0.534773"
       style="fill:none;stroke:#000000;stroke-width:0.26458333;stroke-linecap:round;stroke-linejoin:round;stroke-miterlimit:4;stroke-dasharray:none"
       id="path1215" />
    <path
       d="m 81.632746,18.485114 0.304422,-0.08651 h 0.10014 l -0.152211,-0.01219 -0.06409,-0.841874 0.833158,-0.07471 0.02801,0.208404 -0.02801,-0.318505 v 0.110101 l -0.833158,0.07471 -0.164228,-1.918893 v 0.07078 l -0.452626,-0.0118 0.933293,-0.0118 0.733019,-0.01179 V 15.45263 l 0.01199,0.495452 0.02402,0.08651"
       style="fill:none;stroke:#000000;stroke-width:0.26458333;stroke-linecap:round;stroke-linejoin:round;stroke-miterlimit:4;stroke-dasharray:none"
       id="path1217" />
    <path
       d="m 84.853061,15.389721 -0.02801,0.369622 0.01602,-0.1101 0.06012,0.02359 -0.13619,-0.06291 -0.176245,-0.121897 -0.340473,-0.03539 -0.292406,0.121896 -0.288401,0.310641 -0.176245,0.519044 -0.01603,0.519045 0.02801,0.522976 0.240333,0.357827 0.312432,0.136052 0.416579,-0.112459 0.240333,-0.259522 0.128178,-0.369623 0.02402,-0.695992 0.176245,0.02753 -0.644896,-0.02753"
       style="fill:none;stroke:#000000;stroke-width:0.26458333;stroke-linecap:round;stroke-linejoin:round;stroke-miterlimit:4;stroke-dasharray:none"
       id="path1219" />
    <path
       d="m 85.582578,18.386417 0.340474,-0.12406 -0.152212,0.06193 -0.04807,-1.039269 -0.164228,-1.710488 -0.189865,0.03539 0.189865,-0.02359 0.152211,-0.04719 m 1.502087,2.945971 -0.104143,0.02478 -0.340474,0.03736 0.188262,-0.02478 0.18025,-1.957034 0.06005,-0.605552 0.116161,-0.522976 h 0.176245 l -0.368512,-0.02359 m -0.0721,2.091907 -1.301808,-0.02359"
       style="fill:none;stroke:#000000;stroke-width:0.26458333;stroke-linecap:round;stroke-linejoin:round;stroke-miterlimit:4;stroke-dasharray:none"
       id="path1221" />
    <path
       d="m 88.045525,18.336675 0.364508,-0.111476 0.276384,-0.01258 -0.288401,-0.01219 -0.188262,-1.237842 -0.06409,-1.238629 0.212296,-0.03932 0.104143,0.02753 -0.128177,-0.02753 -0.554775,0.114032"
       style="fill:none;stroke:#000000;stroke-width:0.26458333;stroke-linecap:round;stroke-linejoin:round;stroke-miterlimit:4;stroke-dasharray:none"
       id="path1223" />
    <path
       d="m 89.207455,18.200426 -0.16583,-0.04955 -0.214302,0.136249 -0.0757,0.23534 0.176644,0.307887 0.355296,0.07471 0.400558,-0.0983 0.304422,-0.284294 0.152212,-0.371589 V 17.74115 l -0.128178,-0.731381 -0.276384,-1.411644 -0.31644,0.0983 0.692963,-0.184811"
       style="fill:none;stroke:#000000;stroke-width:0.26458333;stroke-linecap:round;stroke-linejoin:round;stroke-miterlimit:4;stroke-dasharray:none"
       id="path1225" />
    <path
       d="m 90.909977,18.60937 0.416579,-0.111673 -0.180249,0.04955 -0.06005,-1.411644 -0.06409,-0.471858 -0.03609,-1.077411 0.23633,-0.03539 -0.566389,0.07471 m 2.296789,0.07078 -0.480668,-0.04719 0.228317,0.03539 -0.480667,0.522976 -0.480668,0.581959 -0.428592,0.393216 -0.176245,0.05112 0.31644,-0.0983 0.304422,-0.01179 0.212292,0.1101 0.164228,0.247726 0.164228,0.271319 0.31644,0.447479 0.240333,0.173408 0.240334,-0.04955 0.148207,-0.160825 0.02801,-0.09948 -0.0761,-0.185204 -0.116161,-0.0983 -0.112156,0.07471"
       style="fill:none;stroke:#000000;stroke-width:0.26458333;stroke-linecap:round;stroke-linejoin:round;stroke-miterlimit:4;stroke-dasharray:none"
       id="path1227" />
    <path
       d="m 94.682746,18.138691 -0.08812,0.482869 0.03609,-0.198181 -0.516715,-0.04955 H 93.6093 l -0.264771,0.04955 0.276788,-0.04955 v -1.721891 l -0.01199,-0.605552 0.02402,-0.668467 h -0.176241 l 0.368511,-0.01573"
       style="fill:none;stroke:#000000;stroke-width:0.26458333;stroke-linecap:round;stroke-linejoin:round;stroke-miterlimit:4;stroke-dasharray:none"
       id="path1229" />
    <path
       d="m 94.823256,18.249971 0.604837,-0.06213 -0.188262,0.01258 0.240333,-2.067527 0.07611,-0.990904 0.757052,2.378955 0.680947,-0.920125 0.35249,-0.530841 0.228317,-0.432537 0.200279,-0.408944 0.02402,-0.161218 -0.06005,0.570162 0.100139,0.829685 0.08812,0.817888 0.100139,0.915406 0.452626,-0.08651 -0.781082,0.148438"
       style="fill:none;stroke:#000000;stroke-width:0.26458333;stroke-linecap:round;stroke-linejoin:round;stroke-miterlimit:4;stroke-dasharray:none"
       id="path1231" />
    <path
       d="m 98.697434,18.448152 0.63208,-0.09909 -0.280393,0.02477 -0.03609,-1.312947 -0.05204,-0.444334 v -0.979107 l 0.592824,1.140326 0.721005,1.101003 0.036,-1.336933 0.052,-0.668466 0.11216,-0.522977 0.26437,0.02753 -0.51672,-0.05112"
       style="fill:none;stroke:#000000;stroke-width:0.26458333;stroke-linecap:round;stroke-linejoin:round;stroke-miterlimit:4;stroke-dasharray:none"
       id="path1233" />
    <path
       d="m 102.36948,15.649243 -0.20028,-0.08651 -0.55677,0.173015 -0.35249,0.397147 -0.16423,0.570163 0.0361,0.554434 0.25235,0.420741 0.46865,0.224133 0.48067,-0.02359 0.47666,-0.34603 0.17624,-0.27525 0.12818,-0.334234 -0.012,-0.393215 -0.14019,-0.448266 -0.16423,-0.271319 -0.20028,-0.149422 -0.2163,-0.0118"
       style="fill:none;stroke:#000000;stroke-width:0.26458333;stroke-linecap:round;stroke-linejoin:round;stroke-miterlimit:4;stroke-dasharray:none"
       id="path1235" />
    <path
       d="m 103.73128,18.336675 0.46865,-0.06193 -0.24034,0.03716 0.052,-2.131818 -0.052,-0.271319 -0.052,-0.31064 -0.1482,-0.196608 h -0.34248 l 0.90726,0.02359 0.32846,0.114033 0.25235,0.271319 0.12818,0.322437 -0.0121,0.334233 -0.0881,0.283115 -0.31644,0.259522 -0.35249,0.07471 h -0.25235"
       style="fill:none;stroke:#000000;stroke-width:0.26458333;stroke-linecap:round;stroke-linejoin:round;stroke-miterlimit:4;stroke-dasharray:none"
       id="path1237" />
    <path
       d="m 107.12453,18.088753 0.34047,-0.410517 0.028,-0.133694 0.0881,-0.149422 0.0361,-0.31064 -0.11215,-0.507248 -0.10014,-0.271319 -0.28039,-0.235929 -0.15221,-0.0118 -0.23633,-0.0983 -0.63288,0.173015 -0.35249,0.420741 -0.12818,0.397147 -0.036,0.507248 0.14019,0.420741 0.2123,0.22256 0.31644,0.185794 0.39254,0.02478 0.23633,-0.07451 0.2163,-0.173408 -0.31644,-0.370015 0.97335,1.014496 0.27638,0.05112 0.1402,-0.12583 0.024,-0.123862 -0.0361,-0.136053 -0.10414,-0.09909 -0.12418,-0.01238 -0.012,0.07432"
       style="fill:none;stroke:#000000;stroke-width:0.26458333;stroke-linecap:round;stroke-linejoin:round;stroke-miterlimit:4;stroke-dasharray:none"
       id="path1239" />
    <path
       d="m 108.32572,18.74385 0.5047,-0.110101 -0.24033,0.06291 -0.036,-1.474558 -0.0521,-0.69206 0.0881,-0.943717 -0.58041,0.1101 0.87282,-0.133693 0.54075,0.0118 0.25235,0.149422 0.18826,0.271318 0.028,0.298844 -0.052,0.283116 -0.22832,0.235929 -0.30042,0.149422 -0.26837,0.08651 -0.47666,0.02359 0.66892,-0.02359 0.18827,0.121897 0.17624,0.322437 0.17625,0.484048 0.15221,0.507641 0.21229,0.372769 0.24033,0.1101 0.26437,-0.07471 0.1402,-0.121897 V 18.5846 l -0.0481,-0.149029 -0.15221,-0.136052 -0.11616,0.04955 -0.036,0.08651"
       style="fill:none;stroke:#000000;stroke-width:0.26458333;stroke-linecap:round;stroke-linejoin:round;stroke-miterlimit:4;stroke-dasharray:none"
       id="path1241" />
    <path
       d="m 111.13794,17.815861 -0.0361,-0.184811 -0.22831,-0.0983 -0.22631,0.08651 -0.0881,0.259523 0.0629,0.222559 0.17544,0.23534 0.29241,0.111477 0.36451,-0.161022 0.26436,-0.309657 0.0761,-0.271712 -0.024,-0.247726 -0.25235,-0.483655 -0.41658,-0.633077 -0.14019,-0.322437 V 15.68464 l 0.17624,-0.259522 0.11616,-0.08651 0.18826,-0.02359 0.17625,0.08651 0.25235,0.235929 0.10014,-0.161218 -0.24033,0.45613"
       style="fill:none;stroke:#000000;stroke-width:0.26458333;stroke-linecap:round;stroke-linejoin:round;stroke-miterlimit:4;stroke-dasharray:none"
       id="path1243" />
    <path
       d="m 113.10884,18.497697 0.59282,-0.06213 -0.26837,0.02517 -0.13619,-2.689595 0.88122,-0.02359 0.012,0.137625 -0.012,-0.137625 0.0641,-0.259523 -0.0641,0.259523 -1.85377,0.08651 0.0252,-0.294911 -0.0124,0.318504 -0.038,0.247726"
       style="fill:none;stroke:#000000;stroke-width:0.26458333;stroke-linecap:round;stroke-linejoin:round;stroke-miterlimit:4;stroke-dasharray:none"
       id="path1245" />
    <path
       d="m 114.49574,15.326806 0.53154,-0.07471 -0.28039,0.05112 0.10415,1.23863 0.12417,0.979107 0.17624,0.357826 0.30442,0.0987 0.28841,-0.0751 0.25235,-0.173015 0.22831,-0.444334 0.0761,-0.408944 -0.012,-1.486355 -0.2163,-0.0118 0.45263,-0.02753"
       style="fill:none;stroke:#000000;stroke-width:0.26458333;stroke-linecap:round;stroke-linejoin:round;stroke-miterlimit:4;stroke-dasharray:none"
       id="path1247" />
    <path
       d="m 116.89467,15.672836 0.29161,-0.06291 -0.16423,0.02753 0.38854,1.065614 0.24033,0.990904 0.11617,0.469499 0.1482,-0.422314 0.10415,-0.2202 0.22431,-0.845414 0.12818,-0.408944 0.15221,-0.420741 0.22431,-0.444334 -0.24034,-0.03932 0.22832,0.05112 0.30443,-0.0118"
       style="fill:none;stroke:#000000;stroke-width:0.26458333;stroke-linecap:round;stroke-linejoin:round;stroke-miterlimit:4;stroke-dasharray:none"
       id="path1249" />
    <path
       d="m 119.07912,15.723954 0.33006,-0.03932 0.23632,-0.07471 -0.31243,0.08651 0.20028,0.880803 0.0641,0.432537 0.17624,0.707788 0.024,0.309461 0.15221,-0.521797 0.15221,-0.334234 0.18826,-0.817888 0.0361,-0.220201 0.0921,-0.149422 0.0361,-0.161218 0.0761,0.420741 0.20028,0.76677 0.36851,1.302133 0.13619,-0.743767 0.15221,-0.644873 v -0.220201 l 0.10014,-0.224133 0.12817,-0.271319 0.024,-0.385351 0.12818,-0.460062 -0.24033,0.01573 0.5808,0.0118"
       style="fill:none;stroke:#000000;stroke-width:0.26458333;stroke-linecap:round;stroke-linejoin:round;stroke-miterlimit:4;stroke-dasharray:none"
       id="path1251" />
    <path
       d="m 122.18473,18.41119 0.48106,-0.03736 -0.22831,0.01258 1.24973,-1.942878 0.13619,-0.298843 0.49269,-0.707789 0.20428,0.01573 -0.49268,-0.05112 m -1.80532,0.0983 0.6437,-0.110101 -0.27638,0.04719 0.12417,0.558366 0.30442,0.680263 0.36451,0.743178 0.27638,0.570949 0.0761,0.210763 0.28039,0.272499 0.16423,0.07432 0.23632,-0.02478 0.12818,-0.111279 0.024,-0.210764 -0.10013,-0.123863 -0.11216,0.01219"
       style="fill:none;stroke:#000000;stroke-width:0.26458333;stroke-linecap:round;stroke-linejoin:round;stroke-miterlimit:4;stroke-dasharray:none"
       id="path1253" />
    <path
       d="m 124.72077,15.362196 0.38053,-0.08651 -0.20428,0.05112 0.35249,0.817889 0.15221,0.334233 0.30442,0.420741 -0.0641,1.635383 -0.20028,0.01219 -0.18024,0.02478 0.38052,-0.03696 0.2884,0.01219 m -0.23632,-1.65937 0.55276,-0.794296 0.17625,-0.322436 0.34047,-0.570163 -0.26437,-0.05898 0.49269,0.121896 0.0401,0.02753"
       style="fill:none;stroke:#000000;stroke-width:0.26458333;stroke-linecap:round;stroke-linejoin:round;stroke-miterlimit:4;stroke-dasharray:none"
       id="path1255" />
    <path
       d="m 127.04187,16.121102 0.0501,-0.471859 v 0.08651 l 0.82114,-0.05112 0.90927,-0.03539 h -0.10415 l -0.23633,0.298844 -0.48066,0.916192 -0.31644,-0.07471 0.32845,0.07471 0.31644,0.0118 h -0.32847 l -0.5047,1.138752 -0.24033,0.408551 1.41396,-0.173408 0.012,-0.222953 -0.012,0.408551"
       style="fill:none;stroke:#000000;stroke-width:0.26458333;stroke-linecap:round;stroke-linejoin:round;stroke-miterlimit:4;stroke-dasharray:none"
       id="path1257" />
    <path
       d="m 130.09614,18.52247 -0.48066,0.03696 v -0.731774 l -0.14821,-0.817888 -0.052,-0.65667 v -0.876871 l 0.56879,-0.0118"
       style="fill:none;stroke:#000000;stroke-width:0.26458333;stroke-linecap:round;stroke-linejoin:round;stroke-miterlimit:4;stroke-dasharray:none"
       id="path1259" />
    <path
       d="m 131.40981,18.027018 -0.46865,-0.966131 -0.13619,-0.483655 -0.26837,-0.605552"
       style="fill:none;stroke:#000000;stroke-width:0.26458333;stroke-linecap:round;stroke-linejoin:round;stroke-miterlimit:4;stroke-dasharray:none"
       id="path1261" />
    <path
       d="m 131.86475,18.732054 0.26638,-0.0118 0.0481,-0.04915 0.012,-1.893333 0.0401,-1.191443 -0.34048,0.01179"
       style="fill:none;stroke:#000000;stroke-width:0.26458333;stroke-linecap:round;stroke-linejoin:round;stroke-miterlimit:4;stroke-dasharray:none"
       id="path1263" />
    <path
       d="m 132.88645,17.32041 0.51832,-1.635777 0.25235,0.719584 0.2123,0.817889"
       style="fill:none;stroke:#000000;stroke-width:0.26458333;stroke-linecap:round;stroke-linejoin:round;stroke-miterlimit:4;stroke-dasharray:none"
       id="path1265" />
    <path
       d="m 134.41191,18.361645 1.54014,0.01219"
       style="fill:none;stroke:#000000;stroke-width:0.26458333;stroke-linecap:round;stroke-linejoin:round;stroke-miterlimit:4;stroke-dasharray:none"
       id="path1267" />
    <path
       d="m 136.32827,15.177384 0.52914,0.397148"
       style="fill:none;stroke:#000000;stroke-width:0.26458333;stroke-linecap:round;stroke-linejoin:round;stroke-miterlimit:4;stroke-dasharray:none"
       id="path1269" />
    <path
       d="m 137.35019,16.923262 -0.0641,-0.247726 0.11616,-0.184811 0.25235,-0.161219 0.32845,0.07471 0.17625,0.271319 0.0481,0.334233 0.012,0.511181 -0.0601,0.196607 -0.25235,0.173015 -0.26837,0.136446 -0.23633,0.03696 -0.19066,-0.111281 -0.0128,-0.274464 0.0993,-0.173015 0.28038,-0.07078 h 0.35249 l 0.10014,0.02359 0.15222,0.161218 0.0481,0.161218 0.016,0.246547 v 0.272498 l 0.012,0.09909 0.13619,0.02478 h 0.0761 0.0881 l 0.10414,-0.04955"
       style="fill:none;stroke:#000000;stroke-width:0.26458333;stroke-linecap:round;stroke-linejoin:round;stroke-miterlimit:4;stroke-dasharray:none"
       id="path1271" />
    <path
       d="m 138.572,15.11447 0.60444,-0.04719 -0.2884,0.03539 0.14019,3.234002 0.36451,0.111476 0.37652,-0.07432 0.31644,-0.297271 0.11216,-0.296092 -0.0361,-0.322436 -0.12417,-0.235929 -0.22832,-0.149422 -0.36851,0.07471 -0.21229,0.173015 -0.1402,0.212337 -0.0881,0.2202 0.052,0.695205 -0.18826,0.04955 -0.0901,0.04954"
       style="fill:none;stroke:#000000;stroke-width:0.26458333;stroke-linecap:round;stroke-linejoin:round;stroke-miterlimit:4;stroke-dasharray:none"
       id="path1273" />
    <path
       d="m 141.64838,17.072684 0.10014,-0.570163 -0.036,0.212336 -0.22832,-0.161218 -0.22431,-0.03932 -0.29241,0.149422 -0.17624,0.385351 -0.052,0.369622 0.10414,0.298844 0.26437,0.272105 0.32846,0.03735 0.20028,-0.09909 0.0761,-0.08847"
       style="fill:none;stroke:#000000;stroke-width:0.26458333;stroke-linecap:round;stroke-linejoin:round;stroke-miterlimit:4;stroke-dasharray:none"
       id="path1275" />
    <path
       d="m 143.73133,18.311902 -0.30042,0.02477 -0.16423,0.04974 0.16423,-0.06213 V 17.35973 l -0.052,-0.42074 -0.11215,-0.137626 -0.24034,-0.02359 -0.30442,0.08651 -0.2123,0.220201 -0.15221,0.334233 -0.024,0.334233 0.0721,0.249299 0.19227,0.173408 h 0.18826 l 0.26437,-0.19818 0.15221,-0.208798 0.12417,-0.31064 0.0761,-0.408944 0.0881,-1.993604 -0.46465,0.03539"
       style="fill:none;stroke:#000000;stroke-width:0.26458333;stroke-linecap:round;stroke-linejoin:round;stroke-miterlimit:4;stroke-dasharray:none"
       id="path1277" />
    <path
       d="m 145.00854,18.126108 -0.15221,0.210567 -0.27639,0.0867 -0.2924,-0.185991 -0.12418,-0.484441 0.0361,-0.554435 0.18826,-0.483655 0.1402,-0.08651 0.18826,0.02359 0.14019,0.137626 0.17625,0.432537 -0.40456,0.02359 -0.41658,0.0118"
       style="fill:none;stroke:#000000;stroke-width:0.26458333;stroke-linecap:round;stroke-linejoin:round;stroke-miterlimit:4;stroke-dasharray:none"
       id="path1279" />
    <path
       d="m 145.5098,19.129201 0.75705,-0.137625 -0.3645,0.05112 -0.11216,-1.423441 -0.028,-0.892599 0.40456,-0.01179 0.11216,-0.05112 -0.2123,0.05112 -0.55677,0.01179 -0.0496,-0.01179 0.33006,0.01179 0.024,-0.806092 0.0641,-0.432537 0.13619,-0.235929 0.26437,-0.121898 0.28039,-0.01573 0.24033,0.161218 0.10014,0.137626 0.012,0.0983"
       style="fill:none;stroke:#000000;stroke-width:0.26458333;stroke-linecap:round;stroke-linejoin:round;stroke-miterlimit:4;stroke-dasharray:none"
       id="path1281" />
    <path
       d="m 147.32801,17.446238 0.2163,-0.188743 0.12417,-0.318505 0.052,-0.05112 0.30042,-0.1101 -0.34047,0.1101 -0.18826,-0.247725 -0.24034,-0.173015 -0.15221,-0.0118 -0.32846,0.208405 -0.12416,0.373554 0.0881,0.283116 0.17624,0.137625 0.17624,0.02359 0.1402,-0.02359 0.15221,-0.03932 0.0481,0.43647 v 0.382205 l 0.26436,0.235536 0.16423,0.210371 0.0761,0.359399 -0.012,0.235929 -0.30442,0.294912 -0.45263,0.188744 -0.45263,-0.03932 -0.32926,-0.220201 -0.16402,-0.338165 0.0631,-0.45613 0.16383,-0.285082 0.17665,-0.185991 0.35409,-0.11128 0.21229,0.01258 0.24033,0.0987"
       style="fill:none;stroke:#000000;stroke-width:0.26458333;stroke-linecap:round;stroke-linejoin:round;stroke-miterlimit:4;stroke-dasharray:none"
       id="path1283" />
    <path
       d="m 148.27431,18.509887 0.56799,-0.160826 -0.27638,0.08651 -0.10415,-2.066741 -0.0481,-1.325137 0.0881,-0.02753 -0.0881,0.05112 h -0.24034 m 0.32846,1.993602 0.22832,-0.283115 0.31243,-0.149422 0.2163,0.04719 0.14019,0.188744 0.0721,0.369622 0.028,0.322437 0.012,0.817495 -0.24033,0.06174 0.51671,-0.11128"
       style="fill:none;stroke:#000000;stroke-width:0.26458333;stroke-linecap:round;stroke-linejoin:round;stroke-miterlimit:4;stroke-dasharray:none"
       id="path1285" />
    <path
       d="m 150.02686,18.101335 h 0.0124 l 0.6453,-0.07432 -0.30442,0.02478 0.052,-1.462762 h -0.28039 m 0.0881,-1.026292 v 0.149421 l 0.16423,0.02359 v -0.173018 h -0.16421"
       style="fill:none;stroke:#000000;stroke-width:0.26458333;stroke-linecap:round;stroke-linejoin:round;stroke-miterlimit:4;stroke-dasharray:none"
       id="path1287" />
    <path
       d="m 150.9594,19.164591 -0.16383,-0.0118 -0.11376,0.161219 0.0507,0.235929 0.23973,0.149422 0.32966,-0.07471 0.31243,-0.34603 0.052,-0.373555 -0.0881,-1.435236 0.024,-0.880804 -0.26437,0.08651 -0.30243,0.06291 m 0.37853,-1.175714 -0.11215,0.07471 0.16423,0.0983 0.18826,-0.0983 -0.24034,-0.07471"
       style="fill:none;stroke:#000000;stroke-width:0.26458333;stroke-linecap:round;stroke-linejoin:round;stroke-miterlimit:4;stroke-dasharray:none"
       id="path1289" />
    <path
       d="m 152.14658,18.41119 0.56879,-0.111674 -0.27639,0.04954 -0.0761,-2.15718 0.012,-1.395915 0.26437,-0.06292 -0.54275,0.08651 m 1.58821,1.584659 -0.38855,-0.02359 0.13619,0.0983 -0.2884,0.271319 -0.69296,0.471858 0.40056,-0.235929 0.39254,0.743177 0.24034,0.508035 0.27638,0.421527 0.20428,0.06134 0.2123,-0.08651 0.11616,-0.173015 -0.0401,-0.210763 -0.12418,-0.07432 -0.0881,0.01219 -0.0401,0.07451"
       style="fill:none;stroke:#000000;stroke-width:0.26458333;stroke-linecap:round;stroke-linejoin:round;stroke-miterlimit:4;stroke-dasharray:none"
       id="path1291" />
    <path
       d="m 154.01477,18.806764 h 0.0385 l 0.5047,-0.197394 -0.26437,0.110887 -0.0881,-2.217736 0.0481,-1.187511 0.2163,-0.06291 -0.25236,0.0983 h -0.22831"
       style="fill:none;stroke:#000000;stroke-width:0.26458333;stroke-linecap:round;stroke-linejoin:round;stroke-miterlimit:4;stroke-dasharray:none"
       id="path1293" />
    <path
       d="m 155.03897,18.460735 0.24033,-0.0869 0.31244,-0.04954 -0.32445,0.04954 -0.016,-1.128135 -0.0881,-0.703856 0.17624,-0.05112 -0.47746,0.0983 0.31724,-0.04718 0.11216,0.853277 0.22831,-0.444333 0.38854,-0.287047 0.18827,-0.02359 0.10414,0.137626 0.0481,0.507248 v 0.408944 l 0.12817,-0.54657 0.26437,-0.432537 0.27639,-0.224133 0.2163,-0.02359 0.10014,0.259522 0.0361,0.530841 -0.024,0.905969 -0.27638,0.09889 0.61686,-0.136249"
       style="fill:none;stroke:#000000;stroke-width:0.26458333;stroke-linecap:round;stroke-linejoin:round;stroke-miterlimit:4;stroke-dasharray:none"
       id="path1295" />
    <path
       d="m 157.87651,18.497697 0.53114,-0.07432 -0.22832,0.02478 -0.012,-0.781713 0.0641,-0.617348 0.024,-0.695992 -0.11215,-0.07078 -0.31725,0.02359 m 0.40537,0.817888 0.38853,-0.436469 0.31644,-0.157286 0.21631,0.145489 0.1482,0.23593 0.0401,0.287047 0.012,0.668466 -0.16423,0.03539 0.39254,-0.07471"
       style="fill:none;stroke:#000000;stroke-width:0.26458333;stroke-linecap:round;stroke-linejoin:round;stroke-miterlimit:4;stroke-dasharray:none"
       id="path1297" />
    <path
       d="m 160.76261,16.443539 -0.23633,-0.05112 -0.32846,0.1101 -0.14019,0.259522 0.012,0.361759 0.1402,0.235929 0.32846,0.161219 0.42859,-0.137626 0.17625,-0.31064 0.012,-0.369623 -0.15222,-0.20054 h -0.20021"
       style="fill:none;stroke:#000000;stroke-width:0.26458333;stroke-linecap:round;stroke-linejoin:round;stroke-miterlimit:4;stroke-dasharray:none"
       id="path1299" />
    <path
       d="m 161.82392,19.675771 0.4286,-0.06292 0.15221,-0.05112 -0.22832,0.05112 -0.0601,-0.869006 -0.18826,-1.238629 -0.016,-0.65667 0.24034,-0.420741 0.46865,-0.235929 0.38854,0.137625 0.15221,0.397148 -0.0641,0.420741 -0.18826,0.298843 -0.36451,0.121897 -0.27638,-0.07471 -0.25236,-0.220201 -0.10414,-0.373555 -0.0481,-0.581959 v -0.397148 l 0.16423,-0.06291 -0.4302,0.137625"
       style="fill:none;stroke:#000000;stroke-width:0.26458333;stroke-linecap:round;stroke-linejoin:round;stroke-miterlimit:4;stroke-dasharray:none"
       id="path1301" />
    <path
       d="m 165.0929,16.034595 -0.13619,0.841481 -0.17624,0.271319 -0.24034,0.184811 -0.32845,0.05112 -0.2884,-0.161218 -0.1402,-0.271319 0.024,-0.397148 0.31644,-0.247726 0.31644,-0.03932 0.31243,0.20054 0.15221,0.184811 0.012,0.460062 -0.012,0.680263 -0.15221,1.561066 0.0881,-0.298844 0.31644,-0.294911 0.14019,-0.261882"
       style="fill:none;stroke:#000000;stroke-width:0.26458333;stroke-linecap:round;stroke-linejoin:round;stroke-miterlimit:4;stroke-dasharray:none"
       id="path1303" />
    <path
       d="m 165.71332,18.398606 0.2884,-0.0867 0.22832,-0.06193 -0.30442,0.0867 -0.0721,-0.729218 v -0.644874 l -0.052,-0.593755 -0.26517,0.04719 0.26517,-0.03539 0.10014,0.65667 0.2163,-0.397148 0.34047,-0.271319 0.24033,-0.06291 0.12418,0.1101 0.0761,0.137626 -0.0361,0.173014 -0.0761,0.07471 h -0.11616"
       style="fill:none;stroke:#000000;stroke-width:0.26458333;stroke-linecap:round;stroke-linejoin:round;stroke-miterlimit:4;stroke-dasharray:none"
       id="path1305" />
    <path
       d="m 167.39194,18.398606 -0.10014,-0.136249 h -0.139 l -0.11335,0.161022 0.0629,0.285082 0.16382,0.173014 0.30202,0.03932 0.28039,-0.149422 0.16423,-0.224133 0.024,-0.396361 -0.20429,-0.543424 -0.2884,-0.609484 -0.0761,-0.467927 0.17624,-0.338165 0.26437,-0.07078 0.19227,0.05898 0.10014,0.125829 0.12417,-0.137625 -0.26437,0.408944"
       style="fill:none;stroke:#000000;stroke-width:0.26458333;stroke-linecap:round;stroke-linejoin:round;stroke-miterlimit:4;stroke-dasharray:none"
       id="path1307" />
    <path
       d="m 169.42276,17.977473 0.14019,-0.12229 0.15221,0.07275 0.024,0.173407 -0.0761,0.210567 -0.26436,0.123667 -0.22832,-0.03696 -0.20028,-0.247726 -0.028,-0.496238 -0.0481,-1.175714 -0.30362,0.05112 0.68014,-0.08651 -0.37652,0.03539 -0.024,-0.754973"
       style="fill:none;stroke:#000000;stroke-width:0.26458333;stroke-linecap:round;stroke-linejoin:round;stroke-miterlimit:4;stroke-dasharray:none"
       id="path1309" />
    <path
       d="m 169.96679,16.28232 h 0.41699 l -0.1402,0.03539 -0.0481,0.817889 v 0.483655 l 0.11216,0.220201 0.11216,0.138019 0.0881,0.01219 0.16423,-0.209191 0.15221,-0.173014 0.0401,-0.212337 0.2884,-0.432537 0.15222,-0.298844 0.0481,-0.294911 0.016,1.089207 0.0481,0.680656 -0.17625,0.06174 0.18826,-0.06174 0.29241,-0.03735"
       style="fill:none;stroke:#000000;stroke-width:0.26458333;stroke-linecap:round;stroke-linejoin:round;stroke-miterlimit:4;stroke-dasharray:none"
       id="path1311" />
    <path
       d="m 171.92226,16.329506 0.31644,-0.0983 -0.10014,0.05112 0.61686,1.819015 0.39254,-0.741604 0.14821,-0.471859 0.24033,-0.593755 -0.22431,0.0118 h 0.5047"
       style="fill:none;stroke:#000000;stroke-width:0.26458333;stroke-linecap:round;stroke-linejoin:round;stroke-miterlimit:4;stroke-dasharray:none"
       id="path1313" />
    <path
       d="m 173.78941,16.305913 0.30402,-0.05112 0.18826,-0.07471 -0.24033,0.08651 0.39254,1.376254 0.0481,0.458489 0.11616,-0.434896 0.0761,-0.369622 0.26436,-0.621281 0.0481,-0.133693 0.0641,0.334233 0.27639,0.841481 0.11616,0.383778 0.06,0.136053 0.10414,-0.03696 0.15221,-0.52219 0.2123,-0.629145 0.0761,-0.20054 0.0761,-0.405012 -0.17624,-0.102236 0.18826,0.102236 0.25235,-0.02753 0.0881,-0.04719"
       style="fill:none;stroke:#000000;stroke-width:0.26458333;stroke-linecap:round;stroke-linejoin:round;stroke-miterlimit:4;stroke-dasharray:none"
       id="path1315" />
    <path
       d="m 176.56449,16.530046 0.0124,-0.02753 0.38053,-0.05898 -0.15221,0.03539 0.717,1.301544 0.42859,0.605945 0.2163,0.222953 0.18826,0.03696 0.12818,-0.07432 0.0361,-0.09909 0.024,-0.11128 -0.0721,-0.149029 -0.11616,0.03735 m -1.85418,0.421134 h 0.0376 l 0.45464,-0.02478 h -0.22832 l 0.64489,-1.089994 0.75705,-1.250426 -0.2163,-0.07471 0.4286,0.121897"
       style="fill:none;stroke:#000000;stroke-width:0.26458333;stroke-linecap:round;stroke-linejoin:round;stroke-miterlimit:4;stroke-dasharray:none"
       id="path1317" />
    <path
       d="M 178.54625,19.078083 178.4329,18.94439 h -0.22752 l -0.13859,0.196608 -0.0376,0.259522 0.18906,0.224133 h 0.31523 l 0.41859,-0.196608 0.3645,-0.621281 0.35249,-0.841874 0.2163,-0.707395 0.23633,-0.530841 m -0.52873,1.387265 -0.80512,-1.312554 0.13619,-0.02359 -0.39055,0.05898"
       style="fill:none;stroke:#000000;stroke-width:0.26458333;stroke-linecap:round;stroke-linejoin:round;stroke-miterlimit:4;stroke-dasharray:none"
       id="path1319" />
    <path
       d="m 180.55428,16.887872 v -0.42074 l 0.012,0.149422 1.16161,-0.173015 -0.30442,0.519044 -0.30042,0.629145 -0.29241,-0.03539 0.29241,0.03539 0.37652,-0.03539 -0.37652,0.05112 -0.48067,0.902429 1.13358,0.07471 0.0641,-0.247923 -0.0761,0.260113 0.0281,0.261095"
       style="fill:none;stroke:#000000;stroke-width:0.26458333;stroke-linecap:round;stroke-linejoin:round;stroke-miterlimit:4;stroke-dasharray:none"
       id="path1321" />
    <path
       d="m 183.17808,18.646333 -0.25235,0.06213 -0.25235,-0.09909 -0.10014,-0.334626 0.024,-0.769523 -0.15221,-0.322437 -0.12418,-0.121897 -0.15301,-0.05112 -0.0508,0.05112 h 0.20388 l 0.28841,-0.0983 0.15221,-0.334233 -0.012,-0.570162 0.10014,-0.605552 0.0881,-0.176948 0.18826,-0.05898 0.16423,0.02359"
       style="fill:none;stroke:#000000;stroke-width:0.26458333;stroke-linecap:round;stroke-linejoin:round;stroke-miterlimit:4;stroke-dasharray:none"
       id="path1323" />
    <path
       d="m 183.84701,18.163464 v -1.263795 l -0.0401,-0.939786 -0.024,-0.08651"
       style="fill:none;stroke:#000000;stroke-width:0.26458333;stroke-linecap:round;stroke-linejoin:round;stroke-miterlimit:4;stroke-dasharray:none"
       id="path1325" />
    <path
       d="m 184.57574,18.720257 0.0641,0.0118 0.17625,-0.06095 0.2163,-0.222953 V 18.00225 l 0.0481,-0.583532 0.0761,-0.235929 0.17625,-0.08651 0.14019,-0.03539 -0.30442,0.06291 -0.16423,-0.161218 -0.0601,-0.224133 0.0481,-0.743177 -0.0881,-0.432537 -0.11215,-0.20054 -0.0881,-0.07078 -0.17625,-0.03932 -0.12698,0.07471"
       style="fill:none;stroke:#000000;stroke-width:0.26458333;stroke-linecap:round;stroke-linejoin:round;stroke-miterlimit:4;stroke-dasharray:none"
       id="path1327" />
    <path
       d="m 185.87329,17.406917 0.2163,-0.23593 0.22832,-0.1101 0.30041,0.08651 0.32846,0.149422 0.34047,0.0983 0.24033,-0.0983 0.2163,-0.161219"
       style="fill:none;stroke:#000000;stroke-width:0.26458333;stroke-linecap:round;stroke-linejoin:round;stroke-miterlimit:4;stroke-dasharray:none"
       id="path1329" />
  </g>
</svg>
