<?xml version="1.0" encoding="UTF-8" standalone="no"?>
<svg
   xmlns:dc="http://purl.org/dc/elements/1.1/"
   xmlns:cc="http://creativecommons.org/ns#"
   xmlns:rdf="http://www.w3.org/1999/02/22-rdf-syntax-ns#"
   xmlns:svg="http://www.w3.org/2000/svg"
   xmlns="http://www.w3.org/2000/svg"
   xmlns:sodipodi="http://sodipodi.sourceforge.net/DTD/sodipodi-0.dtd"
   xmlns:inkscape="http://www.inkscape.org/namespaces/inkscape"
   width="210mm"
   height="297mm"
   viewBox="0 0 210 297"
   version="1.1"
   id="svg8"
   sodipodi:docname="ems_tech.svg"
   inkscape:version="1.0.1 (3bc2e813f5, 2020-09-07)">
  <defs
     id="defs2">
    <rect
       x="8.2087952"
       y="8.7560482"
       width="462.08325"
       height="33.758007"
       id="rect835" />
  </defs>
  <sodipodi:namedview
     id="base"
     pagecolor="#ffffff"
     bordercolor="#666666"
     borderopacity="1.0"
     inkscape:pageopacity="0.0"
     inkscape:pageshadow="2"
     inkscape:zoom="1.9339013"
     inkscape:cx="320.23238"
     inkscape:cy="147.49009"
     inkscape:document-units="mm"
     inkscape:current-layer="layer1"
     inkscape:document-rotation="0"
     showgrid="false"
     inkscape:window-width="1920"
     inkscape:window-height="1137"
     inkscape:window-x="-8"
     inkscape:window-y="-8"
     inkscape:window-maximized="1" />
  <metadata
     id="metadata5">
    <rdf:RDF>
      <cc:Work
         rdf:about="">
        <dc:format>image/svg+xml</dc:format>
        <dc:type
           rdf:resource="http://purl.org/dc/dcmitype/StillImage" />
        <dc:title></dc:title>
      </cc:Work>
    </rdf:RDF>
  </metadata>
  <g
     inkscape:label="Layer 1"
     inkscape:groupmode="layer"
     id="layer1">
    <path
       d="m 8.98368,10.2058 -0.0254,3.0607 m 0.12065,1.12268 -0.1397,0.100013"
       style="fill:none;stroke:#000000;stroke-width:0.00273431in;stroke-linecap:round;stroke-linejoin:round"
       id="path843" />
    <path
       d="m 9.67075,9.647 -0.01905,1.16205 0.05715,0.1778 M 10.3121,9.647 l -0.0254,1.20015 0.04445,0.12065"
       style="fill:none;stroke:#000000;stroke-width:0.00273431in;stroke-linecap:round;stroke-linejoin:round"
       id="path845" />
    <path
       d="m 11.7726,10.70745 0.05715,3.18135 m 1.20015,-3.3401 0.15875,3.302 m -2.41681,-2.1209 1.80086,-0.1778 1.8415,-0.08255 m -3.4417,1.51765 1.75895,-0.2413 1.68275,-0.15875"
       style="fill:none;stroke:#000000;stroke-width:0.00273431in;stroke-linecap:round;stroke-linejoin:round"
       id="path847" />
    <path
       d="m 18.05275,10.79 -1.30175,0.05715 -0.6985,0.15875 -0.60325,0.3048 -0.26035,0.3175 -0.01905,0.29845 0.1778,0.3048 0.4445,0.12065 h 1.13665 l 0.8001,-0.08255 0.46355,0.12065 0.09525,0.26035 -0.09525,0.29845 -0.50165,0.29845 -0.53975,0.2794 -0.78105,0.1397 -0.9017,0.04445 m 1.0414,-4.3434 0.43815,5.521325"
       style="fill:none;stroke:#000000;stroke-width:0.00273431in;stroke-linecap:round;stroke-linejoin:round"
       id="path849" />
    <path
       d="m 19.63388,10.60585 -0.4191,0.1016 -0.1016,0.381 0.0381,0.22225 0.1778,0.1397 0.46355,-0.01905 0.36195,-0.2032 0.0381,-0.381 -0.1778,-0.15875 -0.381,-0.08255 m 2.35585,-0.3175 -2.31775,4.16052 m 1.86055,-0.85852 -0.1397,0.39878 0.1397,0.32004 0.29845,0.02032 0.29845,-0.04 0.36195,-0.28067 v -0.31687 l -0.1397,-0.1651 -0.3429,-0.0381 -0.47625,0.1016"
       style="fill:none;stroke:#000000;stroke-width:0.00273431in;stroke-linecap:round;stroke-linejoin:round"
       id="path851" />
    <path
       d="m 27.03168,12.58705 -0.381,0.4826 -0.53975,0.43815 -0.74295,0.48133 -0.71755,0.360045 -0.6604,0.180023 -0.53975,-0.02 -0.2794,-0.140335 0.01905,-0.40005 0.15875,-0.34036 1.0414,-1.37795 0.4191,-0.762 0.1016,-0.4191 0.05715,-0.43815 -0.09525,-0.3048 -0.18415,-0.1397 -0.2794,0.04445 -0.36195,0.19685 -0.26035,0.32385 -0.12065,0.2794 -0.01905,0.5588 0.1016,0.43815 0.2794,0.4191 0.2413,0.29845 0.4826,0.4445 0.67945,0.57785 0.6604,0.361315 0.381,0.16002 h 0.15875"
       style="fill:none;stroke:#000000;stroke-width:0.00273431in;stroke-linecap:round;stroke-linejoin:round"
       id="path853" />
    <path
       d="m 27.83178,10.66935 -0.26035,0.8382"
       style="fill:none;stroke:#000000;stroke-width:0.00273431in;stroke-linecap:round;stroke-linejoin:round"
       id="path855" />
    <path
       d="m 29.69233,9.38665 -0.43815,0.50165 -0.36195,0.6985 -0.2413,0.67945 -0.1397,0.74295 -0.05715,0.64135 0.12065,0.67945 0.2413,0.799465 0.3556,0.639445"
       style="fill:none;stroke:#000000;stroke-width:0.00273431in;stroke-linecap:round;stroke-linejoin:round"
       id="path857" />
    <path
       d="m 30.40983,9.5454 0.60325,0.50165 0.381,0.6223 0.33655,0.8001 0.1397,0.6604 0.01905,0.5969 -0.09525,0.5842 -0.2413,0.5207 -0.1778,0.337185 -0.4445,0.50038"
       style="fill:none;stroke:#000000;stroke-width:0.00273431in;stroke-linecap:round;stroke-linejoin:round"
       id="path859" />
    <path
       d="m 33.99128,11.88855 0.5461,-1.58115 -0.2413,1.524 1.27635,-0.381 -1.3208,0.57785 0.32385,1.54305 -0.64135,-1.30175 -0.88265,1.2192 0.7239,-1.51765 -0.98425,-0.78105 1.20015,0.53975"
       style="fill:none;stroke:#000000;stroke-width:0.00273431in;stroke-linecap:round;stroke-linejoin:round"
       id="path861" />
    <path
       d="m 37.28058,11.50755 0.0762,1.09855 0.12065,1.143 0.05715,0.45974 m -1.55575,-1.27889 0.57785,-0.12065 0.6985,-0.12065 0.762,-0.1016 0.8636,-0.01905"
       style="fill:none;stroke:#000000;stroke-width:0.00273431in;stroke-linecap:round;stroke-linejoin:round"
       id="path863" />
    <path
       d="m 39.83958,14.22916 -0.28575,0.64008 -0.1778,0.24003"
       style="fill:none;stroke:#000000;stroke-width:0.00273431in;stroke-linecap:round;stroke-linejoin:round"
       id="path865" />
    <path
       d="m 40.59528,13.06965 0.74295,-0.12065 0.5207,-0.05715"
       style="fill:none;stroke:#000000;stroke-width:0.00273431in;stroke-linecap:round;stroke-linejoin:round"
       id="path867" />
    <path
       d="m 42.53584,14.489193 0.09779,-0.02"
       style="fill:none;stroke:#000000;stroke-width:0.00273431in;stroke-linecap:round;stroke-linejoin:round"
       id="path869" />
    <path
       d="m 45.99278,10.2693 -0.7747,1.2192 -0.4826,0.81915 -0.40005,0.5842 -0.4826,0.7366 -0.57785,0.880745"
       style="fill:none;stroke:#000000;stroke-width:0.00273431in;stroke-linecap:round;stroke-linejoin:round"
       id="path871" />
    <path
       d="m 48.25338,10.3074 0.4191,0.0381 0.5207,0.22225 0.40005,0.4826 0.2032,0.53975 0.09525,0.61595 -0.09525,0.78105 -0.28575,0.6223 -0.51435,0.559435 -0.56515,0.26035 -0.85725,0.06001 -0.71755,-0.199708 -0.381,-0.400685 -0.161925,-0.50165 0.09842,-0.89535 0.2413,-0.8001 0.4191,-0.74295 0.36195,-0.381 0.4191,-0.2413 0.40005,-0.01905"
       style="fill:none;stroke:#000000;stroke-width:0.00273431in;stroke-linecap:round;stroke-linejoin:round"
       id="path873" />
    <path
       d="m 50.91403,10.28835 -0.12065,4.16052"
       style="fill:none;stroke:#000000;stroke-width:0.00273431in;stroke-linecap:round;stroke-linejoin:round"
       id="path875" />
    <path
       d="m 52.07603,11.0059 0.43815,-0.37465 0.4572,-0.26035 0.5588,-0.1397 h 0.32385 l 0.3175,0.2159 0.12065,0.32385 -0.05715,0.4572 -0.15875,0.46355 -0.36195,0.6985 -0.4826,0.78105 -0.57785,0.6985 -0.50165,0.559435 h 0.64135 l 0.8001,-0.08001 0.67945,-0.140335 0.6223,-0.16002"
       style="fill:none;stroke:#000000;stroke-width:0.00273431in;stroke-linecap:round;stroke-linejoin:round"
       id="path877" />
    <path
       d="m 55.47333,10.6884 0.2413,-0.0381 0.81915,-0.2794 0.5969,-0.1016 0.50165,-0.01905 0.29845,0.05715 0.15875,0.22225 -0.01905,0.33655 -0.19685,0.32385 -0.5588,0.47625 -0.70485,0.4826 -0.5969,0.3175 0.78105,-0.3175 0.67945,-0.1016 0.43815,0.15875 0.1778,0.26035 -0.01905,0.40005 -0.33655,0.5207 -0.53975,0.50165 -0.5588,0.36068 -0.6858,0.239713 -0.23495,0.04"
       style="fill:none;stroke:#000000;stroke-width:0.00273431in;stroke-linecap:round;stroke-linejoin:round"
       id="path879" />
    <path
       d="m 60.89618,14.5492 -0.0254,-3.3782 -0.05715,-0.67945 -0.15875,-0.22225 -0.4445,0.33655 -1.016,1.30175 -0.40005,0.5588 1.93675,-0.0762 0.84455,-0.1397"
       style="fill:none;stroke:#000000;stroke-width:0.00273431in;stroke-linecap:round;stroke-linejoin:round"
       id="path881" />
    <path
       d="m 65.11898,10.3074 -0.84455,0.26035 -0.81915,0.22225 -0.5588,0.05715 -0.6604,0.0635 0.0381,-0.6604 -0.1397,2.1971 0.4445,-0.0381 0.75565,-0.1397 0.7239,-0.01905 0.5207,0.05715 0.37465,0.381 0.0635,0.4826 -0.12065,0.4191 -0.4826,0.37846 -0.61595,0.28067 -0.70485,0.159385 -0.9398,0.08033 V 14.30917"
       style="fill:none;stroke:#000000;stroke-width:0.00273431in;stroke-linecap:round;stroke-linejoin:round"
       id="path883" />
    <path
       d="m 67.69708,10.3074 -0.5207,0.15875 -0.4826,0.36195 -0.43815,0.5207 -0.3175,0.4572 -0.22225,0.6223 -0.01905,0.64135 0.1016,0.4572 0.3556,0.502285 0.5207,0.339725 0.381,0.120333 0.43815,0.02 0.5842,-0.06033 0.61595,-0.319405 0.42545,-0.501015 0.1143,-0.29845 -0.01905,-0.36195 -0.15875,-0.2413 -0.3429,-0.01905 -0.53975,0.22225 -0.5588,0.43815 -0.3556,0.29845 -0.32385,0.32258 -0.2159,0.26035"
       style="fill:none;stroke:#000000;stroke-width:0.00273431in;stroke-linecap:round;stroke-linejoin:round"
       id="path885" />
    <path
       d="m 69.79634,10.5106 0.94234,-0.01905 1.1176,-0.2032 0.9779,-0.1016 -0.3556,0.4191 -0.4826,0.94615 -0.381,0.8382 -0.19685,0.8382 -0.1016,0.4826 -0.0381,0.53848"
       style="fill:none;stroke:#000000;stroke-width:0.00273431in;stroke-linecap:round;stroke-linejoin:round"
       id="path887" />
    <path
       d="m 75.29803,10.3074 -0.6604,0.29845 -0.381,0.381 -0.1397,0.46355 0.08255,0.3556 0.2794,0.2413 0.381,0.1016 0.57785,-0.1778 0.36195,-0.1016 0.5588,-0.0635 0.53975,0.22225 0.36195,0.5207 -0.04445,0.57785 -0.4191,0.64135 -0.5588,0.44069 -0.64135,0.24003 -0.78105,0.04032 -0.5969,-0.120333 -0.4826,-0.46101 -0.0762,-0.4572 0.15875,-0.4191 0.33655,-0.42545 0.42545,-0.3556 0.254,-0.12065 1.3208,-0.32385 0.50165,-0.33655 0.3429,-0.2794 0.0381,-0.36195 -0.15875,-0.29845 -0.2413,-0.15875 -0.6223,-0.1397 -0.71755,0.0762"
       style="fill:none;stroke:#000000;stroke-width:0.00273431in;stroke-linecap:round;stroke-linejoin:round"
       id="path889" />
    <path
       d="m 80.61298,11.6663 -0.7747,0.2032 -0.64135,0.1016 -0.6604,0.0381 -0.5207,-0.1016 -0.29845,-0.19685 -0.01905,-0.32385 0.1778,-0.381 0.5969,-0.4572 0.64135,-0.2032 0.60325,-0.05715 0.381,0.1778 0.29845,0.3048 0.19685,0.4572 -0.01905,0.78105 -0.15875,0.6223 -0.26035,0.61595 -0.381,0.6223 -0.43815,0.37973 -0.36195,0.179705"
       style="fill:none;stroke:#000000;stroke-width:0.00273431in;stroke-linecap:round;stroke-linejoin:round"
       id="path891" />
    <path
       d="m 81.09558,12.37115 0.1397,0.01905 m 0.1397,1.41605 h 0.12065"
       style="fill:none;stroke:#000000;stroke-width:0.00273431in;stroke-linecap:round;stroke-linejoin:round"
       id="path893" />
    <path
       d="m 81.955955,12.44735 h 0.09842 m 0.04445,1.721485 -0.16256,0.74041 -0.120015,0.338455 -0.140335,0.26035"
       style="fill:none;stroke:#000000;stroke-width:0.00273431in;stroke-linecap:round;stroke-linejoin:round"
       id="path895" />
    <path
       d="m 84.87573,11.74885 -1.2573,0.99695 -0.4445,0.381 0.46355,0.36195 0.78105,0.3175 0.29845,0.122555 0.2413,0.120015"
       style="fill:none;stroke:#000000;stroke-width:0.00273431in;stroke-linecap:round;stroke-linejoin:round"
       id="path897" />
    <path
       d="m 85.97428,12.65055 1.9431,-0.2413 m -1.89865,1.13665 1.23825,-0.1778 0.8001,-0.1397"
       style="fill:none;stroke:#000000;stroke-width:0.00273431in;stroke-linecap:round;stroke-linejoin:round"
       id="path899" />
    <path
       d="m 89.30168,11.88855 0.6985,0.26035 0.4953,0.22225 0.7239,0.23495 -0.3175,0.3048 -0.50165,0.381 -0.40005,0.29845 -0.5842,0.438785"
       style="fill:none;stroke:#000000;stroke-width:0.00273431in;stroke-linecap:round;stroke-linejoin:round"
       id="path901" />
    <path
       d="m 92.060755,10.4471 0.638175,-0.1397 0.70485,-0.0762 h 0.4953 l 0.5207,0.15875 0.3429,0.2159 0.1016,0.28575 -0.04445,0.3175 -0.2794,0.2794 -0.36195,0.2794 -0.67945,0.46355 -0.67945,0.3175 0.1397,0.15875 0.40005,0.08255 h 0.3429 m -0.2032,1.638935 h 0.15875"
       style="fill:none;stroke:#000000;stroke-width:0.00273431in;stroke-linecap:round;stroke-linejoin:round"
       id="path903" />
    <path
       d="m 99.30288,11.552 -0.50165,-0.08255 -0.8001,0.2413 -0.3556,0.3556 -0.1016,0.28575 0.0381,0.3175 0.2794,0.15875 0.4826,-0.1397 0.50165,-0.33655 0.2794,-0.26035 0.1778,-0.3048 0.2413,0.36195 0.3429,0.2032 0.43815,-0.0635 0.36195,-0.19685 0.0953,-0.2413 -0.0381,-0.4826 -0.2794,-0.50165 -0.40005,-0.3175 -0.8382,-0.3175 -0.98425,-0.0254 -0.8382,0.2413 -0.6223,0.36195 -0.4572,0.4191 -0.381,0.57785 -0.29845,0.60325 -0.1016,0.71755 0.26035,0.67945 0.6223,0.44323 0.7747,0.21971 0.8001,0.100013 0.94615,-0.08001 1.03505,-0.180023 0.84455,-0.26035 0.65786,-0.35687 0.48006,-0.4445"
       style="fill:none;stroke:#000000;stroke-width:0.00273431in;stroke-linecap:round;stroke-linejoin:round"
       id="path905" />
    <path
       d="m 102.64423,14.529198 0.762,-1.999298 0.47625,-1.3208 0.3429,-0.92075 0.1016,0.01905 0.381,0.6223 0.5588,1.13665 0.40005,1.0033 0.3556,0.879475 0.3048,0.540068 m -3.1242,-1.483043 0.74295,-0.15875 0.85725,-0.26035 0.7239,-0.1397 0.67945,-0.15875"
       style="fill:none;stroke:#000000;stroke-width:0.00273431in;stroke-linecap:round;stroke-linejoin:round"
       id="path907" />
    <path
       d="m 107.10193,10.38995 0.0254,1.8161 0.0762,1.12395 0.1397,1.179195 1.02235,-0.08001 1.0795,-0.24003 0.85725,-0.338455 0.60325,-0.381 0.1016,-0.381 -0.1397,-0.40005 -0.56515,-0.3175 -0.5969,-0.08255 -0.67945,-0.08255 -0.78105,0.0635 -0.85725,0.08255 1.2192,-0.32385 0.78105,-0.33655 0.53975,-0.32385 0.1778,-0.3175 -0.0381,-0.3429 -0.2032,-0.15875 -0.50165,-0.22225 -0.71755,-0.12065 -0.71755,-0.01905 -1.08267,0.0635"
       style="fill:none;stroke:#000000;stroke-width:0.00273431in;stroke-linecap:round;stroke-linejoin:round"
       id="path909" />
    <path
       d="m 114.72798,10.4471 -0.2413,-0.2159 -0.60325,-0.08255 -0.75565,0.2413 -0.6858,0.47625 -0.4191,0.60325 -0.2159,0.5207 -0.1016,0.57785 -0.0191,0.60325 0.3175,0.5588 0.40005,0.4191 0.4826,0.21971 0.64135,0.08001 0.7747,-0.11938 0.6223,-0.320675 0.53975,-0.418465 0.381,-0.32385"
       style="fill:none;stroke:#000000;stroke-width:0.00273431in;stroke-linecap:round;stroke-linejoin:round"
       id="path911" />
    <path
       d="m 116.57003,10.2693 0.019,4.2799 0.57785,-0.08001 0.70485,-0.21971 0.7366,-0.37973 0.60325,-0.4191 0.47625,-0.4826 0.381,-0.5588 0.12065,-0.46355 -0.0572,-0.51435 -0.42545,-0.50165 -0.6985,-0.381 -0.67945,-0.1778 -0.6985,-0.04445 -0.5207,0.0635 -0.5207,0.12065"
       style="fill:none;stroke:#000000;stroke-width:0.00273431in;stroke-linecap:round;stroke-linejoin:round"
       id="path913" />
    <path
       d="m 123.55463,10.3074 -2.6035,0.08255 -0.0191,2.1971 2.6797,-0.29845 -2.66065,0.29845 0.0825,1.821815 3.07975,-0.200025"
       style="fill:none;stroke:#000000;stroke-width:0.00273431in;stroke-linecap:round;stroke-linejoin:round"
       id="path915" />
    <path
       d="m 128.89563,10.3455 -1.37795,0.08255 -0.9398,0.15875 -0.8636,0.08255 -0.6604,0.1397 -0.12065,-0.57785 0.2032,0.95885 0.1778,0.99695 v 0.5588 l -0.40005,0.18415 0.762,-0.29845 1.4605,-0.2413 1.33985,-0.22225 -2.8194,0.46355 -0.3429,0.15875 -0.019,1.698943"
       style="fill:none;stroke:#000000;stroke-width:0.00273431in;stroke-linecap:round;stroke-linejoin:round"
       id="path917" />
    <path
       d="m 132.21578,10.2312 -0.57785,0.05715 -0.6223,0.29845 -0.4572,0.40005 -0.36195,0.381 -0.381,0.67945 -0.26035,0.7239 -0.0381,0.6604 0.12065,0.47625 0.29845,0.34163 0.57785,0.239713 0.60325,-0.100013 0.71755,-0.34036 0.46355,-0.33782 0.3556,-0.3429 0.0825,-0.15875 0.0381,-1.2192 -1.93675,0.33655 2.6162,-0.43815 -0.6604,0.12065 v 2.820035"
       style="fill:none;stroke:#000000;stroke-width:0.00273431in;stroke-linecap:round;stroke-linejoin:round"
       id="path919" />
    <path
       d="m 134.45788,10.25025 -0.0762,2.1209 v 0.9779 l 0.1397,1.20015 -0.12065,-2.0828 -0.34036,0.12065 0.81661,-0.15875 0.92075,-0.1016 1.16205,-0.05715 V 10.2693 l -0.019,2.5019 0.0825,0.95885 0.0952,0.49911 0.12065,0.24003"
       style="fill:none;stroke:#000000;stroke-width:0.00273431in;stroke-linecap:round;stroke-linejoin:round"
       id="path921" />
    <path
       d="m 138.12213,10.28835 -0.019,1.65735 -0.019,0.84455 0.019,0.71755 v 0.901065"
       style="fill:none;stroke:#000000;stroke-width:0.00273431in;stroke-linecap:round;stroke-linejoin:round"
       id="path923" />
    <path
       d="m 141.36018,10.28835 0.0444,2.2987 -0.0444,0.8636 -0.1397,0.53848 -0.19685,0.280035 -0.40005,0.16002 -0.4826,-0.02032 -0.4572,-0.07938 -0.53975,-0.18034 -0.36195,-0.2794 -0.24003,-0.2413 -0.04,-0.1778"
       style="fill:none;stroke:#000000;stroke-width:0.00273431in;stroke-linecap:round;stroke-linejoin:round"
       id="path925" />
    <path
       d="m 142.36368,10.38995 -0.1016,1.47955 -0.019,0.9779 v 1.641793 m 2.9972,-4.162743 -1.06045,0.81915 -0.71755,0.5461 -0.74295,0.40005 -0.33655,0.26035 -0.12065,0.51435 0.71755,0.28575 0.9398,0.4191 0.70485,0.33655 0.5588,0.361315 0.26035,0.16002"
       style="fill:none;stroke:#000000;stroke-width:0.00273431in;stroke-linecap:round;stroke-linejoin:round"
       id="path927" />
    <path
       d="m 146.24378,10.28835 v 0.0381 l 0.0191,1.7399 v 1.0414 l -0.0572,0.901065 -0.019,0.360045 h 1.27635 l 1.82245,0.04001"
       style="fill:none;stroke:#000000;stroke-width:0.00273431in;stroke-linecap:round;stroke-linejoin:round"
       id="path929" />
    <path
       d="m 149.93953,14.36886 0.2032,-2.01676 0.15875,-1.44145 0.1397,-0.56515 0.12065,-0.0381 0.2794,0.2032 0.4826,0.9779 0.50165,0.95885 0.43815,0.9017 0.2794,-0.40005 0.7366,-1.37795 0.6604,-1.2827 0.1397,0.1016 0.14605,0.57785 0.1397,0.9779 0.15875,1.0414 0.15875,1.48209"
       style="fill:none;stroke:#000000;stroke-width:0.00273431in;stroke-linecap:round;stroke-linejoin:round"
       id="path931" />
    <path
       d="m 155.32398,14.36886 0.0572,-1.36271 0.019,-1.17475 v -1.26365 l 0.1016,-0.19685 0.67945,0.7366 0.8001,1.0414 1.0414,1.33985 0.5588,0.76073 0.0191,-0.74168 v -1.44145 l -0.0191,-1.8161"
       style="fill:none;stroke:#000000;stroke-width:0.00273431in;stroke-linecap:round;stroke-linejoin:round"
       id="path933" />
    <path
       d="m 161.28003,10.25025 -0.5207,0.09525 -0.5588,0.36195 -0.43815,0.53975 -0.3429,0.6985 -0.0381,0.8255 0.2794,0.85725 0.43815,0.42037 0.4826,0.26035 0.67945,0.05969 0.8382,-0.07937 0.67945,-0.457835 0.42545,-0.74295 0.019,-0.762 -0.1016,-0.7366 -0.40005,-0.6223 -0.2413,-0.33655 -0.381,-0.22225 -0.4572,-0.15875 h -0.36195"
       style="fill:none;stroke:#000000;stroke-width:0.00273431in;stroke-linecap:round;stroke-linejoin:round"
       id="path935" />
    <path
       d="m 164.04273,14.36886 v -1.12141 l 0.0572,-1.55575 0.0444,-0.64135 0.1778,-0.4445 0.5588,-0.2794 0.8636,-0.1397 0.85725,0.01905 0.74295,0.28575 0.2159,0.23495 -0.019,0.4826 -0.26035,0.40005 -0.57785,0.36195 -0.7239,0.2159 -0.67945,0.1016 -1.2192,0.0381"
       style="fill:none;stroke:#000000;stroke-width:0.00273431in;stroke-linecap:round;stroke-linejoin:round"
       id="path937" />
    <path
       d="m 171.44053,13.86975 0.2794,-0.32385 0.22225,-0.67945 0.0762,-0.8763 -0.1397,-0.762 -0.47625,-0.5588 -0.74295,-0.36195 -0.67945,0.01905 -0.61595,0.26035 -0.42545,0.4191 -0.4191,0.60325 -0.2159,0.6985 -0.1651,0.67945 0.2032,0.81915 0.4572,0.42291 0.53975,0.280035 0.64135,0.100013 0.53975,-0.08001 0.46355,-0.180023 0.5207,-0.42037 0.6604,0.42037 -1.02235,-0.701675 -0.92075,-0.8382 -0.12065,-0.01905"
       style="fill:none;stroke:#000000;stroke-width:0.00273431in;stroke-linecap:round;stroke-linejoin:round"
       id="path939" />
    <path
       d="m 173.04003,10.32645 0.0572,1.9812 0.0444,2.101215 0.0572,-2.539365 -0.12065,-1.16205 0.64135,-0.381 0.762,-0.12065 0.61595,0.08255 0.4826,0.01905 0.36195,0.08255 0.2159,0.2159 0.0635,0.26035 -0.32385,0.26035 -0.57785,0.22225 -0.53975,0.2413 -0.60325,0.19685 -0.99695,0.3048 -0.0381,0.15875 0.7366,0.40005 0.57785,0.40005 0.88265,0.5207 1.3589,0.89789 0.1397,0.02"
       style="fill:none;stroke:#000000;stroke-width:0.00273431in;stroke-linecap:round;stroke-linejoin:round"
       id="path941" />
    <path
       d="m 180.66048,10.32645 -0.81915,0.1397 -0.8382,0.22225 -0.762,0.22225 -0.32385,0.26035 -0.15875,0.19685 -0.0572,0.18415 0.15875,0.2794 0.8382,0.2794 0.78105,0.2794 0.8001,0.3175 0.43815,0.2413 0.26035,0.22225 -0.019,0.2159 -0.33655,0.40005 -0.78105,0.401955 -0.92075,0.300038 -0.67945,0.04 -0.4826,-0.06001 -0.2794,-0.1397 -0.1016,-0.200025"
       style="fill:none;stroke:#000000;stroke-width:0.00273431in;stroke-linecap:round;stroke-linejoin:round"
       id="path943" />
    <path
       d="m 181.42004,10.28835 1.22174,0.05715 1.0795,0.0635 h 1.06045 l 0.50165,-0.12065 m -2.24155,0.12065 -0.1397,2.00025 -0.0635,1.06045 v 0.89916"
       style="fill:none;stroke:#000000;stroke-width:0.00273431in;stroke-linecap:round;stroke-linejoin:round"
       id="path945" />
    <path
       d="m 186.01978,10.38995 -0.2413,1.3589 -0.11811,1.0414 v 0.6604 l 0.23876,0.558165 0.29845,0.34036 0.7239,0.05969 0.6985,-0.319405 0.5588,-0.51816 0.3429,-0.9652 0.15875,-0.8382 -0.0381,-1.4224 v 4.04368"
       style="fill:none;stroke:#000000;stroke-width:0.00273431in;stroke-linecap:round;stroke-linejoin:round"
       id="path947" />
    <path
       d="m 189.30273,10.3455 1.778,3.923665 0.2413,0.04001 0.78105,-1.98247 0.9017,-2.03835"
       style="fill:none;stroke:#000000;stroke-width:0.00273431in;stroke-linecap:round;stroke-linejoin:round"
       id="path949" />
    <path
       d="m 193.48148,10.28835 1.6637,4.060825 0.4953,-1.139825 0.9398,-2.159 0.26035,0.26035 0.4445,0.6985 0.6985,1.4224 0.4826,0.89789 0.3175,-0.89789 0.2794,-1.22555 0.32067,-1.86055"
       style="fill:none;stroke:#000000;stroke-width:0.00273431in;stroke-linecap:round;stroke-linejoin:round"
       id="path951" />
    <path
       d="m 199.90338,10.3074 1.143,1.5621 1.4351,1.4986 0.98425,0.901065 m -0.1016,-4.063365 -1.4605,1.86055 -1.0033,1.20015 -0.81915,1.06299 -0.0571,0.01969"
       style="fill:none;stroke:#000000;stroke-width:0.00273431in;stroke-linecap:round;stroke-linejoin:round"
       id="path953" />
    <path
       d="m 203.99948,10.28835 0.4445,0.40005 0.5969,0.67945 0.9017,0.98425 0.762,-2.06375 0.19685,-0.1778 -0.1778,0.1778 -0.8636,2.3622 -0.5588,1.778635"
       style="fill:none;stroke:#000000;stroke-width:0.00273431in;stroke-linecap:round;stroke-linejoin:round"
       id="path955" />
    <path
       d="m 207.48503,10.3074 3.56235,-0.01905 -0.5207,0.8001 -1.3843,1.65735 -1.2192,1.443355 -0.12065,0.140335 0.64135,0.159703 0.6985,0.02 2.06375,-0.120015"
       style="fill:none;stroke:#000000;stroke-width:0.00273431in;stroke-linecap:round;stroke-linejoin:round"
       id="path957" />
    <path
       d="m 213.26423,9.17075 -1.6002,0.37465 0.1016,2.921 0.19685,2.48285 1.7018,-0.259715"
       style="fill:none;stroke:#000000;stroke-width:0.00273431in;stroke-linecap:round;stroke-linejoin:round"
       id="path959" />
    <path
       d="m 214.27973,10.80905 1.2192,1.7399 0.88265,1.16205 0.67945,0.75819"
       style="fill:none;stroke:#000000;stroke-width:0.00273431in;stroke-linecap:round;stroke-linejoin:round"
       id="path961" />
    <path
       d="m 217.66433,9.69145 0.9398,-0.18415 1.09855,-0.1397 0.36195,-0.0381 0.0572,1.9812 0.0635,1.3589 0.0572,1.519555 0.0381,0.680085 -0.61595,0.140335 -0.74295,0.07938 -0.5969,0.04064"
       style="fill:none;stroke:#000000;stroke-width:0.00273431in;stroke-linecap:round;stroke-linejoin:round"
       id="path963" />
    <path
       d="m 221.34138,12.3902 0.15875,-0.32385 0.5588,-0.40005 0.36195,0.22225 0.4191,0.46355"
       style="fill:none;stroke:#000000;stroke-width:0.00273431in;stroke-linecap:round;stroke-linejoin:round"
       id="path965" />
    <path
       d="m 223.44268,14.529198 1.0414,-0.180023 1.09855,-0.08001 1.6002,-0.1397"
       style="fill:none;stroke:#000000;stroke-width:0.00273431in;stroke-linecap:round;stroke-linejoin:round"
       id="path967" />
    <path
       d="m 227.90038,10.70745 0.4191,0.3429"
       style="fill:none;stroke:#000000;stroke-width:0.00273431in;stroke-linecap:round;stroke-linejoin:round"
       id="path969" />
    <path
       d="m 231.54558,12.79025 -0.36195,0.8001 -0.5842,0.539115 -0.4191,0.239395 -0.40005,0.140335 -0.5588,-0.06033 -0.29845,-0.19939 -0.0825,-0.62103 0.3048,-0.6223 0.3937,-0.5969 0.64135,-0.43815 0.4826,-0.22225 h 0.36195 l 0.43815,0.08255 0.0825,0.29845 0.0762,2.399348"
       style="fill:none;stroke:#000000;stroke-width:0.00273431in;stroke-linecap:round;stroke-linejoin:round"
       id="path971" />
    <path
       d="m 232.44073,10.28835 0.0381,4.001135 0.29845,0.11938 0.5207,-0.0997 0.78105,-0.32004 0.95885,-0.76073 0.381,-0.6604 0.1397,-0.5207 -0.12065,-0.2794 -0.29845,-0.12065 -0.6985,0.0635 -0.6223,0.4191 -0.67945,0.47625 -0.61595,0.88265"
       style="fill:none;stroke:#000000;stroke-width:0.00273431in;stroke-linecap:round;stroke-linejoin:round"
       id="path973" />
    <path
       d="m 238.66358,11.9076 -0.2032,-0.1778 -0.5969,-0.0635 -0.64135,0.2413 -0.53975,0.40005 -0.5842,0.762 -0.1778,0.8001 0.381,0.45974 0.78105,0.239713 0.8382,-0.04001 0.5969,-0.140018 0.64135,-0.34036"
       style="fill:none;stroke:#000000;stroke-width:0.00273431in;stroke-linecap:round;stroke-linejoin:round"
       id="path975" />
    <path
       d="m 242.60088,10.409 -0.0952,1.68275 -0.0444,1.0795 0.0444,0.87757 0.019,0.380365 -0.0381,-1.042035 -0.5842,0.621665 -0.9398,0.42037 -0.6604,0.04 -0.4572,-0.26035 -0.14224,-0.68199 0.33909,-0.6604 0.81915,-0.5588 0.74295,-0.12065 0.5588,0.08255 0.36195,0.381"
       style="fill:none;stroke:#000000;stroke-width:0.00273431in;stroke-linecap:round;stroke-linejoin:round"
       id="path977" />
    <path
       d="m 243.50863,12.6696 0.8001,-0.01905 0.92075,-0.01905 0.5969,-0.1016 0.1016,-0.22225 -0.0825,-0.2159 -0.5207,-0.46355 h -0.6604 l -0.5969,0.22225 -0.4191,0.381 -0.3048,0.7747 -0.0978,0.46355 -0.0197,0.3175 0.33973,0.44196 0.5588,0.280035 0.64135,-0.04001 0.67945,-0.16002 0.4826,-0.24003 0.1778,-0.21844"
       style="fill:none;stroke:#000000;stroke-width:0.00273431in;stroke-linecap:round;stroke-linejoin:round"
       id="path979" />
    <path
       d="m 249.88383,11.1075 -0.5588,-0.5969 -0.6604,-0.3048 -0.43815,-0.0381 -0.5207,0.3429 -0.2413,0.53975 v 0.57785 l 0.1016,0.53975 0.2159,1.2192 0.0825,1.00203 -0.15875,-1.45923 -1.18174,0.1778 2.24219,-0.29845 1.03505,-0.1397"
       style="fill:none;stroke:#000000;stroke-width:0.00273431in;stroke-linecap:round;stroke-linejoin:round"
       id="path981" />
    <path
       d="m 253.34488,12.89185 -0.4191,0.71755 -0.75565,0.59944 -0.8255,0.300355 h -0.57785 l -0.1778,-0.300355 0.2413,-0.75819 0.5969,-0.9017 0.67945,-0.5588 0.43815,-0.22225 0.4445,0.0635 0.3556,0.2794 0.1016,2.83845 -0.0762,0.95885 -0.22225,0.60325 -0.2794,0.40005 -0.26035,0.2159 -0.3429,0.0635 -0.26035,0.01905 -0.71755,-0.01905"
       style="fill:none;stroke:#000000;stroke-width:0.00273431in;stroke-linecap:round;stroke-linejoin:round"
       id="path983" />
    <path
       d="m 254.20863,10.3074 -0.0635,1.9812 0.0635,2.220595 0.15875,-1.680845 0.50165,-0.64135 0.57785,-0.3556 0.5207,0.01905 0.3556,0.29845 0.36195,0.67945 0.0635,0.6604 0.019,0.88011"
       style="fill:none;stroke:#000000;stroke-width:0.00273431in;stroke-linecap:round;stroke-linejoin:round"
       id="path985" />
    <path
       d="m 257.75198,10.5106 h 0.1143 m 0.0444,1.20015 0.0571,2.558415 0.12065,0.120015"
       style="fill:none;stroke:#000000;stroke-width:0.00273431in;stroke-linecap:round;stroke-linejoin:round"
       id="path987" />
    <path
       d="m 258.66935,10.52965 0.0997,-0.1397 m 0.04,1.0414 V 12.568 l 0.0794,1.3208 0.0635,1.89865 -0.0635,0.74295 -0.19939,0.29845 -0.24003,0.08255 h -0.18002 l -0.51975,-0.12065 -0.32131,-0.26035"
       style="fill:none;stroke:#000000;stroke-width:0.00273431in;stroke-linecap:round;stroke-linejoin:round"
       id="path989" />
    <path
       d="m 259.85037,10.2693 0.11811,2.41935 v 1.78054 l 0.0444,-1.48209 0.5588,-0.47625 1.44145,-0.95885 -1.9431,1.3589 0.762,0.5588 1.72085,0.939165"
       style="fill:none;stroke:#000000;stroke-width:0.00273431in;stroke-linecap:round;stroke-linejoin:round"
       id="path991" />
    <path
       d="m 263.51143,10.1677 0.0571,2.80035 0.0444,1.321435"
       style="fill:none;stroke:#000000;stroke-width:0.00273431in;stroke-linecap:round;stroke-linejoin:round"
       id="path993" />
    <path
       d="m 264.51503,11.60915 0.0381,2.920048 0.2413,-1.999298 0.40005,-0.60325 0.6985,-0.29845 0.4191,-0.01905 0.2794,0.1778 0.22225,0.53975 -0.0826,2.202498 0.22225,-2.037398 0.4826,-0.5461 0.67945,-0.3175 h 0.57785 l 0.36195,0.15875 0.0762,0.50165 0.0254,0.9398 0.0381,1.24079"
       style="fill:none;stroke:#000000;stroke-width:0.00273431in;stroke-linecap:round;stroke-linejoin:round"
       id="path995" />
    <path
       d="m 269.69237,11.6917 0.0197,2.737485 -0.0197,-1.937385 0.74041,-0.4826 0.71755,-0.3429 0.46355,-0.0381 0.33655,0.0381 0.22225,0.2413 0.15875,0.6985 -0.019,1.883093"
       style="fill:none;stroke:#000000;stroke-width:0.00273431in;stroke-linecap:round;stroke-linejoin:round"
       id="path997" />
    <path
       d="m 274.38908,11.57105 -0.8001,0.3556 -0.4191,0.60325 -0.2794,0.5969 0.1397,0.802005 0.26035,0.440055 0.84455,0.140335 0.6985,-0.179705 0.71755,-0.45974 0.40005,-0.74295 -0.1397,-0.92075 -0.3175,-0.3556 -0.36195,-0.22225 -0.74295,-0.05715"
       style="fill:none;stroke:#000000;stroke-width:0.00273431in;stroke-linecap:round;stroke-linejoin:round"
       id="path999" />
    <path
       d="m 276.38943,11.74885 0.0381,5.20065 -0.019,-4.8006 0.7239,-0.40005 0.81915,-0.1778 0.92075,0.1397 0.29845,0.43815 -0.0571,0.67945 -0.28575,0.46355 -0.57785,0.4953 -0.5969,0.30226 -1.20015,0.29972"
       style="fill:none;stroke:#000000;stroke-width:0.00273431in;stroke-linecap:round;stroke-linejoin:round"
       id="path1001" />
    <path
       d="m 282.33308,11.9711 -0.1778,-0.3048 -0.4445,-0.05715 -0.8001,0.3175 -0.57785,0.53975 -0.40005,0.64135 -0.19685,0.5842 0.0571,0.53721 0.5207,0.300038 0.57785,-0.04 0.67945,-0.300038 0.36195,-0.357505 0.2413,-0.42545 0.1778,-1.09855 0.1016,4.81965"
       style="fill:none;stroke:#000000;stroke-width:0.00273431in;stroke-linecap:round;stroke-linejoin:round"
       id="path1003" />
    <path
       d="m 283.09513,11.57105 -0.0762,2.87782 0.19685,-1.62052 0.4826,-0.6223 0.61595,-0.3556 0.50165,-0.2032 0.22225,-0.01905 0.6604,0.0635 0.0762,0.05715"
       style="fill:none;stroke:#000000;stroke-width:0.00273431in;stroke-linecap:round;stroke-linejoin:round"
       id="path1005" />
    <path
       d="m 288.77833,11.8314 -0.2032,-0.2032 h -0.5969 l -0.67945,0.1397 -0.6223,0.32385 -0.26035,0.4191 v 0.4572 l 0.26035,0.2032 h 0.57785 l 0.6223,-0.12065 0.40005,0.01905 0.3175,0.12065 0.2032,0.1778 -0.0571,0.29845 -0.6223,0.4826 -0.8001,0.21971 -0.46355,0.18034 -0.19685,-0.02"
       style="fill:none;stroke:#000000;stroke-width:0.00273431in;stroke-linecap:round;stroke-linejoin:round"
       id="path1007" />
    <path
       d="m 290.31493,10.28835 0.1016,4.220845 -0.0572,-2.360295 h -1.22301 l 2.27711,-0.01905"
       style="fill:none;stroke:#000000;stroke-width:0.00273431in;stroke-linecap:round;stroke-linejoin:round"
       id="path1009" />
    <path
       d="m 292.07323,11.6282 -0.15875,0.92075 -0.0572,1.06045 0.2413,0.61976 0.4953,0.260033 0.84455,-0.06001 0.47625,-0.29972 0.26035,-0.12065 0.26035,-0.361315 0.18415,-0.381 -0.14605,-1.7145 0.2032,2.91719"
       style="fill:none;stroke:#000000;stroke-width:0.00273431in;stroke-linecap:round;stroke-linejoin:round"
       id="path1011" />
    <path
       d="m 295.17903,11.5901 1.3589,2.599055 0.15875,0.259715 0.40005,-0.96012 0.8636,-1.79705"
       style="fill:none;stroke:#000000;stroke-width:0.00273431in;stroke-linecap:round;stroke-linejoin:round"
       id="path1013" />
    <path
       d="m 298.51848,11.6282 0.4445,1.4224 0.43815,0.878205 0.29845,0.460375 0.12065,-0.08001 0.5588,-1.74117 0.1016,-0.381 0.26035,0.18415 1.02235,1.87833 0.26035,0.159385 0.9144,-2.761615"
       style="fill:none;stroke:#000000;stroke-width:0.00273431in;stroke-linecap:round;stroke-linejoin:round"
       id="path1015" />
    <path
       d="m 303.40238,11.71075 1.37795,1.47955 1.2827,1.27889 -1.3208,-1.27889 1.0795,-1.47955 -1.0414,1.4986 -0.8001,0.899795 -0.43815,0.420053"
       style="fill:none;stroke:#000000;stroke-width:0.00273431in;stroke-linecap:round;stroke-linejoin:round"
       id="path1017" />
    <path
       d="m 306.53853,11.85045 2.06375,2.93878 1.13665,-3.00228 -2.07645,5.461"
       style="fill:none;stroke:#000000;stroke-width:0.00273431in;stroke-linecap:round;stroke-linejoin:round"
       id="path1019" />
    <path
       d="m 310.32398,11.6663 h 0.0762 l 2.4638,0.0254 0.12065,0.09525 -0.64135,0.7239 -1.16205,1.03505 -0.6985,0.68326 -0.0635,0.200025 h 0.6604 1.86055 l 0.1651,0.06001"
       style="fill:none;stroke:#000000;stroke-width:0.00273431in;stroke-linecap:round;stroke-linejoin:round"
       id="path1021" />
    <path
       d="m 315.42263,9.3295 -0.3175,0.01905 -0.36195,0.19685 -0.2032,0.36195 -0.0572,0.4826 0.0381,0.81915 -0.0381,0.12065 -0.5207,0.43815 -0.1778,0.22225 -0.019,0.26035 0.1143,0.2794 0.50165,0.381 0.2794,0.2413 0.019,0.796925 0.12065,0.680085 0.2794,0.360045 0.32385,0.179705 0.29845,0.04064"
       style="fill:none;stroke:#000000;stroke-width:0.00273431in;stroke-linecap:round;stroke-linejoin:round"
       id="path1023" />
    <path
       d="m 315.86663,10.00895 0.0572,4.78028"
       style="fill:none;stroke:#000000;stroke-width:0.00273431in;stroke-linecap:round;stroke-linejoin:round"
       id="path1025" />
    <path
       d="m 316.84488,9.3295 0.50165,0.12065 0.32385,0.3175 0.0952,0.8382 -0.0762,0.78105 0.5207,0.32385 0.3556,0.29845 0.0826,0.2794 -0.2032,0.15875 -0.7747,0.60325 0.019,0.61595 -0.0635,0.72263 -0.2413,0.42037 -0.29845,0.21971 -0.5207,0.16129"
       style="fill:none;stroke:#000000;stroke-width:0.00273431in;stroke-linecap:round;stroke-linejoin:round"
       id="path1027" />
    <path
       d="m 319.18848,12.7458 0.2413,-0.37465 0.2794,-0.2032 h 0.22225 l 0.33655,0.2413 0.4191,0.33655 0.32385,-0.05715 0.26035,-0.1016 0.33655,-0.4953"
       style="fill:none;stroke:#000000;stroke-width:0.00273431in;stroke-linecap:round;stroke-linejoin:round"
       id="path1029" />
  </g>
</svg>
