<?xml version="1.0" encoding="UTF-8" standalone="no"?>
<svg
   xmlns:dc="http://purl.org/dc/elements/1.1/"
   xmlns:cc="http://creativecommons.org/ns#"
   xmlns:rdf="http://www.w3.org/1999/02/22-rdf-syntax-ns#"
   xmlns:svg="http://www.w3.org/2000/svg"
   xmlns="http://www.w3.org/2000/svg"
   xmlns:sodipodi="http://sodipodi.sourceforge.net/DTD/sodipodi-0.dtd"
   xmlns:inkscape="http://www.inkscape.org/namespaces/inkscape"
   sodipodi:docname="ems_casual.svg"
   id="svg8"
   version="1.1"
   viewBox="0 0 210 297"
   height="297mm"
   width="210mm"
   inkscape:version="1.0.1 (3bc2e813f5, 2020-09-07)">
  <defs
     id="defs2">
    <rect
       x="13.924873"
       y="14.698477"
       width="557.76852"
       height="69.237566"
       id="rect835" />
  </defs>
  <sodipodi:namedview
     id="base"
     pagecolor="#ffffff"
     bordercolor="#666666"
     borderopacity="1.0"
     inkscape:pageopacity="0.0"
     inkscape:pageshadow="2"
     inkscape:zoom="4.6817901"
     inkscape:cx="295.70107"
     inkscape:cy="129.27729"
     inkscape:document-units="mm"
     inkscape:current-layer="layer1"
     inkscape:document-rotation="0"
     showgrid="false"
     inkscape:window-width="1920"
     inkscape:window-height="1017"
     inkscape:window-x="-8"
     inkscape:window-y="1192"
     inkscape:window-maximized="1" />
  <metadata
     id="metadata5">
    <rdf:RDF>
      <cc:Work
         rdf:about="">
        <dc:format>image/svg+xml</dc:format>
        <dc:type
           rdf:resource="http://purl.org/dc/dcmitype/StillImage" />
        <dc:title />
      </cc:Work>
    </rdf:RDF>
  </metadata>
  <g
     inkscape:label="Layer 1"
     inkscape:groupmode="layer"
     id="layer1">
    <path
       d="m 16.96745,14.9299 -0.01714,3.04165 m -0.120015,2.320925 v 0.24003 h 0.23876 V 20.31216 l -0.23876,-0.01968"
       style="fill:none;stroke:#000000;stroke-width:0.00273431in;stroke-linecap:round;stroke-linejoin:round"
       id="path840" />
    <path
       d="m 17.68944,15.4887 -0.0635,1.4605 0.0381,0.22225 m 0.70485,-1.79705 0.09525,0.29845 0.12065,1.61925"
       style="fill:none;stroke:#000000;stroke-width:0.00273431in;stroke-linecap:round;stroke-linejoin:round"
       id="path842" />
    <path
       d="m 19.92465,15.74905 0.08255,2.0828 0.15875,1.1176 m 0.5969,-3.53695 v 2.03835 l 0.2032,1.40335 M 19.1055,17.23495 21.28355,16.1491 m -1.86055,2.10185 0.8636,-0.4572 1.5621,-0.98425"
       style="fill:none;stroke:#000000;stroke-width:0.00273431in;stroke-linecap:round;stroke-linejoin:round"
       id="path844" />
    <path
       d="m 23.60765,20.41249 -0.29845,-1.95834 -0.04445,-2.7051 0.1651,-1.937385 m 0.6604,1.321435 -0.70485,0.26035 -0.7366,0.81915 -0.320675,0.64135 0.04001,0.2159 0.40132,0.2032 0.8763,-0.0381 0.5207,0.1143 0.12065,0.3048 -0.381,0.5588 -0.57785,0.381 -0.2032,0.12065 h -0.2794"
       style="fill:none;stroke:#000000;stroke-width:0.00273431in;stroke-linecap:round;stroke-linejoin:round"
       id="path846" />
    <path
       d="m 26.4524,18.73355 -0.2032,0.4191 0.1016,0.5588 0.26035,0.1397 0.4191,-0.33655 0.05715,-0.50165 -0.05715,-0.43815 -0.26035,-0.0635 -0.9017,0.5207 -0.53975,0.36195 -0.3556,0.478155 -0.18288,0.42037 2.01803,-5.521325 -0.381,0.60325 -0.5969,0.53975 -0.5588,0.3175 -0.48133,0.2794 -0.29972,-0.1778 v -0.5842 l 0.200025,-0.43815 0.422275,-0.15875 0.2159,0.12065 0.0635,0.381 -0.04445,0.2413 -0.1397,0.33655"
       style="fill:none;stroke:#000000;stroke-width:0.00273431in;stroke-linecap:round;stroke-linejoin:round"
       id="path848" />
    <path
       d="M 28.84635,20.852545 28.7892,20.09245 M 29.46865,19.15265 28.66855,18.9939 28.205,18.59385 27.90655,18.1303 28.14785,17.86995 29.2083,17.7747 28.52885,17.254 28.0653,16.93015 28.08435,16.7333 28.6876,16.6317 29.348,16.61265 m -0.7239,-0.8636 -0.05715,-0.635"
       style="fill:none;stroke:#000000;stroke-width:0.00273431in;stroke-linecap:round;stroke-linejoin:round"
       id="path850" />
    <path
       d="M 30.16588,17.17145 30.26557,15.8697"
       style="fill:none;stroke:#000000;stroke-width:0.00273431in;stroke-linecap:round;stroke-linejoin:round"
       id="path852" />
    <path
       d="m 31.74835,20.4925 -0.6985,-0.520065 -0.16129,-1.340485 0.33909,-1.778 0.40005,-1.0414 0.40005,-0.4826"
       style="fill:none;stroke:#000000;stroke-width:0.00273431in;stroke-linecap:round;stroke-linejoin:round"
       id="path854" />
    <path
       d="m 32.62968,20.4925 0.85852,-1.1176 0.381,-1.30175 v -1.2827 l -0.22225,-1.397 -0.43815,-0.64135"
       style="fill:none;stroke:#000000;stroke-width:0.00273431in;stroke-linecap:round;stroke-linejoin:round"
       id="path856" />
    <path
       d="m 35.6282,19.8321 0.01905,-2.83845 m -0.95885,2.38125 2.17805,-1.7018 m -2.558415,1.13665 2.698115,-0.5969 m -2.31775,-0.4191 2.10185,1.79705"
       style="fill:none;stroke:#000000;stroke-width:0.00273431in;stroke-linecap:round;stroke-linejoin:round"
       id="path858" />
    <path
       d="m 38.7714,19.77495 0.05715,-2.7432 m -1.339215,1.778 0.380365,-0.01905 2.24155,-0.53975"
       style="fill:none;stroke:#000000;stroke-width:0.00273431in;stroke-linecap:round;stroke-linejoin:round"
       id="path860" />
    <path
       d="m 40.89235,19.77495 -0.16129,1.29794"
       style="fill:none;stroke:#000000;stroke-width:0.00273431in;stroke-linecap:round;stroke-linejoin:round"
       id="path862" />
    <path
       d="m 41.69245,18.67005 2.159,-0.19685"
       style="fill:none;stroke:#000000;stroke-width:0.00273431in;stroke-linecap:round;stroke-linejoin:round"
       id="path864" />
    <path
       d="m 44.247055,20.27279 v 0.239712 h 0.239395 v -0.220027 l -0.239395,-0.01968"
       style="fill:none;stroke:#000000;stroke-width:0.00273431in;stroke-linecap:round;stroke-linejoin:round"
       id="path866" />
    <path
       d="M 45.089065,20.872865 46.46765,13.61164"
       style="fill:none;stroke:#000000;stroke-width:0.00273431in;stroke-linecap:round;stroke-linejoin:round"
       id="path868" />
    <path
       d="m 47.12805,17.59055 -0.15748,1.9431 0.18288,0.699135 0.47625,0.21971 0.5588,-0.280035 0.40005,-0.89916 0.0635,-1.2827 -0.12065,-0.6985 -0.4191,-0.53975 -0.6604,0.05715 -0.32385,0.78105"
       style="fill:none;stroke:#000000;stroke-width:0.00273431in;stroke-linecap:round;stroke-linejoin:round"
       id="path870" />
    <path
       d="m 49.28827,20.352165 -0.04,-1.878965 0.178435,-2.0828"
       style="fill:none;stroke:#000000;stroke-width:0.00273431in;stroke-linecap:round;stroke-linejoin:round"
       id="path872" />
    <path
       d="m 50.12779,17.9906 0.06096,-0.01905 0.75565,-0.64135 0.5842,-0.29845 0.2794,0.01905 0.1016,0.4191 -0.22225,0.92075 -0.43815,0.9398 -0.6223,0.98171 0.9398,-0.419735 0.8001,-0.377825 0.60325,-0.12065"
       style="fill:none;stroke:#000000;stroke-width:0.00273431in;stroke-linecap:round;stroke-linejoin:round"
       id="path874" />
    <path
       d="m 54.5258,20.39217 0.22225,0.02032 0.6604,-0.540385 0.2794,-0.859155 -0.1016,-0.67945 -0.60325,-0.18415 -0.9144,0.4445 -0.18415,0.01905 0.1397,-0.29845 0.88265,-1.26365 0.19685,-0.33655 -0.15875,-0.12065 -0.8763,0.2794 -0.723265,0.40005"
       style="fill:none;stroke:#000000;stroke-width:0.00273431in;stroke-linecap:round;stroke-linejoin:round"
       id="path876" />
    <path
       d="M 57.9865,20.452495 57.7833,18.17475 v -1.8415 l -1.47955,2.27965 1.0414,-0.1397 1.30175,-0.36195"
       style="fill:none;stroke:#000000;stroke-width:0.00273431in;stroke-linecap:round;stroke-linejoin:round"
       id="path878" />
    <path
       d="m 59.94235,20.39217 0.74295,-0.75692 0.381,-0.6604 -0.08255,-0.3429 -0.381,-0.0381 -0.64135,0.33655 -0.4953,0.3429 -0.161925,0.0762 -0.04001,-0.37465 0.25908,-1.8415 -0.01905,0.2794 2.17805,-0.3429"
       style="fill:none;stroke:#000000;stroke-width:0.00273431in;stroke-linecap:round;stroke-linejoin:round"
       id="path880" />
    <path
       d="m 62.6474,21.2926 0.1016,-0.920115 0.51435,-0.940435 0.4826,-0.50165 h 0.22225 l 0.01905,0.2794 -0.18415,0.72263 -0.4572,0.37973 -0.36195,0.04001 -0.43815,-0.15939 -0.26035,-0.48133 0.08001,-0.99695 0.63754,-2.10185"
       style="fill:none;stroke:#000000;stroke-width:0.00273431in;stroke-linecap:round;stroke-linejoin:round"
       id="path882" />
    <path
       d="m 65.924,20.452495 0.0635,-1.337945 0.2159,-1.7399 0.2032,-1.143 -1.1811,0.36195 -0.779145,0.05715"
       style="fill:none;stroke:#000000;stroke-width:0.00273431in;stroke-linecap:round;stroke-linejoin:round"
       id="path884" />
    <path
       d="m 68.14655,20.452495 0.47625,-0.280035 0.1397,-0.44196 -0.1397,-0.5969 -0.53975,-0.53975 -0.67945,-0.5588 -0.398145,-0.56515 0.08001,-0.43815 0.578485,-0.4191 0.4191,-0.08255 0.42545,0.22225 -0.0635,0.57785 -0.1397,0.50165 -0.50165,1.143 -0.19685,0.5588 -0.01905,0.539115 0.29845,0.339725 0.26035,0.04001"
       style="fill:none;stroke:#000000;stroke-width:0.00273431in;stroke-linecap:round;stroke-linejoin:round"
       id="path886" />
    <path
       d="m 70.64845,20.39217 0.33655,-4.38277 -0.1778,-0.0381 -0.64135,0.88265 -0.3556,0.47625 -0.422275,-0.0762 -0.08001,-0.60325 0.381635,-0.8382 0.5207,-0.381 0.2794,-0.0381 0.19685,0.26035 0.04445,0.43815"
       style="fill:none;stroke:#000000;stroke-width:0.00273431in;stroke-linecap:round;stroke-linejoin:round"
       id="path888" />
    <path
       d="m 71.487235,17.7493 v 0.2413 L 71.74695,17.97155 V 17.7493 h -0.259715 m 0.02032,1.6256 v 0.23495 L 71.74695,19.5908 V 19.39395 L 71.507555,19.3749"
       style="fill:none;stroke:#000000;stroke-width:0.00273431in;stroke-linecap:round;stroke-linejoin:round"
       id="path890" />
    <path
       d="m 72.32485,18.651 v 0.2413 h 0.2413 V 18.67005 L 72.32485,18.651 m 0.02032,1.50114 0.04001,0.6604 -0.380365,1.41986"
       style="fill:none;stroke:#000000;stroke-width:0.00273431in;stroke-linecap:round;stroke-linejoin:round"
       id="path892" />
    <path
       d="m 74.96645,16.79045 -0.9652,1.524 -0.8382,1.1176 1.96215,0.08255 0.3175,0.0381 0.381,0.1778"
       style="fill:none;stroke:#000000;stroke-width:0.00273431in;stroke-linecap:round;stroke-linejoin:round"
       id="path894" />
    <path
       d="m 76.300535,18.4097 2.418715,-0.5969 m -1.9812,1.61925 h 0.08255 l 1.8415,-0.71755"
       style="fill:none;stroke:#000000;stroke-width:0.00273431in;stroke-linecap:round;stroke-linejoin:round"
       id="path896" />
    <path
       d="m 80.04005,19.8321 0.2794,-0.2413 1.47955,-2.0193 -2.45745,-0.99695"
       style="fill:none;stroke:#000000;stroke-width:0.00273431in;stroke-linecap:round;stroke-linejoin:round"
       id="path898" />
    <path
       d="m 83.54525,20.212465 v 0.24003 l 0.23495,-0.02 v -0.199707 l -0.23495,-0.02032 M 83.323,18.7526 l -0.2794,-0.22225 0.33655,-0.61595 0.5842,-0.78105 0.3556,-0.67945 0.0254,-0.32385 -0.1397,-0.15875 -0.40005,-0.01905 -0.84455,0.3175 -0.59817,0.4445"
       style="fill:none;stroke:#000000;stroke-width:0.00273431in;stroke-linecap:round;stroke-linejoin:round"
       id="path900" />
    <path
       d="m 87.52035,17.5334 -0.1778,-0.2032 -0.43815,0.12065 -0.60325,0.5842 -0.29845,0.5969 0.05715,0.36195 0.26035,0.0381 0.50165,-0.43815 0.2794,-0.40005 0.3429,-0.4826 -0.0635,0.762 0.26035,0.4572 0.46355,-0.05715 0.1778,-0.32385 0.08255,-0.99695 -0.1016,-1.16205 -0.26035,-0.53975 -0.40005,-0.15875 -0.50165,0.12065 -0.9779,0.99695 -0.6985,1.22555 -0.362585,1.09855 0.280035,0.79883 0.78105,0.500062 H 87.26 l 1.9812,-0.860742 0.60325,-0.33655 0.3175,-0.3048"
       style="fill:none;stroke:#000000;stroke-width:0.00273431in;stroke-linecap:round;stroke-linejoin:round"
       id="path902" />
    <path
       d="m 90.66487,20.432492 0.22098,-2.778442 0.40005,-2.4003 0.2159,-0.01905 1.12395,3.07975 0.5969,1.23825 m -2.41935,-0.43815 1.78435,-1.02235 1.2954,-0.6985"
       style="fill:none;stroke:#000000;stroke-width:0.00273431in;stroke-linecap:round;stroke-linejoin:round"
       id="path904" />
    <path
       d="m 94.40375,17.41275 0.95885,-0.9017 0.81915,-0.40005 0.22225,0.08255 0.0381,0.3175 -0.33655,0.53975 -0.3429,0.5842 -0.8001,0.5588 0.762,-0.50165 0.8382,-0.19685 0.67945,0.1778 0.3048,0.381 -0.08255,0.43815 -0.4572,0.64135 -1.50495,1.19888 -0.33655,0.05969 -0.1397,-0.59817 -0.22225,-3.98145"
       style="fill:none;stroke:#000000;stroke-width:0.00273431in;stroke-linecap:round;stroke-linejoin:round"
       id="path906" />
    <path
       d="m 99.9473,16.33325 -0.4826,-0.29845 -0.37465,-0.04445 -0.4826,0.40005 -0.2794,1.02235 -0.180975,1.397 -0.06033,1.162685 0.3175,0.48006 0.5842,-0.179705 0.7366,-0.80264 0.444495,-0.635 0.29845,-0.8001"
       style="fill:none;stroke:#000000;stroke-width:0.00273431in;stroke-linecap:round;stroke-linejoin:round"
       id="path908" />
    <path
       d="m 101.06495,16.71425 0.08,-0.04445 1.06299,-0.4191 1.20015,-0.05715 0.6604,0.381 0.29845,0.89535 -0.15875,0.74295 -0.6858,0.85725 -1.2573,1.362392 -0.1397,0.02 -0.019,-4.678045"
       style="fill:none;stroke:#000000;stroke-width:0.00273431in;stroke-linecap:round;stroke-linejoin:round"
       id="path910" />
    <path
       d="m 107.3451,18.21285 -0.92075,1.02235 -0.4572,0.79756 -0.40005,0.319405 -0.2032,-0.01968 -0.1397,-0.86233 -0.15875,-3.29565 2.159,-0.9017 m -0.47625,1.7399 -1.80213,1.44145"
       style="fill:none;stroke:#000000;stroke-width:0.00273431in;stroke-linecap:round;stroke-linejoin:round"
       id="path912" />
    <path
       d="m 108.40555,20.4925 -0.44069,-4.05765 0.0787,0.43815 1.78435,-0.9398 m 0.635,1.61925 -1.61925,0.9017 -0.95885,0.19685"
       style="fill:none;stroke:#000000;stroke-width:0.00273431in;stroke-linecap:round;stroke-linejoin:round"
       id="path914" />
    <path
       d="m 113.2823,16.2507 -0.5969,0.15875 -0.6985,0.762 -0.70485,0.8382 -0.25717,0.6223 -0.12002,0.78105 0.33909,0.67945 0.5588,0.21971 0.64135,-0.21971 0.29845,-0.4826 0.5842,-1.03505 0.2159,-0.4445 -0.0571,1.1811 0.0825,1.00076 v 0.700405 l 0.15875,0.337185 m -1.3589,-3.11785 0.5969,0.01905 0.50165,-0.1778 0.50165,-0.2794"
       style="fill:none;stroke:#000000;stroke-width:0.00273431in;stroke-linecap:round;stroke-linejoin:round"
       id="path916" />
    <path
       d="M 114.8448,20.19278 114.64287,15.73 m -0.0997,2.6797 0.89852,-0.0381 1.06045,-0.33655 m -0.36195,-3.32105 0.2032,1.13665 0.0825,1.30175 -0.0444,1.72085 v 0.9398 l 0.019,0.299085 0.0444,0.160655"
       style="fill:none;stroke:#000000;stroke-width:0.00273431in;stroke-linecap:round;stroke-linejoin:round"
       id="path918" />
    <path
       d="M 117.4228,20.432492 117.26088,16.3904"
       style="fill:none;stroke:#000000;stroke-width:0.00273431in;stroke-linecap:round;stroke-linejoin:round"
       id="path920" />
    <path
       d="m 117.96116,18.7526 1.44209,1.619885 0.1397,0.01968 0.019,-4.73837"
       style="fill:none;stroke:#000000;stroke-width:0.00273431in;stroke-linecap:round;stroke-linejoin:round"
       id="path922" />
    <path
       d="M 120.9214,20.452495 120.38419,15.9332 m 2.20091,0.0381 -0.22225,0.762 -0.43815,0.81915 -0.64135,0.71755 -0.81915,1.0033 0.762,-0.0635 1.03505,-0.15875 1.905,-0.05715"
       style="fill:none;stroke:#000000;stroke-width:0.00273431in;stroke-linecap:round;stroke-linejoin:round"
       id="path924" />
    <path
       d="m 124.74156,15.6919 0.0216,4.48056 0.26035,0.120015 1.33985,-0.581025 0.9398,-0.381"
       style="fill:none;stroke:#000000;stroke-width:0.00273431in;stroke-linecap:round;stroke-linejoin:round"
       id="path926" />
    <path
       d="m 127.88388,20.39217 v -4.40182 l 1.81927,3.0607 0.60325,-2.3368 0.5207,-1.47955 0.1143,0.7747 0.18415,2.38125 0.26035,1.501775"
       style="fill:none;stroke:#000000;stroke-width:0.00273431in;stroke-linecap:round;stroke-linejoin:round"
       id="path928" />
    <path
       d="m 132.12519,20.372485 0.061,-4.420235 v 0.43815 l 2.41935,3.42265 -0.2413,-0.9779 -0.2794,-2.7813 -0.019,-1.20015"
       style="fill:none;stroke:#000000;stroke-width:0.00273431in;stroke-linecap:round;stroke-linejoin:round"
       id="path930" />
    <path
       d="m 136.04105,20.41249 0.12065,-0.06032 0.6223,-0.45974 0.1778,-0.638175 -0.12065,-2.1209 -0.1778,-0.98425 -0.2032,-0.37465 -0.3556,-0.04445 -0.381,0.36195 -0.32068,0.78105 -0.08,1.27635 0.0197,0.84455 0.12065,0.8001 0.1778,0.338455 0.40005,0.280035"
       style="fill:none;stroke:#000000;stroke-width:0.00273431in;stroke-linecap:round;stroke-linejoin:round"
       id="path932" />
    <path
       d="m 138.74565,20.452495 -0.2413,-2.519045 -0.0571,-2.48285 0.019,0.4826 -0.84138,0.8001 1.71768,-1.4224 0.84455,-0.2794 0.7366,0.12065 0.32385,0.4191 -0.2794,0.762 -0.762,0.6604 -1.68275,1.2192"
       style="fill:none;stroke:#000000;stroke-width:0.00273431in;stroke-linecap:round;stroke-linejoin:round"
       id="path934" />
    <path
       d="m 142.1875,16.2888 -0.5207,1.6637 -0.24194,1.4224 0.26099,0.79756 0.43815,0.1397 0.64135,-0.48006 0.5207,-1.2827 0.1016,-1.33985 -0.12065,-0.4953 -0.3429,-0.2032 -0.50165,0.2413 -0.53975,0.67945 m 0.92075,1.4986 2.4638,2.48285"
       style="fill:none;stroke:#000000;stroke-width:0.00273431in;stroke-linecap:round;stroke-linejoin:round"
       id="path936" />
    <path
       d="m 145.70535,20.41249 -0.29845,-4.40309 0.0571,0.88265 -0.37719,0.43815 1.52019,-1.397 0.8382,-0.3429 0.5207,0.04445 0.26035,0.33655 -0.2159,0.60325 -0.60325,0.635 -1.96215,1.3843 0.9398,0.2159 2.13995,0.12065 1.78435,0.1651"
       style="fill:none;stroke:#000000;stroke-width:0.00273431in;stroke-linecap:round;stroke-linejoin:round"
       id="path938" />
    <path
       d="m 152.0106,20.452495 1.06045,-0.440055 0.85725,-0.56134 0.32385,-0.33655 0.0381,-0.22225 -0.2794,-0.26035 -2.30505,-0.29845 -0.5969,-0.1397 -0.26035,-0.22225 0.0203,-0.381 0.34163,-0.4191 2.0574,-0.67945"
       style="fill:none;stroke:#000000;stroke-width:0.00273431in;stroke-linecap:round;stroke-linejoin:round"
       id="path940" />
    <path
       d="m 156.6911,20.452495 -0.3175,-3.439795 -0.22225,-1.0414 0.0825,0.3175 -1.54305,0.4064 1.58115,-0.4064 1.7399,-0.4191"
       style="fill:none;stroke:#000000;stroke-width:0.00273431in;stroke-linecap:round;stroke-linejoin:round"
       id="path942" />
    <path
       d="m 158.4755,17.3302 -0.1397,1.72085 v 0.841375 l 0.0952,0.45974 0.381,0.220345 0.3048,-0.200025 0.4953,-0.521335 0.3429,-0.5588 0.2794,-0.67945 v -1.86055 2.6416 l 0.12065,1.118552 0.1016,0.599758 0.1143,0.38354"
       style="fill:none;stroke:#000000;stroke-width:0.00273431in;stroke-linecap:round;stroke-linejoin:round"
       id="path944" />
    <path
       d="m 160.97285,16.51105 1.9793,3.1242 0.12065,0.1397 0.0635,0.577215 0.2159,-1.377315 0.762,-2.7432"
       style="fill:none;stroke:#000000;stroke-width:0.00273431in;stroke-linecap:round;stroke-linejoin:round"
       id="path946" />
    <path
       d="m 164.83253,16.3904 0.12002,0.1397 0.9398,3.0226 0.1778,-2.2225 0.2413,-0.99695 0.4445,1.79705 0.7747,2.20218 0.0254,-2.15773 0.29845,-1.9431 0.15875,-0.9398"
       style="fill:none;stroke:#000000;stroke-width:0.00273431in;stroke-linecap:round;stroke-linejoin:round"
       id="path948" />
    <path
       d="m 168.9525,20.25247 0.9017,-2.07772 0.4953,-1.86055 m -1.75895,0.7366 1.09855,1.7399 1.6002,1.581785"
       style="fill:none;stroke:#000000;stroke-width:0.00273431in;stroke-linecap:round;stroke-linejoin:round"
       id="path950" />
    <path
       d="m 173.60685,20.73253 0.70485,-5.02158 m -0.381,2.58445 -1.12395,-0.6604 -0.8382,-0.9017"
       style="fill:none;stroke:#000000;stroke-width:0.00273431in;stroke-linecap:round;stroke-linejoin:round"
       id="path952" />
    <path
       d="m 174.96986,17.3302 h 0.10033 0.42291 l 2.07645,-0.2794 -0.8001,1.2446 -1.27635,2.056765 1.9558,-0.21971 2.13995,-0.319405 0.3429,0.0381"
       style="fill:none;stroke:#000000;stroke-width:0.00273431in;stroke-linecap:round;stroke-linejoin:round"
       id="path954" />
    <path
       d="m 183.01185,20.472497 -2.03835,0.801053 -0.12065,-0.12065 0.0191,-3.4036 -0.24003,-2.7178 1.61798,-0.6604"
       style="fill:none;stroke:#000000;stroke-width:0.00273431in;stroke-linecap:round;stroke-linejoin:round"
       id="path956" />
    <path
       d="m 183.56986,13.811665 3.51854,6.5405"
       style="fill:none;stroke:#000000;stroke-width:0.00273431in;stroke-linecap:round;stroke-linejoin:round"
       id="path958" />
    <path
       d="m 188.4667,20.932555 0.50165,-0.120015 1.02235,-0.08001 -0.6604,-6.55828 -1.80277,0.1397"
       style="fill:none;stroke:#000000;stroke-width:0.00273431in;stroke-linecap:round;stroke-linejoin:round"
       id="path960" />
    <path
       d="m 190.66756,15.39345 0.73914,-1.261745 0.9398,1.179195"
       style="fill:none;stroke:#000000;stroke-width:0.00273431in;stroke-linecap:round;stroke-linejoin:round"
       id="path962" />
    <path
       d="M 193.16687,20.41249 196.9248,19.6543"
       style="fill:none;stroke:#000000;stroke-width:0.00273431in;stroke-linecap:round;stroke-linejoin:round"
       id="path964" />
    <path
       d="m 197.92765,15.1712 0.7239,0.64135"
       style="fill:none;stroke:#000000;stroke-width:0.00273431in;stroke-linecap:round;stroke-linejoin:round"
       id="path966" />
    <path
       d="m 200.86745,17.06985 -0.2794,0.9398 -0.6604,1.22555 -0.4826,0.57785 -0.2159,0.07937 -0.061,-0.796925 0.35941,-1.58115 0.57785,-0.70485 0.50165,-0.2794 0.2032,0.04445 0.4191,3.797935"
       style="fill:none;stroke:#000000;stroke-width:0.00273431in;stroke-linecap:round;stroke-linejoin:round"
       id="path968" />
    <path
       d="m 202.00856,15.01245 0.12319,0.4191 0.1143,4.96062 0.9652,-1.04267 0.5588,-1.03505 0.29845,-0.78105 -0.19685,-0.46355 -0.46355,-0.12065 -0.7366,0.381 -0.74295,0.64135"
       style="fill:none;stroke:#000000;stroke-width:0.00273431in;stroke-linecap:round;stroke-linejoin:round"
       id="path970" />
    <path
       d="m 205.8332,18.49225 -0.0445,-0.78105 -0.2159,-0.15875 -0.42545,0.3175 -0.43815,0.9017 -0.0991,0.8382 0.20066,0.602615 0.33655,0.24003 0.4445,-0.140335 0.47625,-0.51816 0.40005,-0.64135"
       style="fill:none;stroke:#000000;stroke-width:0.00273431in;stroke-linecap:round;stroke-linejoin:round"
       id="path972" />
    <path
       d="m 208.9891,18.17475 -0.381,-0.42545 -0.6604,0.18415 -0.64135,0.8001 -0.19749,0.5588 -0.04,0.600075 0.26289,0.419735 0.5588,-0.1397 0.75565,-0.77851 0.3048,-0.5842 0.0762,-0.43815 -0.1778,-2.03835 V 15.1331 l 0.019,1.3208 0.2413,2.52095 0.33655,2.55905"
       style="fill:none;stroke:#000000;stroke-width:0.00273431in;stroke-linecap:round;stroke-linejoin:round"
       id="path974" />
    <path
       d="m 209.84886,19.01295 0.63944,-0.26035 0.6223,-0.4191 0.3556,-0.381 v -0.29845 l -0.2794,-0.2794 -0.40005,0.01905 -0.40005,0.67945 -0.2794,1.47955 0.019,0.559435 0.1651,0.280035 0.40005,-0.0997 1.9177,-1.857375"
       style="fill:none;stroke:#000000;stroke-width:0.00273431in;stroke-linecap:round;stroke-linejoin:round"
       id="path976" />
    <path
       d="m 214.1073,20.4925 -0.6604,-2.10185 -0.40005,0.32385 1.33985,-1.0414 0.8001,-0.40005 -0.81915,0.40005 -0.9398,0.71755 -0.12065,-1.20015 0.0572,-1.6764 0.2413,-0.40005 0.29845,-0.1016 h 0.3048"
       style="fill:none;stroke:#000000;stroke-width:0.00273431in;stroke-linecap:round;stroke-linejoin:round"
       id="path978" />
    <path
       d="m 217.0282,17.55245 -0.33655,-0.22225 -0.5207,0.2413 -0.5588,0.81915 -0.42228,0.84455 -0.12001,0.716915 0.19939,0.34036 0.57785,-0.259715 0.6604,-0.79756 0.36195,-0.60325 0.22225,-0.99695 0.2413,2.657475 0.23495,1.762125 -0.0762,0.7366 -0.4445,0.50165 -0.5588,0.1397 -0.9779,-0.08255"
       style="fill:none;stroke:#000000;stroke-width:0.00273431in;stroke-linecap:round;stroke-linejoin:round"
       id="path980" />
    <path
       d="m 218.14987,15.05055 0.28258,5.34162 0.12065,-1.27762 0.51435,-0.8636 0.4826,-0.5207 0.4191,-0.01905 0.15875,0.2032 0.12065,0.7366 -0.0381,1.701165"
       style="fill:none;stroke:#000000;stroke-width:0.00273431in;stroke-linecap:round;stroke-linejoin:round"
       id="path982" />
    <path
       d="M 221.2135,20.372485 220.93156,17.0127 m -0.23939,-2.2606 0.2197,0.2413 0.14288,-0.2032 -0.36258,-0.0381"
       style="fill:none;stroke:#000000;stroke-width:0.00273431in;stroke-linecap:round;stroke-linejoin:round"
       id="path984" />
    <path
       d="m 220.78745,21.8514 0.46101,0.3429 0.50038,0.05715 0.42291,-0.19685 0.40005,-0.6223 v -0.979805 l -0.26035,-3.382645 m -0.58293,-2.1209 0.30035,0.2413 0.0794,-0.12065 -0.31941,-0.09525"
       style="fill:none;stroke:#000000;stroke-width:0.00273431in;stroke-linecap:round;stroke-linejoin:round"
       id="path986" />
    <path
       d="m 223.38535,20.89255 -0.0381,-5.4229 m 2.17805,3.60045 -2.25743,-0.3556 1.92088,-2.1844"
       style="fill:none;stroke:#000000;stroke-width:0.00273431in;stroke-linecap:round;stroke-linejoin:round"
       id="path988" />
    <path
       d="m 226.19215,20.372485 -0.061,-4.940935"
       style="fill:none;stroke:#000000;stroke-width:0.00273431in;stroke-linecap:round;stroke-linejoin:round"
       id="path990" />
    <path
       d="m 227.09315,17.37465 0.0571,0.33655 0.15875,2.640965 0.40005,-1.599565 0.46355,-0.92075 0.40005,-0.57785 0.33655,2.89814 0.4445,-1.60274 0.33655,-0.8001 0.2032,-0.4191 0.15875,0.5588 0.5207,2.36347"
       style="fill:none;stroke:#000000;stroke-width:0.00273431in;stroke-linecap:round;stroke-linejoin:round"
       id="path992" />
    <path
       d="m 231.23315,17.03175 -0.0413,3.28041 0.77788,-2.18186 0.3048,-0.71755 0.1778,-0.2032 0.12065,0.12065 0.33655,1.44145 0.32385,1.301115 0.1778,0.319405"
       style="fill:none;stroke:#000000;stroke-width:0.00273431in;stroke-linecap:round;stroke-linejoin:round"
       id="path994" />
    <path
       d="m 234.3519,17.635 -0.28004,1.75895 0.22289,0.838835 0.5969,0.11938 0.43815,-0.339725 0.4191,-0.56134 0.0825,-0.7366 -0.22225,-0.56515 -0.29845,-0.3556 -0.381,0.0762 -0.43815,0.36195 -0.29845,0.5207"
       style="fill:none;stroke:#000000;stroke-width:0.00273431in;stroke-linecap:round;stroke-linejoin:round"
       id="path996" />
    <path
       d="m 236.8346,22.5753 -0.1778,-4.826 v 0.64135 l -0.36195,0.53975 0.9017,-1.1176 0.89535,-0.50165 0.6223,0.01905 0.12065,0.46355 -0.15875,0.57785 -0.43815,0.762 -0.70485,0.71755 -0.75565,0.54102"
       style="fill:none;stroke:#000000;stroke-width:0.00273431in;stroke-linecap:round;stroke-linejoin:round"
       id="path998" />
    <path
       d="m 241.57735,17.59055 -0.4445,1.12395 -0.61595,1.06045 -0.50165,0.457835 -0.381,-0.04001 -0.21908,-0.53848 0.12002,-0.78105 0.37846,-0.6223 0.60325,-0.57785 0.4572,-0.2032 0.4826,-0.0381 -0.0191,1.96215 -0.0254,2.0574 0.14605,1.4224"
       style="fill:none;stroke:#000000;stroke-width:0.00273431in;stroke-linecap:round;stroke-linejoin:round"
       id="path1000" />
    <path
       d="m 242.6576,20.41249 -0.0572,-0.280035 -0.2413,-3.062605 0.12065,1.68275 0.67945,-0.95885 0.5588,-0.6604 0.4826,-0.381"
       style="fill:none;stroke:#000000;stroke-width:0.00273431in;stroke-linecap:round;stroke-linejoin:round"
       id="path1002" />
    <path
       d="m 246.0167,20.432492 0.8382,-1.082992 0.22225,-0.33655 -0.019,-0.15875 -0.2794,-0.08255 -0.98425,0.26035 -0.4953,-0.01905 -0.3048,-0.0381 -0.11748,-0.1397 0.20003,-0.40005 0.762,-0.6604 0.57785,-0.3048 0.46355,-0.05715"
       style="fill:none;stroke:#000000;stroke-width:0.00273431in;stroke-linecap:round;stroke-linejoin:round"
       id="path1004" />
    <path
       d="m 248.7979,20.352165 -0.2413,-2.520315 -0.82042,0.381 2.59842,-1.02235 -1.778,0.67945 -0.1397,-2.7559"
       style="fill:none;stroke:#000000;stroke-width:0.00273431in;stroke-linecap:round;stroke-linejoin:round"
       id="path1006" />
    <path
       d="m 251.01756,17.41275 -0.11938,1.23825 -0.0203,1.0033 0.30099,0.65786 0.4572,0.10033 0.2413,-0.280035 0.2794,-0.497205 0.32385,-1.06045 0.1143,-1.30175 0.0254,3.43916"
       style="fill:none;stroke:#000000;stroke-width:0.00273431in;stroke-linecap:round;stroke-linejoin:round"
       id="path1008" />
    <path
       d="m 253.35586,17.4699 1.21984,2.762885 0.88265,-3.042285"
       style="fill:none;stroke:#000000;stroke-width:0.00273431in;stroke-linecap:round;stroke-linejoin:round"
       id="path1010" />
    <path
       d="m 256.13855,17.27305 0.1016,0.26035 0.9017,2.71907 0.47625,-2.38252 0.8001,2.04216 0.2413,0.28067 0.50165,-2.95783"
       style="fill:none;stroke:#000000;stroke-width:0.00273431in;stroke-linecap:round;stroke-linejoin:round"
       id="path1012" />
    <path
       d="m 260.09405,21.34975 1.4605,-4.29895 m -1.75768,0.8001 1.57988,1.5621 0.9017,0.799465"
       style="fill:none;stroke:#000000;stroke-width:0.00273431in;stroke-linecap:round;stroke-linejoin:round"
       id="path1014" />
    <path
       d="m 262.75886,18.45415 1.64084,1.93802 -0.019,-2.94132 0.019,5.58165"
       style="fill:none;stroke:#000000;stroke-width:0.00273431in;stroke-linecap:round;stroke-linejoin:round"
       id="path1016" />
    <path
       d="m 265.13787,17.4953 0.29718,0.0762 1.16205,-0.381 0.4191,-0.05715 0.381,0.15875 v 0.15875 l -1.30175,2.82194 0.1016,0.07937 1.23825,-0.520065 1.2446,-0.4191 1.3208,-0.3429"
       style="fill:none;stroke:#000000;stroke-width:0.00273431in;stroke-linecap:round;stroke-linejoin:round"
       id="path1018" />
    <path
       d="m 272.6798,20.532505 -0.43815,0.499745 h -0.29845 l -0.14605,-0.339725 0.0826,-1.597025 -0.0572,-1.06045 -0.1651,-0.381 -0.2794,-0.18415 -0.67818,0.36195 0.60198,-0.3175 0.0953,-0.2794 -0.1143,-1.0033 0.019,-1.09855 0.4191,-0.8636 0.5207,-0.41783 0.5207,-0.05969"
       style="fill:none;stroke:#000000;stroke-width:0.00273431in;stroke-linecap:round;stroke-linejoin:round"
       id="path1020" />
    <path
       d="m 273.80355,20.372485 -0.15875,-0.42037 -0.12065,-5.441315 -0.0413,-0.83947"
       style="fill:none;stroke:#000000;stroke-width:0.00273431in;stroke-linecap:round;stroke-linejoin:round"
       id="path1022" />
    <path
       d="m 274.44555,21.34975 0.6985,-0.23749 0.53975,-0.61976 0.2032,-0.56007 -0.1778,-0.41783 -0.60325,-0.381 -0.43815,-0.32385 v -0.3175 l 0.2794,-0.36195 0.3175,-0.15875 -0.50165,-0.1778 0.0444,-0.381 0.40005,-1.0795 0.2413,-0.81915 -0.0444,-0.50165 -0.3175,-0.4826 -0.29845,-0.12065 -0.3429,0.0635"
       style="fill:none;stroke:#000000;stroke-width:0.00273431in;stroke-linecap:round;stroke-linejoin:round"
       id="path1024" />
    <path
       d="m 276.52419,16.7333 0.37846,-0.762 0.18415,-0.05715 0.19685,0.2159 0.50165,0.56515 0.2413,-0.0635 0.37465,-0.53975"
       style="fill:none;stroke:#000000;stroke-width:0.00273431in;stroke-linecap:round;stroke-linejoin:round"
       id="path1026" />
  </g>
</svg>
