<?xml version="1.0" encoding="UTF-8" standalone="no"?>
<svg
   xmlns:dc="http://purl.org/dc/elements/1.1/"
   xmlns:cc="http://creativecommons.org/ns#"
   xmlns:rdf="http://www.w3.org/1999/02/22-rdf-syntax-ns#"
   xmlns:svg="http://www.w3.org/2000/svg"
   xmlns="http://www.w3.org/2000/svg"
   xmlns:sodipodi="http://sodipodi.sourceforge.net/DTD/sodipodi-0.dtd"
   xmlns:inkscape="http://www.inkscape.org/namespaces/inkscape"
   sodipodi:docname="ems_society.svg"
   id="svg8"
   version="1.1"
   viewBox="0 0 210 297"
   height="297mm"
   width="210mm"
   inkscape:version="1.0.1 (3bc2e813f5, 2020-09-07)">
  <defs
     id="defs2">
    <rect
       x="13.924873"
       y="14.698477"
       width="557.76852"
       height="69.237566"
       id="rect835" />
  </defs>
  <sodipodi:namedview
     id="base"
     pagecolor="#ffffff"
     bordercolor="#666666"
     borderopacity="1.0"
     inkscape:pageopacity="0.0"
     inkscape:pageshadow="2"
     inkscape:zoom="1.6552628"
     inkscape:cx="1569.4811"
     inkscape:cy="105.88468"
     inkscape:document-units="mm"
     inkscape:current-layer="layer1"
     inkscape:document-rotation="0"
     showgrid="false"
     inkscape:window-width="1920"
     inkscape:window-height="1017"
     inkscape:window-x="-8"
     inkscape:window-y="1192"
     inkscape:window-maximized="1" />
  <metadata
     id="metadata5">
    <rdf:RDF>
      <cc:Work
         rdf:about="">
        <dc:format>image/svg+xml</dc:format>
        <dc:type
           rdf:resource="http://purl.org/dc/dcmitype/StillImage" />
        <dc:title />
      </cc:Work>
    </rdf:RDF>
  </metadata>
  <g
     inkscape:label="Layer 1"
     inkscape:groupmode="layer"
     id="layer1">
    <path
       d="M 21.9014,14.77115 18.96135,19.413 m -0.3429,0.61976 -0.15875,0.259715"
       style="fill:none;stroke:#000000;stroke-width:0.00273431in;stroke-linecap:round;stroke-linejoin:round"
       id="path840" />
    <path
       d="m 23.4889,15.3109 -0.71755,1.0033 m 1.2954,-0.98425 -0.75565,1.02235"
       style="fill:none;stroke:#000000;stroke-width:0.00273431in;stroke-linecap:round;stroke-linejoin:round"
       id="path842" />
    <path
       d="m 27.591,17.8509 -0.92075,2.6416 m 1.72085,-2.6035 -0.92075,2.583497 m -1.1176,-1.618297 2.7559,-0.04445 m -3.0988,0.74295 2.86385,-0.0381"
       style="fill:none;stroke:#000000;stroke-width:0.00273431in;stroke-linecap:round;stroke-linejoin:round"
       id="path844" />
    <path
       d="m 36.37305,13.27128 -0.6604,1.08077 -0.8001,1.4986 -0.85725,1.8415 -0.78105,1.72085 -0.67945,1.75895 m 2.4384,-6.24205 0.46355,0.12065 0.53975,-0.12065 0.57785,-0.19685 0.22098,-0.2794 -0.06032,-0.2413 -0.262255,-0.18034 -0.2159,-0.10033 -0.5207,-0.120015 -0.81915,0.05969 -0.84455,0.26035 -0.43815,0.442595 -0.1016,0.3556 0.1651,0.50165 0.2794,0.3429 0.33655,0.37465 0.762,0.56515 0.64135,0.6604 0.381,0.635 -0.0254,0.74295 -0.3175,0.5969 -0.6604,0.64262 -0.6985,0.32004 -0.81915,0.160337 -0.4445,-0.04001 -0.78105,-0.120332 -0.4191,-0.239395 -0.2794,-0.361315 -0.12065,-0.61595 0.32385,-0.6604 0.635,-0.381 0.7239,-0.12065 0.43815,0.0762 0.5588,0.22225 0.1651,0.26035 0.05715,0.381"
       style="fill:none;stroke:#000000;stroke-width:0.00273431in;stroke-linecap:round;stroke-linejoin:round"
       id="path846" />
    <path
       d="m 41.21615,14.8918 0.53975,-0.40005 0.3175,-0.360045 -0.0762,-0.360045 -0.5588,-0.08001 -0.64135,0.34036 -0.8636,0.77724 -0.4953,0.8636 -0.32385,0.78105 -0.05715,0.53975 0.05715,0.43815 0.2413,0.29845 0.50165,0.1016 0.9779,-0.40005 0.92075,-1.02235 0.4572,-0.8763 0.1651,-0.6223 V 14.6124 l -0.04445,-0.1016 -0.09525,-0.12065 -0.36195,-0.09525 -0.4826,0.3175 -0.1778,0.12065 -0.05715,0.3175 m 3.41757,2.2606 0.53975,-0.381 0.32004,-0.3556 -0.08001,-0.36195 -0.56007,-0.08255 -0.64008,0.32385 -0.85725,0.8001 -0.50165,0.85725 -0.32385,0.762 -0.05715,0.5588 0.05715,0.44069 0.2413,0.2794 0.50165,0.12065 0.979805,-0.40005 0.920115,-1.01854 0.460375,-0.9017 0.159385,-0.60325 V 17.0508 l -0.03937,-0.12065 -0.10033,-0.09525 -0.360045,-0.12065 -0.48006,0.33655 -0.179705,0.1016 -0.06032,0.3429 m 0.32004,-4.36372 -1.638935,2.35712 -1.02235,1.6256 -0.762,1.2192 -0.61595,1.2573 -0.5207,1.241425"
       style="fill:none;stroke:#000000;stroke-width:0.00273431in;stroke-linecap:round;stroke-linejoin:round"
       id="path848" />
    <path
       d="m 50.197,17.9906 0.0381,0.92075 0.1397,-0.47625 0.32385,-0.3429 0.40005,-0.29845 0.47625,-0.2794 0.56515,-0.1651 0.47625,0.0254 0.32385,0.2159 0.0381,0.40005 -0.2413,0.5588 -0.57785,0.6858 -0.53975,0.4572 -0.74295,0.419735 -0.8001,0.240665 -0.8001,0.05969 -0.57785,-0.179705 -0.381,-0.438785 -0.0381,-0.6985 0.1778,-0.6858 0.4826,-0.6985 0.5588,-0.5969 0.92075,-0.8255 0.8763,-0.65405 0.53975,-0.42545 0.50165,-0.4953 0.22225,-0.2794 0.0381,-0.2413 -0.1016,-0.1016 -0.2413,-0.04 -0.33655,0.179705 -0.53975,0.5588 -0.22225,0.4191 -0.26035,0.9398 -0.01905,0.7239 -0.01905,0.67945 0.1016,0.8001 0.29845,0.9017 0.47625,0.878205 0.46355,0.40005 0.5588,0.200025 0.40005,-0.02032 0.2413,-0.03937 0.19939,-0.08001 0.200025,-0.10033 0.240665,-0.16002"
       style="fill:none;stroke:#000000;stroke-width:0.00273431in;stroke-linecap:round;stroke-linejoin:round"
       id="path850" />
    <path
       d="M 56.9947,15.32995 56.27715,16.3142"
       style="fill:none;stroke:#000000;stroke-width:0.00273431in;stroke-linecap:round;stroke-linejoin:round"
       id="path852" />
    <path
       d="m 62.716,13.651645 -1.58115,1.081405 -1.09855,1.1811 -0.53975,0.95885 -0.40005,1.0795 -0.22225,1.0795 -0.01905,0.90043 0.15875,0.77978 0.5207,0.87884"
       style="fill:none;stroke:#000000;stroke-width:0.00273431in;stroke-linecap:round;stroke-linejoin:round"
       id="path854" />
    <path
       d="m 64.9004,13.71197 0.53975,1.02108 0.1016,0.95885 -0.1651,1.4605 -0.43815,1.2827 -0.78105,1.27635 -0.85725,0.88138 -0.6985,0.54102 -0.8636,0.4572"
       style="fill:none;stroke:#000000;stroke-width:0.00273431in;stroke-linecap:round;stroke-linejoin:round"
       id="path856" />
    <path
       d="m 68.1834,17.6731 0.67945,1.016 M 67.7643,18.1303 h 1.4351 m -1.33985,0.46355 1.30175,-0.92075 m -0.88265,1.13665 0.4445,-1.31445"
       style="fill:none;stroke:#000000;stroke-width:0.00273431in;stroke-linecap:round;stroke-linejoin:round"
       id="path858" />
    <path
       d="m 74.1841,16.47295 -0.8001,2.2987 M 72.622,17.6096 h 2.4638"
       style="fill:none;stroke:#000000;stroke-width:0.00273431in;stroke-linecap:round;stroke-linejoin:round"
       id="path860" />
    <path
       d="m 77.5623,20.31216 -0.0635,-0.21971 0.2032,-0.04001 v 0.200025 l -0.2413,0.220027 -0.33655,0.260033 -0.32258,0.0997 -0.08001,0.02032"
       style="fill:none;stroke:#000000;stroke-width:0.00273431in;stroke-linecap:round;stroke-linejoin:round"
       id="path862" />
    <path
       d="m 81.258,19.3749 h 0.04445 l 2.41935,0.0381"
       style="fill:none;stroke:#000000;stroke-width:0.00273431in;stroke-linecap:round;stroke-linejoin:round"
       id="path864" />
    <path
       d="M 87.18255,20.09245 86.9603,20.39217"
       style="fill:none;stroke:#000000;stroke-width:0.00273431in;stroke-linecap:round;stroke-linejoin:round"
       id="path866" />
    <path
       d="m 94.26285,12.95124 -1.06045,1.81991 -0.762,1.58115 -1.06045,2.17805 -0.57785,1.5621 -0.32385,0.8001"
       style="fill:none;stroke:#000000;stroke-width:0.00273431in;stroke-linecap:round;stroke-linejoin:round"
       id="path868" />
    <path
       d="m 98.1617,16.0094 0.08255,-0.3556 0.33655,-0.3048 0.6604,-0.4191 0.26035,-0.3556 0.01905,-0.381 -0.2159,-0.281305 -0.64135,-0.04064 -0.81915,0.321945 -1.1049,0.85725 -0.95885,1.2192 -0.6604,1.2446 -0.2413,1.016 -0.0762,0.8636 0.22225,0.59817 0.635,0.42037 0.98425,-0.16002 0.78105,-0.37973 0.9779,-0.94234 0.71755,-0.9779 0.5207,-1.1811 0.22225,-0.8382 -0.01905,-0.6223 -0.1397,-0.381 -0.4445,-0.19685 -0.40005,-0.0635 -0.4572,0.0635 -0.36195,0.1016 -0.29845,0.15875"
       style="fill:none;stroke:#000000;stroke-width:0.00273431in;stroke-linecap:round;stroke-linejoin:round"
       id="path870" />
    <path
       d="m 102.80485,15.11405 -0.22225,0.2794 -0.0825,-0.1016 0.6223,-0.3175 0.4826,-0.2413 1.09855,-0.22225 0.71755,-0.26035 0.32385,-0.198755 0.0381,-0.1397 -0.12065,-0.10033 -0.40005,0.02032 -0.6223,0.380365 -0.3175,0.2413 -0.6985,0.8763 -0.762,1.143 -0.57785,1.13665 -0.6223,1.40335 -0.23876,0.762 -0.08,0.457835 0.0197,0.259715"
       style="fill:none;stroke:#000000;stroke-width:0.00273431in;stroke-linecap:round;stroke-linejoin:round"
       id="path872" />
    <path
       d="m 108.62775,15.01245 -0.18415,0.53975 -0.3556,0.5207 -0.5588,0.381 -0.84455,0.05715 -0.381,-0.2413 -0.0572,-0.4191 0.26035,-0.57785 0.53975,-0.60325 0.71755,-0.40005 0.74295,-0.217805 0.6604,-0.06033 0.53975,0.18288 0.22225,0.47625 -0.0444,0.5588 -0.36195,0.8636 -0.6985,1.1811 -0.7366,0.9398 -0.8001,0.8763 -0.64135,0.70485 -0.67945,0.49784 -0.60134,0.199707 -0.22035,-0.220027 0.0406,-0.42037 0.4826,-0.53975 0.65405,-0.2794 0.32385,-0.0381 0.47625,0.15875 0.8636,0.5969 0.53975,0.36195 0.5588,0.140335 0.5842,-0.140335 0.4572,-0.21971"
       style="fill:none;stroke:#000000;stroke-width:0.00273431in;stroke-linecap:round;stroke-linejoin:round"
       id="path874" />
    <path
       d="m 114.7047,14.83465 -0.33655,0.635 -0.4826,0.381 -0.6985,0.15875 -0.33655,-0.26035 -0.0444,-0.53975 0.40005,-0.61595 0.50165,-0.4191 0.5969,-0.262255 0.64135,-0.160655 0.5588,-0.01969 0.60325,0.21971 0.19685,0.318135 -0.0191,0.4191 -0.2159,0.381 -0.50165,0.53975 -0.7239,0.5207 -0.75565,0.4191 -0.95885,0.53975 0.40005,-0.15875 0.3175,-0.09525 0.88265,0.05715 0.33655,0.29845 0.15875,0.36195 -0.0381,0.43815 -0.2794,0.60325 -0.40005,0.5207 -0.71755,0.67945 -0.6604,0.35814 -0.5842,0.20066 -0.91821,0.01969 -0.48006,-0.220345 -0.0203,-0.24003 0.24003,-0.16256 0.44196,-0.0381 0.7366,0.20066 0.6985,0.48006 0.32385,0.20066 0.36195,0.01968"
       style="fill:none;stroke:#000000;stroke-width:0.00273431in;stroke-linecap:round;stroke-linejoin:round"
       id="path876" />
    <path
       d="m 121.5496,15.11405 -0.78105,1.61925 -0.6985,1.5367 -0.32385,0.9652 -0.2413,0.75692 -0.0572,0.480377 m 2.6797,-5.663247 0.4572,-0.3556 0.1651,-0.321945 -0.0445,-0.32004 -0.43815,-0.140335 -0.6985,0.10033 -1.0033,0.47879 -0.9398,0.81915 -0.75565,0.78105 -0.6223,0.95885 -0.40005,0.7239 -0.1397,0.6604 0.1397,0.5969 0.40005,0.1397 0.50165,0.04445 0.5969,-0.08255 1.4986,-0.3175 0.42545,-0.04445 0.43815,0.0635 0.26035,0.0762 0.2413,0.08255"
       style="fill:none;stroke:#000000;stroke-width:0.00273431in;stroke-linecap:round;stroke-linejoin:round"
       id="path878" />
    <path
       d="m 127.88835,15.2093 -0.19685,-0.19685 -0.0254,-0.36195 0.1397,-0.3175 0.22225,-0.281305 0.5588,-0.32004 0.4826,-0.01968 0.1778,0.120015 -0.0572,0.179705 -0.3048,0.23876 -0.254,0.1397 -0.3429,0.0635 -0.4572,-0.01905 h -0.42545 l -0.57785,-0.08255 -0.81915,-0.2032 -0.26035,0.74295 -0.3175,0.92075 -0.28575,0.5207 -0.4191,0.71755 0.6604,-0.2794 0.78105,-0.12065 h 0.81915 l 0.46355,0.32385 0.1397,0.57785 -0.26035,0.5969 -0.53975,0.88265 -0.5842,0.6223 -0.71755,0.478155 -0.8001,0.340042 -0.86043,-0.02 -0.39973,-0.16002 -0.14002,-0.200025 0.0603,-0.2413 0.32004,-0.05715 3.69951,0.0381"
       style="fill:none;stroke:#000000;stroke-width:0.00273431in;stroke-linecap:round;stroke-linejoin:round"
       id="path880" />
    <path
       d="m 135.7122,14.2314 -0.6604,-0.319405 -0.67945,-0.08001 -0.98425,0.418465 -1.0795,0.74295 -1.17475,1.72085 -0.4826,1.1176 -0.22225,1.0033 0.0635,0.6985 0.3175,0.539115 0.46355,0.239395 0.71755,0.06033 0.64135,-0.24003 0.43815,-0.281305 0.5207,-0.50165 0.57785,-0.7747 0.3429,-0.9652 v -0.5207 l -0.26035,-0.4191 -0.26035,-0.12065 h -0.67945 l -0.57785,0.22225 -0.5207,0.5207 -0.22225,0.43815 v 0.70485 l 0.1778,0.37465 0.26035,0.36195 0.6223,0.26035 0.8382,0.1016 0.5842,-0.15875 0.37465,-0.40005"
       style="fill:none;stroke:#000000;stroke-width:0.00273431in;stroke-linecap:round;stroke-linejoin:round"
       id="path882" />
    <path
       d="m 139.3115,14.8918 -0.15875,0.40005 -0.381,0.26035 -0.43815,0.0381 -0.36195,-0.05715 -0.3429,-0.3429 -0.0381,-0.53975 0.2413,-0.518795 0.6604,-0.29972 0.50165,-0.02032 0.5588,0.05969 0.75565,0.321945 1.06045,0.3556 0.5842,0.1397 0.61595,0.04445 0.4826,-0.2413 0.1797,-0.19685 -0.0197,-0.382905 -0.38037,-0.10033 -0.4591,0.04001 -0.4826,0.18034 -0.33655,0.26289 -0.5588,0.4572 -0.6858,0.88265 -0.57785,0.8382 -0.4826,0.8001 -0.4953,1.06045 -0.381,1.0795 -0.15875,0.559435 0.019,0.56007 m -0.0634,-3.69761 h 2.80035"
       style="fill:none;stroke:#000000;stroke-width:0.00273431in;stroke-linecap:round;stroke-linejoin:round"
       id="path884" />
    <path
       d="m 145.3882,16.65075 0.8636,-0.12065 0.75565,-0.29845 m 0,0 1.12395,-0.762 0.4953,-0.61595 0.0825,-0.3429 -0.19685,-0.379095 -0.5461,-0.280035 -0.57785,-0.04001 -0.85725,0.10033 -0.64135,0.281305 -0.36195,0.4572 -0.019,0.53975 0.26035,0.5207 1.23825,1.06045 0.67945,0.6985 0.3048,0.50165 v 0.74295 l -0.40005,0.75565 -0.56515,0.502285 -0.8763,0.419735 -1.1811,0.08033 -0.9398,-0.439737 -0.5207,-0.70231 -0.0381,-0.89535 0.40005,-0.762 0.57785,-0.3429 0.8001,-0.19685 0.46355,0.0762 0.4191,0.18415 0.19685,0.2794 0.0635,0.33655"
       style="fill:none;stroke:#000000;stroke-width:0.00273431in;stroke-linecap:round;stroke-linejoin:round"
       id="path886" />
    <path
       d="m 153.94875,16.3904 -0.1397,0.46355 -0.43815,0.5588 -0.2794,0.26035 -0.8382,0.1397 -0.5207,-0.1016 -0.2032,-0.43815 0.019,-0.6985 0.4445,-0.88265 0.4191,-0.6985 0.57785,-0.50165 0.6985,-0.37973 0.98425,-0.160655 0.5207,0.299085 0.33655,0.5207 -0.019,0.8001 -0.1778,0.95885 -0.381,0.81915 -0.60325,1.1049 -0.61595,0.78105 -0.6223,0.53975 -0.762,0.41783 -0.64135,0.16002 -0.8001,-0.10033 -0.5969,-0.40132"
       style="fill:none;stroke:#000000;stroke-width:0.00273431in;stroke-linecap:round;stroke-linejoin:round"
       id="path888" />
    <path
       d="m 158.93235,18.7907 -0.1016,0.2413 m -0.57785,1.080135 -0.12065,0.200025"
       style="fill:none;stroke:#000000;stroke-width:0.00273431in;stroke-linecap:round;stroke-linejoin:round"
       id="path890" />
    <path
       d="m 162.5143,18.80975 -0.1397,0.2032 m -0.762,1.23952 -0.0825,-0.21971 h 0.26035 l -0.0381,0.259715 -0.26035,0.24003 -0.3429,0.259715 -0.23749,0.04001 -0.0997,0.02032"
       style="fill:none;stroke:#000000;stroke-width:0.00273431in;stroke-linecap:round;stroke-linejoin:round"
       id="path892" />
    <path
       d="m 167.29585,17.2921 -0.29845,0.2032 -0.7239,0.1397 -0.5588,0.05715 -0.8001,0.05715 0.57785,0.40005 0.8001,0.40005 0.4445,0.26035 0.1143,0.1016 0.0635,0.12065"
       style="fill:none;stroke:#000000;stroke-width:0.00273431in;stroke-linecap:round;stroke-linejoin:round"
       id="path894" />
    <path
       d="m 170.08935,17.254 h 2.41935 m -2.55905,0.57785 2.41935,-0.0381"
       style="fill:none;stroke:#000000;stroke-width:0.00273431in;stroke-linecap:round;stroke-linejoin:round"
       id="path896" />
    <path
       d="m 175.07455,17.13335 0.1397,0.2159 0.61595,0.381 1.20015,0.64135 -0.4953,0.1016 -0.8636,0.05715 -0.5207,0.1397 -0.4572,0.22225"
       style="fill:none;stroke:#000000;stroke-width:0.00273431in;stroke-linecap:round;stroke-linejoin:round"
       id="path898" />
    <path
       d="m 182.9671,15.05055 -0.1397,0.50165 -0.2794,0.381 -0.4191,0.43815 -0.381,0.1778 -0.7366,0.04445 -0.3429,-0.2032 -0.0762,-0.33655 0.1778,-0.6604 0.57785,-0.60325 0.92075,-0.4953 1.1049,-0.163195 0.65405,0.137795 0.28575,0.5207 -0.0635,0.81915 -0.43815,0.8255 -0.6604,0.71755 -0.6223,0.4572 -0.64135,0.42545 -0.4953,0.43815 -0.2413,0.33655 -0.0635,0.3429 v 0.19685 l 0.1397,0.1651 0.3048,0.05715 0.0571,-0.01905 m -0.8001,0.53975 -0.1778,0.280035"
       style="fill:none;stroke:#000000;stroke-width:0.00273431in;stroke-linecap:round;stroke-linejoin:round"
       id="path900" />
    <path
       d="m 188.77155,19.1336 0.29845,-0.2413 0.12065,-0.26035 -0.1016,-0.1778 -0.53975,0.01905 -0.67945,0.43815 -0.36195,0.32385 -0.3556,0.40005 -0.15875,0.35687 0.0572,0.18034 0.22225,0.04001 0.26035,-0.1397 0.8382,-0.678815 0.0825,-0.01905 -0.40005,0.47625 -0.0254,0.381635 0.56515,0.07937 0.75565,-0.239395 0.5842,-0.361315 0.4953,-0.5588 0.2413,-0.5588 -0.019,-0.36195 -0.26035,-0.3175 -0.6223,-0.2413 h -0.7366 l -0.74295,0.2413 -0.6604,0.33655 -0.95885,0.6985 -0.47625,0.5842 -0.26289,0.45847 -0.0394,0.50038 0.11811,0.380365 0.4191,0.280035 0.762,0.1016 0.50165,-0.01905 0.5207,-0.16256 0.5207,-0.240665 0.3175,-0.159385"
       style="fill:none;stroke:#000000;stroke-width:0.00273431in;stroke-linecap:round;stroke-linejoin:round"
       id="path902" />
    <path
       d="m 191.17175,20.132455 0.69977,0.179705 h 0.74168 l 0.78105,-0.179705 0.78105,-0.357505 0.61595,-0.42545 0.8636,-0.8763 1.016,-1.16205 0.78105,-1.1176 0.76073,-1.0795 0.7004,-0.70485 0.25972,-0.15875 0.25971,-0.01905 0.22035,0.2032 -0.44006,1.03505 -0.92011,2.0828 -0.80264,1.7018 -0.57785,0.93853 -0.15875,0.16002 h -0.2794 l -0.46355,-0.8001 -0.23495,-0.381 -0.762,-0.85725 -0.64135,-0.381 -0.74295,-0.26035 h -0.37465 l -0.26035,0.0762 -0.0445,0.1651 0.2794,0.3175 0.7239,0.26035 1.72085,0.19685 2.57873,-0.0381 h 0.69977 l 0.50038,-0.05715 0.29972,-0.0635"
       style="fill:none;stroke:#000000;stroke-width:0.00273431in;stroke-linecap:round;stroke-linejoin:round"
       id="path904" />
    <path
       d="m 203.21605,16.4539 -0.32385,-0.32385 -0.64135,-0.1778 -0.57785,-0.0381 -0.381,-0.18415 -0.4191,-0.26035 -0.0571,-0.26035 0.0381,-0.37465 0.5588,-0.381 1.06045,-0.15875 0.78105,-0.0254 0.8763,0.1397 0.4826,0.2794 0.22225,0.381 v 0.36195 l -0.2413,0.6223 -0.60325,1.27635 -0.81915,1.40335 -0.8001,1.13919 -0.75565,0.91948 -0.32385,0.36068 -0.2794,0.1778 -0.15875,0.1016 -0.16129,-0.05715 -0.0597,-0.2032 -0.04,-0.219075 0.26099,-0.540385 0.5969,-0.98044 1.0033,-1.2827 1.30175,-1.33985 1.23825,-1.17475 0.8382,-0.5842 0.8617,-0.50165 0.61975,-0.19685 0.53975,-0.05715 0.24067,0.1397 0.0197,0.2159 -0.28004,0.5207 -0.68009,0.57785 -0.85788,0.5842 -0.4826,0.3175 -0.9779,0.53975 0.6985,-0.2413 h 0.5969 l 0.5226,0.12065 0.28004,0.50165 -0.0394,0.5588 -0.44069,0.8001 -0.57658,0.6604 -0.6223,0.481965 -0.81915,0.339725 -0.67945,0.100012 -0.4826,-0.08001 -0.381,-0.180022 -0.0762,-0.140335 0.0381,-0.21971 0.26035,-0.07937 h 3.73888"
       style="fill:none;stroke:#000000;stroke-width:0.00273431in;stroke-linecap:round;stroke-linejoin:round"
       id="path906" />
    <path
       d="m 209.29455,17.1905 0.9017,-0.05715 0.85725,-0.29845 0.9779,-0.4445 0.9017,-0.47625 0.74295,-0.4445 0.67945,-0.57785 0.2159,-0.26035 0.0444,-0.2794 -0.29845,-0.1016 -0.56515,0.08255 -1.20015,0.71755 -1.1176,0.9017 -0.71755,0.8001 -0.74295,0.85725 -0.74295,1.1049 -0.33719,0.89535 0.08,0.682625 0.40323,0.380365 0.57785,0.05969 0.6985,-0.200025 0.8001,-0.280035 0.71755,-0.56007 0.94615,-0.8382"
       style="fill:none;stroke:#000000;stroke-width:0.00273431in;stroke-linecap:round;stroke-linejoin:round"
       id="path908" />
    <path
       d="m 220.17731,14.07138 -0.57721,0.36322 -0.9652,1.13665 -0.9779,1.30175 -1.0795,1.65735 -0.88265,1.2446 -0.37465,0.49784 -0.46355,0.43942 -0.33655,0.160655 -0.38354,0.01968 -0.11938,-0.18034 0.19812,-0.35941 0.98425,-1.1811 0.99695,-0.78105 0.5207,-0.2794 0.57785,-0.2794 0.40005,-0.01905 0.3048,0.2413 0.0381,0.381 -0.1016,1.57734 0.2413,0.26035 h 0.381 l 0.47625,-0.300355 0.6223,-0.641985 1.04013,-1.41605 0.96075,-1.47955 0.37973,-1.0033 0.20003,-0.5969 -0.04,-0.5842 -0.25971,-0.17907 -0.40005,-0.03937 -0.68009,0.21844 -0.90043,0.6985 -0.71945,0.9652 -0.40005,0.7366 -0.2032,0.81915 0.0445,0.5207 0.29845,0.4445 0.64135,0.1778 0.65849,-0.0635 0.7601,-0.37465 0.73977,-0.381 0.60008,-0.3429 0.18034,-0.1397 0.32004,-0.0381"
       style="fill:none;stroke:#000000;stroke-width:0.00273431in;stroke-linecap:round;stroke-linejoin:round"
       id="path910" />
    <path
       d="m 222.58075,14.2949 2.03835,0.15875 1.5621,0.05715 1.2573,-0.0381 1.22047,-0.0381 0.72009,-0.18415 0.25971,-0.17907 -0.40005,-0.09969 -0.77978,0.120015 -0.56324,0.05715 -0.8382,0.26035 -0.92075,0.2794 -1.397,0.64135 -0.81915,0.50165 -0.3429,0.3429 -0.15875,0.3175 0.0762,0.22225 0.3048,0.05715 h 0.9779 l 1.7018,-0.22225 0.3175,-0.05715 0.29845,0.0381 0.0445,0.1397 -0.1016,0.2032 -0.53975,0.381 -2.24155,1.06045 -1.1176,0.75565 -0.381,0.5207 -0.0381,0.50165 0.4191,0.21971 1.1811,-0.05969 1.55575,-0.16002 0.64135,0.01968 0.381,0.04001 0.19685,0.12065 0.26035,0.21971"
       style="fill:none;stroke:#000000;stroke-width:0.00273431in;stroke-linecap:round;stroke-linejoin:round"
       id="path912" />
    <path
       d="m 229.8402,14.9934 -0.28004,-0.18415 -0.0203,-0.12065 1.8815,0.08255 1.7399,-0.0381 1.27635,-0.12065 1.52273,-0.2413 0.68008,-0.239395 0.40005,-0.21971 0.0203,-0.160655 -0.60007,-0.03937 -0.85979,0.32004 -0.43942,0.33909 -0.50165,0.46355 -0.95885,1.17475 -0.8636,1.12395 -0.81915,1.2573 -0.67945,1.06045 -0.6604,0.64135 -0.4953,0.24003 -0.2413,0.100012 -0.16193,-0.120332 v -0.21971 m 0.89853,-2.45745 3.38455,-0.0635 -0.40005,0.22225 -0.18415,0.1778 v 0.1016"
       style="fill:none;stroke:#000000;stroke-width:0.00273431in;stroke-linecap:round;stroke-linejoin:round"
       id="path914" />
    <path
       d="m 234.70286,15.91415 0.59754,0.0762 0.92075,-0.1778 0.81915,-0.381 0.6858,-0.381 0.40005,-0.33655 0.23495,-0.2794 0.0825,-0.1651 -0.0381,-0.137795 -0.2032,-0.0997 -0.61595,0.11684 -0.8001,0.40005 -0.64135,0.50165 -0.6223,0.60325 -0.40005,0.4953 -0.1778,0.4826 0.0762,0.381 0.2032,0.2413 0.40005,0.0762 0.5588,0.01905 0.67945,-0.1397 0.9398,-0.40005 1.143,-0.635 0.81915,-0.60325 1.43954,-1.16205 -1.54114,1.3843 -0.7366,0.9017 -0.8001,1.09855 -0.8001,1.0795 -0.56515,0.7366 -0.40005,0.54229 -0.4191,0.360362 -0.40005,0.240348 -0.26035,0.01969 -0.12065,-0.04001 -0.19685,-0.24003 -0.1397,-0.45974 0.1016,-0.46101 0.3175,0.26035 0.6604,0.06032 0.8382,-0.06032 0.5842,-0.1778 0.57785,-0.2032 1.30175,-0.5969"
       style="fill:none;stroke:#000000;stroke-width:0.00273431in;stroke-linecap:round;stroke-linejoin:round"
       id="path916" />
    <path
       d="m 243.1237,16.1745 -0.23495,-0.26035 -0.6604,-0.2032 -0.8636,-0.2413 -0.57785,-0.29845 -0.12065,-0.3175 0.12065,-0.3429 0.53975,-0.33655 0.8001,-0.18288 h 1.23825 l 0.5842,0.10033 0.3175,0.2032 0.2794,0.37465 v 0.60325 l -0.5207,0.99695 -1.58115,2.6035 -0.6604,0.8763 -0.7366,0.82296 -0.6604,0.59944 -0.44133,0.26035 h -0.21971 l 0.04,-0.26035 0.37973,-0.699453 0.9398,-0.818197 2.1209,-1.524 3.14071,-2.03835 1.36017,-0.99695 0.64008,-0.6223 0.3194,-0.40132 -0.0997,-0.259715 -0.28004,0.05969 -0.57975,0.321945 -0.7601,0.71755 -0.6604,0.88265 -0.62293,0.7366 -0.61595,0.88265 -0.8636,1.44145 -0.33655,0.75565 -0.019,0.54229 0.26035,0.20066 h 0.3556 l 0.4826,-0.26035 0.4826,-0.40005 0.95694,-0.8382"
       style="fill:none;stroke:#000000;stroke-width:0.00273431in;stroke-linecap:round;stroke-linejoin:round"
       id="path918" />
    <path
       d="m 251.9865,14.66955 -0.5588,0.6223 -1.3208,1.86055 -1.143,1.7018 -0.99695,1.278255 -0.1778,0.220345 h -0.26035 v -0.220345 m 4.75615,-5.100955 0.40005,-0.36195 0.18415,-0.4191 -0.18415,-0.278765 -0.75565,-0.05969 -0.92075,0.262255 -1.1811,0.5588 -1.02235,0.6604 -0.85725,0.67945 -0.50165,0.6604 -0.1397,0.3556 0.0603,0.28575 0.32068,0.2159 0.5588,0.0635 0.9017,-0.0635 1.61925,-0.26035 0.57785,-0.0762 0.32385,-0.0635 0.3175,0.1016 0.46355,0.1397"
       style="fill:none;stroke:#000000;stroke-width:0.00273431in;stroke-linecap:round;stroke-linejoin:round"
       id="path920" />
    <path
       d="m 259.21213,13.67133 -0.28004,0.200025 -0.50038,0.563245 -0.74041,0.89535 -0.5988,0.92075 -0.88265,1.44145 -0.5588,0.9779 -0.71755,1.32207 -0.762,1.28143 -0.6223,0.95885 -0.57785,0.6223 -0.40005,0.4191 -0.3175,0.1397 -0.58293,0.05715 -0.24003,-0.3556 -0.21971,-0.5207 0.16002,-0.9398 0.21971,-0.60198 0.70104,-0.90043 0.85725,-0.85979 0.9398,-0.6223 1.54305,-0.99695 1.51765,-0.88265 1.16205,-0.75565 0.69977,-0.7239 0.16002,-0.40005 -0.0997,-0.40005 -0.16001,-0.1397 -0.24004,-0.0381 -0.61976,0.01905 -1.20078,0.26035 -1.4224,0.6604 -1.09855,0.85725 -0.67945,0.8001 -0.3429,0.95885 0.12065,0.70485 0.32385,0.4191 0.67945,0.2794 0.57785,0.05715 0.84455,-0.0762 0.65405,-0.1778 0.5842,-0.2413"
       style="fill:none;stroke:#000000;stroke-width:0.00273431in;stroke-linecap:round;stroke-linejoin:round"
       id="path922" />
    <path
       d="m 260.4318,16.111 -0.1397,-0.19685 -0.2032,-0.12065 -0.8001,-0.12065 -0.7366,-0.12065 -0.58102,-0.2032 -0.24067,-0.1397 -0.0197,-0.37465 0.24003,-0.32385 0.60135,-0.2413 0.92075,-0.1778 1.4986,0.02032 0.53975,0.18288 0.26035,0.3175 0.0381,0.53975 -0.26035,0.74295 -0.5969,1.23825 -0.88265,1.23825 -0.9398,1.23825 -0.4572,0.522605 -0.32385,0.340042 -0.21844,0.04001 0.0406,-0.220027 0.12065,-0.200025 m 8.56043,-6.621145 -0.36068,0.04064 -0.52006,0.339725 -0.65977,0.46228 -0.85978,0.7366 -0.69914,0.64135 -0.7239,0.6223 -0.51435,0.3556 -0.42545,0.3048 -0.3556,0.05715 -0.12065,-0.05715 0.0571,-0.2413 0.22225,-0.381 0.57785,-0.4572 0.32385,-0.0635 0.26035,0.12065 -0.0444,0.2794 -0.26035,0.71755 -0.4572,1.2827 -0.26035,1.0033 -0.0825,0.63754 0.1397,0.419735 0.4445,0.120015 0.43815,-0.10033 0.36195,-0.09969 0.2794,-0.200025 0.37846,-0.35814 0.60008,-0.8001"
       style="fill:none;stroke:#000000;stroke-width:0.00273431in;stroke-linecap:round;stroke-linejoin:round"
       id="path924" />
    <path
       d="m 266.2945,16.13005 1.4351,0.04445 1.30175,-0.22225 1.23825,-0.29845 0.92075,-0.2794 1.04267,-0.46355 0.73978,-0.43815 0.33972,-0.340995 -0.0597,-0.200025 -0.32004,-0.04001 -0.49975,0.08001 -0.64071,0.323215 -0.50038,0.37465 -0.6604,0.762 -0.8763,1.0414 -1.58115,2.0574 -1.0795,1.38176 -0.4826,0.48006 -0.5588,0.32004 -0.18415,0.18034 -0.29718,-0.04001 -0.0997,-0.179705 0.20003,-0.5207 0.64135,-0.54229 0.57785,-0.43815 0.381,-0.19685 0.29845,-0.1016 0.6604,-0.01905 0.7239,0.19685 0.43815,0.36195 0.6604,0.51943 0.47625,0.300355 0.64135,0.07937 0.48133,-0.05969 0.53975,-0.300355"
       style="fill:none;stroke:#000000;stroke-width:0.00273431in;stroke-linecap:round;stroke-linejoin:round"
       id="path926" />
    <path
       d="m 276.4538,15.91415 -0.4826,0.6604 -0.57785,0.51435 -0.5207,0.32385 -0.6223,0.05715 -0.2775,-0.3175 0.16003,-0.53975 0.54292,-0.6985 0.9779,-0.98425 0.6985,-0.4572 0.5588,-0.2794 0.6604,-0.08128 0.32385,0.20193 0.15875,0.4572 -0.1397,0.60325 -0.4826,1.27635 -0.6985,1.02235 -0.6985,1.016 -0.6223,0.8001 -0.53975,0.60325 -0.29845,0.21971 h -0.12065 l -0.1397,-0.05969 -0.019,-0.21971 0.381,-0.75946 1.03505,-1.2192 0.78105,-0.92075 0.5207,-0.4826 0.8636,-0.67945 0.7366,-0.4572 0.29845,-0.1397 0.4445,-0.0254 0.0953,0.18415 -0.0953,0.381 -0.6604,1.1557 -0.9017,1.36525 -0.9017,1.09855 -0.381,0.45847 -0.0571,0.240665 0.4826,-0.438785 1.3589,-1.20015 1.2573,-1.12395 0.82105,-0.6604 0.36005,-0.1778 h 0.20002 l 0.0203,0.26035 -0.14033,0.22225 -1.03886,1.37795 -0.6223,0.8382 -0.2413,0.60198 -0.0381,0.32004 0.2413,0.200025 0.3175,-0.02 0.4445,-0.199707 0.55753,-0.320675 1.09982,-1.05791"
       style="fill:none;stroke:#000000;stroke-width:0.00273431in;stroke-linecap:round;stroke-linejoin:round"
       id="path928" />
    <path
       d="m 284.6135,16.873 0.12065,-0.53975 0.2413,-0.53975 0.2413,-0.12065 -0.2032,0.5969 -0.22225,0.2413 -0.6985,0.6223 -0.5969,0.381 -0.6223,0.09525 -0.37973,-0.1397 -0.0597,-0.4572 0.56007,-0.9398 0.81915,-0.8382 0.9017,-0.6223 0.9398,-0.3175 h 0.4826 l 0.37465,0.2159 0.1651,0.4826 -0.18415,0.6985 -0.47625,1.16205 -0.42545,0.61595 -0.67945,1.0033 -0.6604,0.9017 -0.6604,0.65786 -0.2794,0.32004 -0.26035,0.119697 -0.26035,-0.08033 0.0635,-0.339725 0.26035,-0.398145 1.016,-1.33985 1.26365,-1.26365 1.1811,-0.9398 0.9779,-0.5969 0.46355,-0.2032 h 0.29718 l 0.0406,0.15875 -0.10287,0.3048 -1.6383,2.2606 -0.50165,0.65405 -0.40005,0.70485 -0.2159,0.59817 0.12065,0.26035 0.3175,0.10033 0.4826,-0.26035 0.47625,-0.26035 1.2192,-0.9779"
       style="fill:none;stroke:#000000;stroke-width:0.00273431in;stroke-linecap:round;stroke-linejoin:round"
       id="path930" />
    <path
       d="m 292.69405,15.9713 0.019,-0.2413 0.18415,-0.29845 0.71755,-0.4572 0.2794,-0.2413 0.2032,-0.2794 -0.019,-0.38227 -0.22225,-0.21971 -0.53975,-0.05969 -0.78105,0.24003 -0.95885,0.63754 -1.12395,1.22555 -0.8001,1.23825 -0.40005,0.92075 -0.13716,0.8001 0.0197,0.8001 0.25717,0.457835 0.53975,0.240665 0.64135,-0.04064 0.64135,-0.259715 0.4191,-0.239395 0.8636,-0.762 0.81915,-0.9779 0.6604,-1.143 0.2794,-0.81915 0.1397,-0.762 -0.0571,-0.3556 -0.1651,-0.18415 -0.4953,-0.2159 -0.762,0.09525 -1.0033,0.56515 -0.75565,0.71755 -0.53975,0.9779 -0.26035,0.8001 v 0.84455 l 0.47625,0.75565 0.762,0.22225 0.78105,0.08255 0.7366,-0.22225 1.06045,-0.5588"
       style="fill:none;stroke:#000000;stroke-width:0.00273431in;stroke-linecap:round;stroke-linejoin:round"
       id="path932" />
    <path
       d="m 297.53285,16.65075 -0.0571,-0.36195 -0.40005,-0.43815 -0.6223,-0.33655 -0.43815,-0.26035 -0.36195,-0.26035 -0.2032,-0.381 0.1016,-0.26035 0.381,-0.28067 0.5588,-0.1397 h 0.78105 l 0.7239,0.120015 0.65405,0.243205 0.381,0.29845 0.15875,0.5588 -0.0571,0.5588 -0.381,0.8636 -0.7366,1.27635 -0.64135,0.88265 -0.8382,1.0414 -0.46355,0.47752 -0.5207,0.40005 -0.43879,0.1397 h -0.04 v -0.259715 l 0.45974,-0.821055 0.9017,-1.1811 1.1557,-1.2954 0.74295,-0.762 0.92075,-0.81915 1.2827,-0.9398 0.89725,-0.5207 0.60008,-0.141605 0.21971,0.01968 0.16066,0.12192 0.0597,0.19685 -0.32004,0.6604 -0.60008,0.9398 -0.58039,0.5207 -0.55753,0.4191 -0.3429,0.12065 -0.2794,0.0381 -0.2413,-0.1143 -0.19685,-0.1397 -0.1016,-0.2413"
       style="fill:none;stroke:#000000;stroke-width:0.00273431in;stroke-linecap:round;stroke-linejoin:round"
       id="path934" />
    <path
       d="m 304.8547,15.4887 -0.5842,0.70485 -0.71755,0.57785 -0.95885,0.4826 -0.8636,0.1397 -0.3556,-0.18415 -0.0254,-0.4191 0.36195,-0.7366 0.95885,-0.92075 1.2446,-0.67945 1.0795,-0.42164 0.78105,-0.06032 0.69723,0.09969 0.28004,0.38227 0.08,0.47625 -0.1797,0.53975 -0.54039,0.9017 -0.94043,1.0033 -1.06045,1.1176 -1.4986,1.2192 -0.88265,0.70104 -0.8763,0.48006 -0.53975,0.200025 -0.30226,-0.08001 -0.10033,-0.200025 0.19939,-0.48006 0.64135,-0.55753 0.9779,-0.5207 0.5842,-0.2794 0.33655,-0.04445 0.53975,0.04445 0.53975,0.2794 0.81915,0.47625 0.56515,0.342265 0.61595,0.200025 0.60198,-0.08001 0.29972,-0.06032 0.57976,-0.300355"
       style="fill:none;stroke:#000000;stroke-width:0.00273431in;stroke-linecap:round;stroke-linejoin:round"
       id="path936" />
    <path
       d="m 311.6541,16.26975 -0.1651,-0.4191 -0.3937,-0.2794 -1.0033,-0.29845 -0.57785,-0.40005 -0.1016,-0.3429 0.26035,-0.2794 0.53975,-0.198755 1.06045,-0.04001 0.762,0.120015 0.635,0.277495 0.381,0.4826 v 0.4826 l -0.1016,0.635 -0.43815,0.88265 -0.50165,0.88265 -0.9779,1.2954 -0.9779,1.08204 -0.50165,0.42037 -0.2032,0.1397 -0.2159,0.08001 -0.12129,-0.16002 0.0997,-0.37973 0.45974,-0.76327 0.95885,-1.1938 1.3208,-1.40335 0.92075,-0.85725 1.2192,-0.9017 1.06172,-0.6223 0.81979,-0.33655 0.60007,-0.08255 0.24066,0.1016 0.0597,0.0762 -0.0203,0.32385 -0.25972,0.4572 -0.54038,0.67945 -0.69977,0.70485 -0.53785,0.4191 -0.22225,0.1397 -0.40005,0.1397 -0.2032,-0.01905 -0.33655,-0.08255 -0.26035,-0.1397 -0.12065,-0.1778 -0.1397,-0.2794 0.2032,-0.0254 -0.0444,1.8034 0.1016,0.762 0.40005,0.95758 0.4191,0.37973 h 0.50165 l 0.81979,-0.51816 0.95948,-0.98425"
       style="fill:none;stroke:#000000;stroke-width:0.00273431in;stroke-linecap:round;stroke-linejoin:round"
       id="path938" />
    <path
       d="m 317.6129,20.432492 0.57785,-0.120332 0.8636,-0.360045 1.4986,-0.697865 1.4605,-0.88265 2.36029,-1.44145 1.29985,-1.0795 0.86042,-0.81915 0.22035,-0.3429 0.16002,-0.2794 0.0197,-0.2159 -0.08,-0.12192 -0.18034,-0.01968 -0.36004,0.08001 -0.69977,0.480695 -0.44006,0.53975 -0.60007,0.85725 -0.45974,0.8255 -0.54039,0.99695 -0.70294,1.26365 -0.53975,0.6985 -0.61595,0.438785 h -0.50165 l -0.57785,-0.320675 -0.50165,-0.58166 -0.5207,-0.7366 -0.4572,-0.5588 -0.64135,-0.4826 -0.46355,-0.1397 -0.47625,0.05715 -0.20193,0.2413 0.25908,0.381 0.8636,0.2794 2.0955,0.2413 h 2.0447 l 1.47828,-0.1397 1.01981,-0.2032"
       style="fill:none;stroke:#000000;stroke-width:0.00273431in;stroke-linecap:round;stroke-linejoin:round"
       id="path940" />
    <path
       d="m 325.79487,14.9934 -0.37973,-0.15875 V 14.6886 l 1.03886,0.2413 h 1.524 1.83515 l 1.5621,-0.15875 1.16078,-0.26035 0.84011,-0.26035 0.25971,-0.198755 0.0597,-0.21971 -0.28004,-0.120015 -0.73977,0.09969 -0.69977,0.280035 -0.63881,0.4572 -0.9017,0.9017 -0.95885,1.33985 -0.762,1.16205 -0.6223,1.02235 -0.51435,0.7366 -0.3048,0.32131 -0.381,0.32004 -0.0953,0.119697 -0.36195,0.04001 0.019,-0.200342 0.1397,-0.2794"
       style="fill:none;stroke:#000000;stroke-width:0.00273431in;stroke-linecap:round;stroke-linejoin:round"
       id="path942" />
    <path
       d="m 332.9752,16.37135 h 0.0635 l 0.3175,-0.7366 0.0826,-0.22225 0.15875,0.05715 -0.5588,0.70485 -0.4826,0.4572 -0.5588,0.36195 -0.762,0.2159 -0.40005,-0.0762 -0.15939,-0.32385 0.0997,-0.4191 0.54229,-0.81915 0.8001,-0.6985 0.95885,-0.57785 0.762,-0.30353 0.4572,-0.120015 0.64135,0.10033 0.26035,0.342265 -0.0381,0.37465 -0.26035,0.6858 -0.6858,0.95885 -0.9144,1.2192 -1.16205,1.58115 -0.22225,0.381 -0.0762,0.35814 0.2159,0.2794 0.381,0.04064 0.6604,-0.26035 0.8001,-0.50038 1.02235,-0.88265 1.0795,-1.016 1.01854,-1.16205 0.58039,-0.78105 0.12001,-0.3175 -0.0603,-0.15875 h -0.0997 l -0.54039,0.3175 -0.72009,0.762 -0.8382,1.0795 -0.53975,0.85725 -0.32385,0.5842 -0.26035,0.635 0.0254,0.702945 0.29845,0.300355 0.53975,0.01969 0.3175,-0.1397 0.53975,-0.34036 0.82169,-1.038225"
       style="fill:none;stroke:#000000;stroke-width:0.00273431in;stroke-linecap:round;stroke-linejoin:round"
       id="path944" />
    <path
       d="m 340.23685,16.2507 -0.15875,-0.29845 -0.53975,-0.26035 -0.74295,-0.12065 -0.8001,-0.15875 -0.35878,-0.1778 -0.15938,-0.3048 0.08,-0.381 0.4826,-0.29845 0.51435,-0.118745 0.9017,-0.08001 0.8382,0.04 0.7239,0.12065 0.50165,0.2794 0.1397,0.40005 -0.0444,0.6985 -0.29845,0.67945 -0.7366,1.5621 -0.60325,0.95885 -0.53975,0.762 -0.36195,0.559435 -0.2159,0.200025 -0.12065,0.160337 h -0.26035 l -0.0635,-0.160337 0.1016,-0.419735 0.26035,-0.377825 0.381,-0.50165 0.50165,-0.53975 0.635,-0.60325 1.2827,-1.09855 1.9812,-1.4605 0.65976,-0.43815 1.02045,-0.5207"
       style="fill:none;stroke:#000000;stroke-width:0.00273431in;stroke-linecap:round;stroke-linejoin:round"
       id="path946" />
    <path
       d="m 344.84105,16.57455 0.0571,-0.26035 -0.12065,-0.2032 -0.5207,-0.26035 -0.6604,-0.1397 -0.5969,-0.1778 -0.42037,-0.15875 -0.24003,-0.12065 -0.24035,-0.36195 v -0.29845 l 0.22003,-0.26035 0.76327,-0.30099 0.9144,-0.08065 1.143,0.08065 0.85725,0.32004 0.40005,0.53975 0.1016,0.6985 -0.1397,0.8636 -0.57785,1.2573 -0.67945,1.16205 -0.67945,0.9017 -0.6604,0.697547 -0.28575,0.200343 -0.2794,0.03937 -0.0762,-0.159703 0.1016,-0.359727 0.6985,-0.95758 1.016,-1.12395 0.6223,-0.61595 1.4224,-1.1811 0.7366,-0.4826 0.2413,-0.12065 0.2413,-0.05715 0.12065,0.01905 0.0381,0.22225 -0.0571,0.2159 -1.54305,3.302 -0.19685,0.479425 -0.0254,0.18034 0.32385,-0.380365 0.4572,-0.4572 0.762,-0.9652 0.8401,-0.8763 0.96012,-0.9017 1.00013,-0.81915 0.88011,-0.60325 0.64008,-0.33655 0.58039,-0.2794 -0.6604,0.5207"
       style="fill:none;stroke:#000000;stroke-width:0.00273431in;stroke-linecap:round;stroke-linejoin:round"
       id="path948" />
    <path
       d="m 352.6395,16.54915 0.5969,-0.99695 0.0635,0.08255 -0.67945,0.71755 -0.6223,0.57785 -0.9398,0.4826 -0.5207,0.08255 -0.2413,-0.08255 -0.1778,-0.32385 0.15875,-0.61595 0.381,-0.6604 0.8001,-0.8636 0.8001,-0.53975 1.02235,-0.437515 0.71755,-0.10033 0.5207,0.277495 0.1778,0.6604 -0.1143,0.8001 -1.0033,3.32105 -0.0825,0.762 0.1016,0.40005 0.4826,0.26035 0.53975,0.03937 0.53975,-0.159385 0.381,-0.240665 0.55817,-0.40132 0.78041,-0.75565 m 1.39954,-4.22275 0.48006,-0.46355 0.0406,-0.177165 -3.20167,2.259965 -2.66065,2.1209 -1.1176,1.02235 -0.98425,0.9779"
       style="fill:none;stroke:#000000;stroke-width:0.00273431in;stroke-linecap:round;stroke-linejoin:round"
       id="path950" />
    <path
       d="m 360.91935,15.91415 -0.53975,0.5588 -0.57785,0.5588 -0.5588,0.3429 -0.7239,0.15875 -0.43815,-0.15875 -0.0825,-0.70485 0.5842,-0.9779 1.1176,-0.81915 0.9398,-0.5207 1.09855,-0.24003 0.6858,0.25908 0.1397,0.5588 -0.3048,0.74295 -0.61595,0.99695 -1.7018,1.92405 -0.6223,0.9779 -0.1397,0.60071 0.22225,0.260032 0.6985,-0.140017 1.0414,-0.657225 2.03835,-1.8415 1.36144,-1.3208 0.42037,-0.67945 0.0997,-0.381 m 0.08,0 h -0.3194 l -1.08077,0.9398 -0.85979,1.1811 -0.8001,0.9779 -1.3589,1.76149 -1.3589,1.87706 -1.44145,2.2225 -0.36132,0.762 -0.04,0.29845 0.42037,0.15875 0.67945,-0.43815 1.0033,-1.1176 0.4191,-0.70485 0.0953,-0.5969 -0.1778,-0.381 -0.4826,-0.26035 -0.5969,-0.01905 -0.29845,0.0381 2.00025,-0.762 1.4605,-0.837248 1.1811,-0.699452 0.69723,-0.5207 0.60007,-0.43815"
       style="fill:none;stroke:#000000;stroke-width:0.00273431in;stroke-linecap:round;stroke-linejoin:round"
       id="path952" />
    <path
       d="m 371.72265,16.54915 -0.0203,-0.26035 -0.21971,-0.2794 -0.73787,-0.23495 -1.12395,-0.1397 -1.016,-0.14605 -0.4826,-0.2159 -0.26035,-0.381 0.3175,-0.64135 0.762,-0.338455 1.23825,-0.10033 0.98425,0.04001 1.09918,0.21971 0.77979,0.33782 0.57975,0.4826 0.20066,0.4826 -0.0203,0.4953 -0.40005,0.56515 -0.96012,0.85725 -1.52019,1.0795 -1.30175,0.762 -1.6383,0.95885 -1.72085,0.760095 -0.5207,0.120015 -0.25908,-0.0997 0.0203,-0.220345 0.49911,-0.440055 0.9017,-0.501015 0.6604,-0.29845 0.53975,-0.0381 0.47625,0.0762 0.50165,0.12065 0.7239,0.36068 1.1557,0.440055 h 0.62166 l 0.74041,-0.0997 0.49975,-0.18034 0.74041,-0.4572"
       style="fill:none;stroke:#000000;stroke-width:0.00273431in;stroke-linecap:round;stroke-linejoin:round"
       id="path954" />
    <path
       d="m 380.1806,13.35129 -2.0574,0.02032 -1.2573,4.47929 -1.08585,3.87985 2.0828,0.04445"
       style="fill:none;stroke:#000000;stroke-width:0.00273431in;stroke-linecap:round;stroke-linejoin:round"
       id="path956" />
    <path
       d="m 381.92695,12.531505 0.15875,1.718945 0.1397,2.159 -0.0825,1.8415 -0.019,1.58115 -0.0762,1.47955"
       style="fill:none;stroke:#000000;stroke-width:0.00273431in;stroke-linecap:round;stroke-linejoin:round"
       id="path958" />
    <path
       d="m 387.40645,13.35129 2.159,0.02032 -2.34315,8.35914 h -1.9558"
       style="fill:none;stroke:#000000;stroke-width:0.00273431in;stroke-linecap:round;stroke-linejoin:round"
       id="path960" />
    <path
       d="m 390.94985,19.5527 0.47625,-0.22225 0.2794,-0.19685 0.15875,-0.15875 0.1016,0.19685 0.0635,0.22225 0.1778,0.2159"
       style="fill:none;stroke:#000000;stroke-width:0.00273431in;stroke-linecap:round;stroke-linejoin:round"
       id="path962" />
    <path
       d="m 394.8424,20.41249 2.52095,0.06001"
       style="fill:none;stroke:#000000;stroke-width:0.00273431in;stroke-linecap:round;stroke-linejoin:round"
       id="path964" />
    <path
       d="m 400.5515,17.5334 0.40005,0.33655 0.53975,0.22225"
       style="fill:none;stroke:#000000;stroke-width:0.00273431in;stroke-linecap:round;stroke-linejoin:round"
       id="path966" />
    <path
       d="m 403.90885,19.1717 h 0.0597 l 0.22161,-0.1778 0.15875,-0.22225 0.0381,-0.1397 -0.0953,-0.1397 -0.18288,-0.0381 -0.36005,0.01905 -0.52006,0.3175 -0.48006,0.4191 -0.40005,0.42545 -0.1397,0.29718 0.019,0.24003 h 0.26035 l 0.22225,-0.0997 0.39815,-0.297815 0.44005,-0.3429 0.08,-0.0381 -0.37973,0.498475 -0.0203,0.280035 0.1397,0.18034 0.26035,-0.08001 0.61849,-0.380365 0.6223,-0.422275 0.78105,-0.61595"
       style="fill:none;stroke:#000000;stroke-width:0.00273431in;stroke-linecap:round;stroke-linejoin:round"
       id="path968" />
    <path
       d="m 409.09245,15.0315 -1.40335,1.89865 -0.89535,1.2827 -0.54293,0.88265 -0.32004,0.5588 -0.08,0.35814 0.08,0.200025 0.20003,-0.04001 0.24003,-0.16002 0.28003,-0.23749 0.18098,-0.32385 0.0762,-0.3556 v -0.28575 l -0.0953,-0.26035 -0.24194,-0.19685 -0.50006,-0.12065 -0.28035,0.1397 -0.15939,0.26035 0.0197,0.22225 0.10033,0.26035 0.19939,0.23495 0.38036,0.2413 0.25972,0.0635 0.4826,-0.01905 0.40005,-0.18415 0.8001,-0.5969"
       style="fill:none;stroke:#000000;stroke-width:0.00273431in;stroke-linecap:round;stroke-linejoin:round"
       id="path970" />
    <path
       d="m 408.97252,19.01295 0.18034,-0.1778 0.10033,-0.14605 -0.0203,-0.09525 -0.04,-0.0635 -0.16002,-0.0381 -0.28003,0.05715 -0.53975,0.3429 -0.37846,0.40005 -0.2413,0.4826 0.0571,0.37719 0.1397,0.140335 0.40259,0.01968 0.58039,-0.2794 0.64262,-0.42291 0.9144,-0.75565"
       style="fill:none;stroke:#000000;stroke-width:0.00273431in;stroke-linecap:round;stroke-linejoin:round"
       id="path972" />
    <path
       d="m 413.7915,15.15215 -0.50165,0.762 -0.78105,1.016 -0.8001,1.0795 -0.89789,1.3208 -0.26035,0.2032 -0.40005,0.3175 -0.49911,0.30099 -0.29845,0.10033 -0.0635,-0.24003 0.18415,-0.33909 0.4572,-0.4826 0.41973,-0.3556 0.42037,-0.2413 0.29972,-0.01905 0.10033,0.23495 -0.42005,0.8001 -0.04,0.42291 0.10001,0.11938 0.42037,-0.16002 0.80137,-0.52197 0.6604,-0.61595"
       style="fill:none;stroke:#000000;stroke-width:0.00273431in;stroke-linecap:round;stroke-linejoin:round"
       id="path974" />
    <path
       d="m 412.34985,19.67335 0.50292,-0.29845 0.48006,-0.381 0.29972,-0.381 v -0.1778 l -0.24003,-0.08255 -0.37973,0.19685 -0.32004,0.3048 -0.3175,0.4191 -0.1016,0.29845 -0.0635,0.30099 0.0444,0.200025 0.27813,0.200025 0.36005,-0.02032 0.52006,-0.26035 0.58166,-0.40132 0.9017,-0.7366"
       style="fill:none;stroke:#000000;stroke-width:0.00273431in;stroke-linecap:round;stroke-linejoin:round"
       id="path976" />
    <path
       d="m 414.88975,18.8542 1.16205,-1.2827 0.53975,-0.5969 0.89535,-0.9398 0.14605,-0.2032 0.0953,0.01905 -0.61595,1.02235 -0.9017,1.33985 -1.96215,2.59969 -1.397,2.18186 -0.3429,0.53975 -0.1397,0.2794 0.1397,0.19685 h 0.1397 l 0.6985,-0.3175 0.8636,-1.02235 0.4191,-0.81915 0.26035,-0.838835 0.04,-0.659765 -0.20002,-0.48006 -0.41783,-0.32004 -0.32385,-0.0635 -0.381,0.0635 -0.2794,0.15875 -0.0571,0.16129 0.0571,0.200025 0.40005,0.280035 0.6223,0.119697 0.67945,-0.180022 0.6604,-0.360045 0.4572,-0.37973 0.70485,-0.6985"
       style="fill:none;stroke:#000000;stroke-width:0.00273431in;stroke-linecap:round;stroke-linejoin:round"
       id="path978" />
    <path
       d="m 417.89315,19.01295 0.33655,-0.3429 0.1397,-0.26035 -0.2794,-0.1397 -0.41847,0.04445 -0.47974,0.29845 -0.74009,0.53975 -0.5207,0.6223 0.019,0.3175 0.381,0.05969 0.30099,-0.179705 0.57975,-0.419735 0.36005,-0.3175 -0.10033,-0.0635 -1.10236,1.72085 -1.41605,2.0193 -0.4445,0.6223 -0.15875,0.26035 -0.0571,-0.1397 0.3556,-0.6604 0.5842,-0.762 0.6223,-0.762 0.635,-0.57785 0.34226,-0.26035 1.01981,-0.61976 0.58103,-0.42164 0.9017,-0.7366"
       style="fill:none;stroke:#000000;stroke-width:0.00273431in;stroke-linecap:round;stroke-linejoin:round"
       id="path980" />
    <path
       d="m 421.6144,15.39345 -2.03962,3.0988 -1.12268,1.720215 0.74231,-0.678815 0.56039,-0.4826 0.31972,-0.2159 0.26035,-0.12065 0.18098,-0.0254 h 0.0762 l -0.019,0.2032 -0.47815,0.6604 -0.22035,0.37973 -0.0197,0.24003 0.2197,0.1397 0.24067,-0.09969 0.42291,-0.24003 0.51435,-0.381635 0.8001,-0.71755"
       style="fill:none;stroke:#000000;stroke-width:0.00273431in;stroke-linecap:round;stroke-linejoin:round"
       id="path982" />
    <path
       d="m 422.17277,18.6891 -0.48197,0.6604 -0.2413,0.4445 -0.0762,0.19812 v 0.16002 l 0.0572,0.12065 0.18415,-0.02032 0.61849,-0.37973 0.91821,-0.66294 0.4445,-0.3556 m -0.80328,-1.0414 -0.1397,0.2413"
       style="fill:none;stroke:#000000;stroke-width:0.00273431in;stroke-linecap:round;stroke-linejoin:round"
       id="path984" />
    <path
       d="m 423.59575,18.8542 0.72009,-0.5588 0.0997,0.1143 -0.87947,1.2827 -1.14046,1.6383 -0.6985,0.9398 -0.6223,0.92075 -0.36195,0.5207 -0.0381,0.2413 0.2032,0.1016 0.37465,-0.1397 0.64135,-0.64135 0.4826,-0.762 0.0571,-0.53975 -0.12065,-0.3175 -0.19685,-0.26035 -0.2413,-0.12065 -0.381,-0.08255 0.6985,-0.05715 0.5207,-0.1016 0.53975,-0.339725 0.92329,-0.819785 0.93726,-1.01854 m -0.2794,-1.33985 -0.19685,0.2794"
       style="fill:none;stroke:#000000;stroke-width:0.00273431in;stroke-linecap:round;stroke-linejoin:round"
       id="path986" />
    <path
       d="m 425.11275,18.8542 0.58039,-0.53975 0.46101,-0.4826 0.64135,-0.6223 0.85725,-0.8001 0.4191,-0.61595 0.12065,-0.40005 -0.1016,-0.0635 -1.06045,1.3208 -0.71755,1.0795 -0.6604,0.95885 -0.32004,0.42545 -0.67691,0.937895 v 0.140335 l 0.61722,-0.79883 0.57976,-0.5842 0.61912,-0.53975 0.60325,-0.4572 0.40005,-0.1778 0.2159,0.01905 0.0635,0.2159 -0.18415,0.2413 -0.4191,0.43815 -0.47625,0.381 -0.2413,0.12065 -0.2032,-0.0381 -0.29781,0.0381 -0.25972,-0.1397 0.30036,-0.12065 0.12001,0.04445 -0.26035,0.53975 -0.0203,0.4572 0.32004,0.34036 h 0.40259 l 0.635,-0.37846 1.16205,-0.9398"
       style="fill:none;stroke:#000000;stroke-width:0.00273431in;stroke-linecap:round;stroke-linejoin:round"
       id="path988" />
    <path
       d="m 428.37275,18.87325 h 0.04 l 0.53975,-0.381 0.94234,-0.81915 0.8382,-0.78105 0.57785,-0.6223 0.3429,-0.4953 0.0762,-0.26035 -0.0572,-0.12065 -0.12065,-0.04445 -0.2794,0.08255 -0.6223,0.46355 -0.75565,0.71755 -0.70168,0.92075 -0.60007,0.85725 -0.50165,0.92075 -0.1397,0.43815 -0.019,0.24257 0.0571,0.18034 0.16256,0.1397 0.30035,-0.07937 0.41974,-0.16002 0.57785,-0.418465 0.98425,-0.78105"
       style="fill:none;stroke:#000000;stroke-width:0.00273431in;stroke-linecap:round;stroke-linejoin:round"
       id="path990" />
    <path
       d="m 434.4543,18.8542 -0.67945,0.61595 -0.43815,0.3429 -0.5588,0.33909 -0.381,0.140335 -0.1651,-0.04001 -0.019,-0.179705 0.18415,-0.323215 0.381,-0.4572 0.1778,-0.1778 0.1016,-0.1651 V 18.8542 l -0.1651,0.05715 -0.3175,0.2413 -0.64135,0.4826 -0.51816,0.37719 -0.28067,0.120015 -0.16002,0.01968 0.0406,-0.16002 0.08,-0.11938 0.1797,-0.21844 0.2394,-0.32385 0.36195,-0.4191 0.019,-0.1778 -0.1778,-0.01905 -0.22225,0.1778 -0.40005,0.2794 -0.80074,0.64135 -0.64071,0.37973 0.58102,-0.81788 0.46038,-0.60325 0.1197,-0.1397 -0.38005,0.22225"
       style="fill:none;stroke:#000000;stroke-width:0.00273431in;stroke-linecap:round;stroke-linejoin:round"
       id="path992" />
    <path
       d="m 434.45375,18.8542 0.1397,-0.12065 0.28035,-0.2413 0.14002,-0.01905 0.04,0.0762 -0.0603,0.1651 -0.92075,1.21793 -0.1397,0.21971 0.0381,0.08065 h 0.1397 l 0.46291,-0.381635 0.74041,-0.5207 0.47943,-0.40005 0.5207,-0.2794 0.0825,-0.01905 0.0381,0.1016 -0.4191,0.53975 -0.4191,0.5207 -0.0825,0.23876 v 0.24003 l 0.22225,0.01968 0.40005,-0.24003 0.7366,-0.499745 0.81915,-0.67945"
       style="fill:none;stroke:#000000;stroke-width:0.00273431in;stroke-linecap:round;stroke-linejoin:round"
       id="path994" />
    <path
       d="m 438.0728,18.5113 -0.36036,0.32385 -0.36259,0.51435 -0.1397,0.723265 0.0635,0.280035 0.39941,0.03937 0.61976,-0.499745 0.41974,-0.638175 0.18034,-0.56515 0.1016,-0.4572 -0.0445,-0.4191 -0.3175,-0.381 -0.33973,0.01905 -0.28003,0.18415 -0.10033,0.2794 0.0406,0.4191 0.17971,0.53975 0.22034,0.2794 0.29972,0.29845 h 0.34163 l 0.33655,-0.1778 0.3048,-0.15875 0.33655,-0.26035"
       style="fill:none;stroke:#000000;stroke-width:0.00273431in;stroke-linecap:round;stroke-linejoin:round"
       id="path996" />
    <path
       d="m 442.9753,18.8542 -0.8636,0.6985 -0.43815,0.339725 -0.5842,0.360045 -0.23749,0.04001 -0.14034,-0.120015 0.0406,-0.200025 0.28004,-0.299085 0.4572,-0.57785 0.2794,-0.3048 -0.019,-0.15875 -0.0953,-0.0381 -0.36195,0.0381 -0.34036,0.1778 -0.54038,0.3429 -0.49975,0.40005 -0.58166,0.45974 -0.7366,0.760095 -0.8255,0.920115 -0.53975,0.67945 -0.43815,0.6223 -0.19685,0.4191 0.019,0.29845 0.0381,0.1397 0.22225,-0.01905 0.1397,-0.1397 0.19685,-0.2032 0.32385,-0.43815 0.78105,-0.9398 0.9779,-1.339215 0.95948,-1.397635 0.64008,-0.9017 0.92139,-1.1811 0.26035,-0.4826 -0.15875,0.1397 -0.36195,0.42545 -0.46355,0.51435 -1.1176,0.9652"
       style="fill:none;stroke:#000000;stroke-width:0.00273431in;stroke-linecap:round;stroke-linejoin:round"
       id="path998" />
    <path
       d="m 444.0483,18.97485 0.3429,-0.32385 0.1016,-0.2794 -0.12065,-0.1778 -0.56197,0.1016 -0.64072,0.37465 -0.49911,0.40005 -0.40005,0.4445 -0.1778,0.377825 -0.0254,0.200025 0.40005,0.08001 0.38227,-0.24003 0.40005,-0.27813 0.34036,-0.3048 h 0.0597 l -1.20142,1.482725 -0.92075,1.203325 -0.7366,1.06045 -0.26035,0.47625 -0.0825,0.2413 0.2032,0.1016 0.19685,-0.04445 0.36195,-0.3175 0.5207,-0.5207 0.43815,-0.6604 0.381,-0.6604 0.15875,-0.36195 0.16129,-0.417195 0.0203,-0.200025 -0.0203,-0.440055 0.34036,0.04001 0.49975,-0.1397 0.75755,-0.48133 1.1049,-0.85725"
       style="fill:none;stroke:#000000;stroke-width:0.00273431in;stroke-linecap:round;stroke-linejoin:round"
       id="path1000" />
    <path
       d="m 445.57275,18.8542 0.56007,-0.4445 0.30035,-0.33655 0.21908,-0.26035 0.0635,-0.1778 -0.18288,-0.0254 -0.26035,0.2794 -0.0597,0.1651 0.04,0.26035 0.1397,0.2159 0.18034,0.18415 -0.62007,0.75565 -0.24035,0.3429 -0.0597,0.299085 0.12002,0.10033 0.26003,-0.04001 0.77819,-0.48006 1.06045,-0.8382"
       style="fill:none;stroke:#000000;stroke-width:0.00273431in;stroke-linecap:round;stroke-linejoin:round"
       id="path1002" />
    <path
       d="m 447.87175,18.8542 0.21971,-0.1397 0.26035,-0.2032 0.18034,-0.36195 0.0997,-0.01905 -0.12001,0.5588 -0.08,0.4064 -0.0597,0.53975 -0.0403,0.29718 -0.14002,0.21971 -0.10033,0.140335 -0.17971,0.0997 -0.24003,-0.05969 -0.14287,-0.220345 0.30289,0.280035 0.46006,-0.159385 0.24035,-0.140335 0.67945,-0.43815 0.78105,-0.8001"
       style="fill:none;stroke:#000000;stroke-width:0.00273431in;stroke-linecap:round;stroke-linejoin:round"
       id="path1004" />
    <path
       d="m 451.7517,16.7714 -0.95885,1.09855 -0.78041,0.9398 -0.50229,0.67945 -0.12065,0.52324 0.0826,0.26035 0.2413,-0.04001 0.75946,-0.502285 1.10109,-0.8763 m -1.74117,-1.8796 -0.18288,-0.0635 -0.15875,-0.12065 0.64135,-0.1397 1.26365,-0.15875 1.23825,-0.0381 1.1176,-0.04445 0.88265,0.1016"
       style="fill:none;stroke:#000000;stroke-width:0.00273431in;stroke-linecap:round;stroke-linejoin:round"
       id="path1006" />
    <path
       d="m 451.67408,18.77165 -0.48133,0.46355 -0.33655,0.4191 -0.22225,0.398145 0.0825,0.140335 h 0.2159 l 0.72136,-0.50038 0.78041,-0.64135 0.25718,-0.26035 0.12065,-0.01905 -0.67818,0.8001 -0.20003,0.30099 -0.08,0.21971 0.06,0.140335 0.19971,0.04001 0.46037,-0.24003 0.60008,-0.46101 0.92075,-0.71755"
       style="fill:none;stroke:#000000;stroke-width:0.00273431in;stroke-linecap:round;stroke-linejoin:round"
       id="path1008" />
    <path
       d="m 453.8344,19.01295 0.38036,-0.22225 0.14034,0.1016 -0.26035,0.43815 -0.4826,0.92202 0.2032,-0.120015 0.69945,-0.541655 0.8182,-0.6604 0.50165,-0.33655 0.2032,-0.15875 h 0.2159 l 0.0825,0.1143 -0.15875,0.3048"
       style="fill:none;stroke:#000000;stroke-width:0.00273431in;stroke-linecap:round;stroke-linejoin:round"
       id="path1010" />
    <path
       d="m 456.49779,18.5494 -0.48006,0.46355 -0.37973,0.47625 -0.1397,0.403225 0.0191,0.16002 0.1778,0.08001 0.22225,-0.04001 0.6204,-0.4191 0.65976,-0.50165 0.52324,-0.50165 -0.56261,0.70485 -0.18034,0.3556 -0.12001,0.381635 0.0597,0.200025 0.14034,0.06033 0.42164,-0.120015 0.29845,-0.24003 0.3429,-0.33909 0.1778,-0.29845 0.0381,-0.26035 -0.0571,-0.2794"
       style="fill:none;stroke:#000000;stroke-width:0.00273431in;stroke-linecap:round;stroke-linejoin:round"
       id="path1012" />
    <path
       d="m 459.04006,18.8542 0.41974,-0.2794 -0.1397,0.5969 -0.10033,0.53975 v 0.340995 l 0.20002,0.200025 0.28004,-0.08001 0.69977,-0.42291 1.1176,-0.89535 m -0.8001,-0.4191 -0.51435,0.29845 -0.46292,0.29845 -0.48006,0.3429 -0.41973,0.40005 -0.49784,0.457835"
       style="fill:none;stroke:#000000;stroke-width:0.00273431in;stroke-linecap:round;stroke-linejoin:round"
       id="path1014" />
    <path
       d="m 461.71778,18.6129 -0.51753,0.64135 -0.2413,0.33655 -0.0826,0.32131 0.15875,0.10033 0.26289,-0.10033 0.51943,-0.34036 0.48069,-0.40005 0.43879,-0.29845 0.2413,-0.15875 0.019,0.0762 -0.85979,1.22174 -1.07696,1.29921 -0.762,0.92075 -0.6223,0.81915 -0.19685,0.381 -0.019,0.26035 0.1778,0.0381 0.5207,-0.29845 0.53975,-0.57785 0.3175,-0.4826 0.12065,-0.4572 -0.0762,-0.3048 -0.18415,-0.2794 -0.2413,-0.12065 -0.23495,-0.0762 0.71755,-0.2413 1.04013,-0.50038 1.04267,-0.61722 1.13665,-0.92075"
       style="fill:none;stroke:#000000;stroke-width:0.00273431in;stroke-linecap:round;stroke-linejoin:round"
       id="path1016" />
    <path
       d="m 463.95575,19.15265 0.60071,-0.43815 0.38036,-0.2413 0.21972,-0.08255 0.16065,0.08255 0.061,0.15875 -0.061,0.1397 -0.24067,0.2794 -0.35972,0.29845 -0.39973,0.3048 -0.74232,0.418465 0.4445,0.179705 0.23749,0.180022 0.0603,0.260033 -0.0603,0.460375 -0.21844,0.57785 -0.2794,0.381 -0.40005,0.4826 -0.5842,0.64135 -0.47625,0.4572 -0.22225,0.12065 h -0.26035 l -0.1397,-0.12065 v -0.29845 l 0.15875,-0.32385 0.1397,-0.33655 0.64135,-0.74295 0.6223,-0.5969 0.6985,-0.50165 0.40005,-0.26035 0.7601,-0.37973"
       style="fill:none;stroke:#000000;stroke-width:0.00273431in;stroke-linecap:round;stroke-linejoin:round"
       id="path1018" />
    <path
       d="m 471.31545,13.911995 -0.33655,-0.140335 -0.60325,-0.08001 -0.40005,0.120015 -0.29845,0.457835 -0.0825,0.67945 -0.1397,1.0033 -0.12065,0.67945 -0.1778,0.3429 -0.2794,0.3175 -0.4191,0.15875 0.33655,0.15875 0.15875,0.32385 -0.1143,0.36195 -0.4826,1.1557 -0.26035,0.64135 -0.0826,0.40005 -0.0381,0.339725 0.15875,0.301625 0.3048,0.2794 0.635,0.2794"
       style="fill:none;stroke:#000000;stroke-width:0.00273431in;stroke-linecap:round;stroke-linejoin:round"
       id="path1020" />
    <path
       d="m 475.44315,12.83186 -0.6604,2.51714 -0.60325,1.6637 -0.57785,1.47955 -0.64135,1.65989 -0.43815,0.96012"
       style="fill:none;stroke:#000000;stroke-width:0.00273431in;stroke-linecap:round;stroke-linejoin:round"
       id="path1022" />
    <path
       d="m 479.1832,13.651645 0.4826,0.140335 0.37465,0.339725 0.22225,0.379095 0.0381,0.4191 -0.23495,0.74295 -0.42545,0.8763 -0.1778,0.4826 -0.1016,0.2794 0.12065,0.3429 0.1016,0.1778 0.2413,0.05715 -0.32385,0.18415 -0.3175,0.19685 -0.22225,0.5842 -0.0953,0.7366 -0.1016,1.00203 -0.2413,0.78232 -0.36195,0.23495 -0.43815,0.04445 -0.40005,-0.04445 -0.3175,-0.1397"
       style="fill:none;stroke:#000000;stroke-width:0.00273431in;stroke-linecap:round;stroke-linejoin:round"
       id="path1024" />
    <path
       d="m 483.2223,19.1717 0.4191,0.3175 0.381,-0.09525 0.53975,-0.04445 0.12065,0.08255 0.19685,0.1778"
       style="fill:none;stroke:#000000;stroke-width:0.00273431in;stroke-linecap:round;stroke-linejoin:round"
       id="path1026" />
  </g>
</svg>
