<?xml version="1.0" encoding="UTF-8" standalone="no"?>
<svg
   xmlns:dc="http://purl.org/dc/elements/1.1/"
   xmlns:cc="http://creativecommons.org/ns#"
   xmlns:rdf="http://www.w3.org/1999/02/22-rdf-syntax-ns#"
   xmlns:svg="http://www.w3.org/2000/svg"
   xmlns="http://www.w3.org/2000/svg"
   xmlns:sodipodi="http://sodipodi.sourceforge.net/DTD/sodipodi-0.dtd"
   xmlns:inkscape="http://www.inkscape.org/namespaces/inkscape"
   inkscape:version="1.0.1 (3bc2e813f5, 2020-09-07)"
   width="210mm"
   height="297mm"
   viewBox="0 0 210 297"
   version="1.1"
   id="svg8"
   sodipodi:docname="gothic_it.svg">
  <defs
     id="defs2">
    <rect
       x="13.924873"
       y="14.698477"
       width="557.76852"
       height="69.237566"
       id="rect835" />
  </defs>
  <sodipodi:namedview
     id="base"
     pagecolor="#ffffff"
     bordercolor="#666666"
     borderopacity="1.0"
     inkscape:pageopacity="0.0"
     inkscape:pageshadow="2"
     inkscape:zoom="2.1004736"
     inkscape:cx="848.55182"
     inkscape:cy="200.18087"
     inkscape:document-units="mm"
     inkscape:current-layer="layer1"
     inkscape:document-rotation="0"
     showgrid="false"
     inkscape:window-width="1920"
     inkscape:window-height="1137"
     inkscape:window-x="-8"
     inkscape:window-y="-8"
     inkscape:window-maximized="1" />
  <metadata
     id="metadata5">
    <rdf:RDF>
      <cc:Work
         rdf:about="">
        <dc:format>image/svg+xml</dc:format>
        <dc:type
           rdf:resource="http://purl.org/dc/dcmitype/StillImage" />
        <dc:title />
      </cc:Work>
    </rdf:RDF>
  </metadata>
  <g
     inkscape:label="Layer 1"
     inkscape:groupmode="layer"
     id="layer1">
    <path
       d="m 18.2057,16.2888 -0.19685,0.2032 -0.40005,0.2032 0.40005,0.19685 0.19685,2.20345 m 0,-2.20345 0.2032,-0.19685 -0.2032,-0.2032 -0.19685,0.2032 0.19685,0.19685 v 2.20345 m 0,-2.8067 0.2032,0.2032 0.40005,0.2032 -0.40005,0.19685 -0.2032,2.20345 m 0,0.796925 -0.40005,0.40005 0.40005,0.200025 0.40005,-0.200025 -0.40005,-0.40005 m 0,0.200025 -0.19685,0.200025 H 18.4089 L 18.2057,20.09245"
       style="fill:none;stroke:#000000;stroke-width:0.00273431in;stroke-linecap:round;stroke-linejoin:round"
       id="path311" />
    <path
       d="M 19.92655,16.2888 19.7297,16.492 v 1.20015 M 19.92655,16.492 19.7297,17.69215 m 0.19685,-1.40335 0.19685,0.2032 -0.3937,1.20015 m 1.9939,-1.40335 -0.19685,0.2032 v 1.20015 M 21.7236,16.492 21.52675,17.69215 m 0.19685,-1.40335 0.2032,0.2032 -0.40005,1.20015"
       style="fill:none;stroke:#000000;stroke-width:0.00273431in;stroke-linecap:round;stroke-linejoin:round"
       id="path313" />
    <path
       d="m 24.72715,15.4887 -1.397,6.4008 m 2.59715,-6.4008 -1.40335,6.4008 m -1.1938,-3.7973 h 2.794 m -2.9972,1.20015 h 2.80035"
       style="fill:none;stroke:#000000;stroke-width:0.00273431in;stroke-linecap:round;stroke-linejoin:round"
       id="path315" />
    <path
       d="m 28.3339,15.4887 v 5.8039 m 0.8001,-5.8039 v 5.8039 m 0,-5.0038 0.3937,0.2032 0.2032,0.40005 V 17.2921 L 30.13095,17.0889 29.9341,16.6952 29.7309,16.492 29.134,16.2888 h -0.8001 l -0.60325,0.2032 -0.40005,0.40005 v 0.60325 l 0.2032,0.3937 0.5969,0.4064 1.20015,0.3937 0.40005,0.2032 0.2032,0.40005 v 0.600075 l -0.2032,0.40005 M 29.9341,17.0889 29.7309,16.6952 m -2.1971,0.8001 0.19685,0.3937 0.40005,0.2032 1.20015,0.40005 0.40005,0.19685 0.2032,0.4064 M 27.73065,20.09245 27.5338,19.6924 m 0.19685,-3.2004 -0.19685,0.40005 v 0.40005 l 0.19685,0.40005 0.40005,0.19685 1.20015,0.4064 0.60325,0.3937 0.19685,0.4064 v 0.5969 L 29.9341,20.09245 29.7309,20.292475 29.134,20.4925 H 28.3339 L 27.73065,20.292475 27.5338,20.09245 27.3306,19.6924 27.73065,19.4892 v 0.403225 l 0.19685,0.40005 0.4064,0.200025"
       style="fill:none;stroke:#000000;stroke-width:0.00273431in;stroke-linecap:round;stroke-linejoin:round"
       id="path317" />
    <path
       d="m 34.93155,16.2888 -3.60045,4.2037 m 1.0033,-4.2037 0.3937,0.4064 v 0.3937 l -0.19685,0.4064 -0.40005,0.19685 H 31.73115 L 31.3311,17.2921 V 16.89205 L 31.5343,16.492 31.928,16.2888 h 0.4064 l 0.3937,0.2032 0.60325,0.2032 h 0.60325 l 0.5969,-0.2032 0.40005,-0.2032 m -0.8001,2.8067 -0.40005,0.19685 -0.2032,0.40005 v 0.40005 l 0.4064,0.40005 h 0.3937 l 0.4064,-0.200025 0.19685,-0.40005 V 19.4892 L 34.5315,19.0955 h -0.40005"
       style="fill:none;stroke:#000000;stroke-width:0.00273431in;stroke-linecap:round;stroke-linejoin:round"
       id="path319" />
    <path
       d="m 39.5353,17.889 0.19685,0.2032 H 39.929 l 0.2032,-0.2032 m -0.8001,0.2032 0.2032,0.2032 h 0.3937 m -0.5969,0 0.2032,0.19685 h 0.19685 L 39.929,18.2954 40.1322,17.889 m -0.5969,0 -1.2065,1.2065 m -0.19685,0.19685 -1.20015,1.20015 -0.8001,-1.0033 1.20015,-1.1938 m 0.19685,-0.2032 0.8001,-0.8001 -0.8001,-1.0033 -0.99695,1.2065 1.20015,1.1938 0.8001,1.203325 0.40005,0.40005 0.40005,0.200025 h 0.40005 l 0.19685,-0.200025 0.2032,-0.40005 M 36.9318,20.292475 36.3349,19.4892 M 38.13195,17.2921 37.5287,16.492 m -0.8001,1.0033 1.0033,0.99695 0.8001,1.20015 0.40005,0.40005 0.40005,0.200025 h 0.5969 m -2.794,0 -0.8001,-1.000125 m 1.79705,-1.79705 -0.8001,-1.0033 m -0.60325,0.8001 1.2065,1.20015 0.8001,1.20015 0.19685,0.200025 0.40005,0.200025 h 0.5969 l 0.2032,-0.200025"
       style="fill:none;stroke:#000000;stroke-width:0.00273431in;stroke-linecap:round;stroke-linejoin:round"
       id="path321" />
    <path
       d="M 41.73245,16.2888 41.5356,16.492 v 1.20015 M 41.73245,16.492 41.5356,17.69215 m 0.19685,-1.40335 0.19685,0.2032 -0.3937,1.20015"
       style="fill:none;stroke:#000000;stroke-width:0.00273431in;stroke-linecap:round;stroke-linejoin:round"
       id="path323" />
    <path
       d="m 44.5328,15.4887 -0.3937,0.4064 -0.4064,0.5969 -0.3937,0.8001 -0.2032,1.0033 v 0.8001 l 0.2032,0.99695 0.3937,0.8001 0.4064,0.60325 0.3937,0.3937 m -0.8001,-5.1943 -0.19685,0.5969 -0.19685,0.8001 v 1.20015 l 0.19685,0.8001 0.19685,0.600075 m 0.4064,-4.797425 -0.2032,0.3937 -0.2032,0.60325 -0.19685,1.20015 v 1.20015 l 0.19685,1.20015 0.2032,0.600075 0.2032,0.403225"
       style="fill:none;stroke:#000000;stroke-width:0.00273431in;stroke-linecap:round;stroke-linejoin:round"
       id="path325" />
    <path
       d="m 46.1393,15.4887 0.3937,0.4064 0.4064,0.5969 0.3937,0.8001 0.2032,1.0033 v 0.8001 l -0.2032,0.99695 -0.3937,0.8001 -0.4064,0.60325 -0.3937,0.3937 m 0.8001,-5.1943 0.19685,0.5969 0.19685,0.8001 v 1.20015 l -0.19685,0.8001 -0.19685,0.600075 M 46.533,15.8951 l 0.2032,0.3937 0.2032,0.60325 0.19685,1.20015 v 1.20015 L 46.9394,20.4925 46.7362,21.092575 46.533,21.4958"
       style="fill:none;stroke:#000000;stroke-width:0.00273431in;stroke-linecap:round;stroke-linejoin:round"
       id="path327" />
    <path
       d="m 49.7398,16.2888 -0.2032,0.2032 0.40005,2.00025 -0.19685,0.19685 m 0,-2.4003 v 2.4003 m 0,-2.4003 0.19685,0.2032 -0.40005,2.00025 0.2032,0.19685 m -1.0033,-1.79705 h 0.2032 l 1.6002,1.20015 h 0.19685 M 48.7365,16.89205 50.73675,18.0922 M 48.7365,16.89205 v 0.19685 l 2.00025,0.8001 v 0.2032 m 0,-1.20015 H 50.5399 l -1.6002,1.20015 h -0.2032 m 2.00025,-1.20015 -2.00025,1.20015 m 2.00025,-1.20015 V 17.0889 L 48.7365,17.889 v 0.2032"
       style="fill:none;stroke:#000000;stroke-width:0.00273431in;stroke-linecap:round;stroke-linejoin:round"
       id="path329" />
    <path
       d="m 53.7403,16.89205 v 3.400425 h 0.19685 M 53.7403,16.89205 h 0.19685 v 3.400425 M 52.1401,18.49225 h 3.39725 V 18.6891 M 52.1401,18.49225 v 0.19685 h 3.39725"
       style="fill:none;stroke:#000000;stroke-width:0.00273431in;stroke-linecap:round;stroke-linejoin:round"
       id="path331" />
    <path
       d="m 57.5376,21.092575 v -0.40005 l -0.3937,-0.40005 0.3937,-0.40005 0.2032,0.40005 v 0.40005 l -0.2032,0.40005 -0.3937,0.200025 m 0.3937,-1.20015 -0.19685,0.200025 0.19685,0.200025 v -0.40005"
       style="fill:none;stroke:#000000;stroke-width:0.00273431in;stroke-linecap:round;stroke-linejoin:round"
       id="path333" />
    <path
       d="m 59.5442,18.6891 h 3.5941"
       style="fill:none;stroke:#000000;stroke-width:0.00273431in;stroke-linecap:round;stroke-linejoin:round"
       id="path335" />
    <path
       d="m 65.1385,19.892425 -0.3937,0.40005 0.3937,0.200025 0.4064,-0.200025 -0.4064,-0.40005 m 0,0.200025 -0.19685,0.200025 H 65.3417 L 65.1385,20.09245"
       style="fill:none;stroke:#000000;stroke-width:0.00273431in;stroke-linecap:round;stroke-linejoin:round"
       id="path337" />
    <path
       d="m 70.3455,15.4887 -3.603625,6.4008 H 66.9419 m 3.4036,-6.4008 h 0.19685 l -3.60045,6.4008"
       style="fill:none;stroke:#000000;stroke-width:0.00273431in;stroke-linecap:round;stroke-linejoin:round"
       id="path339" />
    <path
       d="m 71.7425,16.6952 v 3.197225 l -0.403225,0.200025 m 0.600075,-3.2004 v 3.000375 l 0.60325,0.40005 M 72.1362,16.6952 v 3.197225 l 0.4064,0.200025 0.19685,0.200025 M 71.7425,16.6952 h 0.3937 l 1.0033,-0.2032 0.40005,-0.2032 m -0.40005,0.2032 0.2032,0.2032 0.3937,0.19685 v 3.2004 m -0.3937,-3.60045 0.5969,0.40005 v 3.000375 m -0.40005,-3.603625 0.19685,0.2032 0.4064,0.2032 h 0.3937 l -0.3937,0.19685 v 3.2004 m -2.803525,0 H 71.7425 l 0.3937,0.200025 0.2032,0.200025 0.40005,-0.200025 0.99695,-0.200025 h 0.4064"
       style="fill:none;stroke:#000000;stroke-width:0.00273431in;stroke-linecap:round;stroke-linejoin:round"
       id="path341" />
    <path
       d="m 76.3399,16.6952 0.2032,0.19685 0.19685,0.40005 v 2.600325 L 76.3399,20.09245 m 0.40005,-3.2004 -0.19685,-0.19685 0.19685,-0.2032 0.19685,0.40005 v 3.2004 l 0.4064,0.200025 M 76.3399,16.6952 76.9368,16.2888 77.14,16.6952 v 3.197225 l 0.40005,0.200025 h 0.19685 m -1.397,0 h 0.2032 l 0.3937,0.200025 0.2032,0.200025 0.2032,-0.200025 0.3937,-0.200025"
       style="fill:none;stroke:#000000;stroke-width:0.00273431in;stroke-linecap:round;stroke-linejoin:round"
       id="path343" />
    <path
       d="m 79.7435,16.6952 h 0.3937 l 0.4064,-0.2032 0.19685,-0.2032 0.40005,0.2032 0.5969,0.2032 h 0.4064 m -1.6002,0 0.3937,-0.2032 m -1.1938,0.2032 0.3937,0.19685 h 0.4064 l 0.3937,-0.19685 0.2032,-0.2032 m 0.5969,0.2032 v 1.6002 m 0.2032,-1.40335 v 1.20015 m 0.2032,-1.397 v 1.6002 h -1.40335 l -0.60325,0.19685 -0.3937,0.40005 -0.2032,0.5969 v 1.0033 m 0,0 0.8001,-0.40005 0.8001,-0.200025 h 0.5969 l 0.8001,0.200025 m -2.4003,0.200025 0.60325,-0.200025 h 0.99695 l 0.60325,0.200025 M 79.5403,20.4925 80.5436,20.292475 h 0.99695 l 0.60325,0.200025 0.3937,-0.40005"
       style="fill:none;stroke:#000000;stroke-width:0.00273431in;stroke-linecap:round;stroke-linejoin:round"
       id="path345" />
    <path
       d="m 83.744,16.6952 h 0.19685 l 0.40005,-0.2032 0.2032,-0.2032 0.3937,0.2032 0.8001,0.2032 h 0.4064 m -1.8034,0 0.40005,-0.2032 m -0.99695,0.2032 0.3937,0.19685 h 0.4064 L 84.9378,16.492 m 0.8001,0.2032 v 1.397 m 0.2032,-1.20015 V 17.889 m 0.2032,-1.1938 v 1.397 h -0.4064 l -0.5969,0.2032 -0.40005,0.19685 m 0,-0.19685 0.40005,0.19685 0.5969,0.19685 h 0.4064 v 1.40335 M 85.9411,18.8923 v 1.000125 M 85.7379,18.6891 v 1.40335 m -2.1971,0 0.40005,-0.200025 h 0.40005 l 0.40005,0.200025 0.19685,0.200025 m -0.5969,-0.200025 0.40005,0.200025 M 83.5408,20.09245 h 0.40005 l 0.40005,0.200025 0.2032,0.200025 0.3937,-0.200025 0.8001,-0.200025 h 0.4064"
       style="fill:none;stroke:#000000;stroke-width:0.00273431in;stroke-linecap:round;stroke-linejoin:round"
       id="path347" />
    <path
       d="m 89.54155,16.2888 -2.00025,2.0066 v 0.99695 h 1.8034 m 0.3937,0 h 0.8001 l 0.2032,0.19685 v -0.3937 l -0.2032,0.19685 m -2.794,-0.99695 v 0.8001 m 0.19685,-1.2065 v 1.40335 M 89.3447,16.492 v 3.400425 L 88.9383,20.09245 M 89.54155,17.0889 89.7384,16.6952 89.54155,16.492 v 3.60045 l 0.40005,0.200025 m -0.40005,-4.003675 0.40005,0.4064 -0.2032,0.3937 v 2.803525 l 0.4064,0.200025 h 0.19685 m -1.40335,0 h 0.2032 l 0.40005,0.200025 0.19685,0.200025 0.2032,-0.200025 0.40005,-0.200025"
       style="fill:none;stroke:#000000;stroke-width:0.00273431in;stroke-linecap:round;stroke-linejoin:round"
       id="path349" />
    <path
       d="m 91.7451,16.2888 v 1.8034 m 0,-1.8034 h 2.4003 M 91.94195,16.492 H 93.739 m -1.9939,0.2032 h 1.79705 L 93.9422,16.492 94.1454,16.2888 M 93.739,17.4953 93.54215,17.69215 93.1421,17.889 92.342,18.0922 h -0.5969 m 1.397,-0.2032 h 0.2032 l 0.3937,0.2032 v 2.00025 m -0.19685,-2.4003 0.40005,0.19685 v 2.003425 M 93.739,17.4953 l 0.2032,0.19685 0.40005,0.19685 h 0.19685 l -0.3937,0.2032 v 2.00025 m -2.6035,0 0.40005,-0.200025 H 92.342 l 0.40005,0.200025 0.19685,0.200025 M 92.342,20.09245 92.74205,20.292475 M 91.5419,20.09245 h 0.40005 l 0.40005,0.200025 0.2032,0.200025 0.3937,-0.200025 0.8001,-0.200025 h 0.4064"
       style="fill:none;stroke:#000000;stroke-width:0.00273431in;stroke-linecap:round;stroke-linejoin:round"
       id="path351" />
    <path
       d="m 95.7456,16.6952 v 3.197225 l -0.403225,0.200025 m 0.600075,-3.2004 v 3.000375 l 0.60325,0.40005 M 96.1393,16.6952 v 3.197225 l 0.4064,0.200025 0.19685,0.200025 M 95.7456,16.6952 h 0.3937 l 0.8001,-0.2032 0.4064,-0.2032 0.19685,0.2032 0.40005,0.2032 h 0.2032 m -1.0033,-0.2032 0.40005,0.2032 m -0.60325,-0.2032 0.4064,0.40005 h 0.3937 l 0.4064,-0.19685 m -2.0066,1.6002 h 0.2032 l 0.8001,-0.2032 0.40005,-0.2032 0.19685,-0.19685 m -0.5969,0.40005 h 0.2032 l 0.3937,0.2032 v 1.79705 M 97.54265,17.889 97.9427,18.2954 v 1.597025 m -0.2032,-2.200275 0.2032,0.19685 0.40005,0.2032 h 0.19685 l -0.3937,0.2032 v 1.79705 m -2.803525,0 H 95.7456 l 0.3937,0.200025 0.2032,0.200025 0.40005,-0.200025 0.99695,-0.200025 h 0.4064"
       style="fill:none;stroke:#000000;stroke-width:0.00273431in;stroke-linecap:round;stroke-linejoin:round"
       id="path353" />
    <path
       d="m 99.5429,16.6952 0.40005,-0.4064 0.60325,0.2032 h 0.99695 l 0.99695,-0.2032 m -2.794,0.2032 0.5969,0.2032 h 1.0033 l 0.5969,-0.2032 m -2.4003,0.2032 0.8001,0.19685 h 0.5969 l 0.8001,-0.19685 0.8001,-0.4064 m 0,0 -0.19685,0.4064 -0.40005,0.5969 -0.8001,0.8001 -0.40005,0.5969 -0.19685,0.60325 v 0.600075 l 0.19685,0.600075 m 0.19685,-2.00025 -0.19685,0.60325 v 0.5969 l 0.19685,0.600075 m 0.60325,-2.600325 -0.40005,0.60325 -0.2032,0.5969 v 0.5969 l 0.2032,0.60325 -0.40005,0.40005"
       style="fill:none;stroke:#000000;stroke-width:0.00273431in;stroke-linecap:round;stroke-linejoin:round"
       id="path355" />
    <path
       d="m 103.7466,16.89205 v 1.20015 m 0.19685,-1.0033 v 0.8001 m 0.19685,-0.99695 v 1.20015 m -0.3937,-1.20015 h 0.3937 l 1.0033,-0.19685 0.40005,-0.2032 0.19685,-0.2032 m -0.5969,0.4064 h 0.2032 l 0.3937,0.19685 v 1.20015 m -0.19685,-1.6002 0.40005,0.2032 v 1.1938 m -0.2032,-1.6002 0.2032,0.2032 0.40005,0.2032 h 0.19685 l -0.3937,0.19685 v 1.20015 m -2.4003,0 h 0.3937 l 1.6002,0.5969 h 0.4064 m 0,-0.5969 h -0.4064 l -1.6002,0.5969 h -0.3937 m 0,0 v 1.203325 l -0.40322,0.200025 m 0.60007,-1.20015 v 1.000125 l 0.60325,0.40005 M 104.1403,18.6891 v 1.203325 l 0.4064,0.200025 0.19685,0.200025 M 105.7405,18.6891 v 1.40335 m 0.2032,-1.20015 v 1.000125 m 0.2032,-1.203325 v 1.40335 m -2.80352,0 h 0.40322 l 0.3937,0.200025 0.2032,0.200025 0.40005,-0.200025 0.99695,-0.200025 h 0.4064"
       style="fill:none;stroke:#000000;stroke-width:0.00273431in;stroke-linecap:round;stroke-linejoin:round"
       id="path357" />
    <path
       d="m 107.7471,16.6952 v 1.79705 l -0.40323,0.19685 m 0.60008,-1.79705 v 1.79705 l 0.40005,0.2032 m -0.2032,-2.1971 v 1.79705 l 0.4064,0.19685 h 0.19685 m -0.99695,-1.9939 h 0.3937 l 1.0033,-0.2032 0.40005,-0.2032 m -0.40005,0.2032 0.2032,0.2032 0.3937,0.19685 v 3.2004 m -0.3937,-3.60045 0.5969,0.40005 v 3.000375 m -0.40005,-3.603625 0.19685,0.2032 0.4064,0.2032 h 0.3937 l -0.3937,0.19685 v 3.2004 m -2.80353,-1.40335 h 0.20003 l 0.40005,0.2032 0.19685,0.2032 0.2032,-0.2032 0.40005,-0.2032 0.8001,-0.19685 h 0.19685 m -2.1971,1.6002 0.40005,-0.200025 h 0.40005 l 0.40005,0.200025 0.19685,0.200025 m -0.5969,-0.200025 0.40005,0.200025 M 107.5439,20.09245 h 0.40005 l 0.40005,0.200025 0.2032,0.200025 0.3937,-0.200025 0.8001,-0.200025 h 0.4064"
       style="fill:none;stroke:#000000;stroke-width:0.00273431in;stroke-linecap:round;stroke-linejoin:round"
       id="path359" />
    <path
       d="m 112.1413,17.69215 -0.3937,0.40005 0.3937,0.2032 0.4064,-0.2032 -0.4064,-0.40005 m 0,0.19685 -0.19685,0.2032 h 0.40005 l -0.2032,-0.2032 m 0,2.003425 -0.3937,0.40005 0.3937,0.200025 0.4064,-0.200025 -0.4064,-0.40005 m 0,0.200025 -0.19685,0.200025 h 0.40005 l -0.2032,-0.200025"
       style="fill:none;stroke:#000000;stroke-width:0.00273431in;stroke-linecap:round;stroke-linejoin:round"
       id="path361" />
    <path
       d="m 114.5416,17.69215 -0.3937,0.40005 0.3937,0.2032 0.4064,-0.2032 -0.4064,-0.40005 m 0,0.19685 -0.19685,0.2032 h 0.40005 l -0.2032,-0.2032 m 0,3.203575 v -0.40005 l -0.3937,-0.40005 0.3937,-0.40005 0.2032,0.40005 v 0.40005 l -0.2032,0.40005 -0.3937,0.200025 m 0.3937,-1.20015 -0.19685,0.200025 0.19685,0.200025 v -0.40005"
       style="fill:none;stroke:#000000;stroke-width:0.00273431in;stroke-linecap:round;stroke-linejoin:round"
       id="path363" />
    <path
       d="m 119.7485,16.89205 -3.2004,1.79705 3.2004,1.8034"
       style="fill:none;stroke:#000000;stroke-width:0.00273431in;stroke-linecap:round;stroke-linejoin:round"
       id="path365" />
    <path
       d="m 121.3491,17.69215 h 3.39725 V 17.889 M 121.3491,17.69215 V 17.889 h 3.39725 m -3.39725,1.40335 h 3.39725 v 0.19685 m -3.39725,-0.19685 v 0.19685 h 3.39725"
       style="fill:none;stroke:#000000;stroke-width:0.00273431in;stroke-linecap:round;stroke-linejoin:round"
       id="path367" />
    <path
       d="m 126.3521,16.89205 3.2004,1.79705 -3.2004,1.8034"
       style="fill:none;stroke:#000000;stroke-width:0.00273431in;stroke-linecap:round;stroke-linejoin:round"
       id="path369" />
    <path
       d="m 130.9499,17.0889 0.2032,-0.3937 0.19685,-0.2032 0.60325,-0.2032 h 0.3937 l 0.60325,0.2032 0.19685,0.2032 0.2032,0.3937 v 0.4064 l -0.2032,0.3937 -0.3937,0.4064 -0.4064,0.19685 m -1.1938,-1.40335 0.19685,-0.3937 m 1.6002,0 0.19685,0.19685 v 0.8001 l -0.19685,0.19685 m -2.00025,-0.8001 0.40005,0.2032 v -0.40005 l 0.19685,-0.40005 0.4064,-0.2032 m 0.3937,0 0.4064,0.2032 0.19685,0.40005 v 0.8001 l -0.19685,0.40005 -0.4064,0.40005 m -0.19685,0 v 0.60325 l 0.19685,-0.60325 h -0.3937 l 0.19685,0.60325 m 0,0.796925 -0.40005,0.40005 0.40005,0.200025 0.40005,-0.200025 -0.40005,-0.40005 m 0,0.200025 -0.19685,0.200025 h 0.3937 l -0.19685,-0.200025"
       style="fill:none;stroke:#000000;stroke-width:0.00273431in;stroke-linecap:round;stroke-linejoin:round"
       id="path371" />
    <path
       d="m 137.5481,17.889 -0.19685,-0.3937 -0.40005,-0.2032 h -0.5969 l -0.4064,0.2032 -0.19685,0.19685 -0.19685,0.60325 v 0.5969 l 0.19685,0.40005 0.40005,0.19685 h 0.5969 l 0.4064,-0.19685 0.19685,-0.40005 m -0.99695,-1.6002 -0.4064,0.40005 -0.19685,0.60325 v 0.5969 l 0.19685,0.40005 0.2032,0.19685 m 1.397,-2.1971 -0.19685,1.6002 v 0.40005 l 0.40005,0.19685 h 0.40005 l 0.40005,-0.3937 0.2032,-0.60325 V 18.0922 l -0.2032,-0.5969 -0.2032,-0.4064 -0.3937,-0.3937 -0.4064,-0.2032 -0.5969,-0.2032 h -0.5969 l -0.60325,0.2032 -0.40005,0.2032 -0.40005,0.3937 -0.19685,0.4064 -0.2032,0.5969 v 0.5969 l 0.2032,0.60325 0.19685,0.40005 0.40005,0.40005 0.40005,0.200025 0.60325,0.200025 h 0.5969 l 0.5969,-0.200025 0.4064,-0.200025 0.19685,-0.200025 m -0.40005,-2.600325 -0.2032,1.6002 v 0.40005 l 0.2032,0.19685"
       style="fill:none;stroke:#000000;stroke-width:0.00273431in;stroke-linecap:round;stroke-linejoin:round"
       id="path373" />
    <path
       d="m 140.34795,16.89205 0.40005,-0.40005 0.40005,-0.2032 h 0.40005 l 0.2032,0.2032 1.397,3.2004 0.2032,0.200025 h 0.3937 m -2.4003,-3.400425 0.2032,0.2032 1.397,3.197225 0.2032,0.40005 0.2032,-0.200025 -0.4064,-0.200025 M 140.748,16.492 h 0.40005 l 0.19685,0.2032 1.40335,3.197225 0.19685,0.40005 0.2032,0.200025 h 0.2032 l 0.3937,-0.600075 m -3.39725,-2.200275 0.19685,-0.19685 0.4064,-0.2032 h 0.19685 l 0.19685,0.2032 m -0.19685,0 v 0.19685 M 140.5448,17.4953 h 0.4064 l 0.19685,0.3937 m -1.80023,2.6035 0.40005,-0.40005 0.40323,-0.200025 h 0.5969 l 0.40005,0.200025 m -1.20015,0 h 0.8001 l 0.2032,0.200025 m -1.60338,0.200025 0.60008,-0.200025 h 0.5969 l 0.2032,0.200025 0.40005,-0.40005 m 0.40005,-3.00355 -1.20015,2.803525 M 140.748,18.8923 h 1.6002"
       style="fill:none;stroke:#000000;stroke-width:0.00273431in;stroke-linecap:round;stroke-linejoin:round"
       id="path375" />
    <path
       d="m 144.14887,16.6952 0.40323,-0.4064 h 0.5969 l 0.40005,0.2032 0.40005,-0.2032 m -1.20015,0.2032 h 0.60325 m -1.20333,0.2032 0.40323,-0.2032 0.3937,0.2032 h 0.60325 l 0.40005,-0.4064 m -0.8001,1.0033 -0.2032,0.2032 -0.19685,0.3937 v 0.2032 h -0.40005 l -0.20003,0.2032 v 0.3937 l 0.20003,-0.19685 h 0.40005 v 1.20015 m 0.19685,-2.00025 v 1.6002 m -0.5969,-0.99695 h 0.5969 m 0.2032,-1.0033 v 1.8034 l -0.2032,0.3937 -0.19685,0.2032 m 1.40335,-2.80035 -0.2032,0.19685 -0.2032,0.4064 v 1.79705 m 0.2032,-2.00025 v 1.6002 m 0.2032,-2.00025 v 1.79705 l -0.2032,0.4064 -0.2032,0.19685 m 0.4064,-2.4003 1.1938,-0.60325 0.4064,0.2032 0.19685,0.40005 v 0.40005 l -0.40005,0.40005 -0.8001,0.40005 m 0.5969,-1.6002 0.4064,0.40005 v 0.40005 m -0.8001,-0.8001 0.3937,0.2032 0.2032,0.19685 v 0.60325 l -0.40005,0.3937 m 0,0 0.60325,0.4064 0.19685,0.3937 v 1.203325 m -0.40005,-1.597025 0.2032,0.3937 v 1.0033 m -0.60325,-1.8034 0.19685,0.2032 0.2032,0.40005 v 1.400175 m -2.9972,0.600075 0.5969,-0.40005 0.5969,-0.200025 h 0.8001 l 0.60325,0.200025 m -2.20345,0.200025 0.60325,-0.200025 h 0.99695 l 0.4064,0.200025 m -2.4003,0.200025 0.8001,-0.200025 h 0.99695 l 0.40005,0.200025 0.40005,-0.40005 0.40005,-0.200025 h 0.40005 M 146.7492,18.0922 v 1.800225 m 0,-1.203325 h 0.8001 m -0.8001,0.60325 h 0.8001"
       style="fill:none;stroke:#000000;stroke-width:0.00273431in;stroke-linecap:round;stroke-linejoin:round"
       id="path377" />
    <path
       d="m 150.34905,16.492 -0.40005,0.2032 -0.40005,0.3937 -0.19685,0.4064 -0.2032,0.5969 v 0.8001 l 0.2032,0.5969 0.19685,0.403225 0.60325,0.40005 0.5969,0.200025 h 0.5969 l 0.60325,-0.200025 0.40005,-0.200025 0.40005,-0.40005 0.19685,-0.40005 m -3.39725,-2.00025 -0.19685,0.5969 v 1.0033 l 0.3937,0.8001 0.60325,0.40005 0.60325,0.200025 h 0.5969 l 0.5969,-0.200025 m -1.79705,-3.60045 -0.40005,0.40005 -0.2032,0.40005 -0.19685,0.5969 v 0.8001 l 0.19685,0.60325 0.60325,0.600075 0.60325,0.200025 h 0.5969 l 0.5969,-0.200025 0.4064,-0.200025 0.3937,-0.40005 m -2.1971,-2.20345 v 2.4003 m 0.2032,-2.4003 v 2.0066 m 0.19685,-2.20345 v 2.00025 l -0.19685,0.40005 -0.2032,0.19685 m 0,-2.4003 0.40005,-0.19685 0.60325,-0.60325 0.3937,0.2032 h 0.4064 l 0.19685,-0.2032 m -1.20015,0.2032 0.40005,0.2032 h 0.40005 m -1.0033,0 0.4064,0.19685 h 0.3937 l 0.4064,-0.19685 0.19685,-0.4064 m -0.60325,0.60325 v 3.000375"
       style="fill:none;stroke:#000000;stroke-width:0.00273431in;stroke-linecap:round;stroke-linejoin:round"
       id="path379" />
    <path
       d="m 153.74987,16.2888 h 2.80353 l 0.3937,0.2032 0.2032,0.40005 v 3.000375 M 154.1531,16.492 h 2.4003 l 0.3937,0.40005 v 2.80035 m -3.19723,-3.4036 0.20003,0.2032 0.40005,0.2032 h 2.20345 l 0.19685,0.19685 v 3.000375 M 154.9532,17.2921 154.75,17.4953 154.5468,17.889 v 0.2032 h -0.3937 l -0.2032,0.2032 v 0.3937 l 0.2032,-0.19685 h 0.3937 v 0.99695 m 0.2032,-1.79705 v 1.40335 m -0.5969,-0.8001 h 0.5969 m 0.2032,-1.0033 v 1.6002 l -0.2032,0.40005 -0.2032,0.19685 m -0.79693,1.0033 0.60008,-0.40005 0.60325,-0.200025 h 0.8001 l 0.5969,0.200025 m -2.1971,0.200025 0.5969,-0.200025 h 1.0033 l 0.3937,0.200025 m -2.39713,0.200025 0.79693,-0.200025 h 1.0033 l 0.40005,0.200025 0.40005,-0.40005 0.40005,-0.200025 h 0.40005 M 155.5501,16.6952 v 3.197225 m 0,-2.200275 0.40005,0.19685 h 0.40005 l 0.40005,-0.19685 m -1.20015,1.20015 0.40005,-0.2032 h 0.40005 l 0.40005,0.2032"
       style="fill:none;stroke:#000000;stroke-width:0.00273431in;stroke-linecap:round;stroke-linejoin:round"
       id="path381" />
    <path
       d="m 158.34687,16.6952 0.40323,-0.4064 h 0.3937 l 0.4064,0.2032 0.3937,-0.2032 m -0.99695,0.2032 h 0.40005 m -1.00013,0.2032 0.40323,-0.2032 0.3937,0.2032 h 0.4064 l 0.3937,-0.4064 m -0.5969,1.0033 -0.2032,0.2032 -0.19685,0.3937 v 0.2032 h -0.40005 l -0.20003,0.2032 v 0.3937 l 0.20003,-0.19685 h 0.40005 v 1.20015 m 0.19685,-2.00025 v 1.6002 m -0.5969,-0.99695 h 0.5969 m 0.2032,-1.0033 v 1.8034 l -0.2032,0.3937 -0.19685,0.2032 m 0.99695,-2.00025 0.2032,-0.60325 0.2032,-0.3937 0.19685,-0.2032 0.40005,-0.2032 h 0.40005 l 0.60325,0.2032 m -1.40335,0.2032 0.40005,-0.2032 h 0.40005 l 0.40005,0.2032 m -1.6002,0.3937 0.2032,-0.19685 0.3937,-0.19685 h 0.4064 l 0.3937,0.19685 0.4064,-0.40005 m -2.0066,2.80035 0.2032,-0.60325 0.2032,-0.3937 0.19685,-0.2032 h 0.40005 l 0.40005,0.2032 m -0.8001,0 h 0.40005 l 0.2032,0.19685 m -1.0033,0.19685 0.2032,-0.19685 h 0.3937 l 0.2032,0.19685 0.40005,-0.3937 m -2.59715,2.1971 0.5969,-0.40005 0.8001,-0.200025 h 1.0033 l 0.8001,0.200025 m -2.8067,0.200025 0.60325,-0.200025 h 1.40335 l 0.5969,0.200025 m -2.9972,0.200025 0.8001,-0.200025 h 1.397 l 0.5969,0.200025 0.4064,-0.40005 m -2.0066,-2.4003 v 2.200275"
       style="fill:none;stroke:#000000;stroke-width:0.00273431in;stroke-linecap:round;stroke-linejoin:round"
       id="path383" />
    <path
       d="m 163.1511,16.6952 0.3937,-0.4064 h 0.60325 l 0.40005,0.2032 0.40005,-0.2032 M 163.748,16.492 h 0.5969 m -1.1938,0.2032 0.3937,-0.2032 0.4064,0.2032 h 0.5969 l 0.40005,-0.4064 m -0.60325,1.0033 -0.19685,0.2032 -0.19685,0.3937 v 0.2032 h -0.4064 l -0.19685,0.2032 v 0.3937 l 0.19685,-0.19685 h 0.4064 v 0.99695 m 0.19685,-1.79705 v 1.40335 m -0.60325,-0.8001 h 0.60325 m 0.19685,-1.0033 v 1.6002 l -0.19685,0.40005 -0.19685,0.19685 m 0.99695,-2.4003 v 3.00355 l -0.19685,0.200025 h -0.2032 l -0.8001,-0.40005 h -0.40005 l -0.40005,0.200025 -0.40005,0.40005 m 2.59715,-3.4036 v 2.803525 m 0,-1.597025 h 0.8001 m -1.6002,1.997075 h -0.19685 L 163.748,20.09245 h -0.5969 m 2.1971,-3.2004 v 1.20015 h 0.5969 m 0,0.40005 h -0.5969 v 1.20015 l -0.2032,0.40005 -0.8001,0.40005 h -0.3937 l -0.4064,-0.200025 h -0.3937 l -0.60325,0.200025 m 2.4003,-3.4036 0.40005,-0.19685 0.5969,-0.60325 0.4064,0.2032 h 0.3937 l 0.2032,-0.2032 m -1.20015,0.2032 0.40005,0.2032 h 0.40005 m -0.99695,0 0.3937,0.19685 h 0.4064 l 0.3937,-0.19685 0.2032,-0.4064 m -1.0033,0.60325 v 2.80035"
       style="fill:none;stroke:#000000;stroke-width:0.00273431in;stroke-linecap:round;stroke-linejoin:round"
       id="path385" />
    <path
       d="m 168.74505,16.492 -0.40005,0.2032 -0.40005,0.3937 -0.19685,0.4064 -0.2032,0.5969 v 0.5969 l 0.2032,0.60325 0.19685,0.40005 0.40005,0.40005 0.40005,0.200025 0.60325,0.200025 h 0.8001 l 0.5969,-0.200025 0.40005,-0.40005 0.19685,-0.403225 v -0.5969 l -0.19685,-0.40005 -0.19685,-0.19685 -0.4064,-0.2032 h -0.3937 m -2.20345,-0.8001 -0.19685,0.5969 v 1.0033 l 0.19685,0.5969 m 0.8001,-2.9972 -0.40005,0.40005 -0.2032,0.40005 -0.19685,0.5969 v 1.0033 l 0.19685,0.5969 0.2032,0.403225 0.40005,0.40005 m 2.20345,-0.40005 0.19685,-0.200025 v -0.8001 l -0.19685,-0.40005 m -0.8001,2.00025 0.3937,-0.200025 0.2032,-0.200025 0.2032,-0.40005 v -0.8001 l -0.2032,-0.40005 -0.2032,-0.19685 -0.3937,-0.2032 m -1.0033,-1.0033 v 2.6035 m 0.2032,-2.6035 v 2.20345 m 0.19685,-2.4003 v 2.20345 l -0.19685,0.3937 -0.2032,0.2032 m 0,-2.6035 0.40005,-0.19685 0.60325,-0.60325 0.3937,0.2032 h 0.4064 l 0.19685,-0.2032 m -1.20015,0.2032 0.40005,0.2032 h 0.40005 m -1.0033,0 0.4064,0.19685 h 0.3937 l 0.4064,-0.19685 0.19685,-0.4064 m -0.19685,0.4064 -0.8001,1.397 v 2.4003 m 0,-1.6002 h 0.8001 m -0.8001,0.5969 h 0.8001"
       style="fill:none;stroke:#000000;stroke-width:0.00273431in;stroke-linecap:round;stroke-linejoin:round"
       id="path387" />
    <path
       d="m 172.34887,16.6952 0.40323,-0.4064 h 0.5969 l 0.40005,0.2032 0.40005,-0.2032 m -1.20015,0.2032 h 0.60325 m -1.20333,0.2032 0.40323,-0.2032 0.3937,0.2032 h 0.60325 l 0.40005,-0.4064 m -0.8001,1.0033 -0.2032,0.2032 -0.19685,0.3937 v 0.2032 h -0.40005 l -0.20003,0.2032 v 0.3937 l 0.20003,-0.19685 h 0.40005 v 1.20015 m 0.19685,-2.00025 v 1.6002 m -0.5969,-0.99695 h 0.5969 m 0.2032,-1.0033 v 1.8034 l -0.2032,0.3937 -0.19685,0.2032 m -0.19685,0.8001 0.5969,-0.40005 0.5969,-0.200025 h 0.60325 l 0.40005,0.200025 m -1.8034,0.200025 0.60325,-0.200025 h 0.60325 l 0.3937,0.200025 m -1.9939,0.200025 0.8001,-0.200025 h 0.5969 l 0.40005,0.200025 0.40005,-0.40005 m -0.5969,-3.2004 -0.2032,0.19685 -0.2032,0.4064 v 1.79705 m 0.2032,-2.00025 v 1.6002 m 0.2032,-2.00025 v 1.79705 l -0.2032,0.4064 -0.2032,0.19685 m 0.4064,-2.4003 0.3937,-0.40005 0.4064,-0.2032 h 0.3937 l 0.4064,0.2032 m -0.60325,0 h 0.19685 l 0.2032,0.2032 M 174.746,16.492 h 0.4064 l 0.3937,0.40005 0.4064,-0.40005 m -1.0033,1.6002 0.40005,-0.2032 0.40005,-0.3937 0.2032,0.19685 0.19685,0.60325 v 0.8001 l -0.19685,0.796925 -0.4064,0.600075 m 0,-2.80035 0.2032,0.19685 0.2032,0.4064 v 0.99695 l -0.2032,0.600075 M 175.34925,17.889 h 0.19685 l 0.2032,0.4064 v 0.99695 l -0.2032,1.20015 m -0.5969,-2.4003 v 2.00025 m 0,-1.40335 h 0.8001 m -0.8001,0.60325 h 0.8001"
       style="fill:none;stroke:#000000;stroke-width:0.00273431in;stroke-linecap:round;stroke-linejoin:round"
       id="path389" />
    <path
       d="m 177.3499,16.6952 0.40005,-0.4064 h 0.60325 l 0.5969,0.2032 0.40005,-0.2032 m -1.40335,0.2032 h 0.8001 m -1.397,0.2032 0.40005,-0.2032 0.60325,0.2032 h 0.5969 l 0.40005,-0.4064 m -0.60325,1.0033 -0.19685,0.2032 -0.19685,0.3937 v 0.2032 h -0.4064 l -0.19685,0.2032 v 0.3937 l 0.19685,-0.19685 h 0.4064 v 0.99695 m 0.19685,-1.79705 v 1.40335 m -0.60325,-0.8001 h 0.60325 m 0.19685,-1.0033 v 1.6002 l -0.19685,0.40005 -0.19685,0.19685 m 1.6002,-2.794 -0.4064,0.3937 -0.19685,0.60325 v 2.200275 l -0.19685,0.40005 h -0.4064 l -0.8001,-0.40005 h -0.3937 l -0.40323,0.200025 -0.40004,0.40005 m 2.79717,-3.2004 v 2.4003 m -0.99695,0.600075 h -0.19685 l -0.4064,-0.200025 h -0.5969 m 2.6035,-3.39725 -0.2032,0.3937 v 2.4003 l -0.2032,0.403225 -0.3937,0.40005 -0.4064,0.200025 H 178.15 l -0.40005,-0.200025 h -0.60008 l -0.40004,0.200025"
       style="fill:none;stroke:#000000;stroke-width:0.00273431in;stroke-linecap:round;stroke-linejoin:round"
       id="path391" />
    <path
       d="m 181.3501,16.6952 0.3937,-0.4064 h 0.60325 l 0.60325,0.2032 0.3937,-0.2032 m -1.397,0.2032 h 0.8001 m -1.397,0.2032 0.3937,-0.2032 0.60325,0.2032 h 0.60325 l 0.3937,-0.4064 m -0.5969,1.0033 -0.2032,0.2032 -0.19685,0.3937 v 0.2032 H 181.947 l -0.2032,0.2032 v 0.3937 l 0.2032,-0.19685 h 0.40005 v 0.99695 m 0.19685,-1.79705 v 1.40335 m -0.5969,-0.8001 h 0.5969 m 0.2032,-1.0033 v 1.6002 l -0.2032,0.40005 -0.19685,0.19685 m 1.6002,-2.794 -0.40005,0.3937 -0.2032,0.60325 v 2.200275 l -0.19685,0.40005 M 183.5472,17.2921 v 2.4003 m 0.40005,-2.9972 -0.19685,0.3937 v 2.4003 l -0.2032,0.403225 -0.40005,0.40005 -0.60325,0.200025 h -0.5969 l -0.5969,-0.200025 -0.40323,-0.40005 V 19.4892 l 0.20003,-0.19685 h 0.2032 l 0.19685,0.19685 -0.19685,0.2032 h -0.2032 m -0.20003,-0.2032 h 0.60008"
       style="fill:none;stroke:#000000;stroke-width:0.00273431in;stroke-linecap:round;stroke-linejoin:round"
       id="path393" />
    <path
       d="m 184.94687,16.6952 0.40323,-0.4064 h 0.5969 l 0.40005,0.2032 0.40005,-0.2032 m -1.20015,0.2032 h 0.60325 m -1.20333,0.2032 0.40323,-0.2032 0.3937,0.2032 h 0.60325 l 0.40005,-0.4064 m -0.8001,1.0033 -0.2032,0.2032 -0.19685,0.3937 v 0.2032 h -0.40005 l -0.20003,0.2032 v 0.3937 l 0.20003,-0.19685 h 0.40005 v 1.20015 m 0.19685,-2.00025 v 1.6002 m -0.5969,-0.99695 h 0.5969 m 0.2032,-1.0033 v 1.8034 l -0.2032,0.3937 -0.19685,0.2032 m -0.19685,0.8001 0.5969,-0.40005 0.5969,-0.200025 h 0.60325 l 0.40005,0.200025 m -1.8034,0.200025 0.4064,-0.200025 h 0.8001 l 0.3937,0.200025 m -1.9939,0.200025 0.8001,-0.200025 h 0.5969 l 0.40005,0.200025 0.40005,-0.40005 m -0.5969,-3.2004 -0.2032,0.19685 -0.2032,0.4064 v 1.79705 m 0.2032,-2.00025 v 1.6002 m 0.2032,-2.00025 v 1.79705 l -0.2032,0.4064 -0.2032,0.19685 m 0.4064,-2.4003 0.3937,-0.40005 0.4064,-0.2032 h 0.3937 l 0.4064,0.2032 m -0.60325,0 h 0.19685 l 0.2032,0.2032 M 187.344,16.492 h 0.4064 l 0.3937,0.40005 0.4064,-0.40005 m -1.0033,1.6002 0.5969,-0.5969 0.2032,0.19685 0.40005,0.19685 m -0.8001,-0.19685 0.40005,0.19685 h 0.40005 m 0,0 -0.40005,0.60325 -0.40005,0.40005 -0.40005,0.40005 m 0.40005,-0.40005 0.40005,0.2032 0.2032,0.796925 0.19685,0.40005 h 0.19685 m -0.5969,-0.803275 0.2032,0.803275 m -0.60325,-1.400175 0.19685,0.2032 0.2032,1.196975 0.2032,0.200025 h 0.19685 l 0.19685,-0.200025 m -1.397,-2.200275 v 2.00025"
       style="fill:none;stroke:#000000;stroke-width:0.00273431in;stroke-linecap:round;stroke-linejoin:round"
       id="path395" />
    <path
       d="m 189.74787,16.6952 0.40323,-0.4064 h 0.5969 l 0.40005,0.2032 0.40005,-0.2032 m -1.20015,0.2032 h 0.60325 m -1.20333,0.2032 0.40323,-0.2032 0.3937,0.2032 h 0.60325 l 0.40005,-0.4064 m -0.8001,1.0033 -0.2032,0.2032 -0.19685,0.3937 v 0.2032 h -0.40005 l -0.20003,0.2032 v 0.3937 l 0.20003,-0.19685 h 0.40005 v 1.20015 m 0.19685,-2.00025 v 1.6002 m -0.5969,-0.99695 h 0.5969 m 0.2032,-1.0033 v 1.8034 l -0.2032,0.3937 -0.19685,0.2032 m -0.19685,0.8001 0.5969,-0.40005 0.8001,-0.200025 h 1.0033 l 0.8001,0.200025 m -2.8067,0.200025 0.60325,-0.200025 h 1.40335 l 0.5969,0.200025 m -2.9972,0.200025 0.8001,-0.200025 h 1.397 l 0.5969,0.200025 0.4064,-0.40005 m -1.6002,-3.2004 -0.2032,0.19685 -0.2032,0.4064 v 1.79705 m 0.2032,-2.00025 v 1.6002 m 0.2032,-2.00025 v 1.79705 l -0.2032,0.4064 -0.2032,0.19685 m 0.4064,-2.4003 0.3937,-0.40005 0.4064,-0.2032 h 0.3937 l 0.4064,0.2032 m -0.60325,0 h 0.19685 l 0.2032,0.2032 M 192.145,16.492 h 0.4064 l 0.3937,0.40005 0.4064,-0.40005 m -0.8001,0 v 3.400425"
       style="fill:none;stroke:#000000;stroke-width:0.00273431in;stroke-linecap:round;stroke-linejoin:round"
       id="path397" />
    <path
       d="m 195.3512,17.0889 -0.2032,0.2032 -0.2032,0.40005 v 0.40005 h -0.3937 l -0.2032,0.2032 v 0.3937 l 0.2032,-0.19685 h 0.3937 v 0.8001 m 0.2032,-1.79705 v 1.397 m -0.5969,-0.5969 h 0.5969 m 0.2032,-1.2065 v 1.6002 l -0.2032,0.4064 -0.2032,0.19685 m -0.99695,1.20015 0.40005,-0.40005 0.40005,-0.200025 h 0.40005 l 0.40005,0.200025 h 0.19685 l 0.2032,-0.200025 m -1.397,0.200025 h 0.5969 l 0.40005,0.200025 m -1.6002,0.200025 0.40005,-0.200025 h 0.5969 l 0.4064,0.200025 h 0.19685 l 0.19685,-0.200025 0.2032,-0.40005 m -0.5969,-2.803525 0.8001,-0.8001 0.8001,0.8001 v 2.6035 l 0.19685,0.40005 h 0.19685 m -1.1938,-3.60045 0.5969,0.5969 v 2.803525 l -0.2032,0.200025 0.2032,0.200025 0.2032,-0.200025 -0.2032,-0.200025 M 196.1513,18.2954 h 0.5969 m -1.0033,-1.6002 h 0.2032 l 0.5969,0.5969 v 0.8001 h -0.5969 m 0,0.40005 h 0.5969 v 1.400175 l -0.19685,0.200025 0.40005,0.40005 0.5969,-0.40005 0.2032,-0.200025 m -0.5969,-2.803525 0.8001,-0.8001 0.8001,0.8001 v 2.6035 l 0.19685,0.40005 h 0.19685 m -1.1938,-3.60045 0.5969,0.5969 v 2.803525 l 0.40005,0.40005 M 197.7515,18.2954 h 0.5969 m -1.0033,-1.6002 h 0.2032 l 0.5969,0.5969 v 0.8001 h -0.5969 m 0,0.40005 h 0.5969 v 1.6002 l 0.4064,0.40005 0.3937,-0.40005 m -2.9972,-3.39725 v 3.197225 m 1.6002,-3.197225 v 3.197225"
       style="fill:none;stroke:#000000;stroke-width:0.00273431in;stroke-linecap:round;stroke-linejoin:round"
       id="path399" />
    <path
       d="m 199.74887,16.89205 0.40323,-0.40005 0.3937,-0.2032 h 0.4064 l 0.3937,0.2032 0.4064,0.5969 0.99695,2.20345 0.40005,0.600075 0.2032,0.200025 m -2.4003,-3.60045 0.3937,0.40005 0.2032,0.40005 1.20015,2.4003 0.60325,0.600075 M 200.1521,16.492 h 0.3937 l 0.4064,0.2032 0.3937,0.5969 1.0033,2.1971 0.40005,0.60325 0.19685,0.200025 0.4064,0.200025 m -0.60325,-3.7973 0.40005,0.19685 h 0.40005 l 0.40005,-0.19685 0.2032,-0.4064 m -1.2065,0.2032 0.4064,0.2032 h 0.3937 m -0.99695,0 0.40005,-0.4064 0.40005,0.2032 h 0.40005 l 0.2032,-0.2032 m -3.6068,1.8034 h -0.3937 l -0.2032,0.2032 v 0.3937 l 0.2032,-0.19685 h 0.3937 m -0.3937,-0.19685 h 0.3937 m -0.79693,2.1971 0.40323,-0.40005 0.3937,-0.200025 h 0.60325 l 0.40005,0.200025 m -1.20015,0 h 0.60325 l 0.3937,0.200025 m -1.59703,0.200025 0.60008,-0.200025 h 0.60325 l 0.19685,0.200025 0.40005,-0.40005 M 200.5458,16.492 v 3.400425 m 2.8067,-3.000375 v 3.60045 m -1.40335,-2.9972 0.19685,0.19685 0.4064,0.19685 h 0.3937 l 0.4064,-0.19685 m -2.8067,1.40335 0.4064,-0.2032 h 0.8001 l 0.3937,0.2032"
       style="fill:none;stroke:#000000;stroke-width:0.00273431in;stroke-linecap:round;stroke-linejoin:round"
       id="path401" />
    <path
       d="m 206.15305,16.2888 -0.40005,0.2032 -0.40005,0.40005 -0.19685,0.40005 -0.2032,0.5969 v 0.8001 l 0.2032,0.60325 0.19685,0.40005 0.40005,0.40005 0.40005,0.200025 0.60325,0.200025 h 0.3937 l 0.60325,-0.200025 0.40005,-0.200025 0.40005,-0.40005 0.19685,-0.40005 0.2032,-0.60325 V 17.889 l -0.2032,-0.5969 -0.19685,-0.40005 -0.40005,-0.40005 -0.40005,-0.2032 -0.19685,0.2032 -0.60325,0.40005 -0.60325,0.19685 m -0.99695,0 -0.19685,0.60325 v 1.20015 l 0.19685,0.5969 m 0.8001,-3.2004 -0.40005,0.4064 -0.2032,0.3937 -0.19685,0.60325 v 1.20015 l 0.19685,0.5969 0.2032,0.403225 0.40005,0.40005 m 2.4003,-0.803275 0.19685,-0.5969 v -1.20015 l -0.3937,-0.8001 -0.2032,-0.19685 m -0.40005,3.597275 0.40005,-0.40005 0.2032,-0.403225 0.19685,-0.5969 v -1.20015 l -0.19685,-0.40005 -0.4064,-0.5969 -0.3937,-0.2032 m -1.2065,0.5969 v 2.6035 m 0.2032,-2.6035 v 2.20345 m 0.2032,-2.20345 v 2.0066 l -0.2032,0.3937 -0.2032,0.2032 m 1.2065,-3.2004 v 3.800475 m 0,-2.600325 0.3937,0.19685 h 0.2032 l 0.40005,-0.19685 m -0.99695,1.20015 0.3937,-0.2032 h 0.2032 l 0.40005,0.2032"
       style="fill:none;stroke:#000000;stroke-width:0.00273431in;stroke-linecap:round;stroke-linejoin:round"
       id="path403" />
    <path
       d="m 210.1539,16.2888 0.2032,0.2032 0.19685,0.40005 v 1.20015 h -0.40005 l -0.20003,0.2032 v 0.3937 l 0.20003,-0.19685 h 0.40005 v 1.6002 l -0.60008,0.40005 0.60008,-0.200025 V 21.8895 l 0.40005,-0.3937 m -0.40005,-4.8006 0.19685,0.3937 v 4.4069 m -0.5969,-3.2004 h 0.5969 m -0.5969,-2.0066 0.40005,0.2032 0.19685,0.2032 0.2032,0.3937 v 4.4069 m 0,-4.2037 0.5969,-0.40005 0.8001,-0.60325 0.8001,0.8001 v 2.803525 M 212.351,16.492 l 0.60325,0.5969 v 2.803525 M 211.9573,16.6952 h 0.19685 l 0.60325,0.5969 v 2.80035 m -1.2065,-0.200025 h 0.60325 l 0.60325,0.200025 m -1.0033,0 h 0.40005 l 0.40005,0.200025 m -1.0033,0 h 0.4064 l 0.3937,0.200025 0.4064,-0.40005 0.3937,-0.200025 m -1.6002,-3.000375 v 4.40055 m 0,-3.60045 0.4064,0.19685 h 0.3937 l 0.4064,-0.19685 m -1.2065,1.20015 0.4064,-0.2032 h 0.3937 l 0.4064,0.2032"
       style="fill:none;stroke:#000000;stroke-width:0.00273431in;stroke-linecap:round;stroke-linejoin:round"
       id="path405" />
    <path
       d="m 215.75405,16.2888 -0.40005,0.2032 -0.40005,0.40005 -0.19685,0.40005 -0.2032,0.5969 v 0.8001 l 0.2032,0.60325 0.19685,0.40005 0.40005,0.40005 0.40005,0.200025 0.40005,0.200025 h 0.8001 l 0.40005,-0.200025 0.40005,-0.200025 0.40005,-0.40005 0.19685,-0.40005 0.2032,-0.60325 V 17.889 l -0.2032,-0.5969 -0.19685,-0.40005 -0.40005,-0.40005 -0.40005,-0.2032 -0.19685,0.2032 -0.60325,0.40005 -0.60325,0.19685 m -0.99695,0 -0.19685,0.60325 v 1.20015 l 0.19685,0.5969 m 0.8001,-3.2004 -0.40005,0.4064 -0.2032,0.3937 -0.19685,0.60325 v 1.20015 l 0.19685,0.5969 0.2032,0.403225 0.40005,0.40005 m 2.4003,-0.803275 0.19685,-0.5969 v -1.20015 l -0.3937,-0.8001 -0.2032,-0.19685 m -0.40005,3.597275 0.40005,-0.40005 0.2032,-0.403225 0.19685,-0.5969 v -1.20015 l -0.19685,-0.40005 -0.4064,-0.5969 -0.3937,-0.2032 m -1.2065,0.5969 v 2.6035 m 0.2032,-2.6035 v 2.20345 m 0.2032,-2.20345 v 2.0066 l -0.2032,0.3937 -0.2032,0.2032 m 1.2065,-3.2004 v 3.800475 m 0,-2.600325 0.3937,0.19685 h 0.2032 l 0.40005,-0.19685 m -0.99695,1.20015 0.3937,-0.2032 h 0.2032 l 0.40005,0.2032 m -2.00025,1.6002 0.2032,-0.200025 h 0.19685 l 0.40005,0.200025 0.8001,1.0033 0.40005,0.19685 h 0.19685 m -1.397,-1.000125 0.40005,0.600075 0.40005,0.40005 h 0.2032 m -1.40335,-1.400175 0.19685,0.200025 0.60325,1.20015 0.40005,0.19685 h 0.40005 l 0.19685,-0.19685"
       style="fill:none;stroke:#000000;stroke-width:0.00273431in;stroke-linecap:round;stroke-linejoin:round"
       id="path407" />
    <path
       d="m 219.55487,16.6952 0.40323,-0.4064 h 0.5969 l 0.40005,0.2032 0.40005,-0.2032 m -1.20015,0.2032 h 0.60325 m -1.20333,0.2032 0.40323,-0.2032 0.3937,0.2032 h 0.60325 l 0.40005,-0.4064 m -0.8001,1.0033 -0.2032,0.2032 -0.19685,0.3937 v 0.2032 h -0.40005 l -0.20003,0.2032 v 0.3937 l 0.20003,-0.19685 h 0.40005 v 1.20015 m 0.19685,-2.00025 v 1.6002 m -0.5969,-0.99695 h 0.5969 m 0.2032,-1.0033 v 1.8034 l -0.2032,0.3937 -0.19685,0.2032 m -0.19685,0.8001 0.5969,-0.40005 0.5969,-0.200025 h 0.4064 l 0.5969,0.200025 m -1.8034,0.200025 0.4064,-0.200025 h 0.8001 l 0.3937,0.200025 m -1.9939,0.200025 0.8001,-0.200025 h 0.5969 l 0.40005,0.200025 0.40005,-0.40005 m -0.5969,-3.2004 -0.2032,0.19685 -0.2032,0.4064 v 1.79705 m 0.2032,-2.00025 v 1.6002 m 0.2032,-2.00025 v 1.79705 l -0.2032,0.4064 -0.2032,0.19685 m 0.4064,-2.4003 0.5969,-0.40005 0.40005,-0.2032 0.40005,0.2032 0.2032,0.40005 v 0.60325 l -0.2032,0.3937 -0.2032,0.2032 -0.8001,0.40005 -0.3937,0.19685 m 0.99695,-2.1971 h 0.19685 l 0.2032,0.40005 v 0.8001 l -0.2032,0.19685 m -0.5969,-1.397 0.40005,0.2032 0.19685,0.3937 v 0.60325 l -0.19685,0.40005 -0.60325,0.40005 m 0,0 0.4064,0.19685 0.19685,0.2032 0.60325,1.000125 0.19685,0.200025 h 0.19685 m -0.99695,-0.99695 0.40005,0.796925 0.40005,0.40005 m -1.40335,-1.800225 0.4064,0.40005 0.3937,1.20015 0.4064,0.40005 0.3937,-0.40005"
       style="fill:none;stroke:#000000;stroke-width:0.00273431in;stroke-linecap:round;stroke-linejoin:round"
       id="path409" />
    <path
       d="m 226.752,16.89205 -0.19685,-0.19685 -0.40005,-0.2032 -0.5969,-0.2032 m 1.397,0.4064 -0.40005,-0.2032 m 0.60325,0 -0.8001,-0.2032 h -0.8001 l -0.60325,0.2032 -0.19685,0.2032 -0.2032,0.3937 0.2032,0.4064 0.19685,0.19685 0.60325,0.19685 h 1.6002 l 0.3937,0.2032 0.2032,0.2032 v 0.3937 l -0.2032,0.60325 m -2.794,-2.00025 0.19685,0.2032 0.60325,0.19685 h 1.79705 l 0.40005,0.19685 0.2032,0.2032 v 0.40005 l -0.2032,0.40005 m -2.9972,-2.1971 v 0.3937 l 0.19685,0.2032 0.60325,0.2032 h 1.9939 l 0.4064,0.19685 0.19685,0.40005 v 0.40005 l -0.60325,0.8001 -0.8001,1.20015 m -2.39713,-2.4003 0.20003,0.2032 0.40005,0.19685 h 1.79705 l 0.2032,0.19685 v 0.2032 l -0.2032,0.40005 m -2.1971,-0.8001 0.40005,0.19685 h 1.6002 l 0.19685,0.2032 m -2.39713,-0.8001 v 0.2032 l 0.20003,0.3937 0.40005,0.2032 h 1.40335 l 0.3937,0.2032 v 0.19685 m -2.39713,1.20015 0.60008,-0.40005 0.8001,-0.200025 h 0.60325 l 0.5969,0.200025 m -2.1971,0.200025 0.5969,-0.200025 h 0.8001 l 0.5969,0.200025 m -2.39713,0.200025 0.79693,-0.200025 h 1.0033 l 0.5969,0.200025 m 0.4064,-4.0005 -0.4064,0.40005 -0.3937,0.60325 m -0.2032,0.3937 -0.40005,0.60325 m -0.19685,0.40005 -0.4064,0.40005 -0.3937,0.19685 h -0.2032 v -0.19685 l 0.2032,0.19685"
       style="fill:none;stroke:#000000;stroke-width:0.00273431in;stroke-linecap:round;stroke-linejoin:round"
       id="path411" />
    <path
       d="m 229.55295,17.0889 -0.19685,0.4064 -0.2032,0.5969 v 0.8001 l 0.2032,0.5969 0.3937,0.60325 0.4064,0.200025 0.5969,0.200025 h 0.5969 l 0.60325,-0.200025 0.40005,-0.200025 0.40005,-0.40005 0.19685,-0.40005 m -3.5941,-0.40005 0.19685,0.5969 0.40005,0.403225 0.40005,0.200025 0.60325,0.200025 h 0.5969 l 0.5969,-0.200025 m -2.59715,-3.00355 -0.19685,0.60325 v 0.8001 l 0.19685,0.60325 0.40005,0.5969 0.40005,0.200025 0.60325,0.200025 h 0.5969 l 0.5969,-0.200025 0.4064,-0.200025 0.3937,-0.40005 m -3.7973,-2.4003 0.2032,-0.40005 0.3937,-0.2032 h 0.8001 l 1.2065,0.2032 h 0.8001 l 0.3937,-0.2032 m -2.1971,0.2032 0.8001,0.2032 h 0.8001 m -3.2004,0.19685 0.2032,-0.19685 0.3937,-0.2032 h 0.60325 l 1.20015,0.40005 h 0.5969 l 0.4064,-0.19685 0.3937,-0.4064 m -1.6002,0.60325 -0.19685,0.19685 -0.40005,0.2032 v 2.1971 m 0.2032,-2.1971 v 1.8034 m 0.19685,-2.0066 v 1.8034 l -0.19685,0.40005 -0.2032,0.19685 m 1.397,-2.59715 v 3.000375"
       style="fill:none;stroke:#000000;stroke-width:0.00273431in;stroke-linecap:round;stroke-linejoin:round"
       id="path413" />
    <path
       d="m 233.75288,16.6952 0.40322,-0.4064 h 0.3937 l 0.60325,0.2032 0.40005,-0.2032 m -1.20015,0.2032 h 0.60325 m -1.20332,0.2032 0.40322,-0.2032 0.5969,0.2032 h 0.40005 l 0.40005,-0.4064 m -1.20015,0.8001 -0.19685,0.4064 -0.2032,0.5969 v 0.8001 l 0.2032,0.5969 0.19685,0.403225 0.40005,0.40005 0.5969,0.200025 h 0.60325 l 0.60325,-0.200025 0.3937,-0.200025 0.4064,0.40005 0.3937,-0.40005 m -3.5941,-1.20015 0.19685,0.5969 0.60325,0.60325 0.5969,0.200025 H 236.15 M 234.35295,17.0889 234.1561,17.889 v 0.60325 l 0.19685,0.60325 0.19685,0.3937 0.4064,0.403225 0.5969,0.200025 h 0.8001 l 0.5969,-0.200025 m -0.5969,-3.000375 -0.8001,0.19685 -0.2032,0.4064 v 1.9939 m 0.2032,-2.1971 v 1.8034 m 0.2032,-2.0066 v 1.8034 l -0.2032,0.40005 -0.2032,0.19685 m 1.0033,-2.59715 0.40005,-0.19685 0.40005,-0.4064 0.2032,0.2032 0.3937,0.2032 -0.3937,0.19685 v 2.80035 l 0.19685,0.40005 h 0.19685 m -0.5969,-3.2004 0.2032,-0.19685 -0.2032,-0.2032 -0.2032,0.2032 0.2032,0.19685 v 3.000375 l 0.40005,0.40005 m -0.8001,-3.597275 0.19685,0.19685 v 3.000375 m -0.5969,-3.000375 v 3.2004 m 0,-2.20345 h 0.5969 m -0.5969,0.8001 h 0.5969"
       style="fill:none;stroke:#000000;stroke-width:0.00273431in;stroke-linecap:round;stroke-linejoin:round"
       id="path415" />
    <path
       d="m 238.7539,16.2888 0.2032,0.2032 0.19685,0.40005 v 1.20015 h -0.40005 l -0.20003,0.2032 v 0.3937 l 0.20003,-0.19685 h 0.40005 v 1.400175 l -0.40005,0.200025 m 0.40005,-3.39725 0.19685,0.3937 v 2.803525 M 238.7539,18.2954 h 0.5969 m 0.2032,1.79705 h 0.5969 l 0.4064,0.200025 m -1.8034,-4.003675 0.40005,0.2032 0.19685,0.2032 0.2032,0.3937 v 2.803525 h 0.8001 l 0.5969,0.200025 m -2.1971,0 h 0.5969 l 0.60325,0.200025 0.40005,0.200025 0.5969,-0.40005 0.60325,-0.200025 h 0.40005 m -1.6002,-2.803525 0.5969,-0.19685 0.4064,-0.19685 0.3937,-0.4064 0.2032,0.2032 0.40005,0.2032 -0.40005,0.19685 v 3.000375 m -0.2032,-3.000375 0.2032,-0.19685 -0.2032,-0.2032 -0.19685,0.2032 0.19685,0.19685 v 2.80035 m -0.3937,-2.9972 0.19685,0.19685 v 3.000375 M 240.3541,17.0889 v 2.803525 m 0,-2.200275 0.40005,0.19685 h 0.40005 l 0.40005,-0.19685 m -1.20015,1.20015 0.40005,-0.2032 h 0.40005 l 0.40005,0.2032"
       style="fill:none;stroke:#000000;stroke-width:0.00273431in;stroke-linecap:round;stroke-linejoin:round"
       id="path417" />
    <path
       d="m 243.3509,16.2888 0.2032,0.2032 0.19685,0.40005 v 1.20015 h -0.40005 l -0.20002,0.2032 v 0.3937 l 0.20002,-0.19685 h 0.40005 v 1.400175 l -0.40005,0.200025 m 0.40005,-3.39725 0.19685,0.3937 v 2.803525 M 243.3509,18.2954 h 0.5969 m 0.2032,1.79705 h 0.40005 l 0.40005,0.200025 m -1.6002,-4.003675 0.40005,0.2032 0.19685,0.2032 0.2032,0.3937 v 2.803525 h 0.5969 l 0.4064,0.200025 m -1.8034,0 h 0.5969 l 0.60325,0.200025 0.19685,0.200025 0.4064,-0.40005 0.5969,-0.200025 0.40005,0.200025 0.19685,0.40005 0.4064,-0.40005 0.5969,-0.200025 m -2.6035,-3.197225 0.60325,-0.4064 0.40005,0.4064 v 3.197225 h 0.5969 l 0.4064,0.200025 m -1.40335,-3.60045 0.19685,0.2032 v 3.197225 M 244.7479,16.6952 h 0.4064 l 0.19685,0.19685 v 3.000375 l -0.19685,0.200025 m 1.1938,0 0.2032,0.200025 m -0.2032,-3.597275 0.60325,-0.4064 0.40005,0.4064 v 3.197225 m -0.40005,-3.400425 0.19685,0.2032 v 3.197225 M 246.3481,16.6952 h 0.4064 l 0.19685,0.19685 v 3.000375 l -0.19685,0.200025 m -2.0066,-3.39725 v 3.197225 m 1.6002,-3.197225 v 3.197225 M 244.7479,17.889 h 0.60325 m -0.60325,0.8001 h 0.60325 m 0.99695,-0.8001 h 0.60325 m -0.60325,0.8001 h 0.60325"
       style="fill:none;stroke:#000000;stroke-width:0.00273431in;stroke-linecap:round;stroke-linejoin:round"
       id="path419" />
    <path
       d="m 248.34885,16.89205 0.40005,-0.40005 0.40005,-0.2032 h 0.40005 l 0.2032,0.2032 1.6002,3.60045 0.19685,0.200025 h 0.40005 m -2.6035,-3.800475 0.2032,0.2032 1.6002,3.39725 0.2032,0.200025 M 248.7489,16.492 h 0.40005 l 0.19685,0.2032 1.6002,3.597275 0.2032,0.200025 h 0.40005 l 0.40005,-0.200025 0.40005,-0.40005 m -0.99695,-3.603625 0.3937,0.2032 h 0.4064 l 0.19685,-0.2032 m -0.99695,0.2032 0.19685,0.2032 h 0.40005 m -0.8001,0 0.2032,0.19685 h 0.3937 l 0.4064,-0.19685 0.19685,-0.4064 m -4.0005,4.2037 0.20002,-0.40005 0.40323,-0.200025 h 0.3937 l 0.2032,0.200025 m -0.8001,0 h 0.40005 l 0.19685,0.200025 m -0.99695,0.200025 0.20002,-0.200025 h 0.40323 l 0.3937,0.200025 m 2.0066,-4.2037 -0.8001,1.8034 m -0.4064,0.5969 -0.8001,1.8034 m -0.19685,-2.1971 h 0.8001 m 0.60325,0 h 0.99695"
       style="fill:none;stroke:#000000;stroke-width:0.00273431in;stroke-linecap:round;stroke-linejoin:round"
       id="path421" />
    <path
       d="m 253.1489,16.2888 0.2032,0.2032 0.19685,0.40005 v 1.20015 h -0.40005 l -0.20002,0.2032 v 0.3937 l 0.20002,-0.19685 h 0.40005 v 1.400175 l -0.40005,0.200025 m 0.40005,-3.39725 0.19685,0.3937 v 2.803525 M 253.1489,18.2954 h 0.5969 m 0.2032,1.79705 h 0.5969 l 0.4064,0.200025 m -1.8034,-4.003675 0.40005,0.2032 0.19685,0.2032 0.2032,0.3937 v 2.803525 h 0.8001 l 0.5969,0.200025 m -2.1971,0 h 0.5969 l 0.60325,0.200025 0.40005,0.200025 0.5969,-0.40005 0.60325,-0.200025 m -1.20015,-2.803525 0.5969,-0.19685 0.4064,-0.19685 0.3937,-0.4064 0.2032,0.2032 0.40005,0.2032 -0.40005,0.19685 v 4.200525 l -0.2032,0.403225 -0.3937,0.3937 -0.4064,-0.19685 -0.8001,-0.19685 h -0.99695 m 2.59715,-4.60375 0.2032,-0.19685 -0.2032,-0.2032 -0.19685,0.2032 0.19685,0.19685 v 3.2004 m -0.3937,-3.39725 0.19685,0.19685 v 3.000375 l 0.40005,0.600075 m -0.40005,1.20015 -0.40005,-0.19685 h -0.5969 m 1.1938,0 -0.5969,-0.2032 h -1.20015 l -0.8001,0.2032 m 1.20015,-4.4069 v 2.803525 m 0,-2.200275 0.40005,0.19685 h 0.40005 l 0.40005,-0.19685 m -1.20015,1.20015 0.40005,-0.2032 h 0.40005 l 0.40005,0.2032"
       style="fill:none;stroke:#000000;stroke-width:0.00273431in;stroke-linecap:round;stroke-linejoin:round"
       id="path423" />
    <path
       d="m 260.3504,16.492 -0.2032,0.40005 -1.0033,1.20015 -0.5969,0.8001 -0.40005,0.8001 -0.60008,0.8001 m 2.39713,-3.2004 -1.6002,2.1971 m 2.4003,-3.2004 -0.5969,0.8001 -0.40005,0.8001 -0.60325,0.8001 -0.99695,1.203325 -0.19685,0.40005 m -0.40323,-3.597275 0.40323,-0.4064 0.5969,0.2032 h 1.20015 l 0.99695,-0.2032 m -2.9972,0.2032 0.8001,0.2032 h 0.8001 l 0.8001,-0.2032 m -2.60033,0.2032 0.79693,0.19685 h 0.8001 l 0.8001,-0.19685 0.4064,-0.2032 m -2.4003,3.800475 0.3937,-0.200025 0.8001,-0.200025 h 0.8001 l 0.8001,0.200025 m -2.59715,0.200025 0.8001,-0.200025 h 0.8001 l 0.8001,0.200025 m -3.00038,0.200025 1.00013,-0.200025 h 1.20015 l 0.60325,0.200025 0.3937,-0.40005 m -2.59715,-1.79705 h 0.8001 m 0.60325,0 h 0.8001"
       style="fill:none;stroke:#000000;stroke-width:0.00273431in;stroke-linecap:round;stroke-linejoin:round"
       id="path425" />
    <path
       d="m 261.9501,15.4887 v 6.4008 m 0.19685,-6.4008 v 6.4008 m -0.19685,-6.4008 h 1.397 m -1.397,6.4008 h 1.397"
       style="fill:none;stroke:#000000;stroke-width:0.00273431in;stroke-linecap:round;stroke-linejoin:round"
       id="path427" />
    <path
       d="m 263.94782,16.2888 2.79718,4.803775"
       style="fill:none;stroke:#000000;stroke-width:0.00273431in;stroke-linecap:round;stroke-linejoin:round"
       id="path429" />
    <path
       d="m 268.54805,15.4887 v 6.4008 m 0.19685,-6.4008 v 6.4008 m -1.397,-6.4008 h 1.397 m -1.397,6.4008 h 1.397"
       style="fill:none;stroke:#000000;stroke-width:0.00273431in;stroke-linecap:round;stroke-linejoin:round"
       id="path431" />
    <path
       d="m 270.1479,19.0955 1.6002,-1.0033 1.6002,1.0033 m -3.2004,0 1.6002,-0.8001 1.6002,0.8001"
       style="fill:none;stroke:#000000;stroke-width:0.00273431in;stroke-linecap:round;stroke-linejoin:round"
       id="path433" />
    <path
       d="m 273.94882,21.8895 h 4.39738"
       style="fill:none;stroke:#000000;stroke-width:0.00273431in;stroke-linecap:round;stroke-linejoin:round"
       id="path435" />
    <path
       d="m 279.1531,16.2888 0.99695,1.2065 m -0.99695,-1.2065 -0.2032,0.2032 1.20015,1.0033"
       style="fill:none;stroke:#000000;stroke-width:0.00273431in;stroke-linecap:round;stroke-linejoin:round"
       id="path437" />
    <path
       d="m 281.9468,18.6891 -0.3937,0.4064 -0.2032,0.3937 v 0.403225 l 0.2032,0.40005 0.3937,0.200025 0.4064,-0.40005 0.5969,-0.200025 m -1.6002,-0.403225 0.2032,0.403225 0.19685,0.200025 0.40005,0.200025 M 281.5531,19.0955 v 0.3937 l 0.19685,0.403225 0.40005,0.200025 h 0.2032 m -0.8001,-1.79705 h 0.3937 l 0.60325,-0.2032 0.40005,-0.2032 0.2032,-0.19685 0.3937,0.40005 -0.19685,0.2032 v 1.597025 l 0.19685,0.200025 h 0.2032 m -2.00025,-2.20345 -0.19685,0.2032 h 0.5969 m 0.5969,0 h 0.60325 L 283.1533,17.889 v 2.20345 l 0.19685,0.200025 m -2.00025,-2.200275 0.40005,-0.40005 0.19685,0.19685 0.4064,0.2032 0.5969,0.2032 v 1.79705 l 0.40005,0.40005 0.40005,-0.40005 m -2.4003,-2.00025 1.0033,1.0033"
       style="fill:none;stroke:#000000;stroke-width:0.00273431in;stroke-linecap:round;stroke-linejoin:round"
       id="path439" />
    <path
       d="m 284.7529,16.6952 0.2032,0.3937 v 2.803525 l -0.40322,0.200025 m 0.60007,-3.00355 -0.19685,-0.3937 0.19685,-0.2032 v 3.400425 l 0.60325,0.40005 m -1.0033,-3.597275 0.5969,-0.4064 v 3.603625 l 0.4064,0.200025 0.19685,0.200025 m -1.40017,-0.200025 h 0.40322 l 0.3937,0.200025 0.2032,0.200025 0.40005,-0.200025 0.60325,-0.200025 h 0.3937 m -1.6002,-1.79705 0.60325,-0.2032 0.40005,-0.2032 0.2032,-0.19685 0.19685,0.19685 0.40005,0.2032 h 0.2032 l -0.4064,0.2032 v 1.79705 m -0.5969,-2.20345 0.40005,0.2032 v 1.800225 m -0.8001,-1.800225 h 0.19685 l 0.4064,0.2032 v 1.79705"
       style="fill:none;stroke:#000000;stroke-width:0.00273431in;stroke-linecap:round;stroke-linejoin:round"
       id="path441" />
    <path
       d="m 288.5571,18.0922 v 1.800225 l -0.40322,0.200025 h 0.20002 l 0.40005,0.200025 0.19685,0.200025 m -0.19685,-2.4003 v 2.00025 l 0.40005,0.200025 M 288.9508,18.0922 v 1.800225 l 0.4064,0.200025 h 0.19685 l -0.40005,0.200025 -0.2032,0.200025 m -0.3937,-2.4003 0.8001,-0.2032 0.3937,-0.19685 0.2032,0.19685 0.40005,0.2032 h 0.19685 m -0.99695,-0.2032 0.19685,0.2032 h 0.4064 m -1.2065,0 0.4064,-0.2032 0.3937,0.4064 h 0.4064 l 0.3937,-0.2032"
       style="fill:none;stroke:#000000;stroke-width:0.00273431in;stroke-linecap:round;stroke-linejoin:round"
       id="path443" />
    <path
       d="m 292.35405,17.69215 -0.40005,0.19685 -0.5969,0.2032 v 1.800225 l -0.40323,0.200025 m 0.60008,-2.00025 v 1.800225 l 0.60325,0.40005 m 0.19685,-2.600325 -0.60325,0.40005 v 1.800225 l 0.4064,0.200025 0.19685,0.200025 m -1.40018,-0.200025 h 0.40323 l 0.3937,0.200025 0.2032,0.200025 0.40005,-0.200025 0.60325,-0.200025 h 0.3937 m -1.9939,-3.39725 0.5969,-0.4064 0.2032,0.60325 1.1938,1.20015 v 2.00025 m -1.397,-3.2004 -0.40005,-0.19685 0.19685,-0.2032 0.2032,0.40005 1.20015,1.20015 v 1.800225 m -1.79705,-3.197225 1.6002,1.6002 v 1.79705"
       style="fill:none;stroke:#000000;stroke-width:0.00273431in;stroke-linecap:round;stroke-linejoin:round"
       id="path445" />
    <path
       d="m 294.7611,18.0922 v 1.800225 l -0.40323,0.200025 h 0.20003 l 0.40005,0.200025 0.19685,0.200025 m -0.19685,-2.4003 v 2.00025 l 0.40005,0.200025 M 295.1548,18.0922 v 1.800225 l 0.4064,0.200025 h 0.19685 l -0.40005,0.200025 -0.2032,0.200025 m -0.3937,-2.4003 0.8001,-0.2032 0.3937,-0.19685 0.60325,0.8001 -0.40005,0.19685 -1.0033,0.60325 m 0.60325,-1.40335 0.60325,0.60325 m -1.2065,-0.40005 0.4064,-0.2032 0.5969,0.8001"
       style="fill:none;stroke:#000000;stroke-width:0.00273431in;stroke-linecap:round;stroke-linejoin:round"
       id="path447" />
    <path
       d="m 297.5611,16.6952 v 3.197225 l -0.40323,0.200025 h 0.20003 l 0.40005,0.200025 0.19685,0.200025 m -0.19685,-3.7973 v 3.39725 l 0.40005,0.200025 M 297.9548,16.6952 v 3.197225 l 0.4064,0.200025 h 0.19685 l -0.40005,0.200025 -0.2032,0.200025 m -0.3937,-3.7973 0.5969,-0.2032 0.40005,-0.2032 0.19685,0.2032 0.4064,0.2032 h 0.19685 m -0.99695,-0.2032 0.19685,0.2032 h 0.40005 m -1.0033,0 0.2032,-0.2032 0.40005,0.40005 h 0.40005 l 0.40005,-0.19685 m -2.4003,0.99695 h 0.60325 m 0.3937,0 h 0.8001"
       style="fill:none;stroke:#000000;stroke-width:0.00273431in;stroke-linecap:round;stroke-linejoin:round"
       id="path449" />
    <path
       d="m 300.1651,18.0922 v 1.800225 l -0.40322,0.200025 h 0.20002 l 0.40005,0.200025 0.19685,0.200025 0.2032,-0.200025 0.40005,-0.200025 0.60325,-0.200025 M 300.36195,18.2954 v 1.79705 l 0.40005,0.200025 M 300.5588,18.0922 v 1.800225 l 0.4064,0.200025 h 0.19685 M 300.1651,18.0922 h 0.3937 l 0.60325,-0.2032 0.40005,-0.19685 0.2032,0.19685 0.3937,0.2032 h 0.4064 l -0.4064,0.2032 v 2.397125 l -0.19685,0.600075 -0.40005,0.40005 -0.40005,0.19685 -0.19685,-0.19685 -0.4064,-0.19685 h -0.3937 m 1.1938,-3.6068 0.60325,0.4064 v 2.397125 m -0.60325,1.000125 -0.3937,-0.19685 h -0.2032 m 0.40005,-3.6068 0.19685,0.2032 0.4064,0.2032 v 1.997075 l 0.19685,0.600075 v 0.40005 m -0.40005,0.40005 -0.2032,-0.19685 -0.3937,-0.2032 h -0.4064 l -0.3937,0.2032"
       style="fill:none;stroke:#000000;stroke-width:0.00273431in;stroke-linecap:round;stroke-linejoin:round"
       id="path451" />
    <path
       d="m 303.5619,16.6952 0.2032,0.3937 v 2.803525 l -0.40323,0.200025 h 0.20003 l 0.40005,0.200025 0.19685,0.200025 m -0.19685,-3.4036 -0.19685,-0.3937 0.19685,-0.2032 v 3.60045 l 0.40005,0.200025 m -0.8001,-3.597275 0.5969,-0.4064 v 3.603625 l 0.4064,0.200025 -0.4064,0.40005 m 0,-2.1971 0.60325,-0.2032 0.40005,-0.2032 0.2032,-0.19685 0.19685,0.19685 0.40005,0.2032 h 0.2032 l -0.4064,0.2032 v 1.79705 l -0.3937,0.40005 -0.2032,0.40005 m 0,-3.00355 0.40005,0.2032 v 2.00025 l -0.19685,0.40005 m -0.60325,-2.4003 h 0.19685 l 0.4064,0.2032 v 1.79705 l -0.2032,0.8001 v 0.60325 l 0.2032,0.3937 h 0.19685 l -0.40005,-0.3937"
       style="fill:none;stroke:#000000;stroke-width:0.00273431in;stroke-linecap:round;stroke-linejoin:round"
       id="path453" />
    <path
       d="m 307.56295,16.2888 -0.40005,0.4064 0.40005,0.19685 0.40005,-0.19685 -0.40005,-0.4064 m 0,0.2032 -0.19685,0.2032 h 0.3937 l -0.19685,-0.2032 m 0,1.20015 -0.19685,0.19685 -0.40323,0.2032 0.40323,0.2032 v 1.79705 l 0.3937,0.40005 0.4064,-0.40005 m -0.60325,-1.79705 0.19685,-0.2032 -0.19685,-0.2032 -0.19685,0.2032 0.19685,0.2032 v 1.79705 l 0.19685,0.200025 m -0.19685,-2.600325 0.19685,0.19685 0.4064,0.2032 -0.4064,0.2032 v 1.597025 l 0.2032,0.200025 h 0.2032"
       style="fill:none;stroke:#000000;stroke-width:0.00273431in;stroke-linecap:round;stroke-linejoin:round"
       id="path455" />
    <path
       d="m 309.56295,16.2888 -0.40005,0.4064 0.40005,0.19685 0.40005,-0.19685 -0.40005,-0.4064 m 0,0.2032 -0.19685,0.2032 h 0.3937 l -0.19685,-0.2032 m 0,1.20015 -0.19685,0.19685 -0.40323,0.2032 0.40323,0.2032 v 1.79705 l 0.3937,0.40005 0.2032,0.40005 m -0.40005,-2.59715 0.19685,-0.2032 -0.19685,-0.2032 -0.19685,0.2032 0.19685,0.2032 v 1.79705 l 0.19685,0.40005 m -0.19685,-2.80035 0.19685,0.19685 0.4064,0.2032 -0.4064,0.2032 v 1.79705 l 0.2032,0.8001 v 0.60325 l -0.40005,0.3937 h -0.40005 v -0.19685 l 0.40005,0.19685"
       style="fill:none;stroke:#000000;stroke-width:0.00273431in;stroke-linecap:round;stroke-linejoin:round"
       id="path457" />
    <path
       d="m 311.1629,16.6952 0.2032,0.3937 v 2.803525 l -0.40323,0.200025 h 0.20003 l 0.40005,0.200025 0.19685,0.200025 m -0.19685,-3.4036 -0.19685,-0.3937 0.19685,-0.2032 v 3.60045 l 0.40005,0.200025 m -0.8001,-3.597275 0.5969,-0.4064 v 3.603625 l 0.4064,0.200025 -0.4064,0.40005 m 0,-2.1971 0.60325,-0.4064 0.40005,-0.19685 0.40005,0.60325 -0.60325,0.3937 -0.8001,0.60325 m 0.8001,-1.40335 0.4064,0.4064 m -0.60325,-0.4064 0.40005,0.60325 m -0.2032,0.19685 0.2032,0.2032 0.40005,1.000125 0.19685,0.200025 h 0.2032 m -1.0033,-1.20015 0.2032,0.2032 0.2032,0.99695 0.19685,0.200025 m -0.8001,-1.400175 0.19685,0.2032 0.2032,0.99695 0.40005,0.40005 0.40005,-0.40005"
       style="fill:none;stroke:#000000;stroke-width:0.00273431in;stroke-linecap:round;stroke-linejoin:round"
       id="path459" />
    <path
       d="m 314.5669,16.6952 0.2032,0.3937 v 2.803525 l -0.40323,0.200025 h 0.20003 l 0.40005,0.200025 0.19685,0.200025 m -0.19685,-3.4036 -0.19685,-0.3937 0.19685,-0.2032 v 3.60045 l 0.40005,0.200025 m -0.8001,-3.597275 0.5969,-0.4064 v 3.603625 l 0.4064,0.200025 h 0.19685 l -0.40005,0.200025 -0.2032,0.200025"
       style="fill:none;stroke:#000000;stroke-width:0.00273431in;stroke-linecap:round;stroke-linejoin:round"
       id="path461" />
    <path
       d="m 316.36687,18.0922 h 0.20003 l 0.2032,0.2032 v 1.597025 l -0.40323,0.200025 h 0.20003 l 0.40005,0.200025 0.19685,0.200025 m -0.3937,-2.6035 0.19685,0.2032 v 2.00025 l 0.40005,0.200025 m -1.00013,-2.200275 0.40323,-0.40005 0.3937,0.40005 v 1.800225 l 0.4064,0.200025 -0.4064,0.40005 m 0,-2.1971 0.60325,-0.2032 0.40005,-0.2032 0.2032,-0.19685 0.3937,0.40005 v 1.800225 l 0.4064,0.200025 -0.4064,0.40005 m -0.5969,-2.6035 0.40005,0.2032 v 2.00025 l 0.40005,0.200025 M 317.76705,18.0922 h 0.19685 l 0.4064,0.2032 v 1.597025 l -0.2032,0.200025 0.40005,0.200025 0.19685,0.200025 m 0,-2.1971 0.60325,-0.2032 0.40005,-0.2032 0.2032,-0.19685 0.19685,0.19685 0.40005,0.2032 h 0.2032 l -0.4064,0.2032 v 1.597025 l 0.2032,0.200025 h 0.2032 m -1.0033,-2.20345 0.40005,0.2032 v 2.00025 l 0.19685,0.200025 M 319.36725,18.0922 h 0.19685 l 0.4064,0.2032 v 1.79705 l 0.3937,0.40005 0.4064,-0.40005"
       style="fill:none;stroke:#000000;stroke-width:0.00273431in;stroke-linecap:round;stroke-linejoin:round"
       id="path463" />
    <path
       d="m 321.56788,18.0922 h 0.20002 l 0.2032,0.2032 v 1.597025 l -0.40322,0.200025 h 0.20002 l 0.40005,0.200025 0.19685,0.200025 m -0.3937,-2.6035 0.19685,0.2032 v 2.00025 l 0.40005,0.200025 m -1.00012,-2.200275 0.40322,-0.40005 0.3937,0.40005 v 1.800225 l 0.4064,0.200025 -0.4064,0.40005 m 0,-2.1971 0.60325,-0.2032 0.40005,-0.2032 0.2032,-0.19685 0.19685,0.19685 0.40005,0.2032 h 0.2032 l -0.4064,0.2032 v 1.597025 l 0.2032,0.200025 h 0.2032 m -1.0033,-2.20345 0.40005,0.2032 v 2.00025 l 0.19685,0.200025 M 322.96805,18.0922 h 0.19685 l 0.4064,0.2032 v 1.79705 l 0.3937,0.40005 0.4064,-0.40005"
       style="fill:none;stroke:#000000;stroke-width:0.00273431in;stroke-linecap:round;stroke-linejoin:round"
       id="path465" />
    <path
       d="m 325.5711,18.0922 v 1.800225 l -0.40323,0.200025 m 0.60008,-1.79705 v 1.597025 l 0.60325,0.40005 M 325.9648,18.0922 v 1.800225 l 0.4064,0.200025 0.19685,0.200025 m -1.40018,-0.200025 h 0.40323 l 0.3937,0.200025 0.2032,0.200025 0.40005,-0.200025 0.60325,-0.200025 h 0.3937 m -1.9939,-2.00025 h 0.3937 l 0.60325,-0.2032 0.40005,-0.19685 0.2032,0.19685 0.3937,0.2032 h 0.4064 l -0.4064,0.2032 v 1.79705 m -0.8001,-2.20345 0.60325,0.4064 v 1.597025 m -0.8001,-2.003425 0.19685,0.2032 0.4064,0.2032 v 1.79705"
       style="fill:none;stroke:#000000;stroke-width:0.00273431in;stroke-linecap:round;stroke-linejoin:round"
       id="path467" />
    <path
       d="m 328.9679,17.69215 0.2032,0.40005 v 1.800225 l -0.40323,0.200025 h 0.40323 v 1.79705 m 0,-4.0005 0.19685,0.2032 v 3.60045 l 0.19685,-0.19685 -0.19685,-0.403225 m 0,-1.000125 h 0.19685 l 0.4064,0.200025 m -1.0033,-2.600325 0.40005,0.19685 0.19685,0.2032 v 1.800225 l 0.4064,0.200025 0.19685,0.200025 m -0.60325,0 0.2032,0.200025 0.40005,-0.200025 0.60325,-0.200025 h 0.3937 m -1.6002,0.200025 v 0.8001 l 0.2032,0.403225 -0.5969,0.3937 m 0.3937,-3.5941 0.60325,-0.2032 0.40005,-0.2032 0.2032,-0.19685 0.19685,0.19685 0.40005,0.2032 h 0.2032 l -0.4064,0.2032 v 1.79705 m -0.5969,-2.20345 0.40005,0.2032 v 1.800225 m -0.8001,-1.800225 h 0.19685 l 0.4064,0.2032 v 1.79705"
       style="fill:none;stroke:#000000;stroke-width:0.00273431in;stroke-linecap:round;stroke-linejoin:round"
       id="path469" />
    <path
       d="m 332.7721,18.0922 v 1.800225 l -0.40323,0.200025 m 0.60008,-1.79705 v 1.79705 l 0.40005,0.200025 M 333.1658,18.0922 v 1.800225 l 0.4064,0.200025 h 0.19685 m -1.40018,0 h 0.20003 l 0.40005,0.200025 0.19685,0.200025 0.2032,-0.200025 0.40005,-0.200025 0.60325,-0.200025 M 332.7721,18.0922 h 0.3937 l 0.60325,-0.2032 0.40005,-0.19685 0.2032,0.19685 0.3937,0.2032 h 0.4064 l -0.4064,0.2032 v 3.5941 m -0.8001,-4.0005 0.60325,0.4064 v 3.39725 l -0.19685,-0.19685 0.19685,-0.403225 m -0.8001,-3.203575 0.19685,0.2032 0.4064,0.2032 v 2.797175 l -0.2032,0.403225 0.5969,0.3937"
       style="fill:none;stroke:#000000;stroke-width:0.00273431in;stroke-linecap:round;stroke-linejoin:round"
       id="path471" />
    <path
       d="m 335.96888,18.0922 h 0.20002 l 0.2032,0.2032 v 1.597025 l -0.40322,0.200025 h 0.20002 l 0.40005,0.200025 0.19685,0.200025 m -0.5969,-2.6035 0.40005,0.2032 v 2.00025 l 0.40005,0.200025 m -1.00012,-2.200275 0.40322,-0.40005 0.3937,0.40005 v 1.800225 l 0.4064,0.200025 h 0.19685 l -0.40005,0.200025 -0.2032,0.200025 m 0,-2.4003 0.8001,-0.40005 0.2032,0.19685 0.40005,0.2032 h 0.19685 m -0.99695,-0.2032 0.19685,0.2032 h 0.4064 m -0.8001,-0.2032 0.3937,0.4064 h 0.4064 l 0.3937,-0.2032"
       style="fill:none;stroke:#000000;stroke-width:0.00273431in;stroke-linecap:round;stroke-linejoin:round"
       id="path473" />
    <path
       d="m 338.9699,18.0922 v 0.8001 l 0.40005,0.2032 h 1.20015 l 0.40005,0.19685 v 0.8001 M 339.1731,18.0922 v 0.8001 m 1.6002,0.40005 v 0.8001 m -1.2065,-2.20345 -0.19685,0.2032 v 0.8001 l 0.40005,0.2032 m 0.40005,0 0.40005,0.19685 v 0.8001 l -0.2032,0.200025 m -1.397,-2.200275 0.5969,-0.2032 0.4064,-0.19685 0.3937,0.19685 h 0.4064 l 0.19685,-0.19685 M 339.77,17.889 h 0.40005 m -0.60325,0 0.4064,0.2032 h 0.3937 l 0.4064,-0.2032 m 0.19685,2.20345 -0.60325,0.200025 -0.3937,0.200025 -0.4064,-0.200025 h -0.3937 l -0.40322,0.200025 m 1.40017,-0.200025 H 339.77 m 0.5969,0 -0.3937,-0.200025 h -0.60325 l -0.60007,0.40005 m 2.20027,-2.80035 -0.19685,0.40005 -0.4064,0.5969 -0.99695,1.0033 -0.60007,0.8001"
       style="fill:none;stroke:#000000;stroke-width:0.00273431in;stroke-linecap:round;stroke-linejoin:round"
       id="path475" />
    <path
       d="m 342.1699,16.6952 0.2032,0.3937 v 2.803525 l -0.40323,0.200025 h 0.20003 l 0.40005,0.200025 0.19685,0.200025 m -0.19685,-3.4036 -0.19685,-0.3937 0.19685,-0.2032 v 3.60045 l 0.40005,0.200025 m -0.8001,-3.597275 0.5969,-0.4064 v 3.603625 l 0.4064,0.200025 h 0.19685 L 342.97,20.292475 342.7668,20.4925 m -0.99695,-2.80035 h 0.60325 m 0.3937,0 h 0.60325"
       style="fill:none;stroke:#000000;stroke-width:0.00273431in;stroke-linecap:round;stroke-linejoin:round"
       id="path477" />
    <path
       d="m 343.96987,18.0922 h 0.20003 l 0.2032,0.2032 v 1.597025 l -0.40323,0.200025 m 0.20003,-2.20345 0.40005,0.2032 v 2.00025 l 0.40005,0.200025 m -1.00013,-2.200275 0.40323,-0.40005 0.3937,0.40005 v 1.800225 l 0.4064,0.200025 h 0.19685 m -1.40018,0 h 0.20003 l 0.40005,0.200025 0.19685,0.200025 0.2032,-0.200025 0.40005,-0.200025 0.60325,-0.200025 m 0,-2.200275 0.19685,0.19685 0.40005,0.2032 h 0.2032 l -0.4064,0.2032 v 1.597025 l 0.2032,0.200025 h 0.2032 m -1.0033,-2.20345 0.40005,0.2032 v 2.00025 l 0.19685,0.200025 m -0.3937,-2.600325 -0.4064,0.40005 0.4064,0.2032 v 1.79705 l 0.3937,0.40005 0.4064,-0.40005"
       style="fill:none;stroke:#000000;stroke-width:0.00273431in;stroke-linecap:round;stroke-linejoin:round"
       id="path479" />
    <path
       d="m 347.7709,17.69215 0.2032,0.40005 v 1.800225 l 0.5969,0.600075 0.40005,-0.40005 0.60325,-0.200025 h 0.3937 m -1.9939,-2.003425 0.19685,0.2032 v 1.800225 l 0.60325,0.40005 m -1.0033,-2.600325 0.40005,0.19685 0.19685,0.2032 v 1.6002 l 0.2032,0.200025 0.40005,0.200025 m 0.60325,-2.4003 0.19685,0.19685 0.40005,0.2032 h 0.2032 l -0.4064,0.2032 v 1.597025 m -0.5969,-2.003425 0.40005,0.2032 v 1.6002 m -0.19685,-2.00025 -0.4064,0.40005 0.4064,0.2032 v 1.597025"
       style="fill:none;stroke:#000000;stroke-width:0.00273431in;stroke-linecap:round;stroke-linejoin:round"
       id="path481" />
    <path
       d="m 351.3709,17.69215 0.2032,0.40005 v 1.800225 l 0.5969,0.600075 0.40005,-0.40005 0.60325,-0.200025 m -1.6002,-2.003425 0.19685,0.2032 v 1.800225 l 0.60325,0.40005 m -1.0033,-2.600325 0.40005,0.19685 0.19685,0.2032 v 1.6002 l 0.2032,0.200025 0.40005,0.200025 m 0.60325,-2.4003 -0.4064,0.40005 0.4064,0.2032 v 1.597025 l 0.5969,0.600075 0.40005,-0.40005 0.60325,-0.200025 h 0.3937 m -2.1971,-2.003425 0.40005,0.2032 v 1.800225 l 0.60325,0.40005 m -0.8001,-2.600325 0.19685,0.19685 0.40005,0.2032 -0.2032,0.2032 v 1.397 l 0.2032,0.200025 0.40005,0.200025 m 0.60325,-2.4003 0.19685,0.19685 0.40005,0.2032 h 0.2032 l -0.4064,0.2032 v 1.597025 m -0.5969,-2.003425 0.40005,0.2032 v 1.6002 m -0.19685,-2.00025 -0.4064,0.40005 0.4064,0.2032 v 1.597025"
       style="fill:none;stroke:#000000;stroke-width:0.00273431in;stroke-linecap:round;stroke-linejoin:round"
       id="path483" />
    <path
       d="m 356.5719,18.0922 h 0.2032 l 0.3937,0.2032 0.2032,0.19685 0.8001,1.6002 0.2032,0.200025 0.3937,0.200025 0.4064,-0.40005 m -2.20345,-2.20345 0.40005,0.2032 1.0033,2.00025 0.3937,0.200025 m -2.1971,-2.200275 0.40005,-0.40005 0.40005,0.19685 0.2032,0.2032 0.8001,1.6002 0.19685,0.200025 0.40005,0.200025 h 0.2032 m -1.2065,-1.20015 0.60325,-1.20015 0.19685,0.19685 h 0.4064 l 0.19685,-0.19685 m -0.8001,0.19685 0.19685,0.2032 h 0.2032 m -0.5969,0 0.3937,0.2032 0.4064,-0.2032 0.19685,-0.40005 m -1.6002,1.6002 -0.60325,1.20015 -0.19685,-0.200025 h -0.40005 l -0.20003,0.200025 m 0.79693,-0.200025 -0.19685,-0.200025 h -0.19685 m 0.5969,0 -0.40005,-0.200025 -0.40005,0.200025 -0.20003,0.40005 m 0.60008,-1.397 h 0.60325 m 0.5969,0 h 0.5969"
       style="fill:none;stroke:#000000;stroke-width:0.00273431in;stroke-linecap:round;stroke-linejoin:round"
       id="path485" />
    <path
       d="m 360.16888,18.0922 h 0.20002 l 0.2032,0.2032 v 1.597025 l -0.40322,0.200025 m 0.20002,-2.20345 0.40005,0.2032 v 2.00025 l 0.40005,0.200025 m -1.00012,-2.200275 0.40322,-0.40005 0.3937,0.40005 v 1.800225 l 0.4064,0.200025 h 0.19685 m -1.40017,0 h 0.20002 l 0.40005,0.200025 0.19685,0.200025 0.2032,-0.200025 0.40005,-0.200025 0.60325,-0.200025 m 0,-2.200275 0.19685,0.19685 0.40005,0.2032 h 0.2032 l -0.4064,0.2032 v 2.397125 l -0.19685,0.600075 -0.40005,0.40005 -0.40005,0.19685 -0.19685,-0.19685 -0.4064,-0.19685 h -0.3937 m 1.397,-3.6068 0.40005,0.2032 v 2.600325 m -0.60325,1.000125 -0.3937,-0.19685 h -0.2032 m 1.0033,-3.80365 -0.4064,0.40005 0.4064,0.2032 v 1.997075 l 0.19685,0.600075 v 0.40005 m -0.40005,0.40005 -0.2032,-0.19685 -0.3937,-0.2032 h -0.4064 l -0.3937,0.2032"
       style="fill:none;stroke:#000000;stroke-width:0.00273431in;stroke-linecap:round;stroke-linejoin:round"
       id="path487" />
    <path
       d="m 366.3702,17.69215 -2.4003,2.80035 m 0,-2.4003 0.40005,0.2032 h 0.60325 l 0.5969,-0.2032 0.8001,-0.40005 m -2.1971,0.19685 0.3937,0.2032 h 0.8001 m -1.397,0 0.40005,-0.40005 0.40005,0.19685 h 0.8001 l 0.8001,-0.19685 m -2.4003,2.80035 0.8001,-0.40005 0.5969,-0.200025 h 0.60325 l 0.40005,0.200025 m -1.397,0 h 0.8001 l 0.3937,0.200025 m -2.1971,0.200025 0.8001,-0.200025 h 0.8001 l 0.40005,0.200025 0.40005,-0.40005 m -2.00025,-0.99695 h 1.6002"
       style="fill:none;stroke:#000000;stroke-width:0.00273431in;stroke-linecap:round;stroke-linejoin:round"
       id="path489" />
    <path
       d="m 368.77005,15.4887 -0.40005,0.2032 -0.2032,0.2032 -0.19685,0.3937 v 0.4064 l 0.19685,0.3937 0.2032,0.2032 0.2032,0.40005 v 0.40005 l -0.4064,0.40005 m 0.2032,-2.80035 -0.2032,0.40005 V 16.492 l 0.2032,0.40005 0.2032,0.19685 0.19685,0.4064 v 0.3937 l -0.19685,0.4064 -0.8001,0.3937 0.8001,0.4064 0.19685,0.3937 v 0.403225 l -0.19685,0.40005 -0.2032,0.200025 -0.2032,0.40005 v 0.40005 l 0.2032,0.40005 m -0.2032,-2.80035 0.4064,0.40005 v 0.40005 l -0.2032,0.40005 -0.2032,0.200025 -0.19685,0.40005 v 0.40005 l 0.19685,0.403225 0.2032,0.19685 0.40005,0.19685"
       style="fill:none;stroke:#000000;stroke-width:0.00273431in;stroke-linecap:round;stroke-linejoin:round"
       id="path491" />
    <path
       d="m 370.5731,15.4887 v 6.4008"
       style="fill:none;stroke:#000000;stroke-width:0.00273431in;stroke-linecap:round;stroke-linejoin:round"
       id="path493" />
    <path
       d="m 372.37095,15.4887 0.40005,0.2032 0.2032,0.2032 0.19685,0.3937 v 0.4064 l -0.19685,0.3937 -0.2032,0.2032 -0.2032,0.40005 v 0.40005 l 0.4064,0.40005 m -0.2032,-2.80035 0.2032,0.40005 V 16.492 l -0.2032,0.40005 -0.2032,0.19685 -0.19685,0.4064 v 0.3937 l 0.19685,0.4064 0.8001,0.3937 -0.8001,0.4064 -0.19685,0.3937 v 0.403225 l 0.19685,0.40005 0.2032,0.200025 0.2032,0.40005 v 0.40005 l -0.2032,0.40005 m 0.2032,-2.80035 -0.4064,0.40005 v 0.40005 l 0.2032,0.40005 0.2032,0.200025 0.19685,0.40005 v 0.40005 l -0.19685,0.403225 -0.2032,0.19685 -0.40005,0.19685"
       style="fill:none;stroke:#000000;stroke-width:0.00273431in;stroke-linecap:round;stroke-linejoin:round"
       id="path495" />
    <path
       d="M 374.7709,19.29235 V 18.8923 l 0.2032,-0.5969 0.3937,-0.2032 h 0.4064 l 0.3937,0.2032 0.8001,0.5969 0.4064,0.2032 h 0.3937 l 0.4064,-0.2032 0.19685,-0.40005 m -3.60045,0.40005 0.2032,-0.40005 0.3937,-0.19685 h 0.4064 l 0.3937,0.19685 0.8001,0.60325 0.4064,0.19685 h 0.3937 l 0.4064,-0.19685 0.19685,-0.60325 V 18.0922"
       style="fill:none;stroke:#000000;stroke-width:0.00273431in;stroke-linecap:round;stroke-linejoin:round"
       id="path497" />
  </g>
</svg>
