<?xml version="1.0" encoding="UTF-8" standalone="no"?>
<svg
   xmlns:dc="http://purl.org/dc/elements/1.1/"
   xmlns:cc="http://creativecommons.org/ns#"
   xmlns:rdf="http://www.w3.org/1999/02/22-rdf-syntax-ns#"
   xmlns:svg="http://www.w3.org/2000/svg"
   xmlns="http://www.w3.org/2000/svg"
   xmlns:sodipodi="http://sodipodi.sourceforge.net/DTD/sodipodi-0.dtd"
   xmlns:inkscape="http://www.inkscape.org/namespaces/inkscape"
   width="210mm"
   height="297mm"
   viewBox="0 0 210 297"
   version="1.1"
   id="svg873"
   inkscape:version="1.0.1 (3bc2e813f5, 2020-09-07)"
   sodipodi:docname="marx.svg">
  <defs
     id="defs867" />
  <sodipodi:namedview
     id="base"
     pagecolor="#ffffff"
     bordercolor="#666666"
     borderopacity="1.0"
     inkscape:pageopacity="0.0"
     inkscape:pageshadow="2"
     inkscape:zoom="0.96695067"
     inkscape:cx="466.12653"
     inkscape:cy="751.44515"
     inkscape:document-units="mm"
     inkscape:current-layer="layer1"
     inkscape:document-rotation="0"
     showgrid="false"
     inkscape:window-width="1920"
     inkscape:window-height="1137"
     inkscape:window-x="-8"
     inkscape:window-y="-8"
     inkscape:window-maximized="1" />
  <metadata
     id="metadata870">
    <rdf:RDF>
      <cc:Work
         rdf:about="">
        <dc:format>image/svg+xml</dc:format>
        <dc:type
           rdf:resource="http://purl.org/dc/dcmitype/StillImage" />
        <dc:title></dc:title>
      </cc:Work>
    </rdf:RDF>
  </metadata>
  <g
     inkscape:label="Layer 1"
     inkscape:groupmode="layer"
     id="layer1">
    <path
       id="path847"
       style="fill:#808080;stroke:#000000;stroke-width:0.264583px;stroke-linecap:butt;stroke-linejoin:miter;stroke-opacity:1"
       d="m 67.527683,162.65379 -2.736265,2.66806 -4.583184,-0.82114 -2.325955,2.66805 -4.03593,-0.20515 -3.76256,2.73626 -4.925283,-0.61598 -6.430097,1.09451 -4.788339,5.06222 -5.814632,2.4629 -1.094507,4.71961 -1.573546,1.71049 -1.094507,7.25072 -3.078366,2.53111 -1.094507,6.84093 -3.830773,1.16272 -2.052071,2.18901 -3.351734,2.05207 -2.5311121,3.28352 -3.215307,8.68784 -1.778185,1.09451 -1.641761,3.27473 0.67696,2.90215 -1.451073,2.03141 0.08992,4.44675 2.189015,1.84743 -1.026295,2.5306 1.778704,1.4366 -0.342099,1.84692 2.599325,0.6842 1.163236,2.39416 1.778703,-1.0945 2.1202841,1.02629 2.941423,-1.16272 0.273884,1.70997 2.257226,0.27337 0.273886,1.84744 -1.641761,1.84691 1.57303,2.12029 2.462901,1.4366 0.957564,3.07837 -0.439251,2.75383 1.644862,1.64435 -0.290423,2.70888 0.290423,2.03191 -1.741495,3.19206 -1.790073,1.55545 -0.820621,2.12081 3.967199,0.88935 0.273886,1.57303 2.80448,0.61598 0.205156,2.66754 3.078363,0.27388 0.410829,2.32544 2.39417,0.13694 2.052068,3.07837 -0.06821,3.48868 3.762045,-0.54726 2.736267,1.84692 1.846916,-1.98386 1.710489,0.13694 2.531113,-1.23145 1.709973,1.77871 2.257227,-0.41032 1.231447,1.57355 1.709976,-0.75292 1.573546,2.25774 1.915646,-0.61598 1.983341,1.84743 2.668053,-0.54725 1.641761,2.46238 1.983859,-0.75241 2.394169,1.98386 1.983857,-0.88935 1.778704,1.23145 2.941423,-1.09451 1.504818,1.4366 3.215306,1.02578 4.856552,-0.20516 2.59984,-1.64175 2.59933,0.88935 1.91512,-0.88935 1.7105,-0.61547 0.34209,-1.57355 h 2.80448 l 0.54725,-1.64176 1.70998,-0.54725 -0.27337,-1.91513 1.98386,-0.61598 -1.09451,-3.14658 1.98334,-0.13694 2.052594,-0.47853 -0.34209,-1.98386 h 2.25722 v -2.18901 l 1.84692,-0.0687 0.68419,-2.12028 2.4629,-0.13695 0.38189,-2.9502 1.35444,-1.06402 1.88659,0.14529 1.01556,-3.33786 -1.59587,-1.40261 0.0966,-2.56358 -1.1125,-2.03189 1.74116,-2.90215 -1.2092,-1.59608 1.59638,-2.51529 -0.61804,-3.09149 1.43959,-1.65343 0.0419,-1.90864 1.13769,-1.31134 -0.14693,-3.27184 1.60857,-2.3825 0.2132,-2.92343 3.24063,-3.38636 -0.58033,-6.52983 c 0,0 -3.04704,-4.88537 -3.33726,-5.22397 -0.29023,-0.33859 2.28565,-2.55023 2.28565,-2.55023 0,0 0.41044,-0.20567 1.64176,-1.30018 1.23132,-1.0945 0.13694,-2.87269 0.13694,-2.87269 l -3.96772,-2.94143 -4.37802,-5.47253 -0.75241,-2.4629 -0.88936,-4.51497 -0.61546,-1.50482 -3.42047,-7.38766 -1.64175,-5.88336 -2.73627,-0.20516 -1.231454,-2.46238 h -1.1627 l -1.16272,-2.46293 -1.77871,-0.54725 -0.41031,-2.73627 -1.84691,-1.29966 -0.6842,-1.98386 -3.01015,-1.09451 -0.88935,-2.73626 -3.28352,-0.54725 -0.61547,-2.18902 -2.53111,-1.29966 -2.59933,1.29966 -3.078361,-2.05207 -3.556889,0.41031 -2.394688,-2.18901 z m -4.356322,13.02401 3.192571,2.22467 5.901447,0.19379 6.771677,0.19327 5.90145,3.7729 3.86953,4.74028 4.15996,8.70696 -0.0966,2.41845 0.67696,6.28851 0.93173,4.67982 0.38757,1.78438 -1.36736,-0.36948 -0.9679,-1.59629 -4.83691,-2.3704 -2.6603,-0.58032 -3.09594,0.67696 h -1.83813 l -1.20923,1.11259 -1.740979,1.30587 -2.079977,-0.82217 -3.385841,2.9993 4.449858,0.87023 3.143999,-1.64435 3.38584,-1.01596 1.54822,-0.58032 3.53105,1.49965 c 0,0 0.53173,-0.19382 1.01545,0.0481 0.4837,0.24186 3.38635,1.8867 3.38635,1.8867 l 1.06402,1.88619 0.29042,0.58085 1.01854,0.42426 -1.2702,1.77147 2.66753,2.87269 -0.61546,1.23145 -0.6842,3.89899 0.0687,2.94194 -0.54725,5.60896 -2.94142,-0.27337 -3.35225,-0.82114 -1.91513,0.61598 -2.1208,-2.18901 -3.00964,-1.7787 -2.462898,2.32595 -2.462382,0.68368 H 72.24782 l -2.531112,0.0687 -1.778702,-1.16324 -2.394169,1.0263 -1.367875,-1.43661 c 0,0 -2.120871,2.73647 -2.4629,2.66806 -0.34203,-0.0684 -2.736266,-0.0687 -2.736266,-0.0687 l -1.162722,1.84743 -1.641758,-1.36839 -2.394169,3.76256 -4.104659,1.70997 -2.394169,2.1208 -1.299663,0.75241 -0.957564,-1.84691 0.205155,-1.57355 -1.573548,-1.23145 -0.06821,-2.80448 -2.531113,-2.80448 -1.299663,-1.64176 0.410314,-1.91564 -2.052072,-0.75241 0.410311,-2.87321 -1.504818,-1.36788 0.342099,-2.4629 -1.231451,-0.68419 0.547254,-1.64176 -1.710489,-2.73627 0.537432,-0.99271 c 0.580448,-0.9674 2.612245,-5.90093 2.612245,-5.90093 0,0 1.161079,-5.03059 0.774112,-5.12733 -0.386966,-0.0967 -2.418974,0 -2.418971,0 l -0.870233,-2.61225 -2.128552,1.45108 -0.967383,-3.38584 -1.934766,-0.58033 0.773597,-2.51509 4.257104,-6.48177 5.513877,-4.93407 1.838129,-2.61173 5.901449,-2.80551 8.513175,-3.09594 z m -3.143993,29.40906 -2.611729,0.87075 -4.111892,2.27376 c 0,0 -3.562025,1.62296 -3.391009,1.69137 0.171019,0.0684 0.581361,0.75241 0.581361,0.75241 l 3.293338,-1.18649 2.273763,-0.72554 5.175395,1.54823 4.159954,0.9188 2.225186,0.0966 3.385841,-3.04736 -2.467033,-0.82217 -1.160653,0.0486 -1.983341,-0.91932 -2.515092,-0.43512 z m 21.112918,6.37532 -3.830769,2.59933 0.307991,1.19682 1.094508,-0.0682 -0.0682,-0.75241 1.26555,-0.95756 0.85473,1.57303 3.62562,0.10284 2.39417,-0.71831 0.37621,0.85525 c 0,0 1.71036,1.19713 2.66805,1.0945 0.9577,-0.1026 0.41031,-1.26555 0.41031,-1.26555 l -2.05207,-1.7446 -3.42046,-1.53892 z m -21.27415,0.68368 -5.33559,1.4025 -3.283522,1.84691 0.410311,0.95757 3.180686,-1.36788 1.197342,1.67587 3.180684,-0.13694 -0.06821,-1.77819 1.128612,-0.61598 1.949752,1.7446 1.74408,-0.99219 0.479042,-1.0604 z"
       sodipodi:nodetypes="cccccccccccccccccccccccccccccccccccccccccccccccccccccccccccccccccccccccccccccccccccccccccccccccccccccccccccccccccccccscsccccccccccccccccccccccccccccccccccccccccccccccccccccsccccccccccccccccccccccscccccccccccccccccccccccccccccccccccccccsccccccccccccccccccccccsccccccccccccccccc" />
  </g>
</svg>
