<svg id="Black" xmlns="http://www.w3.org/2000/svg" viewBox="0 0 651.97 651.97"><path d="M519.18,66.8c-38.17,4.6-74.51,23.06-106.5,43.75-27.1,17.51-52.25,41.31-86.62,41.31-55.13,0-109.16-95.75-193.61-95.75-67.56,0-117.11,56.05-123.64,108.74-1,82.45-23.27,270.58,35.82,366.95,35,57.1,115.35,63.76,159.63,13.51,8.38-9.52,15.91-16.81,25.34-16.9,32.63,0,35.08,67.16,90.43,67.16,63.72,0,67.69-78.51,102.05-78.87,27.73.4,39.91,71.88,101.4,71.88C672,577,651.23,370.84,643.33,260.8,640.47,173.24,641.58,50.35,519.18,66.8Z"/></svg>