<?xml version="1.0" encoding="UTF-8" standalone="no"?>
<svg
   xmlns:dc="http://purl.org/dc/elements/1.1/"
   xmlns:cc="http://creativecommons.org/ns#"
   xmlns:rdf="http://www.w3.org/1999/02/22-rdf-syntax-ns#"
   xmlns:svg="http://www.w3.org/2000/svg"
   xmlns="http://www.w3.org/2000/svg"
   xmlns:sodipodi="http://sodipodi.sourceforge.net/DTD/sodipodi-0.dtd"
   xmlns:inkscape="http://www.inkscape.org/namespaces/inkscape"
   width="210mm"
   height="297mm"
   viewBox="0 0 210 297"
   version="1.1"
   id="svg8"
   inkscape:version="1.0.1 (3bc2e813f5, 2020-09-07)"
   sodipodi:docname="november2.svg">
  <defs
     id="defs2">
    <rect
       x="25.528934"
       y="27.076142"
       width="153.56041"
       height="70.784772"
       id="rect835" />
  </defs>
  <sodipodi:namedview
     id="base"
     pagecolor="#ffffff"
     bordercolor="#666666"
     borderopacity="1.0"
     inkscape:pageopacity="0.0"
     inkscape:pageshadow="2"
     inkscape:zoom="1.33684"
     inkscape:cx="248.08003"
     inkscape:cy="277.20965"
     inkscape:document-units="mm"
     inkscape:current-layer="layer1"
     inkscape:document-rotation="0"
     showgrid="false"
     inkscape:window-width="1920"
     inkscape:window-height="1137"
     inkscape:window-x="-8"
     inkscape:window-y="-8"
     inkscape:window-maximized="1" />
  <metadata
     id="metadata5">
    <rdf:RDF>
      <cc:Work
         rdf:about="">
        <dc:format>image/svg+xml</dc:format>
        <dc:type
           rdf:resource="http://purl.org/dc/dcmitype/StillImage" />
        <dc:title />
      </cc:Work>
    </rdf:RDF>
  </metadata>
  <g
     inkscape:label="Layer 1"
     inkscape:groupmode="layer"
     id="layer1">
    <path
       d="M 27.287109,45.322778 V 30.957544 h 0.3125 l 9.550782,10.996094 V 30.957544 h 1.416015 V 45.322778 H 38.244141 L 28.771484,34.463403 v 10.859375 z"
       style="font-style:normal;font-variant:normal;font-weight:normal;font-stretch:normal;font-size:20px;line-height:1.25;font-family:'Century Gothic';-inkscape-font-specification:'Century Gothic';letter-spacing:0px;word-spacing:0px;white-space:pre;fill:#000000;fill-opacity:1;stroke:none"
       id="path836" />
    <path
       d="m 48.917969,30.596216 q 3.261718,0 5.458984,2.177734 2.197266,2.177734 2.197266,5.361328 0,3.154297 -2.197266,5.351563 -2.1875,2.197265 -5.341797,2.197265 -3.193359,0 -5.390625,-2.1875 -2.197265,-2.1875 -2.197265,-5.292968 0,-2.070313 0.996093,-3.837891 1.00586,-1.767578 2.734375,-2.763672 1.728516,-1.005859 3.740235,-1.005859 z m 0.06836,1.40625 q -1.591797,0 -3.017578,0.830078 -1.425781,0.830078 -2.226563,2.236328 -0.800781,1.40625 -0.800781,3.134766 0,2.558593 1.767578,4.326171 1.777344,1.757813 4.277344,1.757813 1.669922,0 3.085938,-0.810547 1.425781,-0.810547 2.216796,-2.216797 0.800782,-1.40625 0.800782,-3.125 0,-1.708984 -0.800782,-3.085937 -0.791015,-1.386719 -2.236328,-2.216797 -1.445312,-0.830078 -3.066406,-0.830078 z"
       style="font-style:normal;font-variant:normal;font-weight:normal;font-stretch:normal;font-size:20px;line-height:1.25;font-family:'Century Gothic';-inkscape-font-specification:'Century Gothic';letter-spacing:0px;word-spacing:0px;white-space:pre;fill:#000000;fill-opacity:1;stroke:none"
       id="path838" />
    <path
       d="m 58.361328,30.957544 h 1.5625 l 4.755859,11.103515 4.84375,-11.103515 h 1.5625 l -6.25,14.365234 h -0.3125 z"
       style="font-style:normal;font-variant:normal;font-weight:normal;font-stretch:normal;font-size:20px;line-height:1.25;font-family:'Century Gothic';-inkscape-font-specification:'Century Gothic';letter-spacing:0px;word-spacing:0px;white-space:pre;fill:#000000;fill-opacity:1;stroke:none"
       id="path840" />
    <path
       d="m 73.507812,30.957544 h 8.232422 v 1.416015 h -6.796875 v 4.492188 h 6.738282 v 1.40625 h -6.738282 v 5.634766 h 6.738282 v 1.416015 h -8.173829 z"
       style="font-style:normal;font-variant:normal;font-weight:normal;font-stretch:normal;font-size:20px;line-height:1.25;font-family:'Century Gothic';-inkscape-font-specification:'Century Gothic';letter-spacing:0px;word-spacing:0px;white-space:pre;fill:#000000;fill-opacity:1;stroke:none"
       id="path842" />
    <path
       d="m 83.566406,45.322778 2.041016,-14.365234 h 0.234375 l 5.839844,11.787109 5.78125,-11.787109 h 0.234375 l 2.060546,14.365234 H 98.341797 L 96.935547,35.049341 91.857422,45.322778 H 91.496094 L 86.349609,34.971216 84.953125,45.322778 Z"
       style="font-style:normal;font-variant:normal;font-weight:normal;font-stretch:normal;font-size:20px;line-height:1.25;font-family:'Century Gothic';-inkscape-font-specification:'Century Gothic';letter-spacing:0px;word-spacing:0px;white-space:pre;fill:#000000;fill-opacity:1;stroke:none"
       id="path844" />
    <path
       d="m 102.63867,30.957544 h 2.83203 q 1.70899,0 2.62696,0.410156 0.91797,0.400391 1.44531,1.240234 0.53711,0.839844 0.53711,1.865235 0,0.957031 -0.46875,1.748047 -0.46875,0.78125 -1.37695,1.269531 1.12304,0.380859 1.72851,0.898437 0.60547,0.507813 0.9375,1.240235 0.3418,0.722656 0.3418,1.572265 0,1.728516 -1.26953,2.929688 -1.25977,1.191406 -3.38868,1.191406 h -3.94531 z m 1.40625,1.40625 v 4.599609 h 0.82031 q 1.49415,0 2.19727,-0.273437 0.70313,-0.283203 1.11328,-0.878907 0.41016,-0.605468 0.41016,-1.33789 0,-0.986328 -0.69336,-1.542969 -0.6836,-0.566406 -2.1875,-0.566406 z m 0,6.044922 v 5.507812 h 1.77735 q 1.57226,0 2.30468,-0.302734 0.73243,-0.3125 1.17188,-0.966797 0.44922,-0.654297 0.44922,-1.416016 0,-0.957031 -0.625,-1.669922 -0.625,-0.71289 -1.71875,-0.976562 -0.73242,-0.175781 -2.54883,-0.175781 z"
       style="font-style:normal;font-variant:normal;font-weight:normal;font-stretch:normal;font-size:20px;line-height:1.25;font-family:'Century Gothic';-inkscape-font-specification:'Century Gothic';letter-spacing:0px;word-spacing:0px;white-space:pre;fill:#000000;fill-opacity:1;stroke:none"
       id="path846" />
    <path
       d="m 114.09375,30.957544 h 8.23242 v 1.416015 h -6.79687 v 4.492188 h 6.73828 v 1.40625 h -6.73828 v 5.634766 h 6.73828 v 1.416015 h -8.17383 z"
       style="font-style:normal;font-variant:normal;font-weight:normal;font-stretch:normal;font-size:20px;line-height:1.25;font-family:'Century Gothic';-inkscape-font-specification:'Century Gothic';letter-spacing:0px;word-spacing:0px;white-space:pre;fill:#000000;fill-opacity:1;stroke:none"
       id="path848" />
    <path
       d="m 124.88477,30.957544 h 2.86132 q 2.39258,0 3.24219,0.195312 1.2793,0.292969 2.08008,1.259766 0.80078,0.957031 0.80078,2.363281 0,1.171875 -0.55664,2.060547 -0.54688,0.888672 -1.57227,1.347656 -1.02539,0.449219 -2.83203,0.458985 l 5.16602,6.679687 h -1.77735 l -5.15624,-6.679687 h -0.82032 v 6.679687 h -1.43554 z m 1.43554,1.40625 v 4.882812 l 2.47071,0.01953 q 1.43554,0 2.11914,-0.273438 0.69336,-0.273437 1.07421,-0.869141 0.39063,-0.605468 0.39063,-1.347656 0,-0.722656 -0.39063,-1.308594 -0.39062,-0.595703 -1.02539,-0.849609 -0.63476,-0.253906 -2.10937,-0.253906 z"
       style="font-style:normal;font-variant:normal;font-weight:normal;font-stretch:normal;font-size:20px;line-height:1.25;font-family:'Century Gothic';-inkscape-font-specification:'Century Gothic';letter-spacing:0px;word-spacing:0px;white-space:pre;fill:#000000;fill-opacity:1;stroke:none"
       id="path850" />
  </g>
</svg>
