<?xml version="1.0" encoding="UTF-8" standalone="no"?>
<svg
   xmlns:dc="http://purl.org/dc/elements/1.1/"
   xmlns:cc="http://creativecommons.org/ns#"
   xmlns:rdf="http://www.w3.org/1999/02/22-rdf-syntax-ns#"
   xmlns:svg="http://www.w3.org/2000/svg"
   xmlns="http://www.w3.org/2000/svg"
   xmlns:sodipodi="http://sodipodi.sourceforge.net/DTD/sodipodi-0.dtd"
   xmlns:inkscape="http://www.inkscape.org/namespaces/inkscape"
   width="210mm"
   height="297mm"
   viewBox="0 0 210 297"
   version="1.1"
   id="svg8"
   sodipodi:docname="sims_out.svg"
   inkscape:version="1.0.1 (3bc2e813f5, 2020-09-07)">
  <defs
     id="defs2" />
  <sodipodi:namedview
     id="base"
     pagecolor="#ffffff"
     bordercolor="#666666"
     borderopacity="1.0"
     inkscape:pageopacity="0.0"
     inkscape:pageshadow="2"
     inkscape:zoom="0.62443079"
     inkscape:cx="362.30089"
     inkscape:cy="550.8365"
     inkscape:document-units="mm"
     inkscape:current-layer="layer1"
     inkscape:document-rotation="0"
     showgrid="false"
     showborder="false"
     inkscape:object-nodes="false"
     inkscape:window-width="1920"
     inkscape:window-height="1137"
     inkscape:window-x="-8"
     inkscape:window-y="-8"
     inkscape:window-maximized="1" />
  <metadata
     id="metadata5">
    <rdf:RDF>
      <cc:Work
         rdf:about="">
        <dc:format>image/svg+xml</dc:format>
        <dc:type
           rdf:resource="http://purl.org/dc/dcmitype/StillImage" />
        <dc:title></dc:title>
      </cc:Work>
    </rdf:RDF>
  </metadata>
  <g
     inkscape:label="Layer 1"
     inkscape:groupmode="layer"
     id="layer1">
    <path
       id="path847"
       style="fill:#000000;fill-opacity:0.380531;stroke:#000000;stroke-width:0.999999px;stroke-linecap:butt;stroke-linejoin:miter;stroke-opacity:1"
       d="M 541.07227 -42.857422 L 533.21484 -30.714844 L 548.21484 -19.642578 L 558.92773 -25.714844 L 625.71484 -8.5722656 L 638.57227 1.0722656 L 632.85742 14.642578 L 622.14258 15 L 614.28516 3.2148438 L 598.92773 3.5722656 L 583.57227 14.642578 L 583.57227 4.6425781 L 570.35742 1.0722656 L 564.28516 8.2148438 L 541.07227 -5.3574219 L 493.21484 3.2148438 L 489.64258 15 L 475.71484 10.357422 L 467.5 19.285156 L 454.64258 16.427734 L 422.85742 30.714844 L 430.71484 45.357422 L 458.92773 36.427734 L 460.35742 40.357422 L 425 50.357422 L 415.35742 57.5 L 407.5 85.357422 L 412.85742 91.785156 L 387.85742 101.78516 L 385.35742 110 L 343.21484 124.28516 L 342.14258 140.71484 L 346.60938 144.45117 L 363.9082 143.94727 L 373.75586 137.88672 L 373.88281 133.33984 L 416.25 109.46484 L 421.42773 111.25 C 421.42773 111.25 419.28516 132.1423 419.28516 133.03516 C 419.28516 133.92801 420.35742 143.39258 420.35742 143.39258 L 431.25 170.89258 L 418.57227 190.35742 C 418.57227 190.35742 415.89202 198.75056 416.42773 199.46484 C 416.96344 200.17913 431.25 201.25 431.25 201.25 L 441.60742 196.42773 L 439.10742 205.71484 L 441.25 214.82227 L 427.32227 244.28516 L 418.57227 262.5 L 410.89258 278.92773 C 410.89258 278.92773 407.5 284.6437 407.5 287.32227 C 407.5 290.00084 409.28516 297.5 409.28516 297.5 L 401.25 310.17773 L 401.78516 326.42773 L 390.17773 340.53516 L 391.42773 347.5 L 385.53516 353.75 L 368.21484 369.10742 L 363.75 380.53516 L 354.82227 388.39258 L 353.39258 394.46484 L 349.10742 401.60742 L 346.25 409.64258 L 340.35742 413.57227 L 339.10742 422.32227 L 325.71484 431.07227 C 325.71484 431.07227 326.42913 434.82142 325.71484 435 C 325.00056 435.17877 316.42773 444.46484 316.42773 444.46484 L 317.5 446.78516 L 355.35742 432.85742 L 359.82227 425.17773 L 358.57227 417.14258 L 363.57227 411.78516 L 375.71484 389.46484 L 381.96484 380.71484 C 381.96484 380.71484 380.89258 387.4997 380.89258 388.39258 C 380.89258 389.28542 377.14258 399.64258 377.14258 399.64258 L 379.46484 404.46484 L 377.5 415 L 367.32227 421.78516 L 365.89258 428.57227 L 378.03516 423.21484 L 377.32227 435.71484 L 376.0293 447.75 L 378.30273 463.4082 L 380.17773 488.75 L 378.03516 506.96484 L 380.89258 520.89258 L 383.03516 535.35742 L 386.25 554.28516 L 389.28516 563.39258 L 393.21484 571.60742 L 395.89258 579.82227 L 394.7168 590.6875 L 393.45508 601.54492 L 387.64648 606.34375 L 385.625 619.72852 L 388.9082 626.79883 L 397.49414 623.26367 L 405.82812 612.15234 L 413.15234 604.82812 L 418.45508 624.02148 L 420.22266 638.66992 L 417.19336 651.80078 L 417.19336 665.94336 L 417.19336 678.06445 C 417.19336 678.06445 419.4668 681.09552 419.4668 682.86328 C 419.4668 684.63104 417.19336 692.45898 417.19336 692.45898 L 417.19336 696.5 L 416.94141 700.54102 L 419.4668 705.33984 L 415.17188 711.65234 L 417.19336 717.9668 L 415.35742 728.21484 L 413.57227 733.75 C 413.57227 733.75 416.25026 742.32086 416.60742 743.03516 C 416.96459 743.74941 417.85716 750.89317 418.75 751.60742 C 419.64288 752.32171 425.17828 754.46484 427.14258 754.46484 C 429.10687 754.46484 441.07227 748.21484 441.07227 748.21484 L 438.03516 741.42773 L 438.57227 730.71484 L 442.67773 730.71484 L 452.14258 728.57227 L 453.92773 715.35742 L 447.14258 697.14258 L 446.42773 678.21484 L 453.03516 674.64258 L 453.21484 654.28516 L 453.92773 630.17773 L 445 617.67773 L 445.98242 605.33398 L 440.93164 562.9082 L 430.83008 547.25 L 428.30469 504.57031 L 427.73828 495.89453 L 438.61523 494.37891 C 438.34078 495.20854 438.16197 495.86077 438.21484 496.07227 C 438.57201 497.50085 441.78516 507.14258 441.78516 507.14258 L 446.42773 511.78516 L 447.14258 531.78516 L 451.78516 559.28516 L 456.78516 582.85742 C 456.78516 582.85742 454.286 599.28655 457.85742 601.07227 L 462.85742 603.57227 L 476.07227 600.35742 L 479.64258 588.57227 L 473.57227 582.85742 L 467.85742 565.35742 L 470.35742 545.35742 L 464.64258 528.92773 L 466.26562 521.35547 L 467.70117 523.25977 L 481.33789 519.21875 L 487.65039 526.28906 L 505.32812 529.82422 L 517.70312 532.09766 L 544.72461 527.55273 L 563.41211 523.00586 L 586.14062 511.89453 L 609.87891 496.49023 L 624.26953 483.08398 L 625.03125 486.89258 L 626.29492 520.98633 L 623.76953 544.47266 L 617.70898 556.08984 L 617.70898 561.64453 L 612.15234 579.57422 L 609.87891 588.91797 L 608.36523 606.84961 L 606.34375 620.73828 L 602.55664 622.00195 L 599.52539 629.83008 L 603.06055 637.6582 L 605.58594 658.87109 L 610.13281 676.80273 L 606.59766 683.62109 L 618.21289 688.67188 L 628.82031 688.67188 L 630.33594 683.87305 L 627.05273 664.93359 L 621.49609 649.52734 L 623.51758 639.67969 L 623.51758 626.29492 L 623.76953 614.42578 L 623.76953 592.95898 L 627.55664 569.2207 L 636.39648 545.48242 L 644.98242 574.27148 L 648.26562 603.81836 C 648.26562 603.81836 648.76953 640.43652 648.76953 641.69922 C 648.76953 642.96188 642.45703 665.94336 642.45703 665.94336 L 644.98242 692.71289 L 641.69922 733.11914 L 637.40625 756.60352 L 638.41602 777.3125 L 633.87109 793.47461 L 621.74805 818.72852 L 618.71875 832.11328 L 624.27344 838.67969 L 632.86133 837.16406 L 642.45703 824.03125 L 644.47656 815.19336 L 648.01367 801.30273 L 649.52734 787.16211 L 649.78125 764.17969 L 649.78125 758.87695 L 653.56836 752.56445 L 650.53906 740.94727 L 654.83203 731.34961 L 657.35742 714.68359 L 656.59961 687.15625 L 656.09375 676.04492 L 659.88281 663.41797 L 661.14453 627.05273 L 663.66992 641.44727 L 667.71094 668.7207 L 675.53906 672.76172 L 676.13086 672.63867 L 673.01367 682.61133 L 665.94336 688.16602 L 673.51953 704.07617 L 675.03516 733.11914 L 680.33789 736.90625 L 688.67188 736.14844 L 694.98438 732.10742 L 695.49023 721.50195 L 688.16602 703.57031 L 686.65039 690.43945 L 687.91406 681.59961 L 691.95508 672.00391 L 693.72266 654.07422 L 688.92383 632.60742 L 678.82227 606.5957 L 668.7207 595.48438 L 671.07227 540.71484 L 683.92773 507.5 L 689.64258 478.92773 L 700 447.14258 L 708.92773 415 L 710.71484 401.42773 L 714.64258 389.28516 L 715 344.28516 L 707.85742 305.35742 L 712.14258 297.5 L 730.71484 290.35742 L 743.21484 274.28516 L 765.71484 241.78516 L 763.92773 220.35742 L 754.28516 208.92773 L 754.28516 200 L 742.85742 186.78516 L 751.07227 174.64258 L 747.14258 158.92773 L 737.5 155.71484 L 732.5 127.85742 L 745.35742 133.57227 L 749.28516 120.35742 L 736.07227 103.92773 L 738.92773 96.427734 L 755.71484 101.07227 L 757.5 86.072266 L 715 47.857422 L 709.28516 49.642578 L 693.21484 45.714844 L 682.14258 36.072266 L 669.28516 38.927734 L 655.71484 20 L 657.14258 4.6425781 L 654.64258 1.4277344 L 654.28516 -9.2851562 L 644.64258 -21.785156 L 585 -36.072266 L 580.71484 -41.427734 L 541.07227 -42.857422 z M 455.83203 56.316406 L 428.30469 76.519531 C 428.30469 75.509381 429.31503 63.134766 431.58789 63.134766 C 433.86071 63.134766 455.83203 56.316406 455.83203 56.316406 z M 565.59961 132.71094 L 576.60742 141.25 L 587.32227 138.57227 C 587.32227 138.57227 593.21455 144.64341 594.10742 145.71484 C 595.00026 146.78627 610.71484 147.32227 610.71484 147.32227 C 614.31644 152.12452 620.35742 163.21484 620.35742 163.21484 L 632.14258 162.14258 L 640.71484 168.39258 C 640.71484 168.39258 645.00055 181.24944 645.71484 181.78516 C 646.42914 182.32087 665.53571 184.64314 666.25 185.35742 C 666.35468 185.46211 667.8492 186.9943 668.44922 187.60742 L 673.21484 200.71484 L 668.57227 213.92773 L 672.85742 225 L 680.71484 232.85742 L 687.14258 236.07227 L 679.64258 251.78516 L 672.5 271.78516 L 671.42773 277.85742 L 674.64258 290.35742 L 672.14258 300 L 662.5 310.71484 L 656.78516 317.85742 L 647.75977 325.01562 L 647.00195 339.41211 L 644.47656 353.80664 L 639.17383 366.17969 L 633.36523 376.78711 L 626.29492 388.65625 L 616.19336 403.05078 L 610.63672 410.375 L 607.33008 415.57031 L 607.14258 415 L 598.92773 426.25 C 598.92773 426.25 593.21485 432.14313 591.96484 432.85742 C 590.71488 433.57168 578.03516 441.25 578.03516 441.25 L 590.35742 438.75 L 588.21484 451.42773 L 588.21484 459.64258 L 589.28516 467.14258 L 590 474.28516 L 588.21484 477.85742 L 580 483.21484 L 559.625 494.2168 L 541.18945 499.51953 L 528.81445 501.03516 L 515.93555 497.75195 L 506.08594 489.67188 L 503.56055 481.08594 L 499.51953 470.98438 L 497.5 464.92188 C 497.5 464.92188 479.64259 466.4294 474.64258 464.82227 C 472.60521 464.1674 467.56155 462.3736 462.28516 460.42969 L 462.85742 448.21484 L 460.71484 425 L 463.57227 420.35742 L 461.64062 403.55664 L 465.93359 397.24219 L 465.67969 385.37305 L 471.48828 377.54492 L 468.71094 363.15039 L 475.5293 344.71484 L 471.48828 332.33984 L 473.50977 316.42969 L 472.49805 301.53125 L 478.8125 277.53906 L 479.31836 267.68945 L 486.64062 257.08398 L 487.14648 242.18359 L 494.2168 233.84961 L 493.20703 225.76953 L 496.23828 221.98047 L 496.99609 206.82812 L 512.65234 170.96875 L 516.94531 167.9375 L 529.82422 152.5332 L 539.67383 140.41211 L 552.55273 134.85547 L 565.59961 132.71094 z M 509.875 144.95703 L 513.41016 145.46289 L 503.56055 158.59375 L 499.26758 166.42188 L 494.97461 175.51367 L 489.92383 180.81641 L 486.64062 189.4043 L 487.39844 194.95898 L 485.125 197.23242 L 485.88281 205.06055 L 484.51953 206.1875 C 481.6447 204.79377 478.57681 203.39258 477.85742 203.39258 C 476.607 203.39258 466.71775 205.34862 463.96875 205.89453 L 475.02344 185.36328 L 486.13672 170.96875 L 497.75195 155.31055 L 509.875 144.95703 z M 472.41602 211.78125 C 473.58008 211.74935 474.49881 211.79775 475 211.96484 C 476.2981 212.39754 478.21772 212.95135 479.85938 213.41211 L 479.57031 218.19336 L 475.5293 223.24414 L 475.5293 227.78906 L 470.98438 234.10352 L 468.71094 240.92188 L 469.2168 250.51758 L 466.4375 253.54883 L 461.96484 279.64258 L 458.86133 296.98438 L 454.06445 304.56055 L 455.57812 328.55273 L 450.52734 341.17969 L 454.31641 352.03906 L 449.76953 354.81641 L 452.80078 371.48438 L 449.51758 383.09961 L 452.04297 392.19141 L 447.24414 403.55664 L 449.01367 418.70898 C 449.01367 418.70898 444.21425 430.57774 444.4668 431.58789 C 444.71927 432.59804 449.26564 438.40625 449.26562 438.40625 L 446.46875 454.13672 C 445.69618 453.762 445.11205 453.44407 444.82031 453.21484 C 442.39105 451.30613 431.84698 442.2451 431.23438 441.71875 L 431.33594 441.4375 C 431.33594 441.4375 421.42774 431.78655 418.92773 421.07227 C 416.42773 410.35799 412.32226 373.92829 413.57227 355.89258 C 414.82227 337.85686 420.17832 299.28516 422.14258 290.53516 C 424.10687 281.78516 435.53489 258.03544 440.17773 252.14258 C 444.82062 246.24972 451.96484 232.32227 451.96484 232.32227 L 457.14258 218.57227 L 460.04102 213.19141 C 463.23122 212.6947 468.92382 211.87703 472.41602 211.78125 z M 591.30273 255.375 C 588.62221 255.23285 584.12109 256.57812 584.12109 256.57812 L 593.39258 262.14258 L 605.35742 268.03516 L 620.17773 276.96484 L 629.46484 285 C 629.46484 285 634.99941 296.60798 635.53516 297.32227 C 636.07087 298.03655 641.25 306.07227 641.25 306.07227 L 640.89258 299.10742 L 639.64258 290.53516 L 633.39258 278.57227 L 625.17773 268.21484 L 616.42773 264.28516 L 602.14258 256.42773 C 602.14258 256.42773 594.64369 256.24945 592.32227 255.53516 C 592.03208 255.44586 591.68567 255.39531 591.30273 255.375 z M 678.75391 331.91602 L 689.70508 337.08789 L 693.92773 345.35742 L 693.92773 357.14258 L 683.92773 375.35742 L 672.25586 396.23242 L 664.42773 400.01953 L 659.125 404.31445 L 652.05273 407.34375 L 642.96289 407.84961 L 632.60742 402.29297 L 631.07227 396.60742 L 630.78711 396.92578 L 630.83984 396.48438 L 632.10352 385.87891 L 638.16406 377.54492 L 653.06445 354.81641 L 656.85156 342.18945 L 660.55078 334.94922 C 660.55778 335.03992 660.5918 335.52344 660.5918 335.52344 L 668.45898 332.08398 L 678.75391 331.91602 z M 120.71289 378.55469 L 109.85352 381.83789 L 102.53125 381.33203 L 87.125 387.64648 L 66.669922 411.38477 L 58.083984 407.0918 L 49.285156 408.92773 L 44.642578 415.71484 L 44.285156 426.78516 L 48.572266 434.28516 L 50.714844 448.03516 L 51.015625 451.38867 L 44.951172 450.78125 L 35.861328 453.81055 L 34.597656 460.88281 L 36.617188 476.03516 L 37.375 492.19727 C 37.375 492.19727 38.6377 497.75237 39.900391 499.26758 C 41.163082 500.78283 50.255859 498.50977 50.255859 498.50977 L 54.214844 498.08594 L 54.285156 499.64258 L 53.75 525.89258 C 53.75 525.89258 58.570872 535.17773 61.785156 537.67773 C 64.999444 540.17774 78.214561 544.82057 79.107422 545.17773 C 80.000279 545.5349 134.28488 570.71513 138.92773 572.32227 C 143.57059 573.9294 181.6077 594.46399 184.46484 598.39258 C 187.32199 602.32113 189.28516 618.57227 189.28516 618.57227 L 191.42969 630.89258 C 195.53683 633.214 212.14258 641.96484 222.14258 641.96484 C 232.14258 641.96484 272.5 627.14258 272.5 627.14258 L 274.46484 622.85742 L 268.21484 601.42773 C 268.21484 601.42773 262.85798 585.17884 262.32227 584.10742 C 261.78655 583.036 261.78516 576.78516 261.78516 576.78516 L 260.17773 568.92773 L 259.46484 555.89258 L 252.5 544.82227 L 242.32227 533.92773 L 230 525.89258 L 206.25 509.10742 L 199.46484 508.39258 L 196.78516 502.85742 L 192.14258 501.25 L 192.14258 494.64258 L 188.75 491.96484 L 191.07227 477.14258 L 192.5 477.14258 L 192.14258 485.89258 L 195.53516 492.32227 L 199.82227 494.10742 L 212.32227 496.96484 L 218.92773 494.64258 L 223.03516 488.57227 L 221.96484 482.67773 L 211.25 471.07227 L 211.25 468.75 L 207.5 460.89258 L 209.46484 456.78516 L 205 448.39258 L 194.46484 443.39258 L 177.85742 428.39258 L 166.78516 427.5 C 166.78516 427.5 155.71457 423.57227 152.85742 423.57227 C 150.00028 423.57227 136.96484 423.21484 136.96484 423.21484 L 130.89258 420.53516 L 119.10742 419.64258 L 111.78516 421.60742 L 105 426.96484 L 102.14258 434.46484 L 97.5 447.85742 L 91.607422 433.21484 L 92.681641 429.56641 L 104.80273 411.89062 L 110.10742 411.38477 L 123.74414 406.08203 L 132.33008 400.52539 L 138.13867 390.67578 L 136.62305 385.12109 L 130.5625 378.55469 L 120.71289 378.55469 z M 676.29688 633.36523 L 680.08594 650.79102 L 680.58984 658.36719 L 679.22852 662.7207 L 672.76172 635.89062 L 676.29688 633.36523 z "
       transform="scale(0.26458333)" />
  </g>
</svg>
